<svg xmlns="http://www.w3.org/2000/svg" xmlns:xlink="http://www.w3.org/1999/xlink" width="106.16" height="106.16" viewBox="0 0 106.16 106.16">
  <defs>
    <filter id="Path_982547" x="0" y="0" width="106.16" height="106.16" filterUnits="userSpaceOnUse">
      <feOffset dy="3" input="SourceAlpha"/>
      <feGaussianBlur stdDeviation="3" result="blur"/>
      <feFlood flood-opacity="0.161"/>
      <feComposite operator="in" in2="blur"/>
      <feComposite in="SourceGraphic"/>
    </filter>
  </defs>
  <g id="Group_1225014" data-name="Group 1225014" transform="translate(-610.92 -1723.069)">
    <g id="Group_1224858" data-name="Group 1224858">
      <g id="Group_1206131" data-name="Group 1206131" transform="translate(0 -58.931)">
        <g id="Group_1203663" data-name="Group 1203663" transform="translate(0 -4797.878)">
          <g id="Group_1203345" data-name="Group 1203345" transform="translate(338.92 5174.875)">
            <g id="Group_1177900" data-name="Group 1177900" transform="translate(281 1411.003)">
              <g id="Group_1172010" data-name="Group 1172010" transform="translate(0)">
                <g id="Group_1171046" data-name="Group 1171046">
                  <g id="Group_1148525" data-name="Group 1148525">
                    <g transform="matrix(1, 0, 0, 1, -9, -6)" filter="url(#Path_982547)">
                      <g id="Path_982547-2" data-name="Path 982547" transform="translate(9 6)" fill="#e9f9fd">
                        <path d="M 44.0802001953125 86.660400390625 C 38.33124923706055 86.660400390625 32.75506210327148 85.53479766845703 27.50652503967285 83.31484985351562 C 22.43628692626953 81.17032623291016 17.88242530822754 78.09992218017578 13.97144985198975 74.18894958496094 C 10.06047534942627 70.27797698974609 6.99007511138916 65.72411346435547 4.845550060272217 60.65387344360352 C 2.625600099563599 55.40533828735352 1.500000238418579 49.82915115356445 1.500000238418579 44.0802001953125 C 1.500000238418579 38.33124923706055 2.625600099563599 32.75506210327148 4.845550060272217 27.50652503967285 C 6.99007511138916 22.43628692626953 10.06047534942627 17.88242530822754 13.97144985198975 13.97144985198975 C 17.88242530822754 10.06047534942627 22.43628692626953 6.99007511138916 27.50652503967285 4.845550060272217 C 32.75506210327148 2.625600099563599 38.33124923706055 1.500000238418579 44.0802001953125 1.500000238418579 C 49.82915115356445 1.500000238418579 55.40533828735352 2.625600099563599 60.65387344360352 4.845550060272217 C 65.72411346435547 6.99007511138916 70.27797698974609 10.06047534942627 74.18894958496094 13.97144985198975 C 78.09992218017578 17.88242530822754 81.17032623291016 22.43628692626953 83.31484985351562 27.50652503967285 C 85.53479766845703 32.75506210327148 86.660400390625 38.33124923706055 86.660400390625 44.0802001953125 C 86.660400390625 49.82915115356445 85.53479766845703 55.40533828735352 83.31484985351562 60.65387344360352 C 81.17032623291016 65.72411346435547 78.09992218017578 70.27797698974609 74.18894958496094 74.18894958496094 C 70.27797698974609 78.09992218017578 65.72411346435547 81.17032623291016 60.65387344360352 83.31484985351562 C 55.40533828735352 85.53479766845703 49.82915115356445 86.660400390625 44.0802001953125 86.660400390625 Z" stroke="none"/>
                        <path d="M 44.0802001953125 3 C 38.53308486938477 3 33.15349960327148 4.085746765136719 28.09085845947266 6.227058410644531 C 23.19941711425781 8.29595947265625 18.80581665039062 11.25841522216797 15.03211212158203 15.03211212158203 C 11.25841522216797 18.80581665039062 8.29595947265625 23.19941711425781 6.227058410644531 28.09085845947266 C 4.085746765136719 33.15349960327148 3 38.53308486938477 3 44.0802001953125 C 3 49.62731552124023 4.085746765136719 55.00691604614258 6.227058410644531 60.06954193115234 C 8.29595947265625 64.96098327636719 11.25841522216797 69.35458374023438 15.03211212158203 73.12828826904297 C 18.80581665039062 76.90198516845703 23.19941711425781 79.86444091796875 28.09085845947266 81.93334197998047 C 33.15349960327148 84.07466125488281 38.53308486938477 85.160400390625 44.0802001953125 85.160400390625 C 49.62731552124023 85.160400390625 55.00691604614258 84.07466125488281 60.06954193115234 81.93334197998047 C 64.96099853515625 79.86444091796875 69.35458374023438 76.90198516845703 73.12828826904297 73.12828826904297 C 76.90198516845703 69.35458374023438 79.86444091796875 64.96099853515625 81.93334197998047 60.06954193115234 C 84.07466125488281 55.00691604614258 85.160400390625 49.62731552124023 85.160400390625 44.0802001953125 C 85.160400390625 38.53308486938477 84.07466125488281 33.15349960327148 81.93334197998047 28.09085845947266 C 79.86444091796875 23.19941711425781 76.90198516845703 18.80581665039062 73.12828826904297 15.03211212158203 C 69.35458374023438 11.25841522216797 64.96098327636719 8.29595947265625 60.06954193115234 6.227058410644531 C 55.00691604614258 4.085746765136719 49.62731552124023 3 44.0802001953125 3 M 44.0802001953125 0 C 68.42502593994141 0 88.160400390625 19.73538970947266 88.160400390625 44.0802001953125 C 88.160400390625 68.42502593994141 68.42502593994141 88.160400390625 44.0802001953125 88.160400390625 C 19.73538970947266 88.160400390625 0 68.42502593994141 0 44.0802001953125 C 0 19.73538970947266 19.73538970947266 0 44.0802001953125 0 Z" stroke="none" fill="#1d7083"/>
                      </g>
                    </g>
                  </g>
                </g>
              </g>
            </g>
          </g>
        </g>
      </g>
      <g id="onboarding_14753055" transform="translate(625.434 1719.078)">
        <g id="Group_1224856" data-name="Group 1224856" transform="translate(7.5 31.68)">
          <circle id="Ellipse_11563" data-name="Ellipse 11563" cx="6.634" cy="6.634" r="6.634" transform="translate(5.15 3.688)" fill="#bb5d4c"/>
          <path id="Path_1090908" data-name="Path 1090908" d="M39.933,74.924h0a2.7,2.7,0,0,0-3.689.989L27.631,90.83a1.423,1.423,0,0,1-1.232.711H12.853A5.353,5.353,0,0,0,7.5,96.894v13a2.134,2.134,0,0,0,2.134,2.134h19.3a2.134,2.134,0,0,0,2.134-2.134V96.061a1.422,1.422,0,0,1,.191-.711l9.663-16.736A2.7,2.7,0,0,0,39.933,74.924Z" transform="translate(-7.5 -74.562)" fill="#86e8d0"/>
          <path id="Path_1090909" data-name="Path 1090909" d="M39.933,74.924h0a2.7,2.7,0,0,0-3.689.989L27.631,90.83a1.422,1.422,0,0,1-1.031.7V106.12a1.25,1.25,0,0,1-1.25,1.25H7.5v2.521a2.134,2.134,0,0,0,2.134,2.134h19.3a2.134,2.134,0,0,0,2.134-2.134V96.061a1.422,1.422,0,0,1,.191-.711l9.663-16.736A2.7,2.7,0,0,0,39.933,74.924Z" transform="translate(-7.5 -74.562)" fill="#5de1c4"/>
          <g id="Group_1224853" data-name="Group 1224853" transform="translate(28.348 0)">
            <circle id="Ellipse_11564" data-name="Ellipse 11564" cx="6.634" cy="6.634" r="6.634" transform="translate(15.365 3.688)" fill="#ffdfcf"/>
            <path id="Path_1090910" data-name="Path 1090910" d="M235.609,74.924h0a2.7,2.7,0,0,1,3.689.989l8.612,14.917a1.423,1.423,0,0,0,1.232.711h13.546a5.353,5.353,0,0,1,5.353,5.353v13a2.134,2.134,0,0,1-2.134,2.134h-19.3a2.134,2.134,0,0,1-2.134-2.134V96.061a1.422,1.422,0,0,0-.191-.711l-9.663-16.736A2.7,2.7,0,0,1,235.609,74.924Z" transform="translate(-234.258 -74.562)" fill="#d9b1ee"/>
            <g id="Group_1224852" data-name="Group 1224852" transform="translate(10.215 17.042)">
              <path id="Path_1090911" data-name="Path 1090911" d="M335.009,210.882V225.4a1.25,1.25,0,0,1-1.25,1.25H315.973v2.521a2.134,2.134,0,0,0,2.134,2.134h19.3a2.134,2.134,0,0,0,2.134-2.134v-13A5.354,5.354,0,0,0,335.009,210.882Z" transform="translate(-315.973 -210.882)" fill="#cb97e7"/>
            </g>
          </g>
          <g id="Group_1224854" data-name="Group 1224854" transform="translate(17.038 23.435)">
            <path id="Path_1090912" data-name="Path 1090912" d="M171.846,277.952v-3.8a1.15,1.15,0,0,0-1.15-1.15h-1.866a1.157,1.157,0,0,1-1.078-.751q-.1-.273-.223-.539a1.157,1.157,0,0,1,.231-1.294l1.319-1.319a1.15,1.15,0,0,0,0-1.626l-2.684-2.684a1.15,1.15,0,0,0-1.626,0l-1.319,1.319a1.157,1.157,0,0,1-1.294.231q-.266-.119-.539-.223a1.157,1.157,0,0,1-.751-1.078v-1.866a1.15,1.15,0,0,0-1.15-1.15h-3.8a1.15,1.15,0,0,0-1.15,1.15v1.866a1.157,1.157,0,0,1-.751,1.078q-.273.1-.539.223a1.157,1.157,0,0,1-1.294-.231l-1.319-1.319a1.15,1.15,0,0,0-1.626,0l-2.684,2.684a1.15,1.15,0,0,0,0,1.626l1.319,1.319a1.157,1.157,0,0,1,.231,1.294q-.119.266-.223.539a1.157,1.157,0,0,1-1.078.751h-1.866a1.15,1.15,0,0,0-1.15,1.15v3.8a1.15,1.15,0,0,0,1.15,1.15h1.866a1.157,1.157,0,0,1,1.078.751q.1.273.223.539a1.157,1.157,0,0,1-.231,1.294l-1.319,1.319a1.15,1.15,0,0,0,0,1.626l2.684,2.684a1.15,1.15,0,0,0,1.626,0L152.187,286a1.157,1.157,0,0,1,1.294-.231q.266.119.539.223a1.157,1.157,0,0,1,.751,1.078v1.866a1.15,1.15,0,0,0,1.15,1.15h3.8a1.15,1.15,0,0,0,1.15-1.15v-1.866a1.157,1.157,0,0,1,.751-1.078q.273-.1.539-.223a1.157,1.157,0,0,1,1.294.231l1.319,1.319a1.15,1.15,0,0,0,1.626,0l2.684-2.684a1.15,1.15,0,0,0,0-1.626l-1.319-1.319a1.157,1.157,0,0,1-.231-1.294q.119-.266.223-.539a1.157,1.157,0,0,1,1.078-.751H170.7A1.15,1.15,0,0,0,171.846,277.952Z" transform="translate(-143.791 -262.026)" fill="#a79ba7"/>
            <path id="Path_1090913" data-name="Path 1090913" d="M213.152,322.988H209.16a1.587,1.587,0,0,0-1.122.465l-2.823,2.823a1.587,1.587,0,0,0-.465,1.122v3.993a1.587,1.587,0,0,0,.465,1.122l2.823,2.823a1.587,1.587,0,0,0,1.122.465h3.993a1.587,1.587,0,0,0,1.122-.465l2.823-2.823a1.587,1.587,0,0,0,.465-1.122V327.4a1.587,1.587,0,0,0-.465-1.122l-2.823-2.823A1.587,1.587,0,0,0,213.152,322.988Z" transform="translate(-197.128 -315.367)" fill="#7a6d79"/>
            <circle id="Ellipse_11565" data-name="Ellipse 11565" cx="2.777" cy="2.777" r="2.777" transform="translate(11.251 11.251)" fill="#685e68"/>
            <path id="Path_1090914" data-name="Path 1090914" d="M239,354.242a2.772,2.772,0,0,1-3.8,3.465,2.775,2.775,0,1,0,3.8-3.465Z" transform="translate(-223.767 -342.714)" fill="#554e56"/>
          </g>
          <path id="Path_1090915" data-name="Path 1090915" d="M233.137,331.912l-2.483-2.483a7.3,7.3,0,0,1-6.5,10.625,7.349,7.349,0,0,1-1.071-.079l1,1a1.587,1.587,0,0,0,1.122.465h3.993a1.587,1.587,0,0,0,1.122-.465l2.823-2.823a1.587,1.587,0,0,0,.465-1.122v-3.993A1.588,1.588,0,0,0,233.137,331.912Z" transform="translate(-196.129 -297.567)" fill="#7a6d79"/>
          <g id="Group_1224855" data-name="Group 1224855" transform="translate(27.649 25.865)">
            <path id="Path_1090916" data-name="Path 1090916" d="M244.965,290.012H243.1a1.157,1.157,0,0,1-1.078-.751q-.1-.273-.223-.539a1.158,1.158,0,0,1,.231-1.294l1.319-1.319a1.15,1.15,0,0,0,0-1.626l-2.684-2.684a1.15,1.15,0,0,0-1.626,0l-1.243,1.243a12.569,12.569,0,0,1-9.124,20.194,1.143,1.143,0,0,1,.368.836v1.866a1.15,1.15,0,0,0,1.15,1.15h3.8a1.15,1.15,0,0,0,1.15-1.15v-1.866a1.157,1.157,0,0,1,.751-1.078q.273-.1.539-.223a1.157,1.157,0,0,1,1.294.231l1.319,1.319a1.15,1.15,0,0,0,1.626,0l2.684-2.684a1.15,1.15,0,0,0,0-1.626l-1.319-1.319a1.157,1.157,0,0,1-.231-1.294q.119-.266.223-.539a1.157,1.157,0,0,1,1.078-.751h1.866a1.15,1.15,0,0,0,1.15-1.15v-3.8A1.15,1.15,0,0,0,244.965,290.012Z" transform="translate(-228.671 -281.462)" fill="#918291"/>
          </g>
          <path id="Path_1090917" data-name="Path 1090917" d="M70.138,104.065c-.049,0-.1,0-.145,0a6.631,6.631,0,0,1-4.374,11.486,6.633,6.633,0,1,0,4.519-11.489Z" transform="translate(-58.353 -100.377)" fill="#a44f3e"/>
          <path id="Path_1090918" data-name="Path 1090918" d="M378.611,104.065c-.049,0-.1,0-.145,0a6.631,6.631,0,0,1-4.374,11.486,6.634,6.634,0,1,0,4.519-11.489Z" transform="translate(-328.263 -100.377)" fill="#ffcebf"/>
        </g>
        <g id="Group_1224857" data-name="Group 1224857" transform="translate(7.5 25.553)">
          <path id="Path_1090919" data-name="Path 1090919" d="M79.264,259l-4.643,5.688-2.858-3.262" transform="translate(-63.729 -229.816)" fill="none" stroke="#000" stroke-linecap="round" stroke-linejoin="round" stroke-miterlimit="10" stroke-width="1.5"/>
          <path id="Path_1090920" data-name="Path 1090920" d="M387.738,259l-4.643,5.688-2.857-3.262" transform="translate(-333.64 -229.816)" fill="none" stroke="#000" stroke-linecap="round" stroke-linejoin="round" stroke-miterlimit="10" stroke-width="1.5"/>
          <line id="Line_719" data-name="Line 719" x1="2.011" transform="translate(20.623 10.443)" fill="none" stroke="#000" stroke-linecap="round" stroke-linejoin="round" stroke-miterlimit="10" stroke-width="1.5"/>
          <line id="Line_720" data-name="Line 720" x1="1.741" y1="1.005" transform="translate(22.022 5.221)" fill="none" stroke="#000" stroke-linecap="round" stroke-linejoin="round" stroke-miterlimit="10" stroke-width="1.5"/>
          <line id="Line_721" data-name="Line 721" x1="1.005" y1="1.741" transform="translate(25.844 1.399)" fill="none" stroke="#000" stroke-linecap="round" stroke-linejoin="round" stroke-miterlimit="10" stroke-width="1.5"/>
          <line id="Line_722" data-name="Line 722" y1="2.011" transform="translate(31.066 0)" fill="none" stroke="#000" stroke-linecap="round" stroke-linejoin="round" stroke-miterlimit="10" stroke-width="1.5"/>
          <line id="Line_723" data-name="Line 723" y1="1.741" x2="1.005" transform="translate(35.282 1.399)" fill="none" stroke="#000" stroke-linecap="round" stroke-linejoin="round" stroke-miterlimit="10" stroke-width="1.5"/>
          <line id="Line_724" data-name="Line 724" y1="1.005" x2="1.741" transform="translate(38.368 5.221)" fill="none" stroke="#000" stroke-linecap="round" stroke-linejoin="round" stroke-miterlimit="10" stroke-width="1.5"/>
          <line id="Line_725" data-name="Line 725" x2="2.011" transform="translate(39.498 10.443)" fill="none" stroke="#000" stroke-linecap="round" stroke-linejoin="round" stroke-miterlimit="10" stroke-width="1.5"/>
          <circle id="Ellipse_11566" data-name="Ellipse 11566" cx="6.634" cy="6.634" r="6.634" transform="translate(5.15 9.815)" fill="none" stroke="#000" stroke-linecap="round" stroke-linejoin="round" stroke-miterlimit="10" stroke-width="1.5"/>
          <circle id="Ellipse_11567" data-name="Ellipse 11567" cx="6.634" cy="6.634" r="6.634" transform="translate(43.713 9.815)" fill="none" stroke="#000" stroke-linecap="round" stroke-linejoin="round" stroke-miterlimit="10" stroke-width="1.5"/>
          <path id="Path_1090921" data-name="Path 1090921" d="M36.046,88.108l-8.415,14.575a1.423,1.423,0,0,1-1.232.711H12.853A5.353,5.353,0,0,0,7.5,108.747v1.85" transform="translate(-7.5 -80.288)" fill="none" stroke="#000" stroke-linecap="round" stroke-linejoin="round" stroke-miterlimit="10" stroke-width="1.5"/>
          <path id="Path_1090922" data-name="Path 1090922" d="M196.027,157.376v-4.4a1.422,1.422,0,0,1,.191-.711l7.307-12.656" transform="translate(-172.459 -125.351)" fill="none" stroke="#000" stroke-linejoin="round" stroke-miterlimit="10" stroke-width="1.5"/>
          <path id="Path_1090923" data-name="Path 1090923" d="M7.5,303v6.772a2.134,2.134,0,0,0,2.134,2.134h14.9" transform="translate(-7.5 -268.315)" fill="none" stroke="#000" stroke-linecap="round" stroke-linejoin="round" stroke-miterlimit="10" stroke-width="1.5"/>
          <path id="Path_1090924" data-name="Path 1090924" d="M171.846,277.952v-3.8a1.15,1.15,0,0,0-1.15-1.15h-1.866a1.157,1.157,0,0,1-1.078-.751q-.1-.273-.223-.539a1.157,1.157,0,0,1,.231-1.294l1.319-1.319a1.15,1.15,0,0,0,0-1.626l-2.684-2.684a1.15,1.15,0,0,0-1.626,0l-1.319,1.319a1.157,1.157,0,0,1-1.294.231q-.266-.119-.539-.223a1.157,1.157,0,0,1-.751-1.078v-1.866a1.15,1.15,0,0,0-1.15-1.15h-3.8a1.15,1.15,0,0,0-1.15,1.15v1.866a1.157,1.157,0,0,1-.751,1.078q-.273.1-.539.223a1.157,1.157,0,0,1-1.294-.231l-1.319-1.319a1.15,1.15,0,0,0-1.626,0l-2.684,2.684a1.15,1.15,0,0,0,0,1.626l1.319,1.319a1.157,1.157,0,0,1,.231,1.294q-.119.266-.223.539a1.157,1.157,0,0,1-1.078.751h-1.866a1.15,1.15,0,0,0-1.15,1.15v3.8a1.15,1.15,0,0,0,1.15,1.15h1.866a1.157,1.157,0,0,1,1.078.751q.1.273.223.539a1.157,1.157,0,0,1-.231,1.294l-1.319,1.319a1.15,1.15,0,0,0,0,1.626l2.684,2.684a1.15,1.15,0,0,0,1.626,0L152.187,286a1.157,1.157,0,0,1,1.294-.231q.266.119.539.223a1.157,1.157,0,0,1,.751,1.078v1.866a1.15,1.15,0,0,0,1.15,1.15h3.8a1.15,1.15,0,0,0,1.15-1.15v-1.866a1.157,1.157,0,0,1,.751-1.078q.273-.1.539-.223a1.157,1.157,0,0,1,1.294.231l1.319,1.319a1.15,1.15,0,0,0,1.626,0l2.684-2.684a1.15,1.15,0,0,0,0-1.626l-1.319-1.319a1.157,1.157,0,0,1-.231-1.294q.119-.266.223-.539a1.157,1.157,0,0,1,1.078-.751H170.7A1.15,1.15,0,0,0,171.846,277.952Z" transform="translate(-126.753 -232.464)" fill="none" stroke="#000" stroke-linecap="round" stroke-linejoin="round" stroke-miterlimit="10" stroke-width="1.5"/>
          <path id="Path_1090925" data-name="Path 1090925" d="M204.79,331.49a1.586,1.586,0,0,0,.46,1.023l2.823,2.823a1.587,1.587,0,0,0,1.122.465h3.993a1.588,1.588,0,0,0,1.122-.465l2.823-2.823a1.587,1.587,0,0,0,.465-1.122V327.4a1.587,1.587,0,0,0-.465-1.122l-2.823-2.823a1.587,1.587,0,0,0-1.122-.465H209.2a1.587,1.587,0,0,0-1.122.465l-2.823,2.823a1.586,1.586,0,0,0-.438.839" transform="translate(-180.126 -285.804)" fill="none" stroke="#000" stroke-linecap="round" stroke-linejoin="round" stroke-miterlimit="10" stroke-width="1.5"/>
          <circle id="Ellipse_11568" data-name="Ellipse 11568" cx="2.777" cy="2.777" r="2.777" transform="translate(28.289 40.813)" fill="none" stroke="#000" stroke-linecap="round" stroke-linejoin="round" stroke-miterlimit="10" stroke-width="1.5"/>
          <path id="Path_1090926" data-name="Path 1090926" d="M313.963,169.425h14.9A2.134,2.134,0,0,0,331,167.291v-13a5.353,5.353,0,0,0-5.353-5.353H312.1a1.422,1.422,0,0,1-1.232-.711l-4.657-8.067" transform="translate(-268.869 -125.834)" fill="none" stroke="#000" stroke-linecap="round" stroke-linejoin="round" stroke-miterlimit="10" stroke-width="1.5"/>
          <path id="Path_1090927" data-name="Path 1090927" d="M241.066,78.974,239.3,75.913a2.7,2.7,0,0,0-3.689-.989h0a2.7,2.7,0,0,0-.989,3.689l9.663,16.736a1.422,1.422,0,0,1,.191.711v4.4" transform="translate(-205.911 -68.435)" fill="none" stroke="#000" stroke-linecap="round" stroke-linejoin="round" stroke-miterlimit="10" stroke-width="1.5"/>
        </g>
      </g>
    </g>
  </g>
</svg>
