<svg xmlns="http://www.w3.org/2000/svg" xmlns:xlink="http://www.w3.org/1999/xlink" width="108" height="108" viewBox="0 0 108 108">
  <defs>
    <filter id="Path_904820" x="0" y="0" width="108" height="108" filterUnits="userSpaceOnUse">
      <feOffset dy="3" input="SourceAlpha"/>
      <feGaussianBlur stdDeviation="3" result="blur"/>
      <feFlood flood-opacity="0.161"/>
      <feComposite operator="in" in2="blur"/>
      <feComposite in="SourceGraphic"/>
    </filter>
  </defs>
  <g id="Group_1224996" data-name="Group 1224996" transform="translate(-620 -462)">
    <g id="Group_1222602" data-name="Group 1222602">
      <g id="Group_1203794" data-name="Group 1203794" transform="translate(0 -419)">
        <g id="Group_1203639" data-name="Group 1203639" transform="translate(0 81)">
          <g id="Group_1202437" data-name="Group 1202437" transform="translate(0.523 386.813)">
            <g id="Group_1177315" data-name="Group 1177315" transform="translate(-0.523 -112.813)">
              <g id="Group_1173585" data-name="Group 1173585" transform="translate(629 532)">
                <g id="Group_1173428" data-name="Group 1173428" transform="translate(0 0)">
                  <g id="Group_1171958" data-name="Group 1171958">
                    <g id="Group_1167341" data-name="Group 1167341">
                      <g id="Group_1166792" data-name="Group 1166792">
                        <g transform="matrix(1, 0, 0, 1, -9, -6)" filter="url(#Path_904820)">
                          <g id="Path_904820-2" data-name="Path 904820" transform="translate(9 6)" fill="#e9f9fd">
                            <path d="M 44.99999618530273 88.49999237060547 C 39.12687301635742 88.49999237060547 33.43022155761719 87.35006713867188 28.06829643249512 85.08216857910156 C 22.88852119445801 82.89130401611328 18.23629570007324 79.75457763671875 14.24084663391113 75.75914001464844 C 10.24540901184082 71.76369476318359 7.108683586120605 67.11146545410156 4.917821407318115 61.93169403076172 C 2.649921178817749 56.56976699829102 1.499996185302734 50.87311553955078 1.499996185302734 44.99999237060547 C 1.499996185302734 39.12686920166016 2.649921178817749 33.43021774291992 4.917821407318115 28.06829261779785 C 7.108683586120605 22.88851737976074 10.24540901184082 18.23630523681641 14.24084663391113 14.24085521697998 C 18.23629570007324 10.24540519714355 22.88852119445801 7.108692169189453 28.06829643249512 4.917829990386963 C 33.43022155761719 2.649929761886597 39.12687301635742 1.500004887580872 44.99999618530273 1.500004887580872 C 50.87311935424805 1.500004887580872 56.56977081298828 2.649929761886597 61.93169784545898 4.917829990386963 C 67.11147308349609 7.108692169189453 71.76369476318359 10.24540519714355 75.75914764404297 14.24085521697998 C 79.75458526611328 18.23630523681641 82.89131164550781 22.88851737976074 85.08216857910156 28.06829261779785 C 87.35007476806641 33.43021774291992 88.5 39.12686920166016 88.5 44.99999237060547 C 88.5 50.87311553955078 87.35007476806641 56.56976699829102 85.08216857910156 61.93169403076172 C 82.89131164550781 67.11146545410156 79.75458526611328 71.76369476318359 75.75914764404297 75.75914001464844 C 71.76369476318359 79.75457763671875 67.11147308349609 82.89130401611328 61.93169784545898 85.08216857910156 C 56.56977081298828 87.35006713867188 50.87311935424805 88.49999237060547 44.99999618530273 88.49999237060547 Z" stroke="none"/>
                            <path d="M 44.99999618530273 2.999992370605469 C 39.32870864868164 2.999992370605469 33.82865142822266 4.11004638671875 28.65262603759766 6.299331665039062 C 23.65165710449219 8.414566040039062 19.15968322753906 11.44333648681641 15.301513671875 15.30150604248047 C 11.44333648681641 19.15967559814453 8.414566040039062 23.65164947509766 6.299339294433594 28.65262222290039 C 4.110054016113281 33.82864761352539 2.999992370605469 39.32870483398438 2.999992370605469 44.99999237060547 C 2.999992370605469 50.67127990722656 4.110054016113281 56.17132186889648 6.299339294433594 61.34736633300781 C 8.414566040039062 66.34833526611328 11.44333648681641 70.84029388427734 15.301513671875 74.69846343994141 C 19.15968322753906 78.55663299560547 23.65165710449219 81.58540344238281 28.65262603759766 83.70063781738281 C 33.82865142822266 85.88992309570312 39.32870864868164 86.99997711181641 44.99999618530273 86.99997711181641 C 50.67128372192383 86.99997711181641 56.17134094238281 85.88992309570312 61.34736633300781 83.70063781738281 C 66.34834289550781 81.58540344238281 70.84030914306641 78.55663299560547 74.69847869873047 74.69846343994141 C 78.55665588378906 70.84029388427734 81.58542633056641 66.34833526611328 83.70065307617188 61.34736633300781 C 85.88993835449219 56.17132186889648 87 50.67127990722656 87 44.99999237060547 C 87 39.32870483398438 85.88993835449219 33.82864761352539 83.70065307617188 28.65262222290039 C 81.58542633056641 23.65164947509766 78.55665588378906 19.15967559814453 74.69847869873047 15.30150604248047 C 70.84030914306641 11.44333648681641 66.34834289550781 8.414566040039062 61.34736633300781 6.299331665039062 C 56.17134094238281 4.11004638671875 50.67128372192383 2.999992370605469 44.99999618530273 2.999992370605469 M 44.99999618530273 -7.62939453125e-06 C 69.85281372070312 -7.62939453125e-06 90 20.14717864990234 90 44.99999237060547 C 90 69.85279083251953 69.85281372070312 89.99997711181641 44.99999618530273 89.99997711181641 C 20.14717864990234 89.99997711181641 -7.62939453125e-06 69.85279083251953 -7.62939453125e-06 44.99999237060547 C -7.62939453125e-06 20.14717864990234 20.14717864990234 -7.62939453125e-06 44.99999618530273 -7.62939453125e-06 Z" stroke="none" fill="#1d7083"/>
                          </g>
                        </g>
                      </g>
                    </g>
                  </g>
                </g>
              </g>
            </g>
          </g>
        </g>
      </g>
      <g id="motivation_5506565" transform="translate(646.652 484.516)">
        <g id="Group_1222600" data-name="Group 1222600" transform="translate(1.887 1.887)">
          <path id="Path_1087238" data-name="Path 1087238" d="M12.133,36.192,2,39.569,3.773,44l11.034-4.013" transform="translate(-2 -5.878)" fill="#c43535"/>
          <path id="Path_1087239" data-name="Path 1087239" d="M11.752,36.335,2,39.585l.939,2.347L13.533,38.4" transform="translate(-2 -5.894)" fill="#dc4a4a"/>
          <path id="Path_1087240" data-name="Path 1087240" d="M41,24H55.185v9.752H41Z" transform="translate(-6.423 -4.495)" fill="#777"/>
          <path id="Path_1087241" data-name="Path 1087241" d="M43,28.433a3.547,3.547,0,0,0,3.546,3.546h8.866V24H43Z" transform="translate(-6.65 -4.495)" fill="#969696"/>
          <path id="Path_1087242" data-name="Path 1087242" d="M26.83,35.087l8.13,6.1,16.845-7.092.887,2.66,5.32-7.093L49.145,27l.887,2.661-14.187,6.2-6.419-5.136" transform="translate(-4.816 -4.835)" fill="#c43535"/>
          <g id="Group_1222599" data-name="Group 1222599">
            <g id="Group_1222598" data-name="Group 1222598">
              <path id="Path_1087243" data-name="Path 1087243" d="M28.575,32.925l7.47,5.6,22.165-8.865L49.343,27l.887,2.661L36.045,35.866l-4.624-3.687" transform="translate(-5.014 -4.835)" fill="#dc4a4a"/>
              <path id="Path_1087244" data-name="Path 1087244" d="M55.959,50.752V47.206H54.84a7.064,7.064,0,0,0-.755-1.825l.791-.791-2.507-2.507-.791.791a7.051,7.051,0,0,0-1.825-.755V41H46.206v1.119a7.064,7.064,0,0,0-1.825.755l-.791-.791-2.507,2.507.791.791a7.051,7.051,0,0,0-.755,1.825H40v3.546h1.119a7.064,7.064,0,0,0,.755,1.825l-.791.791,2.507,2.507.791-.791a7.051,7.051,0,0,0,1.825.755v1.119h3.546V55.84a7.064,7.064,0,0,0,1.825-.755l.791.791,2.507-2.507-.791-.791a7.039,7.039,0,0,0,.755-1.825Z" transform="translate(-6.31 -6.423)" fill="#e7b541"/>
              <path id="Path_1087245" data-name="Path 1087245" d="M54.425,45.382l.791-.791-2.507-2.507-.791.791a7.051,7.051,0,0,0-1.825-.755V41H46.546v1.119a7.064,7.064,0,0,0-1.825.755l-.791-.791-.428.428A8.847,8.847,0,0,0,54.787,53.8l.428-.428-.791-.791a7.039,7.039,0,0,0,.755-1.825H56.3V47.206H55.18a7.064,7.064,0,0,0-.755-1.825Z" transform="translate(-6.65 -6.423)" fill="#f9cb6e"/>
              <path id="Path_1087246" data-name="Path 1087246" d="M55.959,3.773V9.394a12.11,12.11,0,0,1-3.546,8.564H43.546l-1.117-1.117A8.294,8.294,0,0,1,40,10.972a4.186,4.186,0,0,1,.443-1.88,4.186,4.186,0,0,0,.443-1.88V4.66a3.242,3.242,0,0,1,.887.115v-1A1.786,1.786,0,0,1,43.546,2,1.778,1.778,0,0,1,45.32,3.773,1.786,1.786,0,0,1,47.093,2a1.778,1.778,0,0,1,1.773,1.773A1.786,1.786,0,0,1,50.639,2a1.778,1.778,0,0,1,1.773,1.773A1.786,1.786,0,0,1,54.185,2a1.778,1.778,0,0,1,1.773,1.773Z" transform="translate(-6.31 -2)" fill="#eeb9ad"/>
              <path id="Path_1087247" data-name="Path 1087247" d="M54.132,13.188l.019-.043a12.1,12.1,0,0,0,.921-4.637V2.986a1.946,1.946,0,0,0-.2-.848A1.764,1.764,0,0,0,54.185,2a1.786,1.786,0,0,0-1.773,1.773A1.778,1.778,0,0,0,50.639,2a1.786,1.786,0,0,0-1.773,1.773A1.778,1.778,0,0,0,47.093,2,1.786,1.786,0,0,0,45.32,3.773,1.778,1.778,0,0,0,43.546,2a1.786,1.786,0,0,0-1.773,1.773v1a3.242,3.242,0,0,0-.887-.115V7.213a4.186,4.186,0,0,1-.443,1.88A4.186,4.186,0,0,0,40,10.972a8.294,8.294,0,0,0,2.429,5.869l.231.231h5.445a6.5,6.5,0,0,0,6.027-3.884Z" transform="translate(-6.31 -2)" fill="#ffe2d5"/>
              <path id="Path_1087248" data-name="Path 1087248" d="M54.3,2a1.786,1.786,0,0,0-1.773,1.773A1.778,1.778,0,0,0,50.752,2a1.786,1.786,0,0,0-1.773,1.773A1.778,1.778,0,0,0,47.206,2a1.786,1.786,0,0,0-1.773,1.773A1.778,1.778,0,0,0,43.66,2a1.786,1.786,0,0,0-1.773,1.773v1A3.242,3.242,0,0,0,41,4.66V7.32a2.649,2.649,0,0,0,4.433,1.969,2.622,2.622,0,0,0,3.546,0A2.637,2.637,0,0,0,53,8.738,2.6,2.6,0,0,0,56.072,8.4V3.773A1.778,1.778,0,0,0,54.3,2Z" transform="translate(-6.423 -2)" fill="#dda89f"/>
              <g id="Group_1222593" data-name="Group 1222593" transform="translate(0 8.865)">
                <path id="Path_1087249" data-name="Path 1087249" d="M14.412,44,7.968,45.841A8.228,8.228,0,0,0,2,53.752v6.206H33.917V53.752a8.228,8.228,0,0,0-5.968-7.911L21.5,44Z" transform="translate(-2 -15.628)" fill="#b5b5b5"/>
                <path id="Path_1087250" data-name="Path 1087250" d="M28.4,45.841,21.959,44H18.412l-6.445,1.841A8.228,8.228,0,0,0,6,53.752v6.206H34.371V53.752A8.228,8.228,0,0,0,28.4,45.841Z" transform="translate(-2.454 -15.628)" fill="#c9c9c9"/>
                <path id="Path_1087251" data-name="Path 1087251" d="M16,41.064v2.6l3.546,1.773,3.546-1.773v-2.6Z" transform="translate(-3.588 -15.295)" fill="#eeb9ad"/>
                <path id="Path_1087252" data-name="Path 1087252" d="M8,26.864V19.979A7.979,7.979,0,0,1,15.979,12h6.206a3.547,3.547,0,0,1,3.546,3.546h0a3.546,3.546,0,0,1,3.545,3.546v7.776" transform="translate(-2.68 -11.999)" fill="#3f4042"/>
                <path id="Path_1087253" data-name="Path 1087253" d="M29.5,19.092a3.546,3.546,0,0,0-3.545-3.546h0A3.547,3.547,0,0,0,22.412,12H16.206a7.956,7.956,0,0,0-5.616,2.312A7.972,7.972,0,0,0,10,17.319v3.338A3.548,3.548,0,0,0,13.546,24.2l15.959,0Z" transform="translate(-2.907 -11.999)" fill="#5a5b5d"/>
                <g id="Group_1222590" data-name="Group 1222590" transform="translate(4.433 8.867)">
                  <path id="Path_1087254" data-name="Path 1087254" d="M26.959,26.433v5.32a7.979,7.979,0,0,1-15.959,0v-5.32h4.978A7.052,7.052,0,0,0,22.526,22Z" transform="translate(-7.454 -22)" fill="#eeb9ad"/>
                  <path id="Path_1087255" data-name="Path 1087255" d="M10.546,28H9.66a2.66,2.66,0,1,0,0,5.32H10.6" transform="translate(-7 -22.68)" fill="#eeb9ad"/>
                  <path id="Path_1087256" data-name="Path 1087256" d="M28.994,28h.887a2.66,2.66,0,1,1,0,5.32h-.936" transform="translate(-9.489 -22.68)" fill="#eeb9ad"/>
                </g>
                <path id="Path_1087257" data-name="Path 1087257" d="M22.577,48.955,21.4,51.32H17.849l-1.182-2.365L19.622,46Z" transform="translate(-3.663 -15.855)" fill="#e56a6a"/>
                <path id="Path_1087258" data-name="Path 1087258" d="M22.319,60.866,21.433,52H17.886L17,60.866Z" transform="translate(-3.701 -16.536)" fill="#e56a6a"/>
                <g id="Group_1222591" data-name="Group 1222591" transform="translate(25.711 39.011)">
                  <path id="Path_1087259" data-name="Path 1087259" d="M31,56h1.773v5.32H31Z" transform="translate(-31 -56)" fill="#777"/>
                </g>
                <g id="Group_1222592" data-name="Group 1222592" transform="translate(4.433 39.011)">
                  <path id="Path_1087260" data-name="Path 1087260" d="M7,56H8.773v5.32H7Z" transform="translate(-7 -56)" fill="#777"/>
                </g>
                <path id="Path_1087261" data-name="Path 1087261" d="M16.205,26.433H13v5.32a7.978,7.978,0,0,0,7.093,7.927,7.978,7.978,0,0,0,7.093-7.927v-5.32L22.752,22A7.052,7.052,0,0,1,16.205,26.433Z" transform="translate(-3.248 -13.133)" fill="#ffe2d5"/>
                <path id="Path_1087262" data-name="Path 1087262" d="M23.32,42.053a7.867,7.867,0,0,1-5.32.635v1.091l2.66,1.33,2.66-1.33Z" transform="translate(-3.815 -15.407)" fill="#ffe2d5"/>
                <path id="Path_1087263" data-name="Path 1087263" d="M19.017,45.773,15.471,44l-4.138,1.182,4.138,4.138Z" transform="translate(-3.058 -15.628)" fill="#b5b5b5"/>
                <path id="Path_1087264" data-name="Path 1087264" d="M23.546,49.32l4.138-4.138L23.546,44,20,45.773Z" transform="translate(-4.041 -15.628)" fill="#b5b5b5"/>
                <path id="Path_1087265" data-name="Path 1087265" d="M18.887,52,18,60.866h4.432L21.546,52Z" transform="translate(-3.815 -16.536)" fill="#ed8585"/>
              </g>
              <path id="Path_1087266" data-name="Path 1087266" d="M42,23.546V20H54.412v3.546" transform="translate(-6.536 -4.041)" fill="#c9c9c9"/>
              <ellipse id="Ellipse_11561" data-name="Ellipse 11561" cx="3.361" cy="3.841" rx="3.361" ry="3.841" transform="translate(38.485 38.717)" fill="#ddd"/>
              <g id="Group_1222594" data-name="Group 1222594" transform="translate(42.556)">
                <path id="Path_1087267" data-name="Path 1087267" d="M51.773,9.093A1.773,1.773,0,0,1,50,7.32V3.773a1.773,1.773,0,1,1,3.546,0V7.32A1.773,1.773,0,0,1,51.773,9.093Z" transform="translate(-50 -2)" fill="#eeb9ad"/>
                <path id="Path_1087268" data-name="Path 1087268" d="M51.887,2a1.764,1.764,0,0,0-.727.16,1.764,1.764,0,0,0-.16.727V6.433a1.766,1.766,0,0,0,2.5,1.614,1.764,1.764,0,0,0,.16-.727V3.773A1.773,1.773,0,0,0,51.887,2Z" transform="translate(-50.113 -2)" fill="#ffe2d5"/>
              </g>
              <g id="Group_1222595" data-name="Group 1222595" transform="translate(39.01)">
                <path id="Path_1087269" data-name="Path 1087269" d="M47.773,9.093A1.773,1.773,0,0,1,46,7.32V3.773a1.773,1.773,0,1,1,3.546,0V7.32A1.773,1.773,0,0,1,47.773,9.093Z" transform="translate(-46 -2)" fill="#eeb9ad"/>
                <path id="Path_1087270" data-name="Path 1087270" d="M47.887,2a1.764,1.764,0,0,0-.727.16,1.764,1.764,0,0,0-.16.727V6.433a1.766,1.766,0,0,0,2.5,1.614,1.764,1.764,0,0,0,.16-.727V3.773A1.773,1.773,0,0,0,47.887,2Z" transform="translate(-46.113 -2)" fill="#ffe2d5"/>
              </g>
              <g id="Group_1222596" data-name="Group 1222596" transform="translate(35.464)">
                <path id="Path_1087271" data-name="Path 1087271" d="M43.773,9.093A1.773,1.773,0,0,1,42,7.32V3.773a1.773,1.773,0,1,1,3.546,0V7.32A1.773,1.773,0,0,1,43.773,9.093Z" transform="translate(-42 -2)" fill="#eeb9ad"/>
                <path id="Path_1087272" data-name="Path 1087272" d="M43.887,2a1.764,1.764,0,0,0-.727.16,1.764,1.764,0,0,0-.16.727V6.433a1.766,1.766,0,0,0,2.5,1.614,1.764,1.764,0,0,0,.16-.727V3.773A1.773,1.773,0,0,0,43.887,2Z" transform="translate(-42.113 -2)" fill="#ffe2d5"/>
              </g>
              <g id="Group_1222597" data-name="Group 1222597" transform="translate(46.103 0)">
                <path id="Path_1087273" data-name="Path 1087273" d="M55.773,8.206A1.773,1.773,0,0,1,54,6.433V3.773a1.773,1.773,0,0,1,3.546,0v2.66A1.773,1.773,0,0,1,55.773,8.206Z" transform="translate(-54 -2)" fill="#eeb9ad"/>
                <path id="Path_1087274" data-name="Path 1087274" d="M55.887,2a1.764,1.764,0,0,0-.727.16,1.764,1.764,0,0,0-.16.727v2.66A1.766,1.766,0,0,0,57.5,7.16a1.764,1.764,0,0,0,.16-.727V3.773A1.773,1.773,0,0,0,55.887,2Z" transform="translate(-54.113 -2)" fill="#ffe2d5"/>
              </g>
              <path id="Path_1087275" data-name="Path 1087275" d="M45.617,11.109l-1.184-.79V8.546A3.542,3.542,0,0,0,41.68,5.1c-.053-.013-.108-.023-.162-.033A3.527,3.527,0,0,0,40.887,5V7.553a4.186,4.186,0,0,1-.443,1.88A4.186,4.186,0,0,0,40,11.313a8.329,8.329,0,0,0,.409,2.553h6.684A3.311,3.311,0,0,0,45.617,11.109Z" transform="translate(-6.31 -2.34)" fill="#ffe2d5"/>
              <path id="Path_1087276" data-name="Path 1087276" d="M43.66,8.444v1.773a.888.888,0,0,0,.395.738l1.184.79a2.421,2.421,0,0,1,1.081,2.019h1.773a4.189,4.189,0,0,0-1.87-3.494l-.79-.527v-1.3A4.441,4.441,0,0,0,41.887,4.1v.912A3.242,3.242,0,0,0,41,4.9v.887A2.663,2.663,0,0,1,43.66,8.444Z" transform="translate(-6.423 -2.238)" fill="#eeb9ad"/>
              <path id="Path_1087277" data-name="Path 1087277" d="M43,20.887a1.773,1.773,0,0,0,1.773,1.773h9.752V20H43Z" transform="translate(-6.65 -4.041)" fill="#ddd"/>
              <path id="Path_1087278" data-name="Path 1087278" d="M47.66,47a3.526,3.526,0,0,0-2.022.637,3.541,3.541,0,0,0,4.931,4.93A3.541,3.541,0,0,0,47.66,47Z" transform="translate(-6.877 -7.103)" fill="#fff"/>
            </g>
          </g>
        </g>
        <g id="Group_1222601" data-name="Group 1222601" transform="translate(1 1)">
          <path id="Path_1087279" data-name="Path 1087279" d="M55.924,26.435a.889.889,0,0,0-.588-.573l-3.8-1.14V21.392a.886.886,0,0,0-.887-.887v-2.66a.875.875,0,0,0-.769-.863,12.893,12.893,0,0,0,2.542-7.7V3.66a2.658,2.658,0,0,0-4.433-1.981,2.654,2.654,0,0,0-3.546,0,2.654,2.654,0,0,0-3.546,0A2.658,2.658,0,0,0,36.464,3.66a.886.886,0,0,0-.887.887V7.1a3.328,3.328,0,0,1-.35,1.481,5.117,5.117,0,0,0-.536,2.274,9.124,9.124,0,0,0,2.38,6.157.877.877,0,0,0-.607.831V20.5a.886.886,0,0,0-.887.887v9.393l-2.526,1.1-3.244-2.6a3.454,3.454,0,0,0-.436-4.016V17.844a4.441,4.441,0,0,0-3.621-4.358,4.441,4.441,0,0,0-4.358-3.621H15.185A8.876,8.876,0,0,0,6.32,18.732v6.545A3.513,3.513,0,0,0,5.433,27.6a3.55,3.55,0,0,0,3.546,3.546h.179a9,9,0,0,0,.267.988L1.606,34.738a.885.885,0,0,0-.543,1.169l1.773,4.431a.884.884,0,0,0,1.126.5l9.449-3.436v1.048l-5.8,1.658A9.151,9.151,0,0,0,1,48.876v6.206a.886.886,0,0,0,.887.887H33.8a.886.886,0,0,0,.887-.887V48.876a9.153,9.153,0,0,0-6.61-8.764l-5.8-1.658V37.036a8.929,8.929,0,0,0,2.961-2.786l6.259,4.7a.888.888,0,0,0,.876.108l15.963-6.719.584,1.752a.886.886,0,0,0,1.55.251l5.32-7.093a.888.888,0,0,0,.133-.809ZM49.762,2.773a.887.887,0,0,1,.887.887V6.32a.887.887,0,1,1-1.773,0V3.66A.887.887,0,0,1,49.762,2.773Zm-3.546,0a.887.887,0,0,1,.887.887V7.206a.887.887,0,0,1-1.773,0V3.66A.887.887,0,0,1,46.216,2.773Zm-3.546,0a.887.887,0,0,1,.887.887V7.206a.887.887,0,0,1-1.773,0V3.66A.887.887,0,0,1,42.67,2.773Zm-4.433.887a.887.887,0,0,1,1.773,0v1.8a4.45,4.45,0,0,0-1.773-1.425ZM36.814,9.376A5.117,5.117,0,0,0,37.35,7.1V5.585a2.665,2.665,0,0,1,1.773,2.508V9.866a.888.888,0,0,0,.395.738l1.184.79a2.421,2.421,0,0,1,1.081,2.019h1.773a4.189,4.189,0,0,0-1.87-3.494l-.79-.527v-.2h0a2.655,2.655,0,0,0,3.545,0,2.656,2.656,0,0,0,4.014-.551,2.587,2.587,0,0,0,2.192.18v.467A11.136,11.136,0,0,1,47.6,16.959H39.49l-.853-.853a7.375,7.375,0,0,1-2.174-5.249,3.328,3.328,0,0,1,.35-1.481Zm1.423,9.356H48.876V20.5H38.237Zm-.887,3.546H49.762v1.912L46.471,23.2a.887.887,0,0,0-1.1,1.13l.631,1.893L37.35,30.009ZM26.711,25.825a1.773,1.773,0,0,1,0,3.546ZM15.185,11.639h6.206a2.664,2.664,0,0,1,2.661,2.66.886.886,0,0,0,.887.887A2.663,2.663,0,0,1,27.6,17.844v6.333a3.492,3.492,0,0,0-.887-.126.883.883,0,0,0-.26-.627l-4.433-4.433a.887.887,0,0,0-1.45.3,6.135,6.135,0,0,1-5.724,3.875H9.866a.886.886,0,0,0-.887.887,3.492,3.492,0,0,0-.887.126V18.732A7.1,7.1,0,0,1,15.185,11.639ZM7.206,27.6a1.775,1.775,0,0,1,1.773-1.773v3.546A1.775,1.775,0,0,1,7.206,27.6ZM3.059,36.122l7.093-2.365a8.9,8.9,0,0,0,1.86,2.271L4.163,38.883Zm18.421,3.949,2.357.674-2.445,2.444-2.05-2.05Zm-4.6,7.032h1.942l.708,7.093h-3.36Zm2.2-1.773H16.62l-.651-1.3,1.876-1.876,1.876,1.876ZM14.3,43.189l-2.445-2.445,2.357-.674,2.138,1.069ZM2.773,48.876A7.372,7.372,0,0,1,8.1,41.818L9.9,41.3l3.768,3.768a.865.865,0,0,0,.935.2l.557,1.114L14.382,54.2H8.093V49.762H6.32V54.2H2.773Zm30.144,0V54.2H29.371V49.762H27.6V54.2H21.306l-.78-7.813.557-1.114a.865.865,0,0,0,.935-.2L25.786,41.3l1.807.516A7.372,7.372,0,0,1,32.917,48.876ZM20.5,38.575l-2.66,1.33-2.66-1.33v-.747a8.859,8.859,0,0,0,5.32,0Zm-2.66-2.112a7.1,7.1,0,0,1-7.093-7.093V24.938h4.092a7.893,7.893,0,0,0,6.79-3.823l3.3,3.3v4.952A7.1,7.1,0,0,1,17.845,36.464ZM50.068,31.92l-.351-1.054a.886.886,0,0,0-1.184-.537L32.156,37.222l-6.084-4.562a8.836,8.836,0,0,0,.461-1.515h.178a3.522,3.522,0,0,0,1.881-.551l3.769,3.016a.889.889,0,0,0,.909.12l14.187-6.2a.887.887,0,0,0,.487-1.092L47.6,25.392,53.61,27.2Z" transform="translate(-1 -1)"/>
          <path id="Path_1087280" data-name="Path 1087280" d="M55.845,46.206h-.463a7.98,7.98,0,0,0-.32-.774l.327-.328a.886.886,0,0,0,0-1.254l-2.507-2.507a.886.886,0,0,0-1.254,0l-.328.327a7.763,7.763,0,0,0-.774-.32v-.464A.886.886,0,0,0,49.64,40H46.094a.886.886,0,0,0-.887.887v.463a7.98,7.98,0,0,0-.774.32l-.328-.327a.886.886,0,0,0-1.254,0L40.344,43.85a.886.886,0,0,0,0,1.254l.327.328a7.764,7.764,0,0,0-.32.774h-.465a.886.886,0,0,0-.887.887v3.546a.886.886,0,0,0,.887.887h.463a7.98,7.98,0,0,0,.32.774l-.327.327a.886.886,0,0,0,0,1.254l2.507,2.508a.886.886,0,0,0,1.254,0l.328-.327a7.761,7.761,0,0,0,.774.32v.465a.886.886,0,0,0,.887.887h3.546a.886.886,0,0,0,.887-.887v-.463a7.981,7.981,0,0,0,.774-.32l.328.327a.913.913,0,0,0,1.254,0l2.507-2.508a.886.886,0,0,0,0-1.254l-.327-.327a7.764,7.764,0,0,0,.32-.774h.465a.886.886,0,0,0,.887-.887V47.094A.886.886,0,0,0,55.845,46.206Zm-.887,3.546h-.232a.887.887,0,0,0-.858.665,6.169,6.169,0,0,1-.661,1.595.889.889,0,0,0,.137,1.078l.165.165-1.254,1.254-.165-.165a.89.89,0,0,0-1.078-.137,6.169,6.169,0,0,1-1.595.661.886.886,0,0,0-.664.857v.232H46.979v-.232a.887.887,0,0,0-.665-.858,6.169,6.169,0,0,1-1.595-.661.892.892,0,0,0-1.078.137l-.165.165-1.254-1.254.165-.165a.888.888,0,0,0,.137-1.078,6.169,6.169,0,0,1-.661-1.595.886.886,0,0,0-.857-.664h-.232V47.979h.232a.887.887,0,0,0,.858-.665,6.169,6.169,0,0,1,.661-1.595.889.889,0,0,0-.137-1.078l-.165-.165,1.254-1.254.165.165a.889.889,0,0,0,1.078.137,6.169,6.169,0,0,1,1.595-.661A.887.887,0,0,0,46.98,42v-.231h1.773v.232a.887.887,0,0,0,.665.858,6.169,6.169,0,0,1,1.595.661.89.89,0,0,0,1.078-.137l.165-.165,1.254,1.254-.165.165a.888.888,0,0,0-.137,1.078,6.169,6.169,0,0,1,.661,1.595.887.887,0,0,0,.858.665h.231Z" transform="translate(-5.31 -5.423)"/>
          <path id="Path_1087281" data-name="Path 1087281" d="M48.433,45a4.433,4.433,0,1,0,4.433,4.433A4.438,4.438,0,0,0,48.433,45Zm0,7.093a2.66,2.66,0,1,1,2.66-2.66A2.663,2.663,0,0,1,48.433,52.093Z" transform="translate(-5.877 -5.99)"/>
        </g>
      </g>
    </g>
  </g>
</svg>
