<svg xmlns="http://www.w3.org/2000/svg" xmlns:xlink="http://www.w3.org/1999/xlink" width="106" height="106" viewBox="0 0 106 106">
  <defs>
    <filter id="Path_982547" x="0" y="0" width="106" height="106" filterUnits="userSpaceOnUse">
      <feOffset dy="3" input="SourceAlpha"/>
      <feGaussianBlur stdDeviation="3" result="blur"/>
      <feFlood flood-opacity="0.161"/>
      <feComposite operator="in" in2="blur"/>
      <feComposite in="SourceGraphic"/>
    </filter>
  </defs>
  <g id="Group_1233149" data-name="Group 1233149" transform="translate(-171 -829)">
    <g id="Group_1233093" data-name="Group 1233093">
      <g id="Group_1228623" data-name="Group 1228623">
        <g id="Group_1174813" data-name="Group 1174813" transform="translate(0 -553)">
          <g id="Group_1173169" data-name="Group 1173169" transform="translate(0 -2329)">
            <g id="Group_1172017" data-name="Group 1172017" transform="translate(0 2654)">
              <g id="Group_1167337" data-name="Group 1167337" transform="translate(180 1063)">
                <g id="Group_1166720" data-name="Group 1166720" transform="translate(0)">
                  <g id="Group_1164305" data-name="Group 1164305">
                    <g id="Group_1163948" data-name="Group 1163948">
                      <g id="Group_1158168" data-name="Group 1158168">
                        <g id="Group_1152576" data-name="Group 1152576">
                          <g id="Group_1148633" data-name="Group 1148633">
                            <g id="Group_1148525" data-name="Group 1148525">
                              <g transform="matrix(1, 0, 0, 1, -9, -6)" filter="url(#Path_982547)">
                                <g id="Path_982547-2" data-name="Path 982547" transform="translate(9 6)" fill="#e9f9fd">
                                  <path d="M 44 86.5 C 38.26187515258789 86.5 32.69618606567383 85.37651062011719 27.45755004882812 83.16075897216797 C 22.3968505859375 81.020263671875 17.85157585144043 77.95565032958984 13.94796276092529 74.05204010009766 C 10.04434967041016 70.1484375 6.979737281799316 65.6031494140625 4.839250087738037 60.54246139526367 C 2.62348747253418 55.30381393432617 1.5 49.73812484741211 1.5 44 C 1.5 38.26187515258789 2.62348747253418 32.69618606567383 4.839250087738037 27.45755004882812 C 6.979737281799316 22.3968505859375 10.04434967041016 17.85157585144043 13.94796276092529 13.94796276092529 C 17.85157585144043 10.04434967041016 22.3968505859375 6.979737281799316 27.45755004882812 4.839250087738037 C 32.69618606567383 2.62348747253418 38.26187515258789 1.5 44 1.5 C 49.73812484741211 1.5 55.30381393432617 2.62348747253418 60.54246139526367 4.839250087738037 C 65.6031494140625 6.979737281799316 70.1484375 10.04434967041016 74.05204010009766 13.94796276092529 C 77.95565032958984 17.85157585144043 81.020263671875 22.3968505859375 83.16075897216797 27.45755004882812 C 85.37651062011719 32.69618606567383 86.5 38.26187515258789 86.5 44 C 86.5 49.73812484741211 85.37651062011719 55.30381393432617 83.16075897216797 60.54246139526367 C 81.020263671875 65.6031494140625 77.95565032958984 70.1484375 74.05204010009766 74.05204010009766 C 70.1484375 77.95565032958984 65.6031494140625 81.020263671875 60.54246139526367 83.16075897216797 C 55.30381393432617 85.37651062011719 49.73812484741211 86.5 44 86.5 Z" stroke="none"/>
                                  <path d="M 44 3 C 38.46371459960938 3 33.09462738037109 4.083610534667969 28.0418701171875 6.220756530761719 C 23.15997314453125 8.285614013671875 18.77495574951172 11.24228668212891 15.00862884521484 15.00862884521484 C 11.24228668212891 18.77495574951172 8.285614013671875 23.15997314453125 6.220756530761719 28.0418701171875 C 4.083610534667969 33.09462738037109 3 38.46371459960938 3 44 C 3 49.53628540039062 4.083610534667969 54.9053840637207 6.220756530761719 59.9581298828125 C 8.285614013671875 64.84002685546875 11.24228668212891 69.22504425048828 15.00862884521484 72.99138641357422 C 18.77495574951172 76.75771331787109 23.15997314453125 79.71438598632812 28.0418701171875 81.77925872802734 C 33.09462738037109 83.9163818359375 38.46371459960938 85 44 85 C 49.53628540039062 85 54.9053840637207 83.9163818359375 59.95814514160156 81.77925872802734 C 64.84002685546875 79.71438598632812 69.22504425048828 76.75771331787109 72.99138641357422 72.99138641357422 C 76.75771331787109 69.22504425048828 79.71438598632812 64.84002685546875 81.77925872802734 59.95814514160156 C 83.9163818359375 54.9053840637207 85 49.53628540039062 85 44 C 85 38.46371459960938 83.9163818359375 33.09462738037109 81.77925872802734 28.0418701171875 C 79.71438598632812 23.15997314453125 76.75771331787109 18.77495574951172 72.99138641357422 15.00862884521484 C 69.22504425048828 11.24228668212891 64.84002685546875 8.285614013671875 59.9581298828125 6.220756530761719 C 54.9053840637207 4.083610534667969 49.53628540039062 3 44 3 M 44 0 C 68.30054473876953 0 88 19.69947052001953 88 44 C 88 68.30054473876953 68.30054473876953 88 44 88 C 19.69947052001953 88 0 68.30054473876953 0 44 C 0 19.69947052001953 19.69947052001953 0 44 0 Z" stroke="none" fill="#36ceef"/>
                                </g>
                              </g>
                            </g>
                          </g>
                        </g>
                      </g>
                    </g>
                  </g>
                </g>
              </g>
            </g>
          </g>
        </g>
        <g id="motivacion_1_" data-name="motivacion (1)" transform="translate(183.608 847.287)">
          <g id="Group_1228620" data-name="Group 1228620" transform="translate(9.676 0.873)">
            <g id="Group_1228618" data-name="Group 1228618" transform="translate(0)">
              <g id="Group_1228607" data-name="Group 1228607" transform="translate(0 8.164)">
                <path id="Path_1218229" data-name="Path 1218229" d="M29.077,80.584l2.608-2.68a.828.828,0,0,1,1.4.374L34,81.9l3.6-1.017a.828.828,0,0,1,1.022,1.022l-1.017,3.6,3.625.919a.828.828,0,0,1,.374,1.4l-2.68,2.608,2.68,2.608a.828.828,0,0,1-.374,1.4l-3.625.919,1.017,3.6A.828.828,0,0,1,37.6,99.974L34,98.957l-.919,3.625a.828.828,0,0,1-1.4.374l-2.608-2.68-2.608,2.68a.828.828,0,0,1-1.4-.374l-.919-3.625-3.6,1.017a.828.828,0,0,1-1.022-1.022l1.017-3.6-3.625-.919a.828.828,0,0,1-.374-1.4l2.68-2.608-2.68-2.608a.828.828,0,0,1,.374-1.4l3.625-.919-1.017-3.6a.828.828,0,0,1,1.022-1.022l3.6,1.017.919-3.625a.828.828,0,0,1,1.4-.374Z" transform="translate(-16.3 -77.653)" fill="#fb4a59"/>
                <path id="Path_1218230" data-name="Path 1218230" d="M153.458,93.038a.828.828,0,0,1-.374,1.4l-3.624.919,1.016,3.6a.828.828,0,0,1-1.022,1.022l-3.6-1.017-.919,3.625a.828.828,0,0,1-1.4.374L143,102.4l1.273-5.592a.414.414,0,0,1,.516-.306l2.377.672a.414.414,0,0,0,.512-.511L147,94.279a.414.414,0,0,1,.3-.514l2.405-.609a.414.414,0,0,0,.187-.7l-1.779-1.73a.414.414,0,0,1,0-.593l1.779-1.73a.414.414,0,0,0-.187-.7L147.3,87.1a.414.414,0,0,1-.3-.514l.675-2.387a.414.414,0,0,0-.512-.511l-2.386.674a.414.414,0,0,1-.514-.3l-1.381-5.485.654-.672a.828.828,0,0,1,1.4.374l.919,3.625,3.6-1.017a.828.828,0,0,1,1.022,1.022l-1.016,3.6,3.624.919a.828.828,0,0,1,.374,1.4l-2.679,2.608Z" transform="translate(-128.156 -77.653)" fill="#f82f40"/>
              </g>
              <g id="Group_1228617" data-name="Group 1228617" transform="translate(17.798)">
                <g id="Group_1228611" data-name="Group 1228611" transform="translate(0 30.269)">
                  <path id="Path_1218231" data-name="Path 1218231" d="M169.246,352.727h37.988l-2.78-11.718a10.716,10.716,0,0,0-8.8-8.118l-.984-.151H176.55l-.984.151a10.708,10.708,0,0,0-6.32,3.408Z" transform="translate(-169.246 -325.162)" fill="#64b9fc"/>
                  <path id="Path_1218232" data-name="Path 1218232" d="M231.732,332.74v6.081c-1.666-.977-4.214.036-5.6.739a.581.581,0,0,1-.836-.618,11.48,11.48,0,0,1,2.88-6.2Z" transform="translate(-218.765 -325.162)" fill="#31a7fb"/>
                  <path id="Path_1218233" data-name="Path 1218233" d="M344.633,339.56c-1.388-.7-3.936-1.716-5.6-.739V332.74h3.559a11.5,11.5,0,0,1,2.88,6.2A.582.582,0,0,1,344.633,339.56Z" transform="translate(-319.274 -325.162)" fill="#31a7fb"/>
                  <path id="Path_1218234" data-name="Path 1218234" d="M280.681,332.74h6.79v19.987h-6.79Z" transform="translate(-267.714 -325.162)" fill="#f8f3f1"/>
                  <path id="Path_1218235" data-name="Path 1218235" d="M371.86,352.727h-3.747l-2.779-11.718a10.719,10.719,0,0,0-8.8-8.118l-.983-.151H359.3l.983.151a10.719,10.719,0,0,1,8.8,8.118Z" transform="translate(-333.872 -325.162)" fill="#31a7fb"/>
                  <g id="Group_1228610" data-name="Group 1228610" transform="translate(11.34)">
                    <g id="Group_1228609" data-name="Group 1228609">
                      <path id="Path_1218236" data-name="Path 1218236" d="M276.694,273.668a4.019,4.019,0,0,1-2.061-3.522v-2.53H268.8v2.53a4.049,4.049,0,0,1-2.112,3.551v.241a5,5,0,0,0,10,0v-.269Z" transform="translate(-266.693 -267.616)" fill="#fc9085"/>
                      <g id="Group_1228608" data-name="Group 1228608" transform="translate(1.279 0)">
                        <path id="Path_1218237" data-name="Path 1218237" d="M285.17,272.606a13.885,13.885,0,0,1-7.488,0,4.037,4.037,0,0,0,.833-2.455V267.62h5.828v2.53A4.055,4.055,0,0,0,285.17,272.606Z" transform="translate(-277.682 -267.62)" fill="#fc7c6a"/>
                      </g>
                    </g>
                  </g>
                </g>
                <g id="Group_1228616" data-name="Group 1228616" transform="translate(0.708)">
                  <g id="Group_1228613" data-name="Group 1228613" transform="translate(1.114 1.986)">
                    <path id="Path_1218238" data-name="Path 1218238" d="M200.826,31.511c-.914,2.346,1.208,12.231.955,11.315h23.064c-.225.873,2.286-10.12.349-14.506-1.756-3.977-10.126-4.134-12.807-3.427C208.579,25.9,202.257,27.841,200.826,31.511Z" transform="translate(-198.77 -24.567)" fill="#6c3328"/>
                    <g id="Group_1228612" data-name="Group 1228612" transform="translate(0 18.259)">
                      <path id="Path_1218239" data-name="Path 1218239" d="M210.786,181.472h.014C210.812,181.55,210.809,181.554,210.786,181.472Z" transform="translate(-207.774 -181.472)" fill="#873f30"/>
                      <path id="Path_1218240" data-name="Path 1218240" d="M408.868,181.472c-.016.061-.018.058-.01,0Z" transform="translate(-382.792 -181.472)" fill="#873f30"/>
                      <path id="Path_1218241" data-name="Path 1218241" d="M184.9,181.472h.014C184.928,181.55,184.925,181.554,184.9,181.472Z" transform="translate(-184.902 -181.472)" fill="#873f30"/>
                      <path id="Path_1218242" data-name="Path 1218242" d="M382.974,181.472h.01C382.968,181.533,382.966,181.53,382.974,181.472Z" transform="translate(-359.921 -181.472)" fill="#873f30"/>
                    </g>
                  </g>
                  <g id="Group_1228615" data-name="Group 1228615" transform="translate(0 10.34)">
                    <g id="Group_1228614" data-name="Group 1228614" transform="translate(0 3.735)">
                      <ellipse id="Ellipse_11551" data-name="Ellipse 11551" cx="3.759" cy="3.203" rx="3.759" ry="3.203" transform="matrix(0.338, -0.941, 0.941, 0.338, 22.767, 7.12)" fill="#fc9085"/>
                      <path id="Path_1218243" data-name="Path 1218243" d="M210.787,181.48h.014C210.813,181.558,210.809,181.561,210.787,181.48Z" transform="translate(-206.661 -175.31)" fill="#fc9085"/>
                      <ellipse id="Ellipse_11552" data-name="Ellipse 11552" cx="3.203" cy="3.759" rx="3.203" ry="3.759" transform="matrix(0.941, -0.338, 0.338, 0.941, 0, 2.165)" fill="#fc9085"/>
                    </g>
                    <path id="Path_1218244" data-name="Path 1218244" d="M227.793,96.359a4.13,4.13,0,0,0-4.13,4.13v6.4s0,11.986,10.033,11.986,10.033-11.986,10.033-11.986v-6.4a4.13,4.13,0,0,0-4.13-4.13Z" transform="translate(-218.038 -96.359)" fill="#fda79b"/>
                    <path id="Path_1218245" data-name="Path 1218245" d="M243.735,96.927c-.614,2.423-2.5,4.535-7.154,4.535-4.436,0-7.172-1.6-10.6-2.441a4.13,4.13,0,0,1,3.861-2.66h11.805A4.1,4.1,0,0,1,243.735,96.927Z" transform="translate(-220.086 -96.36)" fill="#fc9085"/>
                  </g>
                  <path id="Path_1218246" data-name="Path 1218246" d="M210.869,7.5c7.683,0,7.525,3.728,7.525,6.389,0,3.167-1.4,6.692-7.406,6.692-5.257,0-8.127-2.252-12.594-2.815a1.589,1.589,0,0,1-1.219-2.269c1.431-2.976,5.116-8,13.693-8Z" transform="translate(-194.492 -7.5)" fill="#ba5d4f"/>
                  <path id="Path_1218247" data-name="Path 1218247" d="M312.659,13.889c0,3.166-1.4,6.692-7.406,6.692-.543,0-1.062-.024-1.558-.067,4.935-.506,6.135-3.769,6.135-6.725,0-2.333.12-5.476-4.88-6.286.061,0,.122,0,.184,0,7.683,0,7.525,3.728,7.525,6.389Z" transform="translate(-288.757 -7.5)" fill="#a34f41"/>
                  <path id="Path_1218248" data-name="Path 1218248" d="M288.268,219.35a2.846,2.846,0,0,1-2.846-2.846v-.924h5.693v.924A2.846,2.846,0,0,1,288.268,219.35Z" transform="translate(-272.611 -191.365)" fill="#f8f3f1"/>
                </g>
              </g>
            </g>
            <g id="Group_1228619" data-name="Group 1228619" transform="translate(24.319 34.577)">
              <path id="Path_1218249" data-name="Path 1218249" d="M231.73,311.549v-6.216a.582.582,0,0,0-.521-.579l-1.038-.108a2.248,2.248,0,0,0-1.8.625,11.311,11.311,0,0,0-3.076,6.4.582.582,0,0,0,.835.618C227.516,311.585,230.063,310.571,231.73,311.549Z" transform="translate(-225.283 -304.633)" fill="#b5dbfd"/>
              <path id="Path_1218250" data-name="Path 1218250" d="M339.034,311.549v-6.216a.582.582,0,0,1,.521-.579l1.038-.108a2.248,2.248,0,0,1,1.8.625,11.31,11.31,0,0,1,3.076,6.4.582.582,0,0,1-.835.618C343.248,311.585,340.7,310.571,339.034,311.549Z" transform="translate(-325.797 -304.633)" fill="#b5dbfd"/>
            </g>
          </g>
          <g id="Group_1228622" data-name="Group 1228622" transform="translate(8.804)">
            <path id="Path_1218251" data-name="Path 1218251" d="M113.981,328.839v6a2.558,2.558,0,0,1-.659,1.716l-1.477,1.641v8.607H103.3v-6.546l-3.872-3.872a3.716,3.716,0,0,1-1.094-2.706,3.834,3.834,0,0,1,1.144-2.631l2.177-2.177v-.589a2.117,2.117,0,0,1,2.019-2.134,2.074,2.074,0,0,1,1.491.567,2.021,2.021,0,0,1,3.1.1,1.955,1.955,0,0,1,2.85.433,1.833,1.833,0,0,1,1.14-.3A1.879,1.879,0,0,1,113.981,328.839Z" transform="translate(-87.912 -288.1)" fill="#fda79b"/>
            <path id="Path_1218252" data-name="Path 1218252" d="M190.522,331.4v6.048a2.558,2.558,0,0,1-.659,1.716l-1.477,1.641v8.607H184.95v-8.1a1.311,1.311,0,0,1,.336-.875l1.142-1.269a2.562,2.562,0,0,0,.658-1.716V330.8a1.9,1.9,0,0,0-1.273-1.8,1.851,1.851,0,0,1,.218-.013,1.96,1.96,0,0,1,1.624.866,1.849,1.849,0,0,1,2.866,1.545Z" transform="translate(-164.452 -290.704)" fill="#fc9085"/>
            <g id="Group_1228621" data-name="Group 1228621" transform="translate(0)">
              <path id="Path_1218253" data-name="Path 1218253" d="M72.1,158.064H70.292a.873.873,0,0,0,0,1.746h.916a1.1,1.1,0,0,1-2.185-.219V157.7a1.1,1.1,0,0,1,2.08-.514.873.873,0,1,0,1.543-.815,2.849,2.849,0,0,0-5.37,1.329v1.889a2.849,2.849,0,1,0,5.7,0v-.653A.873.873,0,0,0,72.1,158.064Z" transform="translate(-60.473 -136.832)"/>
              <path id="Path_1218254" data-name="Path 1218254" d="M124.613,154.851a2.852,2.852,0,0,0-2.849,2.849v1.889a2.849,2.849,0,0,0,5.7,0V157.7A2.852,2.852,0,0,0,124.613,154.851Zm1.1,4.738a1.1,1.1,0,0,1-2.207,0V157.7a1.1,1.1,0,0,1,2.207,0Z" transform="translate(-108.619 -136.831)"/>
              <path id="Path_1218255" data-name="Path 1218255" d="M452.263,375.534l-2.78-11.718a11.647,11.647,0,0,0-2.357-4.722.873.873,0,0,0-1.343,1.115,9.89,9.89,0,0,1,2,4.01l2.78,11.718a.873.873,0,1,0,1.7-.4Z" transform="translate(-394.755 -317.028)"/>
              <path id="Path_1218256" data-name="Path 1218256" d="M412.49,417.515a.873.873,0,0,0-.873.873v9.249a.873.873,0,0,0,1.745,0v-9.249A.873.873,0,0,0,412.49,417.515Z" transform="translate(-364.743 -368.93)"/>
              <path id="Path_1218257" data-name="Path 1218257" d="M52.1,2.848A4.635,4.635,0,0,0,51.434,2C50.089.655,47.84,0,44.558,0,35.512,0,31.6,5.32,30.078,8.491a2.481,2.481,0,0,0,.057,2.256,2.512,2.512,0,0,0,.14.227c-.007.153-.023.422-.025.593L28,12.2l-.7-2.756a1.7,1.7,0,0,0-2.868-.769l-1.982,2.037L20.471,8.679a1.7,1.7,0,0,0-2.868.769L16.9,12.2l-2.735-.773a1.7,1.7,0,0,0-2.1,2.1l.772,2.736-2.756.7a1.7,1.7,0,0,0-.767,2.868l2.037,1.982L9.319,23.8a1.7,1.7,0,0,0,.767,2.867l2.756.7L12.07,30.1a1.7,1.7,0,0,0,2.1,2.1l2.735-.772.7,2.756a1.7,1.7,0,0,0,2.868.767l1.982-2.037,1.982,2.037A1.7,1.7,0,0,0,27.3,34.18l.7-2.756,2.734.772a1.7,1.7,0,0,0,2.1-2.1l-.772-2.735,1.761-.447c.125.383.268.772.431,1.161a10.035,10.035,0,0,0,5.781,5.891,3.17,3.17,0,0,1-.155.721l-.909-.095a3.111,3.111,0,0,0-2.5.867A10.646,10.646,0,0,0,34.4,38.353a2.654,2.654,0,0,0-1.2-.375,2.7,2.7,0,0,0-.985.113,2.822,2.822,0,0,0-2.937-.457,2.894,2.894,0,0,0-3.277-.11,2.939,2.939,0,0,0-1.473-.342,3,3,0,0,0-2.865,3.006v.227l-1.922,1.922a4.678,4.678,0,0,0-1.4,3.233,4.577,4.577,0,0,0,1.35,3.338l3.616,3.616v6.184a.873.873,0,1,0,1.746,0V52.162a.872.872,0,0,0-.256-.617l-3.871-3.871A2.846,2.846,0,0,1,20.1,45.6a2.942,2.942,0,0,1,.889-2.028l.687-.687v2.467a.873.873,0,1,0,1.746,0V40.188a1.246,1.246,0,0,1,1.172-1.262,1.205,1.205,0,0,1,.866.33.873.873,0,0,0,1.251-.054,1.148,1.148,0,0,1,1.766.054A.873.873,0,0,0,29.7,39.4a1.076,1.076,0,0,1,.679-.241,1.088,1.088,0,0,1,.9.482.873.873,0,0,0,1.2.24.968.968,0,0,1,.6-.158A1,1,0,0,1,34,40.739v6a1.686,1.686,0,0,1-.435,1.132l-1.477,1.641a.873.873,0,0,0-.224.584v2.068a.873.873,0,0,0,1.746,0V50.435l1.252-1.392a3.428,3.428,0,0,0,.884-2.3v-3.1a6.034,6.034,0,0,1,3.822-.7V58.707a.873.873,0,0,0,1.746,0V42.779a5.891,5.891,0,0,0,5.045-.02V58.707a.873.873,0,1,0,1.746,0V42.937c1-.291,2.544.039,4.336.946a1.455,1.455,0,0,0,2.091-1.539,15.083,15.083,0,0,0-.662-2.59,9.813,9.813,0,0,1,2.941.983.873.873,0,1,0,.808-1.547,11.557,11.557,0,0,0-3.6-1.182l-1-.153A10.384,10.384,0,0,0,51.2,35.462a3.114,3.114,0,0,0-2.5-.868l-.907.095a3.211,3.211,0,0,1-.152-.72,10.034,10.034,0,0,0,5.781-5.891,17.493,17.493,0,0,0,1.1-3.936c.119.012.239.02.358.02a4.616,4.616,0,0,0,4.173-3.2,4.958,4.958,0,0,0,.009-3.421,3.86,3.86,0,0,0-1.944-2.172c.425-4.186.224-7.25-.6-9.11-.662-1.5-2.241-2.671-4.418-3.412ZM52.957,7.1a14.133,14.133,0,0,0-.107-2.086,4.176,4.176,0,0,1,2.073,1.946c.677,1.535.84,4.314.474,8.054a3.845,3.845,0,0,0-.658.083,4.977,4.977,0,0,0-2.545-4.12A9.275,9.275,0,0,0,52.957,7.1ZM31.49,16.871a2.041,2.041,0,0,1,1.444.049v4.826c0,.034,0,.273.027.661a2.812,2.812,0,0,1-2.69-2.035,3.212,3.212,0,0,1-.019-2.215,2.106,2.106,0,0,1,1.238-1.288ZM32.941,15.1a3.837,3.837,0,0,0-.7-.085c-.143-1.192-.224-2.2-.242-3.009a16.83,16.83,0,0,1,1.917.362A4.987,4.987,0,0,0,32.941,15.1ZM30.766,25.891a.873.873,0,0,0-.625,1.083l.994,3.521L27.614,29.5a.873.873,0,0,0-1.083.625l-.9,3.547L23.079,31.05a.873.873,0,0,0-1.251,0l-2.552,2.623-.9-3.547a.873.873,0,0,0-1.083-.625l-3.521.994.994-3.521a.873.873,0,0,0-.625-1.083l-3.546-.9,2.622-2.553a.873.873,0,0,0,0-1.251l-2.623-2.552,3.547-.9a.873.873,0,0,0,.626-1.083l-.994-3.522,3.521,1a.873.873,0,0,0,1.083-.625l.9-3.548,2.552,2.623a.873.873,0,0,0,1.251,0l2.552-2.623.9,3.548a.873.873,0,0,0,1.083.625l2.707-.765q.069.918.206,2.025a3.867,3.867,0,0,0-1.908,2.155,4.958,4.958,0,0,0,.009,3.422,4.616,4.616,0,0,0,4.173,3.2c.119,0,.239-.008.358-.02.055.341.123.706.207,1.091ZM35.615,39.9a9.694,9.694,0,0,1,2.073-3.185,1.373,1.373,0,0,1,1.1-.382l.777.081v4.738a7.594,7.594,0,0,0-3.822.6V40.739a2.793,2.793,0,0,0-.131-.842ZM48.1,36.411l.778-.081a1.372,1.372,0,0,1,1.1.383,10.261,10.261,0,0,1,2.72,5.36,9.486,9.486,0,0,0-3.809-.988,4.867,4.867,0,0,0-.792.062Zm-6.791-.262a6.866,6.866,0,0,0,.423-1.724,12.3,12.3,0,0,0,4.2,0,6.944,6.944,0,0,0,.418,1.724v4.574a4.151,4.151,0,0,1-5.045.028s0-4.6,0-4.6Zm5-21.421a7.8,7.8,0,0,0,4.91-2.285A3.242,3.242,0,0,1,53,15.343v6.4a16.662,16.662,0,0,1-1.2,5.7A8.088,8.088,0,0,1,43.84,32.86a8.088,8.088,0,0,1-7.956-5.414,16.661,16.661,0,0,1-1.2-5.7v-6.4a3.247,3.247,0,0,1,1.1-2.434c.374.121.747.246,1.126.373a28.52,28.52,0,0,0,5.061,1.344A.873.873,0,0,0,42.22,12.9a26.759,26.759,0,0,1-4.762-1.272,26.414,26.414,0,0,0-5.265-1.355.684.684,0,0,1-.524-.36.722.722,0,0,1-.017-.665c1.347-2.8,4.815-7.5,12.907-7.5,2.755,0,4.653.5,5.641,1.49C51.214,4.252,51.213,5.7,51.211,7.1c0,3.377-1.685,5.463-5.007,5.887a.873.873,0,0,0,.109,1.739Zm11.1,5.645a2.813,2.813,0,0,1-2.69,2.035c.025-.388.027-.627.027-.661V16.92a2.04,2.04,0,0,1,1.444-.049,2.107,2.107,0,0,1,1.239,1.288A3.214,3.214,0,0,1,57.409,20.373Z" transform="translate(-8.804)"/>
              <path id="Path_1218258" data-name="Path 1218258" d="M284.488,208.079H278.8a.873.873,0,0,0-.873.873v.924a3.719,3.719,0,0,0,7.438,0v-.924A.873.873,0,0,0,284.488,208.079Zm-.873,1.8a1.974,1.974,0,0,1-3.947,0v-.051h3.947Z" transform="translate(-246.606 -183.865)"/>
              <path id="Path_1218259" data-name="Path 1218259" d="M336.77,154.664a3.436,3.436,0,0,0-3.914,0,.873.873,0,0,0,1.026,1.412,1.7,1.7,0,0,1,1.862,0,.873.873,0,1,0,1.026-1.412Z" transform="translate(-294.829 -136.125)"/>
              <path id="Path_1218260" data-name="Path 1218260" d="M251.914,155.883a.873.873,0,0,0-.193-1.219,3.436,3.436,0,0,0-3.914,0,.873.873,0,0,0,1.026,1.412,1.7,1.7,0,0,1,1.862,0,.872.872,0,0,0,1.219-.193Z" transform="translate(-219.676 -136.125)"/>
              <path id="Path_1218261" data-name="Path 1218261" d="M300.327,184.849h.681a.873.873,0,0,0,0-1.745h-.681a.873.873,0,0,0,0,1.745Z" transform="translate(-265.632 -161.796)"/>
              <path id="Path_1218262" data-name="Path 1218262" d="M207.848,477.094a.873.873,0,0,0-.873.873v2.316a.873.873,0,1,0,1.745,0v-2.316A.873.873,0,0,0,207.848,477.094Z" transform="translate(-183.914 -421.576)"/>
            </g>
          </g>
        </g>
      </g>
    </g>
  </g>
</svg>
