<svg xmlns="http://www.w3.org/2000/svg" xmlns:xlink="http://www.w3.org/1999/xlink" width="102.648" height="102.648" viewBox="0 0 102.648 102.648">
  <defs>
    <filter id="Path_904820" x="0" y="0" width="102.648" height="102.648" filterUnits="userSpaceOnUse">
      <feOffset dy="3" input="SourceAlpha"/>
      <feGaussianBlur stdDeviation="3" result="blur"/>
      <feFlood flood-opacity="0.161"/>
      <feComposite operator="in" in2="blur"/>
      <feComposite in="SourceGraphic"/>
    </filter>
  </defs>
  <g id="Group_1225028" data-name="Group 1225028" transform="translate(-171 -4561.214)">
    <g id="Group_1224988" data-name="Group 1224988">
      <g id="Group_1222530" data-name="Group 1222530" transform="translate(-30 4260.214)">
        <g id="Group_1203724" data-name="Group 1203724" transform="translate(210 307)">
          <g id="Group_1173585" data-name="Group 1173585" transform="translate(0 0)">
            <g id="Group_1173428" data-name="Group 1173428">
              <g id="Group_1171958" data-name="Group 1171958">
                <g id="Group_1167341" data-name="Group 1167341">
                  <g id="Group_1166792" data-name="Group 1166792">
                    <g transform="matrix(1, 0, 0, 1, -9, -6)" filter="url(#Path_904820)">
                      <g id="Path_904820-2" data-name="Path 904820" transform="translate(9 6)" fill="#f2f7e5">
                        <path d="M 42.32421493530273 83.14847564697266 C 36.81232070922852 83.14847564697266 31.46609687805176 82.06929779052734 26.43404960632324 79.94092559814453 C 21.57290840148926 77.88482666015625 17.20685005187988 74.9410400390625 13.45714473724365 71.19132232666016 C 9.707427024841309 67.44161987304688 6.763650417327881 63.07554626464844 4.707556247711182 58.21440505981445 C 2.579179525375366 53.18235778808594 1.500003218650818 47.83613586425781 1.500003218650818 42.32424163818359 C 1.500003218650818 36.81234741210938 2.579179525375366 31.46611213684082 4.707556247711182 26.4340648651123 C 6.763650417327881 21.57292366027832 9.707427024841309 17.20685386657715 13.45714473724365 13.4571475982666 C 17.20685005187988 9.707429885864258 21.57290840148926 6.76365327835083 26.43404960632324 4.707559108734131 C 31.46609687805176 2.579182863235474 36.81232070922852 1.500006318092346 42.32421493530273 1.500006318092346 C 47.83610916137695 1.500006318092346 53.18233108520508 2.579182863235474 58.21437835693359 4.707559108734131 C 63.07551956176758 6.76365327835083 67.44158935546875 9.707429885864258 71.19129943847656 13.4571475982666 C 74.94100189208984 17.20685386657715 77.88478851318359 21.57292366027832 79.94087219238281 26.4340648651123 C 82.06925201416016 31.46611213684082 83.14842987060547 36.81234741210938 83.14842987060547 42.32424163818359 C 83.14842987060547 47.83613586425781 82.06925201416016 53.18235778808594 79.94087219238281 58.21440505981445 C 77.88478851318359 63.07554626464844 74.94100189208984 67.44161987304688 71.19129943847656 71.19132232666016 C 67.44158172607422 74.9410400390625 63.07551956176758 77.88482666015625 58.21437835693359 79.94092559814453 C 53.18233108520508 82.06929779052734 47.83610916137695 83.14847564697266 42.32421493530273 83.14847564697266 Z" stroke="none"/>
                        <path d="M 42.32421493530273 3 C 37.01416015625 3 31.86453628540039 4.039306640625 27.01837539672852 6.089065551757812 C 22.33604049682617 8.069534301757812 18.13024139404297 10.90536499023438 14.51779937744141 14.51779937744141 C 10.90536499023438 18.13024139404297 8.06951904296875 22.33605575561523 6.089065551757812 27.01840209960938 C 4.039306640625 31.86454772949219 3 37.01418685913086 3 42.32424163818359 C 3 47.63429641723633 4.039306640625 52.78392028808594 6.089065551757812 57.63008117675781 C 8.06951904296875 62.31242752075195 10.90536499023438 66.51822662353516 14.51779937744141 70.13066864013672 C 18.13024139404297 73.74311065673828 22.33604049682617 76.57893371582031 27.01837539672852 78.55940246582031 C 31.86453628540039 80.60916137695312 37.01416015625 81.64846801757812 42.32421493530273 81.64846801757812 C 47.63426971435547 81.64846801757812 52.78389739990234 80.60916137695312 57.63005447387695 78.55940246582031 C 62.31238555908203 76.57893371582031 66.5181884765625 73.74311065673828 70.13063049316406 70.13066864013672 C 73.74307250976562 66.51822662353516 76.57891082763672 62.31242752075195 78.55936431884766 57.63008117675781 C 80.60912322998047 52.78392028808594 81.64842987060547 47.63429641723633 81.64842987060547 42.32424163818359 C 81.64842987060547 37.01418685913086 80.60912322998047 31.86454772949219 78.55936431884766 27.01840209960938 C 76.57891082763672 22.33605575561523 73.74307250976562 18.13024139404297 70.13063049316406 14.51779937744141 C 66.5181884765625 10.90536499023438 62.31238555908203 8.069534301757812 57.63005447387695 6.089065551757812 C 52.78389739990234 4.039306640625 47.63426971435547 3 42.32421493530273 3 M 42.32421493530273 0 C 65.69922637939453 0 84.64842987060547 18.94921875 84.64842987060547 42.32424163818359 C 84.64842987060547 65.69925689697266 65.69922637939453 84.64846801757812 42.32421493530273 84.64846801757812 C 18.94920349121094 84.64846801757812 0 65.69925689697266 0 42.32424163818359 C 0 18.94921875 18.94920349121094 0 42.32421493530273 0 Z" stroke="none" fill="#496406"/>
                      </g>
                    </g>
                  </g>
                </g>
              </g>
            </g>
          </g>
        </g>
      </g>
      <g id="trabajo-en-equipo" transform="translate(194.964 4582.449)">
        <circle id="Ellipse_11569" data-name="Ellipse 11569" cx="11.507" cy="11.507" r="11.507" transform="translate(15.816 15.588)" fill="#ffb850"/>
        <path id="Path_1091064" data-name="Path 1091064" d="M25.887,342.586a9.041,9.041,0,1,1-9.041-9.041,9.006,9.006,0,0,1,9.041,9.041Z" transform="translate(-6.708 -298.242)" fill="#eaf6ff"/>
        <path id="Path_1091065" data-name="Path 1091065" d="M46.147,436.018v2.071a9.037,9.037,0,0,1-12.642,0v-2.071a1.451,1.451,0,0,1,.981-1.375l4.414-1.518h1.852l4.413,1.518A1.451,1.451,0,0,1,46.147,436.018Z" transform="translate(-29.688 -387.282)" fill="#ffb850"/>
        <path id="Path_1091066" data-name="Path 1091066" d="M36.68,438.089a9,9,0,0,0,4.733,2.439,9.047,9.047,0,0,1-7.908-2.439v-2.071a1.451,1.451,0,0,1,.981-1.375l4.414-1.518h1.852l.662.228-3.752,1.29a1.451,1.451,0,0,0-.981,1.375Z" transform="translate(-29.688 -387.282)" fill="#f5a30f"/>
        <path id="Path_1091067" data-name="Path 1091067" d="M351.327,342.586a9.041,9.041,0,1,1-9.041-9.041,9.006,9.006,0,0,1,9.041,9.041Z" transform="translate(-297.703 -298.242)" fill="#eaf6ff"/>
        <path id="Path_1091068" data-name="Path 1091068" d="M371.587,436.018v2.071a9.037,9.037,0,0,1-12.642,0v-2.071a1.451,1.451,0,0,1,.982-1.375l4.413-1.518h1.852l4.414,1.518A1.451,1.451,0,0,1,371.587,436.018Z" transform="translate(-320.683 -387.282)" fill="#88b4f5"/>
        <path id="Path_1091069" data-name="Path 1091069" d="M362.12,438.089a9,9,0,0,0,4.733,2.439,9.047,9.047,0,0,1-7.908-2.439v-2.071a1.451,1.451,0,0,1,.982-1.375l4.413-1.518h1.852l.661.228-3.751,1.29a1.451,1.451,0,0,0-.982,1.375Z" transform="translate(-320.683 -387.282)" fill="#6ea2f2"/>
        <path id="Path_1091070" data-name="Path 1091070" d="M351.327,16.546a9.008,9.008,0,0,1-2.72,6.463h0a9.04,9.04,0,0,1-12.642,0h0a9.041,9.041,0,1,1,15.362-6.463Z" transform="translate(-297.703 -6.711)" fill="#eaf6ff"/>
        <path id="Path_1091071" data-name="Path 1091071" d="M371.587,109.977v2.073a9.04,9.04,0,0,1-12.642,0v-2.073a1.452,1.452,0,0,1,.982-1.375l4.413-1.517h1.852l4.414,1.517A1.452,1.452,0,0,1,371.587,109.977Z" transform="translate(-320.683 -95.751)" fill="#f07281"/>
        <path id="Path_1091072" data-name="Path 1091072" d="M362.12,112.05a9.005,9.005,0,0,0,4.733,2.438,9.049,9.049,0,0,1-7.908-2.438v-2.073a1.452,1.452,0,0,1,.982-1.375l4.413-1.517h1.852l.661.228L363.1,108.6a1.452,1.452,0,0,0-.982,1.375Z" transform="translate(-320.683 -95.751)" fill="#eb5569"/>
        <path id="Path_1091073" data-name="Path 1091073" d="M25.887,16.546a9.008,9.008,0,0,1-2.72,6.463h0a9.04,9.04,0,0,1-12.642,0h0a9.041,9.041,0,1,1,15.362-6.463Z" transform="translate(-6.708 -6.711)" fill="#eaf6ff"/>
        <path id="Path_1091074" data-name="Path 1091074" d="M46.147,109.977v2.073a9.04,9.04,0,0,1-12.642,0v-2.073a1.452,1.452,0,0,1,.981-1.375l4.414-1.517h1.852l4.413,1.517A1.452,1.452,0,0,1,46.147,109.977Z" transform="translate(-29.688 -95.751)" fill="#ade194"/>
        <path id="Path_1091075" data-name="Path 1091075" d="M36.68,112.05a9.005,9.005,0,0,0,4.733,2.438,9.049,9.049,0,0,1-7.908-2.438v-2.073a1.452,1.452,0,0,1,.981-1.375l4.414-1.517h1.852l.662.228L37.661,108.6a1.452,1.452,0,0,0-.981,1.375Z" transform="translate(-29.688 -95.751)" fill="#87d469"/>
        <circle id="Ellipse_11570" data-name="Ellipse 11570" cx="8.467" cy="8.467" r="8.467" transform="matrix(0.987, -0.16, 0.16, 0.987, 17.603, 20.096)" fill="#fbd94f"/>
        <path id="Path_1091076" data-name="Path 1091076" d="M220.276,217.277l1.292,2.617,2.888.42-2.09,2.037.493,2.877-2.583-1.358-2.583,1.358.493-2.877-2.09-2.037,2.888-.42Z" transform="translate(-192.953 -194.28)" fill="#ffb850"/>
        <circle id="Ellipse_11571" data-name="Ellipse 11571" cx="3.267" cy="3.267" r="3.267" transform="translate(41.317 4.796)" fill="#ffeee6"/>
        <path id="Path_1091077" data-name="Path 1091077" d="M392.659,51.437a3.267,3.267,0,1,1,0-5.71,3.267,3.267,0,0,0,0,5.71Z" transform="translate(-346.488 -40.519)" fill="#ffdfcf"/>
        <circle id="Ellipse_11572" data-name="Ellipse 11572" cx="3.267" cy="3.267" r="3.267" transform="translate(6.871 4.796)" fill="#ffcebf"/>
        <path id="Path_1091078" data-name="Path 1091078" d="M67.21,51.437a3.267,3.267,0,1,1,0-5.71,3.266,3.266,0,0,0,0,5.71Z" transform="translate(-55.484 -40.519)" fill="#ffb09e"/>
        <circle id="Ellipse_11573" data-name="Ellipse 11573" cx="3.267" cy="3.267" r="3.267" transform="translate(41.317 39.306)" fill="#ffcebf"/>
        <path id="Path_1091079" data-name="Path 1091079" d="M392.659,377.487a3.267,3.267,0,1,1,0-5.71,3.267,3.267,0,0,0,0,5.71Z" transform="translate(-346.488 -332.059)" fill="#ffb09e"/>
        <circle id="Ellipse_11574" data-name="Ellipse 11574" cx="3.267" cy="3.267" r="3.267" transform="translate(6.871 39.306)" fill="#ffeee6"/>
        <path id="Path_1091080" data-name="Path 1091080" d="M67.21,377.487a3.267,3.267,0,1,1,0-5.71,3.266,3.266,0,0,0,0,5.71Z" transform="translate(-55.484 -332.059)" fill="#ffdfcf"/>
        <g id="Group_1224987" data-name="Group 1224987" transform="translate(0.303 0)">
          <path id="Path_1091081" data-name="Path 1091081" d="M168.085,177.765a9.259,9.259,0,0,0,16.819,5.348.794.794,0,0,0-1.295-.919,7.631,7.631,0,1,1,1.253-2.88.794.794,0,0,0,1.555.322,9.262,9.262,0,1,0-18.332-1.871Z" transform="translate(-150.327 -150.669)"/>
          <path id="Path_1091082" data-name="Path 1091082" d="M217.381,212.02l-2.475-.36-1.107-2.243c-.357-.769-1.1-.663-1.424,0l-1.107,2.243-2.475.36c-.828.068-.934.862-.44,1.354l1.791,1.746-.423,2.465q.056,1.134,1.152.837l2.214-1.164,2.214,1.164a.806.806,0,0,0,1.152-.837l-.423-2.465,1.791-1.746A.74.74,0,0,0,217.381,212.02Zm-2.758,2.254a.794.794,0,0,0-.228.7l.221,1.291-1.16-.61a.794.794,0,0,0-.739,0l-1.16.61.221-1.291a.794.794,0,0,0-.228-.7l-.938-.914,1.3-.188a.793.793,0,0,0,.6-.434l.58-1.175.58,1.175a.794.794,0,0,0,.6.434l1.3.188Z" transform="translate(-186.067 -186.772)"/>
          <path id="Path_1091083" data-name="Path 1091083" d="M47.988,35.117a22.224,22.224,0,0,0,0-16.054,9.953,9.953,0,0,0,6.434-9.229,9.835,9.835,0,0,0-19.063-3.4,22.222,22.222,0,0,0-16-.025A9.835,9.835,0,0,0,.3,9.835a9.952,9.952,0,0,0,6.369,9.2,22.219,22.219,0,0,0,0,16.1A9.851,9.851,0,0,0,.3,44.344a9.96,9.96,0,0,0,9.835,9.835,9.948,9.948,0,0,0,9.215-6.4,22.221,22.221,0,0,0,16.005-.025A9.835,9.835,0,1,0,47.988,35.117ZM50.11,15.951a8.231,8.231,0,0,1-11.054,0V14.226A.659.659,0,0,1,39.5,13.6l4.288-1.474h1.587L49.666,13.6a.659.659,0,0,1,.444.624v1.725Zm-8-7.888a2.473,2.473,0,1,1,2.473,2.473A2.476,2.476,0,0,1,42.11,8.063Zm2.473-6.475a8.242,8.242,0,0,1,7.1,12.43A2.245,2.245,0,0,0,50.181,12.1l-2.907-1a4.061,4.061,0,1,0-5.381,0l-2.906,1a2.245,2.245,0,0,0-1.508,1.918,8.242,8.242,0,0,1,7.1-12.43ZM3.034,14.017A8.246,8.246,0,1,1,18.385,9.835a8.2,8.2,0,0,1-1.143,4.182A2.245,2.245,0,0,0,15.735,12.1l-2.907-1a4.061,4.061,0,1,0-5.381,0l-2.906,1a2.245,2.245,0,0,0-1.508,1.918Zm9.577-5.954A2.473,2.473,0,1,1,10.138,5.59,2.476,2.476,0,0,1,12.611,8.063Zm-8,7.888V14.226a.659.659,0,0,1,.446-.624l4.288-1.474h1.587L15.22,13.6a.659.659,0,0,1,.444.624v1.725a8.231,8.231,0,0,1-11.054,0ZM15.665,50.46a8.231,8.231,0,0,1-11.054,0V48.735a.659.659,0,0,1,.446-.624l4.288-1.474h1.587l4.289,1.474a.659.659,0,0,1,.444.624Zm-8-7.887a2.473,2.473,0,1,1,2.473,2.473A2.476,2.476,0,0,1,7.665,42.573Zm27.263,3.646a20.638,20.638,0,0,1-15.141.027,10.013,10.013,0,0,0-3.413-9.506.794.794,0,1,0-1.007,1.227,8.348,8.348,0,0,1,1.875,10.56,2.245,2.245,0,0,0-1.507-1.917l-2.907-1a4.061,4.061,0,1,0-5.381,0l-2.906,1a2.245,2.245,0,0,0-1.508,1.917,8.2,8.2,0,0,1-1.143-4.182,8.329,8.329,0,0,1,10.7-7.877.794.794,0,0,0,.472-1.516A10.055,10.055,0,0,0,8.2,34.7a20.635,20.635,0,0,1,0-15.223A9.93,9.93,0,0,0,19.79,7.944a20.636,20.636,0,0,1,15.137.027A9.93,9.93,0,0,0,46.447,19.492a20.639,20.639,0,0,1,0,15.2A9.952,9.952,0,0,0,34.928,46.219Zm4.128,4.241V48.735a.659.659,0,0,1,.446-.624l4.288-1.474h1.587l4.289,1.474a.659.659,0,0,1,.444.624V50.46a8.231,8.231,0,0,1-11.054,0Zm5.527-5.415a2.473,2.473,0,1,1,2.473-2.473A2.476,2.476,0,0,1,44.583,45.046Zm7.1,3.481a2.245,2.245,0,0,0-1.507-1.917l-2.907-1a4.061,4.061,0,1,0-5.381,0l-2.906,1a2.245,2.245,0,0,0-1.508,1.918,8.247,8.247,0,1,1,14.208,0Z" transform="translate(-0.303 0)"/>
          <path id="Path_1091084" data-name="Path 1091084" d="M160.976,145.081a12.315,12.315,0,0,0-7.4-4.121.794.794,0,1,0-.246,1.568,10.715,10.715,0,1,1-3.222-.016.794.794,0,1,0-.23-1.571,12.311,12.311,0,1,0,11.1,4.139Z" transform="translate(-124.646 -126.017)"/>
        </g>
      </g>
    </g>
  </g>
</svg>
