<svg xmlns="http://www.w3.org/2000/svg" xmlns:xlink="http://www.w3.org/1999/xlink" width="106.16" height="106.16" viewBox="0 0 106.16 106.16">
  <defs>
    <filter id="Path_982547" x="0" y="0" width="106.16" height="106.16" filterUnits="userSpaceOnUse">
      <feOffset dy="3" input="SourceAlpha"/>
      <feGaussianBlur stdDeviation="3" result="blur"/>
      <feFlood flood-opacity="0.161"/>
      <feComposite operator="in" in2="blur"/>
      <feComposite in="SourceGraphic"/>
    </filter>
  </defs>
  <g id="Group_1225017" data-name="Group 1225017" transform="translate(-610.92 -1881.069)">
    <g id="Group_1224871" data-name="Group 1224871">
      <g id="Group_1206132" data-name="Group 1206132" transform="translate(0 -58.931)">
        <g id="Group_1203794" data-name="Group 1203794" transform="translate(0 -4639.878)">
          <g id="Group_1203345" data-name="Group 1203345" transform="translate(338.92 5174.875)">
            <g id="Group_1177900" data-name="Group 1177900" transform="translate(281 1411.003)">
              <g id="Group_1172010" data-name="Group 1172010" transform="translate(0)">
                <g id="Group_1171046" data-name="Group 1171046">
                  <g id="Group_1148525" data-name="Group 1148525">
                    <g transform="matrix(1, 0, 0, 1, -9, -6)" filter="url(#Path_982547)">
                      <g id="Path_982547-2" data-name="Path 982547" transform="translate(9 6)" fill="#e9f9fd">
                        <path d="M 44.0802001953125 86.660400390625 C 38.33124923706055 86.660400390625 32.75506210327148 85.53479766845703 27.50652503967285 83.31484985351562 C 22.43628692626953 81.17032623291016 17.88242530822754 78.09992218017578 13.97144985198975 74.18894958496094 C 10.06047534942627 70.27797698974609 6.99007511138916 65.72411346435547 4.845550060272217 60.65387344360352 C 2.625600099563599 55.40533828735352 1.500000238418579 49.82915115356445 1.500000238418579 44.0802001953125 C 1.500000238418579 38.33124923706055 2.625600099563599 32.75506210327148 4.845550060272217 27.50652503967285 C 6.99007511138916 22.43628692626953 10.06047534942627 17.88242530822754 13.97144985198975 13.97144985198975 C 17.88242530822754 10.06047534942627 22.43628692626953 6.99007511138916 27.50652503967285 4.845550060272217 C 32.75506210327148 2.625600099563599 38.33124923706055 1.500000238418579 44.0802001953125 1.500000238418579 C 49.82915115356445 1.500000238418579 55.40533828735352 2.625600099563599 60.65387344360352 4.845550060272217 C 65.72411346435547 6.99007511138916 70.27797698974609 10.06047534942627 74.18894958496094 13.97144985198975 C 78.09992218017578 17.88242530822754 81.17032623291016 22.43628692626953 83.31484985351562 27.50652503967285 C 85.53479766845703 32.75506210327148 86.660400390625 38.33124923706055 86.660400390625 44.0802001953125 C 86.660400390625 49.82915115356445 85.53479766845703 55.40533828735352 83.31484985351562 60.65387344360352 C 81.17032623291016 65.72411346435547 78.09992218017578 70.27797698974609 74.18894958496094 74.18894958496094 C 70.27797698974609 78.09992218017578 65.72411346435547 81.17032623291016 60.65387344360352 83.31484985351562 C 55.40533828735352 85.53479766845703 49.82915115356445 86.660400390625 44.0802001953125 86.660400390625 Z" stroke="none"/>
                        <path d="M 44.0802001953125 3 C 38.53308486938477 3 33.15349960327148 4.085746765136719 28.09085845947266 6.227058410644531 C 23.19941711425781 8.29595947265625 18.80581665039062 11.25841522216797 15.03211212158203 15.03211212158203 C 11.25841522216797 18.80581665039062 8.29595947265625 23.19941711425781 6.227058410644531 28.09085845947266 C 4.085746765136719 33.15349960327148 3 38.53308486938477 3 44.0802001953125 C 3 49.62731552124023 4.085746765136719 55.00691604614258 6.227058410644531 60.06954193115234 C 8.29595947265625 64.96098327636719 11.25841522216797 69.35458374023438 15.03211212158203 73.12828826904297 C 18.80581665039062 76.90198516845703 23.19941711425781 79.86444091796875 28.09085845947266 81.93334197998047 C 33.15349960327148 84.07466125488281 38.53308486938477 85.160400390625 44.0802001953125 85.160400390625 C 49.62731552124023 85.160400390625 55.00691604614258 84.07466125488281 60.06954193115234 81.93334197998047 C 64.96099853515625 79.86444091796875 69.35458374023438 76.90198516845703 73.12828826904297 73.12828826904297 C 76.90198516845703 69.35458374023438 79.86444091796875 64.96099853515625 81.93334197998047 60.06954193115234 C 84.07466125488281 55.00691604614258 85.160400390625 49.62731552124023 85.160400390625 44.0802001953125 C 85.160400390625 38.53308486938477 84.07466125488281 33.15349960327148 81.93334197998047 28.09085845947266 C 79.86444091796875 23.19941711425781 76.90198516845703 18.80581665039062 73.12828826904297 15.03211212158203 C 69.35458374023438 11.25841522216797 64.96098327636719 8.29595947265625 60.06954193115234 6.227058410644531 C 55.00691604614258 4.085746765136719 49.62731552124023 3 44.0802001953125 3 M 44.0802001953125 0 C 68.42502593994141 0 88.160400390625 19.73538970947266 88.160400390625 44.0802001953125 C 88.160400390625 68.42502593994141 68.42502593994141 88.160400390625 44.0802001953125 88.160400390625 C 19.73538970947266 88.160400390625 0 68.42502593994141 0 44.0802001953125 C 0 19.73538970947266 19.73538970947266 0 44.0802001953125 0 Z" stroke="none" fill="#1d7083"/>
                      </g>
                    </g>
                  </g>
                </g>
              </g>
            </g>
          </g>
        </g>
      </g>
      <g id="invention_9994283" transform="translate(624.715 1891.865)">
        <g id="Group_1224869" data-name="Group 1224869" transform="translate(7.501 7.5)">
          <g id="Group_1224865" data-name="Group 1224865" transform="translate(33.417 14.831)">
            <g id="Group_1224863" data-name="Group 1224863">
              <path id="Path_1090938" data-name="Path 1090938" d="M298.685,140.507l-.027-3.945a.256.256,0,0,0-.256-.256l-2.525.063a.255.255,0,0,1-.249-.2,13.935,13.935,0,0,0-1.231-3.795q-.112-.191-.23-.378a.255.255,0,0,1,.034-.318l1.876-1.876a.256.256,0,0,0,0-.362l-3.143-3.143a.256.256,0,0,0-.362,0l-1.876,1.876a.255.255,0,0,1-.318.034,12.159,12.159,0,0,0-4.055-1.642l-1.284-3.112h-3.672v3.112a12.148,12.148,0,0,0-4.226,1.754l-2.2-2.2-3.506,3.5,2.2,2.2a12.157,12.157,0,0,0-1.752,4.226H268.77v4.958h3.113a12.156,12.156,0,0,0,1.752,4.226l-2.2,2.2,3.506,3.5,2.2-2.2a12.732,12.732,0,0,0,4.23,1.416.255.255,0,0,1,.2.249l-.021,2.64a.256.256,0,0,0,.256.256l4.018-.027a.256.256,0,0,0,.256-.256l-.075-2.561a.255.255,0,0,1,.2-.249,14.344,14.344,0,0,0,4.145-1.858.255.255,0,0,1,.318.034l1.921,1.88a.256.256,0,0,0,.362,0l2.648-2.732a.256.256,0,0,0,0-.362l-1.709-1.733a.255.255,0,0,1-.034-.318,14.472,14.472,0,0,0,1.611-4.256.256.256,0,0,1,.249-.2l2.713.1A.256.256,0,0,0,298.685,140.507ZM283.846,145.9a7.374,7.374,0,1,1,7.374-7.374A7.375,7.375,0,0,1,283.846,145.9Z" transform="translate(-268.77 -123.452)" fill="#888891"/>
            </g>
            <g id="Group_1224864" data-name="Group 1224864" transform="translate(0 8.921)">
              <path id="Path_1090939" data-name="Path 1090939" d="M268.771,258.381v.3h.142Q268.84,258.531,268.771,258.381Z" transform="translate(-268.771 -250.044)" fill="#73737f"/>
              <path id="Path_1090940" data-name="Path 1090940" d="M317.079,197.132v4.446a.257.257,0,0,1-.256.256h-2.651a.257.257,0,0,0-.249.2,12.131,12.131,0,0,1-1.6,3.852.256.256,0,0,0,.035.318l1.876,1.876a.255.255,0,0,1,0,.361l-3.144,3.144a.255.255,0,0,1-.361,0l-1.876-1.876a.256.256,0,0,0-.318-.035,12.136,12.136,0,0,1-3.854,1.6.257.257,0,0,0-.2.249v2.651a.257.257,0,0,1-.256.256h-4.445a.257.257,0,0,1-.256-.256v-2.651a.257.257,0,0,0-.2-.249,12.135,12.135,0,0,1-4.025-1.709l-2.2,2.2-3.506-3.5,1.55-1.55A13.576,13.576,0,0,0,312.555,193.2a12.124,12.124,0,0,1,1.367,3.474.257.257,0,0,0,.249.2h2.651A.257.257,0,0,1,317.079,197.132Z" transform="translate(-286.928 -193.201)" fill="#73737f"/>
            </g>
          </g>
          <g id="Group_1224868" data-name="Group 1224868" transform="translate(0 14.831)">
            <g id="Group_1224866" data-name="Group 1224866">
              <path id="Path_1090941" data-name="Path 1090941" d="M37.416,140.507l-.027-3.945a.256.256,0,0,0-.256-.256l-2.525.063a.255.255,0,0,1-.249-.2,13.934,13.934,0,0,0-1.231-3.795q-.112-.191-.23-.378a.255.255,0,0,1,.034-.318l1.876-1.876a.256.256,0,0,0,0-.362L31.665,126.3a.256.256,0,0,0-.362,0l-1.876,1.876a.255.255,0,0,1-.318.034,12.159,12.159,0,0,0-4.055-1.642l-1.284-3.112H22.221L20.1,126.564a12.148,12.148,0,0,0-4.226,1.754l-2.2-2.2-3.506,3.5,2.2,2.2a12.156,12.156,0,0,0-1.752,4.226H7.5v4.958h3.113a12.156,12.156,0,0,0,1.752,4.226l-2.2,2.2,3.506,3.5,2.2-2.2a12.732,12.732,0,0,0,4.23,1.416.255.255,0,0,1,.2.249l-.021,2.64a.256.256,0,0,0,.256.256l4.018-.027a.256.256,0,0,0,.256-.256l-.075-2.561a.255.255,0,0,1,.2-.249,14.345,14.345,0,0,0,4.145-1.858.255.255,0,0,1,.318.034l1.921,1.88a.256.256,0,0,0,.362,0l2.648-2.732a.256.256,0,0,0,0-.362l-1.709-1.733a.255.255,0,0,1-.034-.318,14.474,14.474,0,0,0,1.611-4.256.255.255,0,0,1,.249-.2l2.713.1A.256.256,0,0,0,37.416,140.507ZM22.577,145.9a7.374,7.374,0,1,1,7.374-7.374A7.375,7.375,0,0,1,22.577,145.9Z" transform="translate(-7.501 -123.452)" fill="#888891"/>
            </g>
            <g id="Group_1224867" data-name="Group 1224867" transform="translate(0 8.921)">
              <path id="Path_1090942" data-name="Path 1090942" d="M7.5,258.381v.3h.142Q7.57,258.531,7.5,258.381Z" transform="translate(-7.501 -250.044)" fill="#73737f"/>
              <path id="Path_1090943" data-name="Path 1090943" d="M55.809,197.132v4.446a.257.257,0,0,1-.256.256H52.9a.257.257,0,0,0-.249.2,12.13,12.13,0,0,1-1.6,3.852.256.256,0,0,0,.035.318l1.876,1.876a.255.255,0,0,1,0,.361l-3.144,3.144a.255.255,0,0,1-.361,0l-1.876-1.876a.256.256,0,0,0-.318-.035,12.136,12.136,0,0,1-3.854,1.6.257.257,0,0,0-.2.249v2.651a.257.257,0,0,1-.256.256H38.511a.257.257,0,0,1-.256-.256v-2.651a.257.257,0,0,0-.2-.249,12.135,12.135,0,0,1-4.025-1.709l-2.2,2.2-3.506-3.5,1.55-1.55A13.575,13.575,0,0,0,51.285,193.2a12.122,12.122,0,0,1,1.367,3.474.257.257,0,0,0,.249.2h2.651A.257.257,0,0,1,55.809,197.132Z" transform="translate(-25.658 -193.201)" fill="#73737f"/>
            </g>
          </g>
          <path id="Path_1090944" data-name="Path 1090944" d="M142.063,27.853a18.056,18.056,0,0,1-4.142,11.771,24.177,24.177,0,0,0-3.817,6.645l-.3.166c-1.692,3.773-1.082,8.376-1.582,12.532H113.9V54.609a23.971,23.971,0,0,0-1.488-8.341,22.857,22.857,0,0,0-3.742-6.542,19.4,19.4,0,0,1,13.111-31.6,21.646,21.646,0,0,1,2.25.116C134.643,8.373,142.063,17.215,142.063,27.853Z" transform="translate(-91.909 -8.034)" fill="#ffe98f"/>
          <path id="Path_1090945" data-name="Path 1090945" d="M262.4,26.905a19.321,19.321,0,0,1-4.3,12.184,24.175,24.175,0,0,0-3.817,6.645,22.973,22.973,0,0,0-1.5,8.136v4.562h-3.837V53.87a23.386,23.386,0,0,1,1.88-8.136.072.072,0,0,0,.005-.015,24.194,24.194,0,0,1,3.812-6.629,19.545,19.545,0,0,0,4.56-12.184c0-10.066-8.3-18.343-18.115-19.311A19.4,19.4,0,0,1,262.4,26.905Z" transform="translate(-211.214 -7.5)" fill="#fcdd5b"/>
          <path id="Path_1090946" data-name="Path 1090946" d="M205.65,420.23l-2.838.457H191.933a1.338,1.338,0,0,1-1.339-1.339V408.394h16.041l.353,10.5A1.338,1.338,0,0,1,205.65,420.23Z" transform="translate(-167.176 -357.118)" fill="#deecf1"/>
          <path id="Path_1090947" data-name="Path 1090947" d="M287.86,408.391v10.954a1.34,1.34,0,0,1-1.339,1.339H282.94a1.34,1.34,0,0,0,1.339-1.339V408.391Z" transform="translate(-247.71 -357.115)" fill="#cbe5e8"/>
          <path id="Path_1090948" data-name="Path 1090948" d="M192.681,452.288l-3.936.4h-13.6a1.753,1.753,0,0,1-1.753-1.753h0a1.753,1.753,0,0,1,1.753-1.753h13.6l3.936.435c.968,0,1.12.242,1.12,1.21h0C193.8,451.794,193.65,452.288,192.681,452.288Z" transform="translate(-152.176 -392.688)" fill="#cbe5e8"/>
          <path id="Path_1090949" data-name="Path 1090949" d="M299.192,450.935a1.753,1.753,0,0,1-1.754,1.752h-4.028v-3.506h4.028A1.754,1.754,0,0,1,299.192,450.935Z" transform="translate(-256.842 -392.688)" fill="#add8d8"/>
          <path id="Path_1090950" data-name="Path 1090950" d="M153.9,70.57a3.347,3.347,0,0,1-5.618-.687c-.15.016-.739-.3-.893-.3-.387,0-.325.271-.682.176a4.357,4.357,0,0,1-3.164-3.432c-.045-.251.2-.459.2-.723s-.24-.564-.2-.811a3.35,3.35,0,0,1-1.874-4.441c0-.009.009-.019.013-.029-.228-.142-.318-.491-.513-.674s-.5-.208-.65-.43a4.013,4.013,0,0,1,.365-5.055c-.226-.392.016-.638.016-1.123,0-.125-.363-.458-.346-.579a2.678,2.678,0,0,1,1.511-2.053,3.348,3.348,0,0,1,2.627-4.22c-.051-.233.263-.5.263-.75,0-.286-.305-.538-.238-.8a3.348,3.348,0,0,1,4.705-2.182c.077-.245.538-.153.678-.362s-.034-.728.163-.893a2.678,2.678,0,0,1,3.637.193c.469.481.454,3.155.454,3.881V67.443C154.357,68.247,154.376,69.993,153.9,70.57Z" transform="translate(-122.875 -36.349)" fill="#ffd9b6"/>
          <path id="Path_1090951" data-name="Path 1090951" d="M258.81,70.568a3.093,3.093,0,0,0,2.594.864,2.91,2.91,0,0,0,2.768-1.832,13.2,13.2,0,0,0,1.782-.25,3.494,3.494,0,0,0,2.848-3,12.55,12.55,0,0,0,.166-1.811,3.136,3.136,0,0,0,2.115-2.981,3.088,3.088,0,0,0-.412-1.235c0-.009,1.87-2.762,1.87-3.619a3.359,3.359,0,0,0-.908-2.54,5.485,5.485,0,0,0,.275-1.8,2.456,2.456,0,0,0-1.482-1.932,4.849,4.849,0,0,0,.075-1.116,3.641,3.641,0,0,0-2.483-3.13c.051-.233-.263-.5-.263-.75,0-.286.305-.538.238-.8a3.348,3.348,0,0,0-4.705-2.182c-.077-.245-.538-.153-.678-.362s.034-.728-.163-.893a2.676,2.676,0,0,0-3.636.193c-.469.481-.455,3.155-.455,3.881V67.441C258.355,68.245,258.338,69.991,258.81,70.568Z" transform="translate(-226.269 -36.347)" fill="#ffd9b6"/>
          <path id="Path_1090952" data-name="Path 1090952" d="M274.412,99.925a3.333,3.333,0,0,0-.269-1.318l-.013-.029c.228-.142.318-.491.513-.674s.5-.208.65-.43a4.012,4.012,0,0,0-.365-5.055c.226-.392-.016-.638-.016-1.123,0-.125.363-.458.346-.579a2.678,2.678,0,0,0-1.511-2.053,3.348,3.348,0,0,0-2.627-4.22,17.212,17.212,0,0,1,1.517,11.506c-1.366,6.931-9.174,12.873-10.724,12.873a3.346,3.346,0,0,0,5.617-.687c.15.016.738-.3.893-.3.387,0,.325.271.682.176a4.357,4.357,0,0,0,3.164-3.432c.045-.251-.2-.459-.2-.723s.24-.564.2-.811A3.348,3.348,0,0,0,274.412,99.925Z" transform="translate(-229.372 -74.602)" fill="#ffc3a8"/>
          <path id="Path_1090953" data-name="Path 1090953" d="M187.637,387.039l-4.64.436H167.622a1.211,1.211,0,0,1-1.211-1.211V383.73a1.211,1.211,0,0,1,1.211-1.211h16.2l3.835.312a1.211,1.211,0,0,1,1.211,1.211l-.019,1.787A1.211,1.211,0,0,1,187.637,387.039Z" transform="translate(-146.086 -334.552)" fill="#eef5f6"/>
          <path id="Path_1090954" data-name="Path 1090954" d="M298.809,383.731v2.535a1.211,1.211,0,0,1-1.211,1.211h-5.65a1.354,1.354,0,0,0,1.354-1.353v-3.6h4.3A1.211,1.211,0,0,1,298.809,383.731Z" transform="translate(-255.566 -334.554)" fill="#deecf1"/>
        </g>
        <g id="Group_1224870" data-name="Group 1224870" transform="translate(7.501 7.5)">
          <path id="Path_1090955" data-name="Path 1090955" d="M339.65,167.314a12.123,12.123,0,0,0,3.531,1.328v3.113h4.957v-3.113a12.145,12.145,0,0,0,4.226-1.752l2.2,2.2,3.505-3.505-2.2-2.2a12.144,12.144,0,0,0,1.752-4.226h3.113V154.2h-3.113a12.144,12.144,0,0,0-1.752-4.226l2.2-2.2-3.505-3.505-2.2,2.2a12.149,12.149,0,0,0-3.944-1.691" transform="translate(-297.167 -126.774)" fill="none" stroke="#000" stroke-linecap="round" stroke-linejoin="round" stroke-miterlimit="10" stroke-width="1.5"/>
          <path id="Path_1090956" data-name="Path 1090956" d="M360.045,186.946a7.375,7.375,0,1,1-6.723,12.973" transform="translate(-309.09 -163.994)" fill="none" stroke="#000" stroke-linecap="round" stroke-linejoin="round" stroke-miterlimit="10" stroke-width="1.5"/>
          <path id="Path_1090957" data-name="Path 1090957" d="M28.523,167.349a12.123,12.123,0,0,1-3.468,1.292v3.113H20.1v-3.113a12.144,12.144,0,0,1-4.226-1.752l-2.2,2.2-3.505-3.505,2.2-2.2a12.144,12.144,0,0,1-1.752-4.226H7.5V154.2h3.113a12.144,12.144,0,0,1,1.752-4.226l-2.2-2.2,3.505-3.505,2.2,2.2a12.144,12.144,0,0,1,3.941-1.69" transform="translate(-7.501 -126.774)" fill="none" stroke="#000" stroke-linecap="round" stroke-linejoin="round" stroke-miterlimit="10" stroke-width="1.5"/>
          <path id="Path_1090958" data-name="Path 1090958" d="M70.421,258.811a7.377,7.377,0,0,0,11.331,3.75" transform="translate(-62.373 -226.667)" fill="none" stroke="#000" stroke-linecap="round" stroke-linejoin="round" stroke-miterlimit="10" stroke-width="1.5"/>
          <path id="Path_1090959" data-name="Path 1090959" d="M70.421,191.779a7.388,7.388,0,0,1,4.519-4.7" transform="translate(-62.373 -164.112)" fill="none" stroke="#000" stroke-linecap="round" stroke-linejoin="round" stroke-miterlimit="10" stroke-width="1.5"/>
          <path id="Path_1090960" data-name="Path 1090960" d="M107.539,75.391A19.359,19.359,0,0,0,108.675,98.4a23.463,23.463,0,0,1,5.23,14.883v1.188" transform="translate(-91.909 -66.707)" fill="none" stroke="#000" stroke-linecap="round" stroke-linejoin="round" stroke-miterlimit="10" stroke-width="1.5"/>
          <path id="Path_1090961" data-name="Path 1090961" d="M152.331,12.768a19.4,19.4,0,0,1,30.742,22.567" transform="translate(-133.807 -7.5)" fill="none" stroke="#000" stroke-linecap="round" stroke-linejoin="round" stroke-miterlimit="10" stroke-width="1.5"/>
          <path id="Path_1090962" data-name="Path 1090962" d="M332.531,270.791v-1.329a23.545,23.545,0,0,1,5.29-14.751" transform="translate(-290.958 -223.092)" fill="none" stroke="#000" stroke-linecap="round" stroke-linejoin="round" stroke-miterlimit="10" stroke-width="1.5"/>
          <path id="Path_1090963" data-name="Path 1090963" d="M207.326,478.029v2.047a1.338,1.338,0,0,1-1.338,1.338H191.933a1.338,1.338,0,0,1-1.339-1.338v-2.047" transform="translate(-167.176 -417.846)" fill="none" stroke="#000" stroke-linecap="round" stroke-linejoin="round" stroke-miterlimit="10" stroke-width="1.5"/>
          <line id="Line_726" data-name="Line 726" y2="3.211" transform="translate(40.15 53.149)" fill="none" stroke="#000" stroke-linecap="round" stroke-linejoin="round" stroke-miterlimit="10" stroke-width="1.5"/>
          <line id="Line_727" data-name="Line 727" y1="3.211" transform="translate(23.418 53.149)" fill="none" stroke="#000" stroke-linecap="round" stroke-linejoin="round" stroke-miterlimit="10" stroke-width="1.5"/>
          <path id="Path_1090964" data-name="Path 1090964" d="M188.118,387.477h-20.5a1.211,1.211,0,0,1-1.211-1.211v-2.535a1.211,1.211,0,0,1,1.211-1.211h20.5a1.211,1.211,0,0,1,1.211,1.211v2.535A1.211,1.211,0,0,1,188.118,387.477Z" transform="translate(-146.086 -334.553)" fill="none" stroke="#000" stroke-linecap="round" stroke-linejoin="round" stroke-miterlimit="10" stroke-width="1.5"/>
          <path id="Path_1090965" data-name="Path 1090965" d="M188.678,449.181h4.092a1.753,1.753,0,1,1,0,3.506H175.145a1.753,1.753,0,0,1,0-3.506H184.2" transform="translate(-152.173 -392.688)" fill="none" stroke="#000" stroke-linecap="round" stroke-linejoin="round" stroke-miterlimit="10" stroke-width="1.5"/>
          <path id="Path_1090966" data-name="Path 1090966" d="M154.649,43.256a2.679,2.679,0,0,0-5.234-.8,3.348,3.348,0,0,0-4.731,3.735,3.347,3.347,0,0,0-2.627,4.22,2.678,2.678,0,0,0-1.181,3.756,4.015,4.015,0,0,0,.8,6.159,3.348,3.348,0,0,0,1.86,4.47,4.353,4.353,0,0,0,4.74,5.089,3.348,3.348,0,0,0,6.374-1.433" transform="translate(-122.864 -36.347)" fill="none" stroke="#000" stroke-linecap="round" stroke-linejoin="round" stroke-miterlimit="10" stroke-width="1.5"/>
          <path id="Path_1090967" data-name="Path 1090967" d="M256,43.256a2.679,2.679,0,0,1,5.234-.8,3.348,3.348,0,0,1,4.731,3.735,3.347,3.347,0,0,1,2.627,4.22,2.678,2.678,0,0,1,1.181,3.756,4.015,4.015,0,0,1-.8,6.159,3.348,3.348,0,0,1-1.86,4.47,4.353,4.353,0,0,1-4.74,5.089A3.348,3.348,0,0,1,256,68.449Z" transform="translate(-224.217 -36.347)" fill="none" stroke="#000" stroke-linecap="round" stroke-linejoin="round" stroke-miterlimit="10" stroke-width="1.5"/>
          <path id="Path_1090968" data-name="Path 1090968" d="M323.21,227.139a3.264,3.264,0,0,1-1.064.157,3.22,3.22,0,0,1-1.823-.563" transform="translate(-280.311 -198.692)" fill="none" stroke="#000" stroke-linecap="round" stroke-linejoin="round" stroke-miterlimit="10" stroke-width="1.5"/>
          <path id="Path_1090969" data-name="Path 1090969" d="M341.643,179.276a3.94,3.94,0,0,1,2.021,2.005" transform="translate(-298.905 -157.305)" fill="none" stroke="#000" stroke-linecap="round" stroke-linejoin="round" stroke-miterlimit="10" stroke-width="1.5"/>
          <path id="Path_1090970" data-name="Path 1090970" d="M305.772,249.283a3.341,3.341,0,0,1-.089,2.6" transform="translate(-267.544 -218.358)" fill="none" stroke="#000" stroke-linecap="round" stroke-linejoin="round" stroke-miterlimit="10" stroke-width="1.5"/>
          <path id="Path_1090971" data-name="Path 1090971" d="M317.415,83.879a3.213,3.213,0,0,0-2.419.4" transform="translate(-275.666 -74.037)" fill="none" stroke="#000" stroke-linecap="round" stroke-linejoin="round" stroke-miterlimit="10" stroke-width="1.5"/>
          <path id="Path_1090972" data-name="Path 1090972" d="M169.087,227.1a3.265,3.265,0,0,0,1.064.157,3.22,3.22,0,0,0,1.831-.568" transform="translate(-148.419 -198.656)" fill="none" stroke="#000" stroke-linecap="round" stroke-linejoin="round" stroke-miterlimit="10" stroke-width="1.5"/>
          <path id="Path_1090973" data-name="Path 1090973" d="M156.6,179.711a4.1,4.1,0,0,0-2.054,1.95" transform="translate(-135.735 -157.684)" fill="none" stroke="#000" stroke-linecap="round" stroke-linejoin="round" stroke-miterlimit="10" stroke-width="1.5"/>
          <path id="Path_1090974" data-name="Path 1090974" d="M204.1,249.283a3.34,3.34,0,0,0,.089,2.6" transform="translate(-178.761 -218.358)" fill="none" stroke="#000" stroke-linecap="round" stroke-linejoin="round" stroke-miterlimit="10" stroke-width="1.5"/>
          <path id="Path_1090975" data-name="Path 1090975" d="M178.077,83.879a3.213,3.213,0,0,1,2.419.4" transform="translate(-156.26 -74.037)" fill="none" stroke="#000" stroke-linecap="round" stroke-linejoin="round" stroke-miterlimit="10" stroke-width="1.5"/>
          <path id="Path_1090976" data-name="Path 1090976" d="M192.144,88.309a2.329,2.329,0,0,1,3.783-1.819" transform="translate(-168.527 -75.942)" fill="none" stroke="#000" stroke-linecap="round" stroke-linejoin="round" stroke-miterlimit="10" stroke-width="1.5"/>
          <path id="Path_1090977" data-name="Path 1090977" d="M290.81,86.436a2.329,2.329,0,0,1,3.715,1.871" transform="translate(-254.574 -75.941)" fill="none" stroke="#000" stroke-linecap="round" stroke-linejoin="round" stroke-miterlimit="10" stroke-width="1.5"/>
          <path id="Path_1090978" data-name="Path 1090978" d="M288.178,153.241a2.329,2.329,0,0,1-3.783,1.819" transform="translate(-248.979 -134.6)" fill="none" stroke="#000" stroke-linecap="round" stroke-linejoin="round" stroke-miterlimit="10" stroke-width="1.5"/>
          <path id="Path_1090979" data-name="Path 1090979" d="M201.743,155.113a2.329,2.329,0,0,1-3.715-1.871" transform="translate(-173.659 -134.601)" fill="none" stroke="#000" stroke-linecap="round" stroke-linejoin="round" stroke-miterlimit="10" stroke-width="1.5"/>
          <path id="Path_1090980" data-name="Path 1090980" d="M196.505,211.206a2.973,2.973,0,0,1-3.411-4.871" transform="translate(-168.251 -180.903)" fill="none" stroke="#000" stroke-linecap="round" stroke-linejoin="round" stroke-miterlimit="10" stroke-width="1.5"/>
          <path id="Path_1090981" data-name="Path 1090981" d="M287.1,206.4a2.973,2.973,0,0,1-3.411,4.871" transform="translate(-248.362 -180.959)" fill="none" stroke="#000" stroke-linecap="round" stroke-linejoin="round" stroke-miterlimit="10" stroke-width="1.5"/>
          <line id="Line_728" data-name="Line 728" y2="15.599" transform="translate(31.784 31.974)" fill="none" stroke="#000" stroke-linecap="round" stroke-linejoin="round" stroke-miterlimit="10" stroke-width="1.5"/>
        </g>
      </g>
    </g>
  </g>
</svg>
