<svg xmlns="http://www.w3.org/2000/svg" xmlns:xlink="http://www.w3.org/1999/xlink" width="106.16" height="106.16" viewBox="0 0 106.16 106.16">
  <defs>
    <filter id="Path_982547" x="0" y="0" width="106.16" height="106.16" filterUnits="userSpaceOnUse">
      <feOffset dy="3" input="SourceAlpha"/>
      <feGaussianBlur stdDeviation="3" result="blur"/>
      <feFlood flood-opacity="0.161"/>
      <feComposite operator="in" in2="blur"/>
      <feComposite in="SourceGraphic"/>
    </filter>
  </defs>
  <g id="Group_1225015" data-name="Group 1225015" transform="translate(-1031.42 -1723.069)">
    <g id="Group_1224879" data-name="Group 1224879">
      <g id="Group_1224861" data-name="Group 1224861">
        <g id="Group_1206133" data-name="Group 1206133" transform="translate(0 -58.931)">
          <g id="Group_1203662" data-name="Group 1203662" transform="translate(0 -4797.878)">
            <g id="Group_1203346" data-name="Group 1203346" transform="translate(759.42 5174.875)">
              <g id="Group_1177900" data-name="Group 1177900" transform="translate(281 1411.003)">
                <g id="Group_1172010" data-name="Group 1172010" transform="translate(0)">
                  <g id="Group_1171046" data-name="Group 1171046">
                    <g id="Group_1148525" data-name="Group 1148525">
                      <g transform="matrix(1, 0, 0, 1, -9, -6)" filter="url(#Path_982547)">
                        <g id="Path_982547-2" data-name="Path 982547" transform="translate(9 6)" fill="#e9f9fd">
                          <path d="M 44.0802001953125 86.660400390625 C 38.33124923706055 86.660400390625 32.75506210327148 85.53479766845703 27.50652503967285 83.31484985351562 C 22.43628692626953 81.17032623291016 17.88242530822754 78.09992218017578 13.97144985198975 74.18894958496094 C 10.06047534942627 70.27797698974609 6.99007511138916 65.72411346435547 4.845550060272217 60.65387344360352 C 2.625600099563599 55.40533828735352 1.500000238418579 49.82915115356445 1.500000238418579 44.0802001953125 C 1.500000238418579 38.33124923706055 2.625600099563599 32.75506210327148 4.845550060272217 27.50652503967285 C 6.99007511138916 22.43628692626953 10.06047534942627 17.88242530822754 13.97144985198975 13.97144985198975 C 17.88242530822754 10.06047534942627 22.43628692626953 6.99007511138916 27.50652503967285 4.845550060272217 C 32.75506210327148 2.625600099563599 38.33124923706055 1.500000238418579 44.0802001953125 1.500000238418579 C 49.82915115356445 1.500000238418579 55.40533828735352 2.625600099563599 60.65387344360352 4.845550060272217 C 65.72411346435547 6.99007511138916 70.27797698974609 10.06047534942627 74.18894958496094 13.97144985198975 C 78.09992218017578 17.88242530822754 81.17032623291016 22.43628692626953 83.31484985351562 27.50652503967285 C 85.53479766845703 32.75506210327148 86.660400390625 38.33124923706055 86.660400390625 44.0802001953125 C 86.660400390625 49.82915115356445 85.53479766845703 55.40533828735352 83.31484985351562 60.65387344360352 C 81.17032623291016 65.72411346435547 78.09992218017578 70.27797698974609 74.18894958496094 74.18894958496094 C 70.27797698974609 78.09992218017578 65.72411346435547 81.17032623291016 60.65387344360352 83.31484985351562 C 55.40533828735352 85.53479766845703 49.82915115356445 86.660400390625 44.0802001953125 86.660400390625 Z" stroke="none"/>
                          <path d="M 44.0802001953125 3 C 38.53308486938477 3 33.15349960327148 4.085746765136719 28.09085845947266 6.227058410644531 C 23.19941711425781 8.29595947265625 18.80581665039062 11.25841522216797 15.03211212158203 15.03211212158203 C 11.25841522216797 18.80581665039062 8.29595947265625 23.19941711425781 6.227058410644531 28.09085845947266 C 4.085746765136719 33.15349960327148 3 38.53308486938477 3 44.0802001953125 C 3 49.62731552124023 4.085746765136719 55.00691604614258 6.227058410644531 60.06954193115234 C 8.29595947265625 64.96098327636719 11.25841522216797 69.35458374023438 15.03211212158203 73.12828826904297 C 18.80581665039062 76.90198516845703 23.19941711425781 79.86444091796875 28.09085845947266 81.93334197998047 C 33.15349960327148 84.07466125488281 38.53308486938477 85.160400390625 44.0802001953125 85.160400390625 C 49.62731552124023 85.160400390625 55.00691604614258 84.07466125488281 60.06954193115234 81.93334197998047 C 64.96099853515625 79.86444091796875 69.35458374023438 76.90198516845703 73.12828826904297 73.12828826904297 C 76.90198516845703 69.35458374023438 79.86444091796875 64.96099853515625 81.93334197998047 60.06954193115234 C 84.07466125488281 55.00691604614258 85.160400390625 49.62731552124023 85.160400390625 44.0802001953125 C 85.160400390625 38.53308486938477 84.07466125488281 33.15349960327148 81.93334197998047 28.09085845947266 C 79.86444091796875 23.19941711425781 76.90198516845703 18.80581665039062 73.12828826904297 15.03211212158203 C 69.35458374023438 11.25841522216797 64.96098327636719 8.29595947265625 60.06954193115234 6.227058410644531 C 55.00691604614258 4.085746765136719 49.62731552124023 3 44.0802001953125 3 M 44.0802001953125 0 C 68.42502593994141 0 88.160400390625 19.73538970947266 88.160400390625 44.0802001953125 C 88.160400390625 68.42502593994141 68.42502593994141 88.160400390625 44.0802001953125 88.160400390625 C 19.73538970947266 88.160400390625 0 68.42502593994141 0 44.0802001953125 C 0 19.73538970947266 19.73538970947266 0 44.0802001953125 0 Z" stroke="none" fill="#1d7083"/>
                        </g>
                      </g>
                    </g>
                  </g>
                </g>
              </g>
            </g>
          </g>
        </g>
      </g>
      <g id="leadership_9793061" transform="translate(1049.363 1736.494)">
        <g id="Group_1224877" data-name="Group 1224877" transform="translate(7.5 7.5)">
          <path id="Path_1090982" data-name="Path 1090982" d="M452.158,82.873h-3.724l-.423.563v3.87l-.727.5v4.343l.282.6.545.491.315.1h3.732a1.363,1.363,0,0,0,1.363-1.363V84.236A1.362,1.362,0,0,0,452.158,82.873Z" transform="translate(-399.345 -74.657)" fill="#00c2fb"/>
          <g id="Group_1224872" data-name="Group 1224872" transform="translate(42.104 13.014)">
            <path id="Path_1090983" data-name="Path 1090983" d="M399.794,131.189v-4.3l-.264.183h-4.5l-1.275.815v3.306a1.363,1.363,0,0,0,1.363,1.363h6.035A1.362,1.362,0,0,1,399.794,131.189Z" transform="translate(-393.759 -126.884)" fill="#00abf2"/>
          </g>
          <path id="Path_1090984" data-name="Path 1090984" d="M401.112,40.039h-4.3l-.79.259-.321.954v8.284l.836.79.533.177h4.042a1.363,1.363,0,0,0,1.363-1.363V41.4A1.363,1.363,0,0,0,401.112,40.039Z" transform="translate(-353.386 -36.492)" fill="#62ddfc"/>
          <path id="Path_1090985" data-name="Path 1090985" d="M345.9,49.141V41.4a1.362,1.362,0,0,1,1.363-1.363h-6.981l-.834,1v8.648l.834.815h6.981A1.363,1.363,0,0,1,345.9,49.141Z" transform="translate(-303.267 -36.492)" fill="#00c2fb"/>
          <path id="Path_1090986" data-name="Path 1090986" d="M314.059,33.275a1.712,1.712,0,0,1,2.59,0l.535.619V9.33a1.83,1.83,0,1,0-3.66,0V33.894Z" transform="translate(-280.166 -7.5)" fill="#c9f0fe"/>
          <path id="Path_1090987" data-name="Path 1090987" d="M301.717,268.466l-5.774-6.682a1.712,1.712,0,0,0-2.59,0l-2.458,2.844-3.161-3.658h-1.018l-5.625,3.473-2.834,4.651-.472,3.165v5.733l1.491.712s-.11,6.867,0,7.085-1.255,1.726-1.255,1.726h23.226a1.251,1.251,0,0,0,1.251-1.251v-15.7A3.2,3.2,0,0,0,301.717,268.466Z" transform="translate(-248.321 -233.34)" fill="#ce7bbc"/>
          <g id="Group_1224873" data-name="Group 1224873" transform="translate(20.914 23.648)">
            <path id="Path_1090988" data-name="Path 1090988" d="M208.575,243.219a16.429,16.429,0,0,1,9.281-14.8l-2.929-3.389a1.712,1.712,0,0,0-2.59,0l-12.979,15.021,1.146,1.852,8.285,3.96A16.55,16.55,0,0,1,208.575,243.219Z" transform="translate(-199.358 -224.441)" fill="#c464b0"/>
          </g>
          <path id="Path_1090989" data-name="Path 1090989" d="M208.938,246.564l1.024-.681.2-.345.031-.266a2.26,2.26,0,0,0-1.634-1.2H208l-1.381.868v1.622Z" transform="translate(-184.914 -218.286)" fill="#ffb1a0"/>
          <path id="Path_1090990" data-name="Path 1090990" d="M66.409,247.22l1.081.872h2.569v-2.08H68.212l-.763-.223a2.27,2.27,0,0,0-1.04,1.01Z" transform="translate(-59.988 -219.814)" fill="#ffb1a0"/>
          <path id="Path_1090991" data-name="Path 1090991" d="M208.189,256.287h-1.215l-.354-.474v2.054l.354.474h1.215a2.257,2.257,0,0,0,2.257-2.257h0a2.24,2.24,0,0,0-.249-1.027A2.255,2.255,0,0,1,208.189,256.287Z" transform="translate(-184.914 -228.072)" fill="#ffa68e"/>
          <path id="Path_1090992" data-name="Path 1090992" d="M66.383,256.286a2.255,2.255,0,0,1-2.008-1.23,2.238,2.238,0,0,0-.249,1.027h0a2.257,2.257,0,0,0,2.257,2.257H67.6l.427-.837v-2.054l-.427.837Z" transform="translate(-57.953 -228.071)" fill="#ffa68e"/>
          <path id="Path_1090993" data-name="Path 1090993" d="M70.258,375.474l-4.352-1.686-1.074.495L62.784,373.2l-3.219,3.468h-3.61l-3.976-3.229-1.175.342h-1.2l-.548.214h0l-1,.545-1.393,1.744-.542,2.162v8.484l.308.417.657-.672.818.835H55.32l2.934-1.09,1.947,1.09h7.42l.818-.69.818.69h3.131a1.226,1.226,0,0,0,1.226-1.226v-5.6A5.746,5.746,0,0,0,70.258,375.474Z" transform="translate(-41.908 -333.334)" fill="#c9f0fe"/>
          <g id="Group_1224874" data-name="Group 1224874" transform="translate(0 40.659)">
            <path id="Path_1090994" data-name="Path 1090994" d="M12.051,385.294a5.78,5.78,0,0,1,2.6-4.8l-3.794,1.482a5.745,5.745,0,0,0-3.356,5.2v5.6a1.226,1.226,0,0,0,1.226,1.226h3.131l.193-.2Z" transform="translate(-7.5 -380.496)" fill="#9be8fd"/>
          </g>
          <path id="Path_1090995" data-name="Path 1090995" d="M154.575,337.03l-.565-.8-.352-.136a.62.62,0,0,1-.4-.577l0-2.039-1.337-.71h-2.471v7.875h2.183l3.219-3.468Z" transform="translate(-133.979 -297.315)" fill="#ffb1a0"/>
          <path id="Path_1090996" data-name="Path 1090996" d="M105.676,332.772h-2.592l-.843.7v2.045a.571.571,0,0,1-.264.5l-.5.2-.1.772-1.478.43,3.976,3.229h1.805Z" transform="translate(-89.823 -297.315)" fill="#ffa68e"/>
          <path id="Path_1090997" data-name="Path 1090997" d="M136.414,227.531h-1.363l-2.362,2.013H129.15v6.613l1.7,2.846,2.023,1.309H134a6.128,6.128,0,0,0,3.953-5.722v-5.07Z" transform="translate(-115.889 -203.546)" fill="#ffcebe"/>
          <g id="Group_1224875" data-name="Group 1224875" transform="translate(9.645 25.998)">
            <path id="Path_1090998" data-name="Path 1090998" d="M100.451,251.045v-4.388l.832-.659H96.814l-.832.659v4.388a6.268,6.268,0,0,0,8.461,5.722A6.079,6.079,0,0,1,100.451,251.045Z" transform="translate(-95.982 -245.998)" fill="#ffb1a0"/>
          </g>
          <path id="Path_1090999" data-name="Path 1090999" d="M134.181,397.582l-1.078-.561h-2.725l-1.078.652-.151,1,1.019,2.482,2.448.426.7-.426,1.019-2.482Z" transform="translate(-115.889 -354.561)" fill="#ff7ab9"/>
          <path id="Path_1091000" data-name="Path 1091000" d="M130.538,442.508h4.881l-.867-7.584h-3.146Z" transform="translate(-117.126 -388.332)" fill="#ff5ca8"/>
          <path id="Path_1091001" data-name="Path 1091001" d="M78.117,365.907l3.984,4.082a.809.809,0,0,0,1.148.01l1.218-1.205a1.557,1.557,0,0,0-.037-2.25l-2.357-2.182Z" transform="translate(-70.419 -325.462)" fill="#9be8fd"/>
          <path id="Path_1091002" data-name="Path 1091002" d="M166.926,370.156a.809.809,0,0,0,1.148-.01l3.974-4.072-3.966-1.536-2.336,2.163a1.557,1.557,0,0,0-.038,2.25Z" transform="translate(-148.051 -325.619)" fill="#9be8fd"/>
          <path id="Path_1091003" data-name="Path 1091003" d="M121.783,155.028a1.141,1.141,0,0,1-1.233-.9c-.19-.969-.669-1.931-2.544-1.931h-3.189l-1.257.342-1.163,1.036-.945,2.053v6.159l.715,1.063.857.232h3.357a4.319,4.319,0,0,0,3.812-2.287.115.115,0,0,1,.216.055,2.238,2.238,0,0,0,2.231,2.231,1.173,1.173,0,0,0,1.17-1.17v-4.949A1.938,1.938,0,0,0,121.783,155.028Z" transform="translate(-100.121 -136.426)" fill="#c464b0"/>
          <g id="Group_1224876" data-name="Group 1224876" transform="translate(7.061 15.773)">
            <path id="Path_1091004" data-name="Path 1091004" d="M76.744,161.264v-4.742a4.321,4.321,0,0,1,4.321-4.321H76.6a4.321,4.321,0,0,0-4.321,4.321v4.742a1.82,1.82,0,0,0,1.82,1.82h4.469A1.82,1.82,0,0,1,76.744,161.264Z" transform="translate(-72.275 -152.2)" fill="#b551a1"/>
          </g>
        </g>
        <g id="Group_1224878" data-name="Group 1224878" transform="translate(7.5 7.5)">
          <path id="Path_1091005" data-name="Path 1091005" d="M106.626,230.622a.115.115,0,0,0-.216-.055,4.319,4.319,0,0,1-3.812,2.287H95.982v4.388a6.208,6.208,0,0,0,12.414,0v-4.437A2.24,2.24,0,0,1,106.626,230.622Z" transform="translate(-86.337 -206.197)" fill="none" stroke="#000" stroke-linecap="round" stroke-linejoin="round" stroke-miterlimit="10" stroke-width="1.5"/>
          <path id="Path_1091006" data-name="Path 1091006" d="M54.975,434.924v7.489" transform="translate(-49.8 -388.332)" fill="none" stroke="#000" stroke-linecap="round" stroke-linejoin="round" stroke-miterlimit="10" stroke-width="1.5"/>
          <path id="Path_1091007" data-name="Path 1091007" d="M65.415,245.788a2.255,2.255,0,0,0-1.289,2.037h0a2.257,2.257,0,0,0,2.257,2.257H67.6v-3.613h-.765A1.815,1.815,0,0,1,65.415,245.788Z" transform="translate(-57.953 -219.813)" fill="none" stroke="#000" stroke-linecap="round" stroke-linejoin="round" stroke-miterlimit="10" stroke-width="1.5"/>
          <path id="Path_1091008" data-name="Path 1091008" d="M211.461,244.074a1.173,1.173,0,0,1-1.129.868h0a2.2,2.2,0,0,1-.461-.05h0v3.661h1.215a2.257,2.257,0,0,0,2.257-2.257h0A2.256,2.256,0,0,0,211.461,244.074Z" transform="translate(-187.811 -218.286)" fill="none" stroke="#000" stroke-linecap="round" stroke-linejoin="round" stroke-miterlimit="10" stroke-width="1.5"/>
          <path id="Path_1091009" data-name="Path 1091009" d="M250.878,434.924v7.489" transform="translate(-224.348 -388.332)" fill="none" stroke="#000" stroke-linecap="round" stroke-linejoin="round" stroke-miterlimit="10" stroke-width="1.5"/>
          <path id="Path_1091010" data-name="Path 1091010" d="M78.117,365.907l3.984,4.082a.809.809,0,0,0,1.148.01l1.218-1.205a1.557,1.557,0,0,0-.037-2.25l-2.357-2.182Z" transform="translate(-70.419 -325.462)" fill="none" stroke="#000" stroke-linecap="round" stroke-linejoin="round" stroke-miterlimit="10" stroke-width="1.5"/>
          <path id="Path_1091011" data-name="Path 1091011" d="M166.926,370.156a.809.809,0,0,0,1.148-.01l3.974-4.072-3.966-1.536-2.336,2.163a1.557,1.557,0,0,0-.038,2.25Z" transform="translate(-148.051 -325.619)" fill="none" stroke="#000" stroke-linecap="round" stroke-linejoin="round" stroke-miterlimit="10" stroke-width="1.5"/>
          <path id="Path_1091012" data-name="Path 1091012" d="M133.314,401.152l1.019-2.482-.787-.779a1.547,1.547,0,0,1-.443-.871h-2.725a1.547,1.547,0,0,1-.443.871l-.787.779,1.019,2.482Z" transform="translate(-115.889 -354.56)" fill="none" stroke="#000" stroke-linecap="round" stroke-linejoin="round" stroke-miterlimit="10" stroke-width="1.5"/>
          <path id="Path_1091013" data-name="Path 1091013" d="M130.538,442.508h4.881l-.867-7.584h-3.146Z" transform="translate(-117.126 -388.332)" fill="none" stroke="#000" stroke-linecap="round" stroke-linejoin="round" stroke-miterlimit="10" stroke-width="1.5"/>
          <path id="Path_1091014" data-name="Path 1091014" d="M86.876,155.028a1.141,1.141,0,0,1-1.234-.9c-.19-.969-.669-1.931-2.544-1.931H76.6a4.321,4.321,0,0,0-4.321,4.321v4.742a1.82,1.82,0,0,0,1.82,1.82h7.38a4.319,4.319,0,0,0,3.812-2.287.115.115,0,0,1,.216.055,2.238,2.238,0,0,0,2.231,2.231,1.173,1.173,0,0,0,1.17-1.17v-4.949A1.938,1.938,0,0,0,86.876,155.028Z" transform="translate(-65.214 -136.426)" fill="none" stroke="#000" stroke-linecap="round" stroke-linejoin="round" stroke-miterlimit="10" stroke-width="1.5"/>
          <path id="Path_1091015" data-name="Path 1091015" d="M35.849,345.187l-8.67-3.357a.62.62,0,0,1-.4-.577l0-2.039a6.081,6.081,0,0,1-3.34,1,6.42,6.42,0,0,1-3.523-1.005v2.045a.571.571,0,0,1-.264.5l-8.8,3.436a5.746,5.746,0,0,0-3.356,5.2V356a1.226,1.226,0,0,0,1.226,1.226H37.979A1.226,1.226,0,0,0,39.2,356v-5.6A5.746,5.746,0,0,0,35.849,345.187Z" transform="translate(-7.5 -303.046)" fill="none" stroke="#000" stroke-linecap="round" stroke-linejoin="round" stroke-miterlimit="10" stroke-width="1.5"/>
          <line id="Line_729" data-name="Line 729" y1="8.085" x2="6.987" transform="translate(35.587 31.288)" fill="none" stroke="#000" stroke-linecap="round" stroke-linejoin="round" stroke-miterlimit="10" stroke-width="1.5"/>
          <path id="Path_1091016" data-name="Path 1091016" d="M314.059,31.74a1.712,1.712,0,0,1,2.59,0l.535.619V9.33a1.83,1.83,0,1,0-3.66,0V32.359Z" transform="translate(-280.166 -7.5)" fill="none" stroke="#000" stroke-linecap="round" stroke-linejoin="round" stroke-miterlimit="10" stroke-width="1.5"/>
          <path id="Path_1091017" data-name="Path 1091017" d="M404.466,82.873h-3.724v4.433a1.363,1.363,0,0,1-1.363,1.363h-5.622v3.306a1.363,1.363,0,0,0,1.363,1.363h9.346a1.363,1.363,0,0,0,1.363-1.363V84.236A1.362,1.362,0,0,0,404.466,82.873Z" transform="translate(-351.654 -74.657)" fill="none" stroke="#000" stroke-linecap="round" stroke-linejoin="round" stroke-miterlimit="10" stroke-width="1.5"/>
          <path id="Path_1091018" data-name="Path 1091018" d="M351.228,40.039H347.1V50.5h10.708a1.362,1.362,0,0,0,1.363-1.363V41.4a1.362,1.362,0,0,0-1.363-1.363h-2.765" transform="translate(-310.082 -36.492)" fill="none" stroke="#000" stroke-linecap="round" stroke-linejoin="round" stroke-miterlimit="10" stroke-width="1.5"/>
          <path id="Path_1091019" data-name="Path 1091019" d="M232.62,243.411v-5.4a3.206,3.206,0,0,0-.78-2.1l-5.774-6.682a1.712,1.712,0,0,0-2.59,0l-2.458,2.844-6.09-7.048a1.712,1.712,0,0,0-2.59,0l-12.979,15.021,7.436,2.88a5.746,5.746,0,0,1,3.356,5.2v5.6a1.226,1.226,0,0,1-1.226,1.226h22.446a1.251,1.251,0,0,0,1.251-1.251v-6.491" transform="translate(-178.444 -200.792)" fill="none" stroke="#000" stroke-linecap="round" stroke-linejoin="round" stroke-miterlimit="10" stroke-width="1.5"/>
        </g>
      </g>
    </g>
  </g>
</svg>
