<svg xmlns="http://www.w3.org/2000/svg" xmlns:xlink="http://www.w3.org/1999/xlink" width="106.16" height="106.16" viewBox="0 0 106.16 106.16">
  <defs>
    <filter id="Path_982547" x="0" y="0" width="106.16" height="106.16" filterUnits="userSpaceOnUse">
      <feOffset dy="3" input="SourceAlpha"/>
      <feGaussianBlur stdDeviation="3" result="blur"/>
      <feFlood flood-opacity="0.161"/>
      <feComposite operator="in" in2="blur"/>
      <feComposite in="SourceGraphic"/>
    </filter>
  </defs>
  <g id="Group_1225013" data-name="Group 1225013" transform="translate(-191 -1723)">
    <g id="Group_1224851" data-name="Group 1224851">
      <g id="Group_1206130" data-name="Group 1206130" transform="translate(0 -59)">
        <g id="Group_1203672" data-name="Group 1203672" transform="translate(0.08 -4797.878)">
          <g id="Group_1203344" data-name="Group 1203344" transform="translate(-81.08 5174.875)">
            <g id="Group_1177900" data-name="Group 1177900" transform="translate(281 1411.003)">
              <g id="Group_1172010" data-name="Group 1172010" transform="translate(0)">
                <g id="Group_1171046" data-name="Group 1171046">
                  <g id="Group_1148525" data-name="Group 1148525">
                    <g transform="matrix(1, 0, 0, 1, -9, -6)" filter="url(#Path_982547)">
                      <g id="Path_982547-2" data-name="Path 982547" transform="translate(9 6)" fill="#e9f9fd">
                        <path d="M 44.0802001953125 86.660400390625 C 38.33124923706055 86.660400390625 32.75506210327148 85.53479766845703 27.50652503967285 83.31484985351562 C 22.43628692626953 81.17032623291016 17.88242530822754 78.09992218017578 13.97144985198975 74.18894958496094 C 10.06047534942627 70.27797698974609 6.99007511138916 65.72411346435547 4.845550060272217 60.65387344360352 C 2.625600099563599 55.40533828735352 1.500000238418579 49.82915115356445 1.500000238418579 44.0802001953125 C 1.500000238418579 38.33124923706055 2.625600099563599 32.75506210327148 4.845550060272217 27.50652503967285 C 6.99007511138916 22.43628692626953 10.06047534942627 17.88242530822754 13.97144985198975 13.97144985198975 C 17.88242530822754 10.06047534942627 22.43628692626953 6.99007511138916 27.50652503967285 4.845550060272217 C 32.75506210327148 2.625600099563599 38.33124923706055 1.500000238418579 44.0802001953125 1.500000238418579 C 49.82915115356445 1.500000238418579 55.40533828735352 2.625600099563599 60.65387344360352 4.845550060272217 C 65.72411346435547 6.99007511138916 70.27797698974609 10.06047534942627 74.18894958496094 13.97144985198975 C 78.09992218017578 17.88242530822754 81.17032623291016 22.43628692626953 83.31484985351562 27.50652503967285 C 85.53479766845703 32.75506210327148 86.660400390625 38.33124923706055 86.660400390625 44.0802001953125 C 86.660400390625 49.82915115356445 85.53479766845703 55.40533828735352 83.31484985351562 60.65387344360352 C 81.17032623291016 65.72411346435547 78.09992218017578 70.27797698974609 74.18894958496094 74.18894958496094 C 70.27797698974609 78.09992218017578 65.72411346435547 81.17032623291016 60.65387344360352 83.31484985351562 C 55.40533828735352 85.53479766845703 49.82915115356445 86.660400390625 44.0802001953125 86.660400390625 Z" stroke="none"/>
                        <path d="M 44.0802001953125 3 C 38.53308486938477 3 33.15349960327148 4.085746765136719 28.09085845947266 6.227058410644531 C 23.19941711425781 8.29595947265625 18.80581665039062 11.25841522216797 15.03211212158203 15.03211212158203 C 11.25841522216797 18.80581665039062 8.29595947265625 23.19941711425781 6.227058410644531 28.09085845947266 C 4.085746765136719 33.15349960327148 3 38.53308486938477 3 44.0802001953125 C 3 49.62731552124023 4.085746765136719 55.00691604614258 6.227058410644531 60.06954193115234 C 8.29595947265625 64.96098327636719 11.25841522216797 69.35458374023438 15.03211212158203 73.12828826904297 C 18.80581665039062 76.90198516845703 23.19941711425781 79.86444091796875 28.09085845947266 81.93334197998047 C 33.15349960327148 84.07466125488281 38.53308486938477 85.160400390625 44.0802001953125 85.160400390625 C 49.62731552124023 85.160400390625 55.00691604614258 84.07466125488281 60.06954193115234 81.93334197998047 C 64.96099853515625 79.86444091796875 69.35458374023438 76.90198516845703 73.12828826904297 73.12828826904297 C 76.90198516845703 69.35458374023438 79.86444091796875 64.96099853515625 81.93334197998047 60.06954193115234 C 84.07466125488281 55.00691604614258 85.160400390625 49.62731552124023 85.160400390625 44.0802001953125 C 85.160400390625 38.53308486938477 84.07466125488281 33.15349960327148 81.93334197998047 28.09085845947266 C 79.86444091796875 23.19941711425781 76.90198516845703 18.80581665039062 73.12828826904297 15.03211212158203 C 69.35458374023438 11.25841522216797 64.96098327636719 8.29595947265625 60.06954193115234 6.227058410644531 C 55.00691604614258 4.085746765136719 49.62731552124023 3 44.0802001953125 3 M 44.0802001953125 0 C 68.42502593994141 0 88.160400390625 19.73538970947266 88.160400390625 44.0802001953125 C 88.160400390625 68.42502593994141 68.42502593994141 88.160400390625 44.0802001953125 88.160400390625 C 19.73538970947266 88.160400390625 0 68.42502593994141 0 44.0802001953125 C 0 19.73538970947266 19.73538970947266 0 44.0802001953125 0 Z" stroke="none" fill="#1d7083"/>
                      </g>
                    </g>
                  </g>
                </g>
              </g>
            </g>
          </g>
        </g>
      </g>
      <g id="job-loss_13479874" transform="translate(208.5 1716.908)">
        <g id="Group_1224847" data-name="Group 1224847" transform="translate(7.5 29.093)">
          <g id="Group_1224846" data-name="Group 1224846" transform="translate(0 0)">
            <g id="Group_1224845" data-name="Group 1224845">
              <path id="Path_1090882" data-name="Path 1090882" d="M73.877,143.258V176.8a2.2,2.2,0,0,1-2.2,2.2l-3.526.223H65.785l-1.794-1.117H31.655l-1.53,1.116H24.01a2.2,2.2,0,0,1-2.2-2.2V159.11l.223-.223V143.258a2.2,2.2,0,0,1,2.2-2.2H71.677A2.2,2.2,0,0,1,73.877,143.258Z" transform="translate(-20.212 -128.559)" fill="#5e6577"/>
              <path id="Path_1090883" data-name="Path 1090883" d="M72.1,139.068a1.939,1.939,0,0,0-.2-.01H24.01a2.2,2.2,0,0,0-2.2,2.2v16.075l8.52,4.445a25.7,25.7,0,0,0,11.839,2.9H53.742a25.706,25.706,0,0,0,11.839-2.9l2-1.045a1.73,1.73,0,0,1,2.531,1.534v12.978a2.193,2.193,0,0,1-2.188,2.2H71.9a2.2,2.2,0,0,0,2.2-2.2V141.258A2.2,2.2,0,0,0,72.1,139.068Z" transform="translate(-20.212 -126.782)" fill="#4d5263"/>
              <path id="Path_1090884" data-name="Path 1090884" d="M129.333,139.057l2.617,22.613v15.774H96.29V161.67l4.209-22.613Z" transform="translate(-86.377 -126.781)" fill="#73788c"/>
              <path id="Path_1090885" data-name="Path 1090885" d="M131.95,139.057H96.29V161.67l.2.107a25.7,25.7,0,0,0,11.839,2.9h11.573a25.706,25.706,0,0,0,11.839-2.9l.2-.107Z" transform="translate(-86.377 -126.781)" fill="#5e6577"/>
              <path id="Path_1090886" data-name="Path 1090886" d="M62.762,131.814v10.114a.44.44,0,0,1-.238.391L57.4,145.33l-6.342,3.308A21.782,21.782,0,0,1,41.029,151.1H29.456a21.782,21.782,0,0,1-10.032-2.459l-11.687-6.1a.44.44,0,0,1-.238-.391v-10.56a3.424,3.424,0,0,1,3.423-3.424H54.2l5.136.223A3.424,3.424,0,0,1,62.762,131.814Z" transform="translate(-7.5 -117.107)" fill="#73788c"/>
              <path id="Path_1090887" data-name="Path 1090887" d="M442.584,128.167l-3.8.212c1.89,0,1.754,1.321,1.754,3.212V145.33l5.345-2.788a.44.44,0,0,0,.238-.391v-10.56A3.52,3.52,0,0,0,442.584,128.167Z" transform="translate(-390.632 -117.107)" fill="#5e6577"/>
              <path id="Path_1090888" data-name="Path 1090888" d="M87.569,128.167v11.976a.22.22,0,0,1-.119.2L77.543,145.5a18.225,18.225,0,0,1-8.4,2.059H57.573a18.224,18.224,0,0,1-8.4-2.059l-9.906-5.167a.22.22,0,0,1-.119-.2V128.167Z" transform="translate(-35.617 -117.107)" fill="#5e6577"/>
              <path id="Path_1090889" data-name="Path 1090889" d="M427.258,131.59v9.753l1.93-1.007a.22.22,0,0,0,.119-.2V128.166h-5.472A3.424,3.424,0,0,1,427.258,131.59Z" transform="translate(-377.355 -117.106)" fill="#4d5263"/>
              <path id="Path_1090890" data-name="Path 1090890" d="M171.657,34.794a31.553,31.553,0,0,0-3.793-.688,37.127,37.127,0,0,0-19.157,1.079c-.238.078-.43-.032-.43-.25V31.493a.63.63,0,0,1,.43-.539,37.128,37.128,0,0,1,19.157-1.079,34.878,34.878,0,0,1,3.867,1.18.631.631,0,0,1,.43.539c0,1.147-.074,1.8-.074,2.95C172.087,34.762,171.895,34.872,171.657,34.794Z" transform="translate(-132.561 -29.098)" fill="#73788c"/>
              <g id="Group_1224844" data-name="Group 1224844" transform="translate(35.303 0.778)">
                <path id="Path_1090891" data-name="Path 1090891" d="M327.758,37.145a37.116,37.116,0,0,0-4.036-1.079V40.3a37.11,37.11,0,0,1,4.036,1.079c.238.078.43-.032.43-.25V37.683A.631.631,0,0,0,327.758,37.145Z" transform="translate(-323.722 -36.066)" fill="#5e6577"/>
              </g>
              <path id="Path_1090892" data-name="Path 1090892" d="M152.931,114.771h-4.209a.447.447,0,0,1-.447-.447v-2.959a.447.447,0,0,1,.447-.447h4.209a.447.447,0,0,1,.447.447v2.959A.447.447,0,0,1,152.931,114.771Z" transform="translate(-132.56 -101.784)" fill="#ffe177"/>
              <path id="Path_1090893" data-name="Path 1090893" d="M322.68,114.771h-4.209a.447.447,0,0,1-.447-.447v-2.959a.447.447,0,0,1,.447-.447h4.209a.447.447,0,0,1,.447.447v2.959A.447.447,0,0,1,322.68,114.771Z" transform="translate(-283.358 -101.784)" fill="#ffe177"/>
            </g>
          </g>
          <path id="Path_1090894" data-name="Path 1090894" d="M160.126,215.177c0,7.525-4.984,11.994-12.509,11.994-4.7,0-8.85-.752-11.3-4.376a13.627,13.627,0,0,1,18.846-18.962C158.828,206.275,160.126,210.444,160.126,215.177Z" transform="translate(-119.87 -182.299)" fill="#ff7e7b"/>
          <path id="Path_1090895" data-name="Path 1090895" d="M173.681,221.979a13.63,13.63,0,0,1-.532,15.84c-.326.424-.933.646-1.305,1.028-.464.476-.7,1.1-1.233,1.506a13.565,13.565,0,0,1-8.273,2.8,13.357,13.357,0,0,1-7.5-2.211,13.468,13.468,0,0,0,11.3,6.007,13.626,13.626,0,0,0,7.548-24.969Z" transform="translate(-138.386 -200.446)" fill="#ff6464"/>
          <path id="Path_1090896" data-name="Path 1090896" d="M204.941,260.921l-2.563-2.563a.813.813,0,0,0-1.15,0l-3.167,3.167a.271.271,0,0,1-.383,0l-3.167-3.167a.813.813,0,0,0-1.15,0l-2.563,2.563a.814.814,0,0,0,0,1.15l3.167,3.167a.271.271,0,0,1,0,.383l-3.167,3.167a.814.814,0,0,0,0,1.15l2.563,2.563a.813.813,0,0,0,1.15,0l3.167-3.167a.271.271,0,0,1,.383,0l3.167,3.167a.813.813,0,0,0,1.15,0l2.563-2.563a.814.814,0,0,0,0-1.15l-3.167-3.167a.271.271,0,0,1,0-.383l3.167-3.167A.813.813,0,0,0,204.941,260.921Z" transform="translate(-170.123 -232.552)" fill="#f5f8f9"/>
        </g>
        <g id="Group_1224850" data-name="Group 1224850" transform="translate(7.5 29.092)">
          <g id="Group_1224849" data-name="Group 1224849" transform="translate(0)">
            <g id="Group_1224848" data-name="Group 1224848">
              <line id="Line_713" data-name="Line 713" y1="3.116" transform="translate(37.218 5.742)" fill="none" stroke="#000" stroke-linecap="round" stroke-linejoin="round" stroke-miterlimit="10" stroke-width="1"/>
              <path id="Path_1090897" data-name="Path 1090897" d="M21.81,265.807v22.037a2.2,2.2,0,0,0,2.2,2.2H54.424" transform="translate(-20.212 -239.38)" fill="none" stroke="#000" stroke-linecap="round" stroke-linejoin="round" stroke-miterlimit="10" stroke-width="1"/>
              <path id="Path_1090898" data-name="Path 1090898" d="M364.709,265.257v22.1a2.2,2.2,0,0,1-2.2,2.2H348.94" transform="translate(-310.821 -238.891)" fill="none" stroke="#000" stroke-linecap="round" stroke-linejoin="round" stroke-miterlimit="10" stroke-width="1"/>
              <line id="Line_714" data-name="Line 714" y2="19.028" transform="translate(45.573 30.852)" fill="none" stroke="#000" stroke-linecap="round" stroke-linejoin="round" stroke-miterlimit="10" stroke-width="1"/>
              <line id="Line_715" data-name="Line 715" y1="19.028" transform="translate(9.913 30.852)" fill="none" stroke="#000" stroke-linecap="round" stroke-linejoin="round" stroke-miterlimit="10" stroke-width="1"/>
              <line id="Line_716" data-name="Line 716" y1="3.116" transform="translate(18.267 5.742)" fill="none" stroke="#000" stroke-linecap="round" stroke-linejoin="round" stroke-miterlimit="10" stroke-width="1"/>
              <line id="Line_717" data-name="Line 717" x2="13.458" transform="translate(21.029 11.061)" fill="none" stroke="#000" stroke-linecap="round" stroke-linejoin="round" stroke-miterlimit="10" stroke-width="1"/>
              <path id="Path_1090899" data-name="Path 1090899" d="M21.368,149.536q-.993-.4-1.943-.893l-11.687-6.1a.442.442,0,0,1-.237-.392V131.6a3.423,3.423,0,0,1,3.423-3.423H22.961" transform="translate(-7.5 -117.111)" fill="none" stroke="#000" stroke-linecap="round" stroke-linejoin="round" stroke-miterlimit="10" stroke-width="1"/>
              <path id="Path_1090900" data-name="Path 1090900" d="M367.11,128.172h11.915a3.423,3.423,0,0,1,3.423,3.423v10.56a.442.442,0,0,1-.237.392l-11.687,6.1q-.949.495-1.943.893" transform="translate(-326.963 -117.111)" fill="none" stroke="#000" stroke-linecap="round" stroke-linejoin="round" stroke-miterlimit="10" stroke-width="1"/>
              <path id="Path_1090901" data-name="Path 1090901" d="M152.931,114.771h-4.209a.447.447,0,0,1-.447-.447v-2.959a.447.447,0,0,1,.447-.447h4.209a.447.447,0,0,1,.447.447v2.959A.447.447,0,0,1,152.931,114.771Z" transform="translate(-132.56 -101.784)" fill="none" stroke="#000" stroke-linecap="round" stroke-linejoin="round" stroke-miterlimit="10" stroke-width="1"/>
              <path id="Path_1090902" data-name="Path 1090902" d="M322.68,114.771h-4.209a.447.447,0,0,1-.447-.447v-2.959a.447.447,0,0,1,.447-.447h4.209a.447.447,0,0,1,.447.447v2.959A.447.447,0,0,1,322.68,114.771Z" transform="translate(-283.358 -101.784)" fill="none" stroke="#000" stroke-linecap="round" stroke-linejoin="round" stroke-miterlimit="10" stroke-width="1"/>
              <path id="Path_1090903" data-name="Path 1090903" d="M39.15,128.167v11.976a.22.22,0,0,0,.119.2l3.31,1.726" transform="translate(-35.617 -117.106)" fill="none" stroke="#000" stroke-linecap="round" stroke-linejoin="round" stroke-miterlimit="10" stroke-width="1"/>
              <path id="Path_1090904" data-name="Path 1090904" d="M100.93,268.847l3.128,1.632q.484.253.982.476" transform="translate(-90.499 -242.081)" fill="none" stroke="#000" stroke-linecap="round" stroke-linejoin="round" stroke-miterlimit="10" stroke-width="1"/>
              <path id="Path_1090905" data-name="Path 1090905" d="M385.258,208.077v3.054a.22.22,0,0,1-.119.2l-9.906,5.167q-.484.253-.982.476" transform="translate(-333.306 -188.095)" fill="none" stroke="#000" stroke-linecap="round" stroke-linejoin="round" stroke-miterlimit="10" stroke-width="1"/>
              <line id="Line_718" data-name="Line 718" y1="5.014" transform="translate(51.952 11.061)" fill="none" stroke="#000" stroke-linecap="round" stroke-linejoin="round" stroke-miterlimit="10" stroke-width="1"/>
              <path id="Path_1090906" data-name="Path 1090906" d="M156.364,29.3A37.109,37.109,0,0,1,171.9,30.949a.631.631,0,0,1,.43.539v3.442c0,.217-.192.327-.43.249a37.132,37.132,0,0,0-23.192,0c-.238.078-.43-.031-.43-.249V31.489a.631.631,0,0,1,.43-.539,36.988,36.988,0,0,1,3.8-1.028" transform="translate(-132.563 -29.092)" fill="none" stroke="#000" stroke-linecap="round" stroke-linejoin="round" stroke-miterlimit="10" stroke-width="1"/>
            </g>
          </g>
          <circle id="Ellipse_11562" data-name="Ellipse 11562" cx="13.629" cy="13.629" r="13.629" transform="translate(14.114 19.246)" fill="none" stroke="#000" stroke-linecap="round" stroke-linejoin="round" stroke-miterlimit="10" stroke-width="1"/>
          <path id="Path_1090907" data-name="Path 1090907" d="M204.894,260.469l-2.563-2.563a.814.814,0,0,0-1.151,0l-3.359,3.359-3.446-3.446a.691.691,0,0,0-.977,0l-2.65,2.65a.814.814,0,0,0,0,1.151l3.359,3.359-3.359,3.359a.814.814,0,0,0,0,1.151l2.563,2.563a.814.814,0,0,0,1.151,0l3.359-3.359,3.359,3.359a.814.814,0,0,0,1.151,0l2.563-2.563a.813.813,0,0,0,0-1.151l-3.359-3.359,3.359-3.359A.813.813,0,0,0,204.894,260.469Z" transform="translate(-170.078 -232.103)" fill="none" stroke="#000" stroke-linecap="round" stroke-linejoin="round" stroke-miterlimit="10" stroke-width="1"/>
        </g>
      </g>
    </g>
  </g>
</svg>
