<svg xmlns="http://www.w3.org/2000/svg" xmlns:xlink="http://www.w3.org/1999/xlink" width="103" height="103" viewBox="0 0 103 103">
  <defs>
    <filter id="Path_978624" x="0" y="0" width="103" height="103" filterUnits="userSpaceOnUse">
      <feOffset dy="3" input="SourceAlpha"/>
      <feGaussianBlur stdDeviation="3" result="blur"/>
      <feFlood flood-opacity="0.161"/>
      <feComposite operator="in" in2="blur"/>
      <feComposite in="SourceGraphic"/>
    </filter>
  </defs>
  <g id="Group_1225011" data-name="Group 1225011" transform="translate(-171 -1013)">
    <g id="Group_1224843" data-name="Group 1224843">
      <g id="Group_1220654" data-name="Group 1220654" transform="translate(180 1019)">
        <g id="Group_1176881" data-name="Group 1176881">
          <g id="Group_1175148" data-name="Group 1175148">
            <g id="Group_1173798" data-name="Group 1173798">
              <g id="Group_1171925" data-name="Group 1171925">
                <g id="Group_1164524" data-name="Group 1164524">
                  <g id="Group_1144123" data-name="Group 1144123">
                    <g transform="matrix(1, 0, 0, 1, -9, -6)" filter="url(#Path_978624)">
                      <g id="Path_978624-2" data-name="Path 978624" transform="translate(9 6)" fill="#e9f9fd">
                        <path d="M 42.5 83.5 C 36.96437835693359 83.5 31.59512901306152 82.41617584228516 26.54141235351562 80.27863311767578 C 21.65934181213379 78.21369171142578 17.27447128295898 75.25723266601562 13.50862312316895 71.49137878417969 C 9.742764472961426 67.72553253173828 6.786305904388428 63.34066009521484 4.721364498138428 58.45858764648438 C 2.583823442459106 53.40486907958984 1.5 48.03562164306641 1.5 42.5 C 1.5 36.96437835693359 2.583823442459106 31.59512901306152 4.721364498138428 26.54141235351562 C 6.786305904388428 21.65934181213379 9.742764472961426 17.27447128295898 13.50862312316895 13.50862312316895 C 17.27447128295898 9.742764472961426 21.65934181213379 6.786305904388428 26.54141235351562 4.721364498138428 C 31.59512901306152 2.583823442459106 36.96437835693359 1.5 42.5 1.5 C 48.03562164306641 1.5 53.40486907958984 2.583823442459106 58.45858764648438 4.721364498138428 C 63.34066009521484 6.786305904388428 67.72553253173828 9.742764472961426 71.49137878417969 13.50862312316895 C 75.25723266601562 17.27447128295898 78.21369171142578 21.65934181213379 80.27863311767578 26.54141235351562 C 82.41617584228516 31.59512901306152 83.5 36.96437835693359 83.5 42.5 C 83.5 48.03562164306641 82.41617584228516 53.40486907958984 80.27863311767578 58.45858764648438 C 78.21369171142578 63.34066009521484 75.25723266601562 67.72553253173828 71.49137878417969 71.49137878417969 C 67.72553253173828 75.25723266601562 63.34066009521484 78.21369171142578 58.45858764648438 80.27863311767578 C 53.40486907958984 82.41617584228516 48.03562164306641 83.5 42.5 83.5 Z" stroke="none"/>
                        <path d="M 42.5 3 C 37.16621398925781 3 31.99356079101562 4.043960571289062 27.125732421875 6.102882385253906 C 22.42246627807617 8.092185974121094 18.19785308837891 10.94070434570312 14.56928253173828 14.56928253173828 C 10.94070434570312 18.19785308837891 8.092185974121094 22.42246627807617 6.102882385253906 27.125732421875 C 4.043960571289062 31.99356079101562 3 37.16621398925781 3 42.5 C 3 47.83378601074219 4.043960571289062 53.00643920898438 6.102882385253906 57.87425231933594 C 8.092185974121094 62.57753372192383 10.94070434570312 66.80213165283203 14.56928253173828 70.43071746826172 C 18.19786834716797 74.05929565429688 22.42246627807617 76.90781402587891 27.125732421875 78.89711761474609 C 31.99356079101562 80.95603942871094 37.16621398925781 82 42.5 82 C 47.83378601074219 82 53.00642395019531 80.95603942871094 57.87425231933594 78.89711761474609 C 62.57753372192383 76.90781402587891 66.80213165283203 74.05929565429688 70.43071746826172 70.43071746826172 C 74.05929565429688 66.80213165283203 76.90781402587891 62.57753372192383 78.89711761474609 57.87425231933594 C 80.95603942871094 53.00642395019531 82 47.83378601074219 82 42.5 C 82 37.16621398925781 80.95603942871094 31.99356079101562 78.89711761474609 27.125732421875 C 76.90781402587891 22.42246627807617 74.05929565429688 18.19786834716797 70.43071746826172 14.56928253173828 C 66.80213165283203 10.94070434570312 62.57753372192383 8.092185974121094 57.87425231933594 6.102882385253906 C 53.00643920898438 4.043960571289062 47.83378601074219 3 42.5 3 M 42.5 0 C 65.97209167480469 0 85 19.02789306640625 85 42.5 C 85 65.97209167480469 65.97209167480469 85 42.5 85 C 19.02789306640625 85 0 65.97209167480469 0 42.5 C 0 19.02789306640625 19.02789306640625 0 42.5 0 Z" stroke="none" fill="#36ceef"/>
                      </g>
                    </g>
                  </g>
                </g>
              </g>
            </g>
          </g>
        </g>
      </g>
      <g id="Group_1222604" data-name="Group 1222604" transform="translate(0.176 -290.824)">
        <g id="layer1-0" transform="translate(194.995 1324.995)">
          <path id="path7922" d="M8.717,19.907c1.357,3.344-1.515,2.633,1.024,5.205s1.874-.3,5.208,1.108.8,2.929,4.42,2.96,1.112-1.532,4.47-2.884,2.644,1.509,5.226-1.02-.3-1.867,1.113-5.187,2.941-.795,2.972-4.573c-.031-3.778-1.557-1.253-2.972-4.573s1.47-2.659-1.113-5.187-1.869.332-5.226-1.02-.848-2.915-4.47-2.884-1.086,1.551-4.42,2.96S12.279,3.349,9.741,5.921s.333,1.861-1.024,5.205-2.927.845-2.9,4.39c-.031,3.546,1.539,1.046,2.9,4.39Z" transform="translate(-4.91 -0.942)" fill="#ff5151"/>
          <path id="ellipse7924" d="M9.1,4.552A4.552,4.552,0,1,1,4.552,0,4.552,4.552,0,0,1,9.1,4.552Z" transform="translate(10.021 10.023)" fill="#e4eff8"/>
          <path id="ellipse7954" d="M12.471,4.5a4.549,4.549,0,0,1,2.18,8.544,4.547,4.547,0,0,0-6.183-6.16,4.552,4.552,0,0,1,4-2.384Z" transform="translate(2.103 5.523)" fill="#c4dcf0"/>
          <g id="Group_1222603" data-name="Group 1222603" transform="translate(13.664 0.911)">
            <path id="path7935" d="M13.593,4.737a6.339,6.339,0,0,0,.678.23,3.229,3.229,0,0,1-2.5-.23C8.806,3.544,10.4,2.192,8.328,1.91a7.044,7.044,0,0,1,.8-.057C12.745,1.822,10.235,3.385,13.593,4.737Z" transform="translate(-8.328 -1.852)" fill="#f5f9fb"/>
            <path id="path7938" d="M6.9,2.674c.388.031.873.293,1.68,1.084,2.583,2.529-.3,1.868,1.114,5.188s2.94.795,2.971,4.573C12.629,17.3,11.1,14.77,9.689,18.091s1.469,2.66-1.114,5.188c-1.6,1.564-1.935,1.065-2.754.778a6.279,6.279,0,0,0,.931-.778c2.583-2.529-.3-1.868,1.114-5.188s2.94-.795,2.971-4.573c-.031-3.778-1.557-1.252-2.971-4.573s1.469-2.66-1.114-5.188a6.287,6.287,0,0,0-.931-.778A2.644,2.644,0,0,1,6.9,2.674Z" transform="translate(1.916 0.147)" fill="#f5f9fb"/>
            <path id="path7940" d="M14.27,8.995a6.329,6.329,0,0,0-.678.23c-3.358,1.352-.848,2.915-4.469,2.884a6.987,6.987,0,0,1-.8-.057c2.069-.282.479-1.634,3.441-2.827a4.734,4.734,0,0,1,1.507-.379A2.41,2.41,0,0,1,14.27,8.995Z" transform="translate(-8.328 15.221)" fill="#f5f9fb"/>
          </g>
          <path id="path7944" d="M15.5,1.981c-1.631.394-.313,1.651-3.108,2.833a3.16,3.16,0,0,1-2.984.094c.085-.032.163-.056.254-.094,3.334-1.409.8-2.93,4.42-2.961a5.479,5.479,0,0,1,1.418.128Z" transform="translate(0.374 -0.942)" fill="#ff2929"/>
          <path id="path7946" d="M17.179,2.714c.58-.056.958.409,1.858.411a7.106,7.106,0,0,0-.788.7c-2.539,2.572.334,1.86-1.023,5.2s-2.928.846-2.9,4.391c-.031,3.546,1.539,1.047,2.9,4.391s-1.516,2.632,1.023,5.2a7.1,7.1,0,0,0,.788.7c-1.5,0-1.539,1.3-3.519-.7-2.539-2.572.334-1.86-1.023-5.2s-2.928-.846-2.9-4.391c-.031-3.546,1.539-1.047,2.9-4.391s-1.516-2.632,1.023-5.2c.793-.8,1.274-1.077,1.662-1.114Z" transform="translate(-10.688 1.152)" fill="#ff2929"/>
          <path id="path7948" d="M12.395,9.222c2.8,1.181,1.477,2.438,3.108,2.833a5.477,5.477,0,0,1-1.418.128c-3.621-.031-1.086-1.552-4.42-2.961-.091-.039-.169-.062-.254-.094a3.639,3.639,0,0,1,1.121-.311A4.072,4.072,0,0,1,12.395,9.222Z" transform="translate(0.374 16.057)" fill="#ff2929"/>
          <path id="path7785" d="M2.081,26.574C3.8,30.81.162,29.909,3.377,33.168s2.374-.38,6.6,1.4,1.011,3.71,5.6,3.749,1.409-1.941,5.662-3.653,3.349,1.911,6.62-1.292-.382-2.365,1.41-6.57,3.725-1.007,3.764-5.792c-.039-4.785-1.973-1.587-3.764-5.792s1.862-3.367-1.41-6.57-2.367.421-6.62-1.292S20.16,3.666,15.573,3.705,14.2,5.67,9.975,7.454s-3.381-1.854-6.6,1.4.422,2.358-1.3,6.593-3.707,1.07-3.668,5.561C-1.627,25.5.361,22.338,2.081,26.574Z" transform="translate(20.718 3.583)" fill="#a0bf05"/>
          <path id="path7799" d="M1.058,14.549a8.2,8.2,0,1,0,8.2-8.2A8.2,8.2,0,0,0,1.058,14.549Z" transform="translate(27.182 10.047)" fill="#e4eff8"/>
          <path id="path7831" d="M2.381,9.526v4.85A1.519,1.519,0,0,0,3.9,15.9H8.15a1.519,1.519,0,0,0,1.519-1.527V9.526Z" transform="translate(30.411 17.803)" fill="#38668c"/>
          <path id="circle7803" d="M7.685,6.351a8.193,8.193,0,0,1,4.8,14.833A8.188,8.188,0,0,0,1.058,9.738,8.2,8.2,0,0,1,7.685,6.351Z" transform="translate(28.753 10.047)" fill="#c4dcf0"/>
          <path id="path966" d="M-.524,4.745C-.032,4.783.582,5.119,1.6,6.12c3.271,3.2-.382,2.363,1.409,6.569S6.739,13.7,6.778,18.482c-.039,4.785-1.973,1.587-3.765,5.793S4.875,27.641,1.6,30.844c-1.813,1.775-2.355,1.453-3.192,1.1a7.039,7.039,0,0,0,1.37-1.1c3.271-3.2-.382-2.363,1.409-6.569s3.726-1.008,3.765-5.793c-.039-4.785-1.973-1.587-3.765-5.793S3.053,9.323-.218,6.12a7.039,7.039,0,0,0-1.37-1.1,2.264,2.264,0,0,1,1.064-.27Z" transform="translate(46.969 6.114)" fill="#f5f9fb"/>
          <path id="path7795" d="M8.093,12.561a3.008,3.008,0,0,1,1.046.123A7.37,7.37,0,0,0,8,13.042C3.751,14.754,6.929,16.735,2.342,16.7c-.316,0-.588-.018-.834-.037,3.1-.261.78-2.049,4.674-3.617a6.009,6.009,0,0,1,1.911-.48Z" transform="translate(33.949 25.208)" fill="#f5f9fb"/>
          <path id="path970" d="M12.988,4.8c.58-.056,1,.3,1.706.457a8.611,8.611,0,0,0-1.08.954c-3.216,3.258.424,2.356-1.3,6.592S8.611,13.87,8.65,18.361c-.039,4.491,1.95,1.326,3.669,5.562s-1.921,3.334,1.3,6.592a8.611,8.611,0,0,0,1.08.954c-1.311.286-1.619,1.267-3.811-.954-3.216-3.258.422-2.356-1.3-6.592s-3.708-1.071-3.669-5.562c-.039-4.491,1.95-1.326,3.669-5.562s-1.919-3.334,1.3-6.592c1-1.018,1.614-1.364,2.1-1.411Z" transform="translate(13.213 6.235)" fill="#809804"/>
          <path id="path7789" d="M6.468,13.041c3.736,1.579,1.663,3.265,4.311,3.66a8.593,8.593,0,0,1-1.445.089c-4.587-.039-1.374-1.964-5.6-3.749-.242-.1-.464-.182-.674-.251a3.165,3.165,0,0,1,1.505-.263,6.007,6.007,0,0,1,1.9.514Z" transform="translate(26.957 25.115)" fill="#809804"/>
          <path id="path7433" d="M-.794,11.383V25.048H1.028c2.733,0,8.2,6.377,10.932,6.377H33.822a2.733,2.733,0,1,0,0-5.466H22.508l-.1-.034A2.735,2.735,0,0,0,23.6,21.015l-9.426-6.9C10.043,11.094,7.4,11.383-.794,11.383Z" transform="translate(14.459 22.322)" fill="#ffd1b5"/>
          <path id="path7569" d="M2.643,11.118c8.2,0,10.838-.289,14.965,2.733l9.426,6.9a2.722,2.722,0,0,1-.849,4.822,2.72,2.72,0,0,0-.769-3.523l-9.426-6.9C12.183,12.362,9.45,12.4,2.643,12.417Z" transform="translate(11.021 21.676)" fill="#f5f9fb"/>
          <path id="rect7437" d="M20.222,29.714h-9.11V10.584h9.11Z" transform="translate(-10.201 20.389)" fill="#38668c"/>
          <path id="path7873" d="M13.01,10.584c0,11.842.189,17.422,6.565,19.13h-8.2V10.584Z" transform="translate(-10.465 20.389)" fill="#2c5170"/>
          <path id="path7443" d="M12.934,10.584v19.13H11.112V10.584Z" transform="translate(-2.913 20.389)" fill="#f5f9fb"/>
          <path id="path7457" d="M10.054,27.892H13.7V10.584H10.054Z" transform="translate(-0.033 20.389)" fill="#e4eff8"/>
          <path id="path7466" d="M10.583,27.892V10.584H12.4V27.892Z" transform="translate(-0.562 20.389)" fill="#c4dcf0"/>
          <path id="path7853" d="M5.721,9.526v4.85A1.52,1.52,0,0,1,4.2,15.9H2.381A1.52,1.52,0,0,0,3.9,14.376V9.526Z" transform="translate(34.36 17.803)" fill="#f5f9fb"/>
          <path id="path7857" d="M4.307,9.526c-.047,4.6,3.145,5.886,4.734,6.234a1.506,1.506,0,0,1-.635.142H4.156a1.518,1.518,0,0,1-1.518-1.527V9.526Z" transform="translate(30.155 17.803)" fill="#2c5170"/>
          <path id="path7342" d="M2.646,7.409l2.735,2.669,2.73-2.669" transform="translate(31.057 12.632)" fill="none" stroke="#333" stroke-linecap="round" stroke-linejoin="round" stroke-width="0.529"/>
          <path id="path7957" d="M6.261,23.565C6.261,20.1.79,19.188.79,12.773a9.122,9.122,0,0,1,18.243,0c0,6.415-5.471,7.326-5.471,10.792Z" transform="translate(26.526 3.583)" fill="#ffca28"/>
          <path id="path7959" d="M11.3,12.773c0,6.415-5.471,7.325-5.471,10.791H4.076c1.525-2.449,5.4-4.209,5.4-9.875A10.045,10.045,0,0,0,.79,3.819,9.423,9.423,0,0,1,2.183,3.7a9.124,9.124,0,0,1,9.12,9.069Z" transform="translate(34.255 3.583)" fill="#f5f9fb"/>
          <path id="path7961" d="M15.356,21.589a3.15,3.15,0,0,0-.29,1.3h-7.3c0-3.466-5.471-4.375-5.471-10.791a9.224,9.224,0,0,1,5.06-8.12c-3.076,12.284,4.034,16.33,8,17.609Z" transform="translate(25.022 4.256)" fill="#ecb200"/>
          <path id="path972" d="M-.117,11.642c1.809,6.657,10.259,20.826,36.4,17.515a2.723,2.723,0,0,1-2.491,1.616H11.928C9.2,30.772,3.729,24.4,1,24.4H-.724V11.642h.607Z" transform="translate(14.49 22.974)" fill="#ffb98d"/>
          <path id="path8298" d="M14.773,1.932a2.133,2.133,0,0,1,1,1.123,2.412,2.412,0,0,0,.384.706,3.144,3.144,0,0,0,1.258.779,3.158,3.158,0,0,0,1.452.31,2.454,2.454,0,0,0,.774-.242,2.048,2.048,0,0,1,1.5-.107,4.614,4.614,0,0,1,1.8,1.251,4.613,4.613,0,0,1,1.292,1.776,2.074,2.074,0,0,1-.087,1.505,2.183,2.183,0,0,0-.23.767,3.107,3.107,0,0,0,.336,1.432,4.3,4.3,0,0,0,.256.5,3.06,3.06,0,0,1,.987.2,3.793,3.793,0,0,0,.925.278,9.982,9.982,0,0,1,16.21-.164,4.653,4.653,0,0,0,.8-.269,2.832,2.832,0,0,1,1.237-.221,2.167,2.167,0,0,1,.5.093,5.669,5.669,0,0,1,2.187,1.527,5.649,5.649,0,0,1,1.573,2.151,2.591,2.591,0,0,1-.1,1.742,3.253,3.253,0,0,0-.31,1.043,4.182,4.182,0,0,0,.443,1.93A4.244,4.244,0,0,0,50.054,21.7a3.751,3.751,0,0,0,.989.537,2.689,2.689,0,0,1,1.318,1.212,6.264,6.264,0,0,1,.443,2.733,6.264,6.264,0,0,1-.443,2.733,2.689,2.689,0,0,1-1.318,1.212,3.751,3.751,0,0,0-.989.537,4.244,4.244,0,0,0-1.089,1.667,4.182,4.182,0,0,0-.443,1.93,3.253,3.253,0,0,0,.31,1.043,2.591,2.591,0,0,1,.1,1.742A5.649,5.649,0,0,1,47.359,39.2a5.669,5.669,0,0,1-2.187,1.527,2.608,2.608,0,0,1-1.74-.128,3.264,3.264,0,0,0-1.043-.322,4.243,4.243,0,0,0-1.95.409,4.244,4.244,0,0,0-1.688,1.05,3.26,3.26,0,0,0-.525.955,2.588,2.588,0,0,1-1.156,1.3,3.074,3.074,0,0,1-.4.142l.073.053a3.643,3.643,0,0,1,1.011,4.766H46.43a3.645,3.645,0,1,1,0,7.289H24.562A5.969,5.969,0,0,1,21.6,55.11c-1-.634-2.034-1.45-3.058-2.247s-2.037-1.577-2.92-2.139a4.41,4.41,0,0,0-1.982-.854h-.913v.918a.912.912,0,0,1-.915.913H9.079a.913.913,0,0,1-.915.911h-9.1a.912.912,0,0,1-.915-.913V32.552a.912.912,0,0,1,.915-.913h9.1a.913.913,0,0,1,.915.911h2.729a.912.912,0,0,1,.915.913v.922a74.478,74.478,0,0,1,7.667.189,2.078,2.078,0,0,0,.125-.544,4.212,4.212,0,0,0-.411-1.945,4.177,4.177,0,0,0-1.055-1.674A3.112,3.112,0,0,0,18.1,29.9a2.581,2.581,0,0,1-1.318-1.13,3.029,3.029,0,0,1-.212-.541,2.106,2.106,0,0,0-.413.338,2.413,2.413,0,0,0-.384.706,2.128,2.128,0,0,1-1,1.123,4.66,4.66,0,0,1-2.174.343,4.642,4.642,0,0,1-2.165-.384,2.063,2.063,0,0,1-.98-1.135,2.419,2.419,0,0,0-.375-.713,3.15,3.15,0,0,0-1.245-.8,3.164,3.164,0,0,0-1.445-.336,2.435,2.435,0,0,0-.774.23,2.274,2.274,0,0,1-1.5.087A4.627,4.627,0,0,1,2.333,26.4a4.623,4.623,0,0,1-1.265-1.8A2.285,2.285,0,0,1,1.181,23.1a2.383,2.383,0,0,0,.244-.76,3.124,3.124,0,0,0-.31-1.445,3.121,3.121,0,0,0-.781-1.251,2.147,2.147,0,0,0-.7-.37A2.043,2.043,0,0,1-1.5,18.292a4.428,4.428,0,0,1-.351-2.128A4.447,4.447,0,0,1-1.5,14.036a2.043,2.043,0,0,1,1.137-.982,2.146,2.146,0,0,0,.7-.37,3.124,3.124,0,0,0,.779-1.251,3.124,3.124,0,0,0,.31-1.445,2.375,2.375,0,0,0-.242-.76,2.285,2.285,0,0,1-.114-1.507,4.615,4.615,0,0,1,1.263-1.8A4.631,4.631,0,0,1,4.115,4.642a2.274,2.274,0,0,1,1.5.087,2.425,2.425,0,0,0,.772.23,3.169,3.169,0,0,0,1.446-.336,3.139,3.139,0,0,0,1.244-.8,2.42,2.42,0,0,0,.377-.713,2.063,2.063,0,0,1,.98-1.135A4.642,4.642,0,0,1,12.6,1.589a4.653,4.653,0,0,1,2.172.343ZM11.284,3.587c-.1.052-.107.145-.155.228a4,4,0,0,1-.653,1.178,4.986,4.986,0,0,1-1.93,1.3,5.021,5.021,0,0,1-2.286.477,4.048,4.048,0,0,1-1.3-.349c-.238-.092-.168-.091-.276-.055a3.728,3.728,0,0,0-1.048.842,3.667,3.667,0,0,0-.822,1.055c-.033.106-.036.036.06.27a4.04,4.04,0,0,1,.37,1.3A4.924,4.924,0,0,1,2.8,12.113a4.974,4.974,0,0,1-1.277,1.95,3.944,3.944,0,0,1-1.185.665c-.237.1-.2.109-.221.142a3.452,3.452,0,0,0-.148,1.293,3.476,3.476,0,0,0,.146,1.293c.023.033-.017.042.221.142a3.944,3.944,0,0,1,1.185.665A4.974,4.974,0,0,1,2.8,20.215a4.924,4.924,0,0,1,.436,2.279,4.041,4.041,0,0,1-.37,1.3c-.1.235-.094.165-.06.27a3.667,3.667,0,0,0,.822,1.055,3.728,3.728,0,0,0,1.048.842c.108.036.04.037.278-.055a4.048,4.048,0,0,1,1.3-.349,5.021,5.021,0,0,1,2.286.477,4.986,4.986,0,0,1,1.93,1.3,4,4,0,0,1,.653,1.178c.048.083.053.175.153.228a3.594,3.594,0,0,0,1.331.174,3.675,3.675,0,0,0,1.338-.148c.1-.051.1-.139.155-.228a4.065,4.065,0,0,1,.68-1.171,4.662,4.662,0,0,1,1.582-1.1c0-.029,0-.052,0-.082a5.45,5.45,0,0,1,.416-2.585,2.582,2.582,0,0,1,1.318-1.13,3.112,3.112,0,0,0,.948-.511A4.177,4.177,0,0,0,20.1,20.285a4.212,4.212,0,0,0,.411-1.945,3.224,3.224,0,0,0-.322-1.035,2.594,2.594,0,0,1-.135-1.742A5.648,5.648,0,0,1,21.6,13.392a9.684,9.684,0,0,1,1.178-1.046c-.065-.131-.131-.253-.194-.4A4.939,4.939,0,0,1,22.1,9.672a4.043,4.043,0,0,1,.349-1.3c.036-.133.09-.164.055-.269a3.687,3.687,0,0,0-.842-1.043,3.677,3.677,0,0,0-1.062-.82c-.108-.034-.181.032-.276.06a4.044,4.044,0,0,1-1.3.37,5.018,5.018,0,0,1-2.293-.438,4.975,4.975,0,0,1-1.95-1.27,4.066,4.066,0,0,1-.68-1.171c-.051-.089-.054-.177-.155-.228a3.677,3.677,0,0,0-1.338-.148,3.594,3.594,0,0,0-1.331.174Zm.254,5.939L10.366,10.7h2.361A5.463,5.463,0,1,1,7.259,16.16a.911.911,0,1,1,1.822,0,3.644,3.644,0,1,0,3.646-3.637H10.373l1.165,1.169a.908.908,0,1,1-1.285,1.285L7.517,12.248a.915.915,0,0,1,0-1.277l2.736-2.729a.908.908,0,1,1,1.284,1.285Zm14.851,8.419a7.1,7.1,0,0,0,2.468,5.54,16.023,16.023,0,0,1,1.977,2.18,5.617,5.617,0,0,1,.945,2.341h1.9V24.677l-2.441-2.386a.913.913,0,1,1,1.277-1.3l2.078,2.03,2.076-2.03a.913.913,0,1,1,1.277,1.3L35.5,24.684v3.322h1.9a5.616,5.616,0,0,1,.943-2.341,16.023,16.023,0,0,1,1.977-2.18,7.1,7.1,0,0,0,2.468-5.54,8.2,8.2,0,0,0-16.394,0Zm8.2-6.338a6.383,6.383,0,0,1,4.774,2.151A.911.911,0,1,1,38,14.963a4.552,4.552,0,0,0-3.409-1.534.911.911,0,1,1,0-1.822Zm9.835,1.74a1.948,1.948,0,0,0-.3.11c-.13.053-.314.13-.52.2a9.938,9.938,0,0,1,1,4.283,8.486,8.486,0,0,1-1.482,5.062q.007.017.012.034a9.116,9.116,0,0,1-4.078,11.07,2.723,2.723,0,0,1-1.745,1.929c0,.241,0,.475,0,1.078a2.728,2.728,0,1,1-5.455,0V36.039a2.716,2.716,0,0,1-1.742-1.925,9.112,9.112,0,0,1-4.066-11.106,8.487,8.487,0,0,1-1.482-5.064,9.913,9.913,0,0,1,.906-4.078c-.269-.085-.484-.179-.642-.24-.313-.122-.31-.141-.511-.075a4.614,4.614,0,0,0-1.425,1.117,4.669,4.669,0,0,0-1.1,1.445c-.062.2-.04.189.087.5a4.908,4.908,0,0,1,.45,1.573,6.007,6.007,0,0,1-.537,2.777,6.035,6.035,0,0,1-1.553,2.373,4.8,4.8,0,0,1-1.432.808c-.312.132-.315.119-.4.29a4.376,4.376,0,0,0-.215,1.751,4.376,4.376,0,0,0,.215,1.751c.089.171.092.158.4.29a4.8,4.8,0,0,1,1.432.808,6.035,6.035,0,0,1,1.553,2.373,6.007,6.007,0,0,1,.537,2.777,3.794,3.794,0,0,1-.126.674,13.133,13.133,0,0,1,5.11,2.432l7.227,5.29a4.517,4.517,0,0,0,1.71-.214c.188-.094.175-.1.31-.409a4.91,4.91,0,0,1,.82-1.42,6.07,6.07,0,0,1,2.381-1.546,6.078,6.078,0,0,1,2.79-.532,4.918,4.918,0,0,1,1.575.452c.311.127.309.143.511.08a4.646,4.646,0,0,0,1.446-1.1,4.621,4.621,0,0,0,1.123-1.42c.066-.2.047-.192-.075-.5a4.9,4.9,0,0,1-.423-1.58,6.018,6.018,0,0,1,.585-2.77,6.1,6.1,0,0,1,1.587-2.347,5.268,5.268,0,0,1,1.413-.808c.3-.137.32-.126.431-.351a5.175,5.175,0,0,0,.262-1.932,5.175,5.175,0,0,0-.262-1.932c-.11-.225-.13-.214-.431-.351a5.267,5.267,0,0,1-1.413-.808,6.1,6.1,0,0,1-1.587-2.347,6.018,6.018,0,0,1-.585-2.77,4.9,4.9,0,0,1,.423-1.58c.122-.312.14-.306.075-.5a4.621,4.621,0,0,0-1.123-1.42,4.646,4.646,0,0,0-1.446-1.1.411.411,0,0,0-.213-.03Zm-4.368,3.7a.911.911,0,1,1-.911.911A.911.911,0,0,1,40.054,17.045Zm1.655,7.622-.1.1a15.677,15.677,0,0,0-1.769,1.93,3.579,3.579,0,0,0-.692,2.212h-.006v.916c0,.629,0,1.325,0,2.039a7.265,7.265,0,0,0,2.567-7.2Zm-14.244,0a7.272,7.272,0,0,0,2.567,7.206V28.912h-.006a3.579,3.579,0,0,0-.692-2.212,15.676,15.676,0,0,0-1.769-1.93l-.1-.1Zm9.855,5.161H31.853v3.644a.9.9,0,0,0,.907.907h3.651a.9.9,0,0,0,.907-.907c0-1.135,0-2.479,0-3.644ZM7.257,33.472H-.03V50.78H7.257Zm3.644.911H9.079V49.869H10.9ZM35.49,36.2H33.679v.915a.906.906,0,1,0,1.811,0C35.49,36.548,35.49,36.372,35.49,36.2Zm-22.767,0V48.049h.913A5.868,5.868,0,0,1,16.6,49.186c1,.634,2.035,1.441,3.06,2.238s2.035,1.584,2.918,2.146a4.5,4.5,0,0,0,1.984.854H46.43a1.823,1.823,0,1,0,0-3.646H34.945a3.657,3.657,0,0,1-2.509-.708l-5.3-4.032a.911.911,0,1,1,1.1-1.446l5.284,4.016a1.82,1.82,0,0,0,2.139-2.946l-9.428-6.9a11.278,11.278,0,0,0-5.54-2.333,65.5,65.5,0,0,0-7.973-.222Zm-9.11,10.93a.911.911,0,1,1-.911.911A.911.911,0,0,1,3.614,47.136Z" transform="translate(1.853 -1.588)" fill="#333"/>
        </g>
      </g>
    </g>
  </g>
</svg>
