<svg xmlns="http://www.w3.org/2000/svg" xmlns:xlink="http://www.w3.org/1999/xlink" width="102.648" height="102.648" viewBox="0 0 102.648 102.648">
  <defs>
    <filter id="Path_904820" x="0" y="0" width="102.648" height="102.648" filterUnits="userSpaceOnUse">
      <feOffset dy="3" input="SourceAlpha"/>
      <feGaussianBlur stdDeviation="3" result="blur"/>
      <feFlood flood-opacity="0.161"/>
      <feComposite operator="in" in2="blur"/>
      <feComposite in="SourceGraphic"/>
    </filter>
  </defs>
  <g id="Group_1233132" data-name="Group 1233132" transform="translate(-171.352 -1598.598)">
    <g id="Group_1233038" data-name="Group 1233038">
      <g id="Group_1228512" data-name="Group 1228512" transform="translate(180.352 1604.598)">
        <g id="Group_1222530" data-name="Group 1222530" transform="translate(0 0)">
          <g id="Group_1203724" data-name="Group 1203724" transform="translate(0 0)">
            <g id="Group_1173585" data-name="Group 1173585">
              <g id="Group_1173428" data-name="Group 1173428">
                <g id="Group_1171958" data-name="Group 1171958">
                  <g id="Group_1167341" data-name="Group 1167341">
                    <g id="Group_1166792" data-name="Group 1166792">
                      <g transform="matrix(1, 0, 0, 1, -9, -6)" filter="url(#Path_904820)">
                        <g id="Path_904820-2" data-name="Path 904820" transform="translate(9 6)" fill="#f2f7e5">
                          <path d="M 42.3242073059082 83.14846038818359 C 36.81231307983398 83.14846038818359 31.46608924865723 82.06928253173828 26.43404197692871 79.94090270996094 C 21.57291412353516 77.88481140136719 17.20684242248535 74.94102478027344 13.45713710784912 71.19131469726562 C 9.707430839538574 67.44161224365234 6.76364278793335 63.07553863525391 4.707560062408447 58.21439743041992 C 2.57918381690979 53.18235015869141 1.500007271766663 47.83612823486328 1.500007271766663 42.32423400878906 C 1.500007271766663 36.81233978271484 2.57918381690979 31.46611595153809 4.707560062408447 26.43406867980957 C 6.76364278793335 21.57292747497559 9.707430839538574 17.20685768127441 13.45713710784912 13.45715141296387 C 17.20684242248535 9.707433700561523 21.57291412353516 6.763657569885254 26.43404197692871 4.707563400268555 C 31.46608924865723 2.579186916351318 36.81231307983398 1.50001049041748 42.3242073059082 1.50001049041748 C 47.83610153198242 1.50001049041748 53.18232345581055 2.579186916351318 58.21437072753906 4.707563400268555 C 63.07551193237305 6.763657569885254 67.44157409667969 9.707433700561523 71.19127655029297 13.45715141296387 C 74.94099426269531 17.20685768127441 77.88477325439453 21.57292747497559 79.94086456298828 26.43406867980957 C 82.06924438476562 31.46611595153809 83.14842224121094 36.81233978271484 83.14842224121094 42.32423400878906 C 83.14842224121094 47.83612823486328 82.06924438476562 53.18235015869141 79.94086456298828 58.21439743041992 C 77.88477325439453 63.07553863525391 74.94099426269531 67.44161224365234 71.19127655029297 71.19131469726562 C 67.44157409667969 74.94102478027344 63.07551193237305 77.88481140136719 58.21437072753906 79.94090270996094 C 53.18232345581055 82.06928253173828 47.83610153198242 83.14846038818359 42.3242073059082 83.14846038818359 Z" stroke="none"/>
                          <path d="M 42.3242073059082 3.000007629394531 C 37.01415252685547 3.000007629394531 31.86452865600586 4.039314270019531 27.01836776733398 6.089073181152344 C 22.33603286743164 8.069526672363281 18.13021850585938 10.90536499023438 14.51779174804688 14.51780700683594 C 10.90535736083984 18.1302490234375 8.069511413574219 22.3360481262207 6.089057922363281 27.01839447021484 C 4.039299011230469 31.86454010009766 2.999992370605469 37.01417922973633 2.999992370605469 42.32423400878906 C 2.999992370605469 47.6342887878418 4.039299011230469 52.78391265869141 6.089057922363281 57.63007354736328 C 8.069511413574219 62.31241989135742 10.90535736083984 66.51821899414062 14.51779174804688 70.13066101074219 C 18.13023376464844 73.74310302734375 22.33603286743164 76.57892608642578 27.01836776733398 78.55939483642578 C 31.86452865600586 80.60915374755859 37.01415252685547 81.64846038818359 42.3242073059082 81.64846038818359 C 47.63426208496094 81.64846038818359 52.78388977050781 80.60915374755859 57.63003540039062 78.55939483642578 C 62.3123779296875 76.57892608642578 66.51818084716797 73.74310302734375 70.13062286376953 70.13066101074219 C 73.74304962158203 66.51821899414062 76.57888793945312 62.31241989135742 78.55935668945312 57.63007354736328 C 80.60910034179688 52.78391265869141 81.64840698242188 47.6342887878418 81.64840698242188 42.32423400878906 C 81.64840698242188 37.01417922973633 80.60910034179688 31.86454010009766 78.55935668945312 27.01839447021484 C 76.57888793945312 22.3360481262207 73.74304962158203 18.1302490234375 70.13062286376953 14.51780700683594 C 66.51818084716797 10.90536499023438 62.3123779296875 8.069526672363281 57.63004684448242 6.089073181152344 C 52.78388977050781 4.039314270019531 47.63426208496094 3.000007629394531 42.3242073059082 3.000007629394531 M 42.3242073059082 7.62939453125e-06 C 65.69921875 7.62939453125e-06 84.64840698242188 18.94921112060547 84.64840698242188 42.32423400878906 C 84.64840698242188 65.69924926757812 65.69921875 84.64846038818359 42.3242073059082 84.64846038818359 C 18.94919586181641 84.64846038818359 -7.62939453125e-06 65.69924926757812 -7.62939453125e-06 42.32423400878906 C -7.62939453125e-06 18.94921112060547 18.94919586181641 7.62939453125e-06 42.3242073059082 7.62939453125e-06 Z" stroke="none" fill="#496406"/>
                        </g>
                      </g>
                    </g>
                  </g>
                </g>
              </g>
            </g>
          </g>
        </g>
      </g>
      <g id="gestion-de-equipos_1_" data-name="gestion-de-equipos (1)" transform="translate(195.697 1614.558)">
        <g id="Group_1233014" data-name="Group 1233014" transform="translate(16.058 1.284)">
          <g id="Group_1233009" data-name="Group 1233009">
            <circle id="Ellipse_11584" data-name="Ellipse 11584" cx="12.922" cy="12.922" r="12.922" fill="#f7e365"/>
          </g>
          <g id="Group_1233010" data-name="Group 1233010" transform="translate(2.55 2.55)">
            <path id="Path_1219567" data-name="Path 1219567" d="M182.466,30.468a12.922,12.922,0,0,1-18.08,18.08,12.922,12.922,0,1,0,18.08-18.08Z" transform="translate(-164.386 -30.468)" fill="#f3d332"/>
          </g>
          <g id="Group_1233013" data-name="Group 1233013" transform="translate(5.223 4.78)">
            <g id="Group_1233011" data-name="Group 1233011">
              <path id="Path_1219568" data-name="Path 1219568" d="M201.409,58.259l1.68-1.824a1.144,1.144,0,0,0,.149-1.346l-.989-1.713a1.144,1.144,0,0,0-1.241-.544l-2.419.543-.077-.045-.74-2.366a1.144,1.144,0,0,0-1.091-.8H194.7a1.143,1.143,0,0,0-1.091.8l-.74,2.366-.077.045-2.419-.543a1.143,1.143,0,0,0-1.241.544l-.989,1.713a1.144,1.144,0,0,0,.149,1.346l1.68,1.824v.088l-1.68,1.824a1.144,1.144,0,0,0-.149,1.346l.989,1.713a1.144,1.144,0,0,0,1.241.544l2.419-.543.077.045.74,2.366a1.144,1.144,0,0,0,1.091.8h1.978a1.143,1.143,0,0,0,1.091-.8l.74-2.367.077-.044,2.419.543a1.144,1.144,0,0,0,1.241-.544l.989-1.713a1.144,1.144,0,0,0-.149-1.346l-1.68-1.824v-.088Zm-5.716,1.874a1.83,1.83,0,1,1,1.83-1.83A1.83,1.83,0,0,1,195.693,60.133Z" transform="translate(-187.994 -50.161)" fill="#62a4fb"/>
            </g>
            <g id="Group_1233012" data-name="Group 1233012" transform="translate(5.013 2.643)">
              <path id="Path_1219569" data-name="Path 1219569" d="M240.684,79.051v-.088l1.68-1.824a1.144,1.144,0,0,0,.149-1.346l-.989-1.713a1.144,1.144,0,0,0-1.241-.544l-1.373.308a8.055,8.055,0,0,1-6.628,10.566l.605,1.937a1.144,1.144,0,0,0,1.091.8h1.978a1.144,1.144,0,0,0,1.091-.8l.74-2.367.077-.044,2.419.543a1.143,1.143,0,0,0,1.241-.544l.989-1.713a1.144,1.144,0,0,0-.149-1.346Z" transform="translate(-232.282 -73.507)" fill="#5392f9"/>
            </g>
          </g>
        </g>
        <g id="Group_1233030" data-name="Group 1233030" transform="translate(12.741 22.348)">
          <g id="Group_1233019" data-name="Group 1233019" transform="translate(18.298)">
            <g id="Group_1233015" data-name="Group 1233015" transform="translate(0 9.148)">
              <path id="Path_1219570" data-name="Path 1219570" d="M274.2,278.949V289.8h14.18V278.949a4.117,4.117,0,0,0-4.117-4.117h-5.946A4.117,4.117,0,0,0,274.2,278.949Z" transform="translate(-274.198 -274.832)" fill="#e175a5"/>
            </g>
            <g id="Group_1233016" data-name="Group 1233016" transform="translate(0 9.148)">
              <path id="Path_1219571" data-name="Path 1219571" d="M281.973,278.948a6.826,6.826,0,0,0-1.376-4.117h-2.282a4.117,4.117,0,0,0-4.117,4.117V289.8h7.775Z" transform="translate(-274.198 -274.831)" fill="#de5791"/>
            </g>
            <g id="Group_1233017" data-name="Group 1233017" transform="translate(2.516)">
              <circle id="Ellipse_11585" data-name="Ellipse 11585" cx="4.574" cy="4.574" r="4.574" fill="#fed2a4"/>
            </g>
            <g id="Group_1233018" data-name="Group 1233018" transform="translate(3.053 0.537)">
              <path id="Path_1219572" data-name="Path 1219572" d="M307.352,198.759a4.574,4.574,0,0,1-6.188,6.188,4.574,4.574,0,1,0,6.188-6.188Z" transform="translate(-301.164 -198.759)" fill="#ffbd86"/>
            </g>
          </g>
          <g id="Group_1233024" data-name="Group 1233024">
            <g id="Group_1233020" data-name="Group 1233020" transform="translate(0 9.148)">
              <path id="Path_1219573" data-name="Path 1219573" d="M112.552,278.949V289.8h14.18V278.949a4.117,4.117,0,0,0-4.117-4.117h-5.946A4.117,4.117,0,0,0,112.552,278.949Z" transform="translate(-112.552 -274.832)" fill="#e175a5"/>
            </g>
            <g id="Group_1233021" data-name="Group 1233021" transform="translate(6.405 9.148)">
              <path id="Path_1219574" data-name="Path 1219574" d="M176.905,289.8V278.949a4.117,4.117,0,0,0-4.117-4.117h-2.282a6.825,6.825,0,0,0-1.376,4.117V289.8Z" transform="translate(-169.13 -274.832)" fill="#de5791"/>
            </g>
            <g id="Group_1233022" data-name="Group 1233022" transform="translate(2.516)">
              <circle id="Ellipse_11586" data-name="Ellipse 11586" cx="4.574" cy="4.574" r="4.574" fill="#fed2a4"/>
            </g>
            <g id="Group_1233023" data-name="Group 1233023" transform="translate(3.053 0.537)">
              <path id="Path_1219575" data-name="Path 1219575" d="M145.706,198.759a4.574,4.574,0,0,1-6.188,6.188,4.574,4.574,0,1,0,6.188-6.188Z" transform="translate(-139.518 -198.759)" fill="#ffbd86"/>
            </g>
          </g>
          <g id="Group_1233029" data-name="Group 1233029" transform="translate(9.149)">
            <g id="Group_1233025" data-name="Group 1233025" transform="translate(0 9.148)">
              <path id="Path_1219576" data-name="Path 1219576" d="M193.375,278.949V289.8h14.18V278.949a4.117,4.117,0,0,0-4.117-4.117h-5.946A4.117,4.117,0,0,0,193.375,278.949Z" transform="translate(-193.375 -274.832)" fill="#62a4fb"/>
            </g>
            <g id="Group_1233026" data-name="Group 1233026" transform="translate(7.09 9.148)">
              <path id="Path_1219577" data-name="Path 1219577" d="M258.98,274.832h-2.973a4.117,4.117,0,0,1,4.117,4.117V289.8H263.1V278.949A4.117,4.117,0,0,0,258.98,274.832Z" transform="translate(-256.007 -274.832)" fill="#5392f9"/>
            </g>
            <g id="Group_1233027" data-name="Group 1233027" transform="translate(2.516)">
              <circle id="Ellipse_11587" data-name="Ellipse 11587" cx="4.574" cy="4.574" r="4.574" fill="#fed2a4"/>
            </g>
            <g id="Group_1233028" data-name="Group 1233028" transform="translate(3.053 0.537)">
              <path id="Path_1219578" data-name="Path 1219578" d="M226.529,198.759a4.574,4.574,0,0,1-6.188,6.188,4.574,4.574,0,1,0,6.188-6.188Z" transform="translate(-220.341 -198.759)" fill="#ffbd86"/>
            </g>
          </g>
        </g>
        <g id="Group_1233036" data-name="Group 1233036" transform="translate(0.849 37.036)">
          <g id="Group_1233031" data-name="Group 1233031" transform="translate(7.318 3.942)">
            <path id="Path_1219579" data-name="Path 1219579" d="M72.152,358.6h4.117v14.637H72.152Z" transform="translate(-72.152 -358.597)" fill="#d3effd"/>
          </g>
          <g id="Group_1233032" data-name="Group 1233032" transform="translate(11.435)">
            <path id="Path_1219580" data-name="Path 1219580" d="M152.541,324.579a2.744,2.744,0,0,0-3.881,0l-8.627,8.627h-7.957a2.744,2.744,0,0,0,0-5.489h-8.691l-1.763-1.429a8.964,8.964,0,0,0-11.2-.073l-1.9,1.5v14.637l16.564,1.039a9.147,9.147,0,0,0,3.272-.389l12.868-3.974a4.575,4.575,0,0,0,1.885-1.136l9.433-9.433A2.744,2.744,0,0,0,152.541,324.579Z" transform="translate(-108.519 -323.775)" fill="#fed2a4"/>
          </g>
          <g id="Group_1233033" data-name="Group 1233033" transform="translate(27.877)">
            <path id="Path_1219581" data-name="Path 1219581" d="M281.344,324.579a2.744,2.744,0,0,0-3.881,0l-8.627,8.627H267.2a33.593,33.593,0,0,1-2.751,3.112,30.719,30.719,0,0,1-10.685,7.067l.123.008a9.148,9.148,0,0,0,3.272-.389l12.868-3.974a4.575,4.575,0,0,0,1.885-1.136l9.433-9.433A2.744,2.744,0,0,0,281.344,324.579Z" transform="translate(-253.763 -323.775)" fill="#ffbd86"/>
          </g>
          <g id="Group_1233034" data-name="Group 1233034" transform="translate(0 2.112)">
            <path id="Path_1219582" data-name="Path 1219582" d="M7.5,342.434h7.318v18.3H7.5Z" transform="translate(-7.5 -342.434)" fill="#62a4fb"/>
          </g>
          <g id="Group_1233035" data-name="Group 1233035" transform="translate(4.803 2.112)">
            <path id="Path_1219583" data-name="Path 1219583" d="M49.928,342.434h2.516v18.3H49.928Z" transform="translate(-49.928 -342.434)" fill="#5392f9"/>
          </g>
        </g>
        <g id="Group_1233037" data-name="Group 1233037" transform="translate(0 0.435)">
          <circle id="Ellipse_11588" data-name="Ellipse 11588" cx="0.915" cy="0.915" r="0.915" transform="translate(3.593 41.458)"/>
          <circle id="Ellipse_11589" data-name="Ellipse 11589" cx="0.915" cy="0.915" r="0.915" transform="translate(3.593 45.117)"/>
          <path id="Path_1219584" data-name="Path 1219584" d="M237.7,101.1a2.679,2.679,0,1,0-2.679,2.679A2.682,2.682,0,0,0,237.7,101.1Zm-2.678.981A.981.981,0,1,1,236,101.1.982.982,0,0,1,235.022,102.085Z" transform="translate(-206.042 -87.334)"/>
          <path id="Path_1219585" data-name="Path 1219585" d="M56.907,37.24a3.593,3.593,0,0,0-5.082,0L46.067,43V40.2a.849.849,0,1,0-1.7,0V44.7l-.922.922H38.892a3.6,3.6,0,0,0-1.974-5.325v-4.68a4.944,4.944,0,0,0-1.231-3.268H41.1a3.271,3.271,0,0,1,3.267,3.268v.628a.849.849,0,1,0,1.7,0v-.628a4.973,4.973,0,0,0-4.08-4.886,5.417,5.417,0,0,0-1.638-8.751,13.809,13.809,0,0,0,2.4-7.771A13.652,13.652,0,0,0,38.6,4.357a.849.849,0,0,0-1.186,1.216,11.967,11.967,0,0,1,3.637,8.634,12.1,12.1,0,0,1-2.467,7.314c-.151-.013-.3-.021-.457-.021a5.422,5.422,0,0,0-4.574,2.516,5.463,5.463,0,0,0-1.873-1.792,2.015,2.015,0,0,0,.189-.424l.524-1.678,1.715.385a1.984,1.984,0,0,0,2.162-.948l.989-1.713A1.984,1.984,0,0,0,37,15.5L35.81,14.206,37,12.913a1.984,1.984,0,0,0,.26-2.346l-.989-1.713a1.984,1.984,0,0,0-2.162-.948l-1.715.385L31.87,6.613a1.984,1.984,0,0,0-1.9-1.4H27.99a1.984,1.984,0,0,0-1.9,1.4l-.524,1.678-1.715-.385a1.984,1.984,0,0,0-2.162.948L20.7,10.567a1.984,1.984,0,0,0,.26,2.346l1.191,1.293L20.958,15.5a1.984,1.984,0,0,0-.26,2.346l.989,1.713a1.984,1.984,0,0,0,2.162.948l1.715-.385.524,1.678a2.01,2.01,0,0,0,.189.424A5.462,5.462,0,0,0,24.4,24.015,5.422,5.422,0,0,0,19.83,21.5c-.154,0-.306.008-.457.021A12.073,12.073,0,0,1,28.979,2.133a11.95,11.95,0,0,1,5.435,1.29.849.849,0,1,0,.765-1.516,13.631,13.631,0,0,0-6.2-1.472A13.772,13.772,0,0,0,17.61,21.976a5.417,5.417,0,0,0-1.638,8.751,4.973,4.973,0,0,0-4.08,4.885v4.516H9.017v-.981a.849.849,0,0,0-.849-.849H.849A.849.849,0,0,0,0,39.149v18.3a.849.849,0,0,0,.849.849H8.168a.849.849,0,0,0,.849-.849v-.981h3.247l11.135.7a.849.849,0,1,0,.106-1.695l-10.37-.651V41.39l1.58-1.247a8.114,8.114,0,0,1,10.138.067l1.764,1.429a.849.849,0,0,0,.534.189h8.691a1.9,1.9,0,0,1,0,3.791H26.006a.849.849,0,0,0-.6.249l-1.2,1.2a.849.849,0,1,0,1.2,1.2l.952-.952H43.8a.849.849,0,0,0,.6-.249l8.626-8.627a1.9,1.9,0,1,1,2.681,2.681l-9.433,9.433a3.737,3.737,0,0,1-1.535.925L31.869,55.454a8.258,8.258,0,0,1-2.967.353l-1.443-.091a.849.849,0,1,0-.106,1.695L28.8,57.5q.316.02.631.02a9.935,9.935,0,0,0,2.944-.445L45.239,53.1a5.442,5.442,0,0,0,2.235-1.346l9.433-9.433a3.6,3.6,0,0,0,0-5.083ZM38.129,23.2A3.725,3.725,0,1,1,34.4,26.922,3.729,3.729,0,0,1,38.129,23.2ZM27.991,21.5a.293.293,0,0,1-.281-.207l-.739-2.366a.849.849,0,0,0-.386-.482l-.077-.044a.849.849,0,0,0-.611-.094l-2.419.543a.294.294,0,0,1-.32-.14L22.169,17a.293.293,0,0,1,.038-.347l1.68-1.824a.849.849,0,0,0,.224-.575v-.088a.849.849,0,0,0-.224-.575l-1.68-1.824a.293.293,0,0,1-.038-.347L23.158,9.7a.294.294,0,0,1,.32-.14l2.419.543a.848.848,0,0,0,.611-.094l.077-.044a.849.849,0,0,0,.386-.482L27.71,7.12a.293.293,0,0,1,.281-.207h1.978a.293.293,0,0,1,.281.207l.739,2.366a.848.848,0,0,0,.385.482l.077.045a.849.849,0,0,0,.611.094l2.419-.543a.293.293,0,0,1,.32.14l.989,1.713a.293.293,0,0,1-.038.347l-1.68,1.824a.849.849,0,0,0-.224.575v.088a.849.849,0,0,0,.224.575l1.68,1.824A.293.293,0,0,1,35.79,17L34.8,18.709a.294.294,0,0,1-.32.14l-2.419-.543a.848.848,0,0,0-.61.093l-.078.045a.849.849,0,0,0-.385.482l-.74,2.367a.293.293,0,0,1-.281.207H27.991Zm.989,1.7a3.725,3.725,0,1,1-3.725,3.725A3.729,3.729,0,0,1,28.98,23.2Zm-9.149,0a3.725,3.725,0,1,1-3.725,3.725A3.729,3.729,0,0,1,19.831,23.2ZM7.319,56.6H1.7V40H7.319Zm1.7-14.769h2.419V54.766H9.017Zm7.506-4.585a9.788,9.788,0,0,0-2.861,1.568l-.072.057V35.613a3.271,3.271,0,0,1,3.268-3.268h5.415a4.944,4.944,0,0,0-1.231,3.268v1.174a9.765,9.765,0,0,0-4.518.455Zm9.4,1.648a9.817,9.817,0,0,0-3.183-1.718V35.613a3.271,3.271,0,0,1,3.268-3.268h5.946a3.271,3.271,0,0,1,3.268,3.268v4.516H27.451Z" transform="translate(0 -0.435)"/>
        </g>
      </g>
    </g>
  </g>
</svg>
