<svg xmlns="http://www.w3.org/2000/svg" xmlns:xlink="http://www.w3.org/1999/xlink" width="106.16" height="106.16" viewBox="0 0 106.16 106.16">
  <defs>
    <filter id="Path_982547" x="0" y="0" width="106.16" height="106.16" filterUnits="userSpaceOnUse">
      <feOffset dy="3" input="SourceAlpha"/>
      <feGaussianBlur stdDeviation="3" result="blur"/>
      <feFlood flood-opacity="0.161"/>
      <feComposite operator="in" in2="blur"/>
      <feComposite in="SourceGraphic"/>
    </filter>
    <clipPath id="clip-path">
      <path id="path6177" d="M0-682.665H54.511v54.511H0Z" transform="translate(0 682.665)"/>
    </clipPath>
  </defs>
  <g id="Group_1225016" data-name="Group 1225016" transform="translate(-190.92 -1881.069)">
    <g id="Group_1224862" data-name="Group 1224862">
      <g id="Group_1206129" data-name="Group 1206129" transform="translate(0 -58.931)">
        <g id="Group_1203795" data-name="Group 1203795" transform="translate(0 -4639.878)">
          <g id="Group_1203344" data-name="Group 1203344" transform="translate(-81.08 5174.875)">
            <g id="Group_1177900" data-name="Group 1177900" transform="translate(281 1411.003)">
              <g id="Group_1172010" data-name="Group 1172010" transform="translate(0)">
                <g id="Group_1171046" data-name="Group 1171046">
                  <g id="Group_1148525" data-name="Group 1148525">
                    <g transform="matrix(1, 0, 0, 1, -9, -6)" filter="url(#Path_982547)">
                      <g id="Path_982547-2" data-name="Path 982547" transform="translate(9 6)" fill="#e9f9fd">
                        <path d="M 44.0802001953125 86.660400390625 C 38.33124923706055 86.660400390625 32.75506210327148 85.53479766845703 27.50652503967285 83.31484985351562 C 22.43628692626953 81.17032623291016 17.88242530822754 78.09992218017578 13.97144985198975 74.18894958496094 C 10.06047534942627 70.27797698974609 6.99007511138916 65.72411346435547 4.845550060272217 60.65387344360352 C 2.625600099563599 55.40533828735352 1.500000238418579 49.82915115356445 1.500000238418579 44.0802001953125 C 1.500000238418579 38.33124923706055 2.625600099563599 32.75506210327148 4.845550060272217 27.50652503967285 C 6.99007511138916 22.43628692626953 10.06047534942627 17.88242530822754 13.97144985198975 13.97144985198975 C 17.88242530822754 10.06047534942627 22.43628692626953 6.99007511138916 27.50652503967285 4.845550060272217 C 32.75506210327148 2.625600099563599 38.33124923706055 1.500000238418579 44.0802001953125 1.500000238418579 C 49.82915115356445 1.500000238418579 55.40533828735352 2.625600099563599 60.65387344360352 4.845550060272217 C 65.72411346435547 6.99007511138916 70.27797698974609 10.06047534942627 74.18894958496094 13.97144985198975 C 78.09992218017578 17.88242530822754 81.17032623291016 22.43628692626953 83.31484985351562 27.50652503967285 C 85.53479766845703 32.75506210327148 86.660400390625 38.33124923706055 86.660400390625 44.0802001953125 C 86.660400390625 49.82915115356445 85.53479766845703 55.40533828735352 83.31484985351562 60.65387344360352 C 81.17032623291016 65.72411346435547 78.09992218017578 70.27797698974609 74.18894958496094 74.18894958496094 C 70.27797698974609 78.09992218017578 65.72411346435547 81.17032623291016 60.65387344360352 83.31484985351562 C 55.40533828735352 85.53479766845703 49.82915115356445 86.660400390625 44.0802001953125 86.660400390625 Z" stroke="none"/>
                        <path d="M 44.0802001953125 3 C 38.53308486938477 3 33.15349960327148 4.085746765136719 28.09085845947266 6.227058410644531 C 23.19941711425781 8.29595947265625 18.80581665039062 11.25841522216797 15.03211212158203 15.03211212158203 C 11.25841522216797 18.80581665039062 8.29595947265625 23.19941711425781 6.227058410644531 28.09085845947266 C 4.085746765136719 33.15349960327148 3 38.53308486938477 3 44.0802001953125 C 3 49.62731552124023 4.085746765136719 55.00691604614258 6.227058410644531 60.06954193115234 C 8.29595947265625 64.96098327636719 11.25841522216797 69.35458374023438 15.03211212158203 73.12828826904297 C 18.80581665039062 76.90198516845703 23.19941711425781 79.86444091796875 28.09085845947266 81.93334197998047 C 33.15349960327148 84.07466125488281 38.53308486938477 85.160400390625 44.0802001953125 85.160400390625 C 49.62731552124023 85.160400390625 55.00691604614258 84.07466125488281 60.06954193115234 81.93334197998047 C 64.96099853515625 79.86444091796875 69.35458374023438 76.90198516845703 73.12828826904297 73.12828826904297 C 76.90198516845703 69.35458374023438 79.86444091796875 64.96099853515625 81.93334197998047 60.06954193115234 C 84.07466125488281 55.00691604614258 85.160400390625 49.62731552124023 85.160400390625 44.0802001953125 C 85.160400390625 38.53308486938477 84.07466125488281 33.15349960327148 81.93334197998047 28.09085845947266 C 79.86444091796875 23.19941711425781 76.90198516845703 18.80581665039062 73.12828826904297 15.03211212158203 C 69.35458374023438 11.25841522216797 64.96098327636719 8.29595947265625 60.06954193115234 6.227058410644531 C 55.00691604614258 4.085746765136719 49.62731552124023 3 44.0802001953125 3 M 44.0802001953125 0 C 68.42502593994141 0 88.160400390625 19.73538970947266 88.160400390625 44.0802001953125 C 88.160400390625 68.42502593994141 68.42502593994141 88.160400390625 44.0802001953125 88.160400390625 C 19.73538970947266 88.160400390625 0 68.42502593994141 0 44.0802001953125 C 0 19.73538970947266 19.73538970947266 0 44.0802001953125 0 Z" stroke="none" fill="#1d7083"/>
                      </g>
                    </g>
                  </g>
                </g>
              </g>
            </g>
          </g>
        </g>
      </g>
      <g id="g6171" transform="translate(215.361 2588.054)">
        <g id="g6173" transform="translate(0 -682.665)">
          <g id="g6175" clip-path="url(#clip-path)">
            <g id="g6181" transform="translate(12.728 10.746)">
              <path id="path6183" d="M-88.446-83.413c-.644.644-3.438,2.73-4.346,2.73-1.839,0-3.329-2.232-3.329-4.985s1.491-4.984,3.329-4.984c1.5,0,2.761,1.477,3.181,3.509a.09.09,0,0,0,.127.063c.883-.425,1.71-.464,2.159-.015.707.707.206,2.355-1.121,3.682" transform="translate(96.121 90.652)" fill="#ffcebf"/>
            </g>
            <g id="g6185" transform="translate(14.406 10.746)">
              <path id="path6187" d="M-82.027-40.988c-.449-.449-1.275-.41-2.158.015a.09.09,0,0,1-.128-.063c-.42-2.032-1.685-3.509-3.181-3.509a2.507,2.507,0,0,0-1.6.611A4.265,4.265,0,0,1-88-42.5a2.136,2.136,0,0,0,1.914,1.191,1.2,1.2,0,0,1,.864.32c.707.707.205,2.355-1.121,3.682a18.946,18.946,0,0,1-2.8,2.073,2.528,2.528,0,0,0,1.651.657c.908,0,3.7-2.086,4.346-2.73,1.326-1.327,1.828-2.975,1.121-3.682" transform="translate(89.145 44.545)" fill="#ffb09e"/>
            </g>
            <g id="g6189" transform="translate(12.608 19.56)">
              <path id="path6191" d="M-473.663-313.927v5.845a1.065,1.065,0,0,1-1.065,1.065h-29.811a1.065,1.065,0,0,1-1.065-1.065v-3.707a3.219,3.219,0,0,0-1.227-2.526c-3.04-2.4-10.44-10.11-7.081-26.4a.566.566,0,0,1,.561-.45l3.785.037a.568.568,0,0,1,.561.591c-.4,10.248,4.645,14.9,6.805,16.413a3.263,3.263,0,0,0,1.872.587h17.05a9.614,9.614,0,0,1,9.614,9.614" transform="translate(514.768 341.169)" fill="#5f99d7"/>
            </g>
            <g id="g6193" transform="translate(13.84 19.56)">
              <path id="path6195" d="M-8.948-.433a.567.567,0,0,1,.561.591c-.4,10.248,4.645,14.9,6.805,16.413a3.263,3.263,0,0,0,1.872.587H3.485a3.263,3.263,0,0,1-1.872-.587C-.548,15.057-5.595,10.406-5.193.157a.567.567,0,0,0-.561-.591L-9.539-.471a.569.569,0,0,0-.185.03Z" transform="translate(9.724 0.471)" fill="#3c87d0"/>
            </g>
            <g id="g6197" transform="translate(40.904 37.188)">
              <path id="path6199" d="M-36.806,0H-40a9.614,9.614,0,0,1,9.614,9.614v5.845a1.065,1.065,0,0,1-1.065,1.065h3.194a1.065,1.065,0,0,0,1.065-1.065V9.614A9.614,9.614,0,0,0-36.806,0" transform="translate(40)" fill="#3c87d0"/>
            </g>
            <g id="g6201" transform="translate(32.149 40.959)">
              <path id="path6203" d="M-64.457,0l5.9,1.84-3.461,10.913h-4.975L-70.05,1.807Z" transform="translate(70.05)" fill="#b3ceec"/>
            </g>
            <path id="path6205" d="M439.054-289.409h-6.388V-299.8h6.388Z" transform="translate(-398.117 330.369)" fill="#ffcebf"/>
            <path id="path6207" d="M472.665-289.409h3.194V-299.8h-3.194Z" transform="translate(-434.923 330.369)" fill="#ffb09e"/>
            <g id="g6209" transform="translate(30.913 34.685)">
              <path id="path6211" d="M-41.889,0A8.345,8.345,0,0,0-38.7,6.274s-1.99,2.222-4,1.516c-1.595-.559-2.5-3.534-2.8-4.746a.748.748,0,0,1,.306-.8Z" transform="translate(45.524)" fill="#e5eef9"/>
            </g>
            <g id="g6213" transform="translate(37.742 34.685)">
              <path id="path6215" d="M-36.806,0A8.345,8.345,0,0,1-40,6.274S-38.01,8.5-36,7.79c1.595-.559,2.5-3.534,2.8-4.746a.749.749,0,0,0-.306-.8Z" transform="translate(40)" fill="#e5eef9"/>
            </g>
            <g id="g6217" transform="translate(22.935 15.73)">
              <path id="path6219" d="M-68.679-48.6c0,2.329-1.425,4.218-3.182,4.218s-2.778-2.169-2.778-4.5,1.021-3.937,2.778-3.937,3.182,1.888,3.182,4.218" transform="translate(74.638 52.82)" fill="#ffb09e"/>
            </g>
            <g id="g6221" transform="translate(46.59 15.73)">
              <path id="path6223" d="M0-48.6c0,2.329,1.425,4.218,3.182,4.218s2.778-2.169,2.778-4.5S4.939-52.82,3.182-52.82,0-50.932,0-48.6" transform="translate(0 52.82)" fill="#ffb09e"/>
            </g>
            <g id="g6225" transform="translate(27.473 5.094)">
              <path id="path6227" d="M0-198.86v-6.988a10.269,10.269,0,0,1,10.269-10.269,10.269,10.269,0,0,1,10.269,10.269v6.949A10.288,10.288,0,0,1,10.25-188.61,10.25,10.25,0,0,1,0-198.86" transform="translate(0 216.117)" fill="#ffcebf"/>
            </g>
            <g id="g6229" transform="translate(36.128 5.094)">
              <path id="path6231" d="M-18.607,0h0a10.337,10.337,0,0,0-1.6.124,10.272,10.272,0,0,1,8.672,10.145v6.949a10.291,10.291,0,0,1-8.69,10.165,10.328,10.328,0,0,0,1.6.124A10.288,10.288,0,0,0-8.337,17.218V10.269A10.269,10.269,0,0,0-18.607,0" transform="translate(20.221)" fill="#ffb09e"/>
            </g>
            <g id="g6233" transform="translate(25.94 0.799)">
              <path id="path6235" d="M-260.371-193.366a12.432,12.432,0,0,0-.523,2.563s-2.369-1.764-2.3-2.435c.113-1.072.734-7.658-1.975-7.037s-3.823,1.072-6.087,1.072-3.378-.451-6.087-1.072-2.087,5.965-1.975,7.037c.071.671-2.117,2.428-2.117,2.428a17.978,17.978,0,0,0-.7-2.556c-.278-.6-3.288-9.774,4.2-13.117a13.457,13.457,0,0,0,3.284-2.093,8,8,0,0,1,5.085-1.569c3.386,0,6.129,1.59,6.129,3.554v.005a.966.966,0,0,0,.432.818c5.689,3.711,3.018,11.577,2.634,12.4" transform="translate(282.966 210.146)" fill="#9b5e5e"/>
            </g>
            <g id="g6237" transform="translate(37.743 0.799)">
              <path id="path6239" d="M-94-50.444a.967.967,0,0,1-.432-.818v-.005c0-1.963-2.744-3.554-6.129-3.554a10.365,10.365,0,0,0-1.6.123c2.61.408,4.531,1.789,4.531,3.431v.005a.966.966,0,0,0,.432.818c4.392,2.865,3.8,8.205,3.127,10.872-.032.768-.092,1.389-.121,1.659-.07.671,2.3,2.435,2.3,2.435a12.434,12.434,0,0,1,.523-2.563c.384-.825,3.055-8.692-2.634-12.4" transform="translate(102.162 54.821)" fill="#855151"/>
            </g>
            <g id="g6241" transform="translate(26.78 36.509)">
              <path id="path6243" d="M-58.521,0l3.857,17.2h-2.4l-4.006-5.26a.426.426,0,0,1-.085-.3l.377-3.853a.426.426,0,0,0-.17-.383l-2.484-1.848a.426.426,0,0,1-.159-.447l.962-3.789a.425.425,0,0,1,.3-.306Z" transform="translate(63.599)" fill="#0078c8"/>
            </g>
            <g id="g6245" transform="translate(39.77 36.502)">
              <path id="path6247" d="M-44.309,0l-3.845,17.211h2.4l4.006-5.26a.427.427,0,0,0,.085-.3L-42.045,7.8a.426.426,0,0,1,.17-.383l2.484-1.848a.426.426,0,0,0,.159-.446l-.962-3.789a.426.426,0,0,0-.3-.306Z" transform="translate(48.155)" fill="#0078c8"/>
            </g>
            <g id="g6249" transform="translate(0.798 0.799)">
              <path id="path6251" d="M-85.1-10.186l.55,1.116a1.871,1.871,0,0,0,1.408,1.025l1.229.179a1.586,1.586,0,0,1,.877,2.7l-.889.868a1.875,1.875,0,0,0-.538,1.658l.21,1.226a1.584,1.584,0,0,1-2.3,1.672l-1.1-.579a1.869,1.869,0,0,0-1.741,0l-1.1.579a1.584,1.584,0,0,1-2.3-1.672l.21-1.226a1.875,1.875,0,0,0-.538-1.658L-92-5.162a1.587,1.587,0,0,1,.878-2.7l1.229-.179A1.87,1.87,0,0,0-88.487-9.07l.55-1.116a1.583,1.583,0,0,1,2.84,0" transform="translate(92.482 11.07)" fill="#ffc344"/>
            </g>
            <g id="g6253" transform="translate(4.764 0.798)">
              <path id="path6255" d="M-76.128-36.911l-1.229-.179a1.87,1.87,0,0,1-1.408-1.025l-.55-1.115a1.582,1.582,0,0,0-2.84,0l-.55,1.115c-.009.019-.02.037-.029.056.007.014.015.027.022.041l.55,1.116a1.871,1.871,0,0,0,1.408,1.025l1.229.179a1.587,1.587,0,0,1,.878,2.7l-.89.868a1.875,1.875,0,0,0-.538,1.658l.188,1.1.022.011,1.1.579a1.584,1.584,0,0,0,2.3-1.672l-.21-1.226a1.875,1.875,0,0,1,.538-1.658l.889-.868a1.586,1.586,0,0,0-.877-2.7" transform="translate(82.734 40.115)" fill="#feb237"/>
            </g>
            <g id="g6257" transform="translate(12.728 10.746)">
              <path id="path6259" d="M-13.253-100.857a6.246,6.246,0,0,1-1.15-3.769c0-2.752,1.491-4.984,3.329-4.984,1.5,0,2.761,1.477,3.181,3.509a.09.09,0,0,0,.127.063c.883-.425,1.71-.464,2.159-.015.707.707.206,2.355-1.121,3.682A17.688,17.688,0,0,1-8.892-100.7" transform="translate(14.403 109.609)" fill="none" stroke="#000" stroke-linecap="round" stroke-linejoin="round" stroke-miterlimit="10" stroke-width="1.5"/>
            </g>
            <g id="g6261" transform="translate(12.608 19.56)">
              <path id="path6263" d="M-19.006-207.351c-1.584-4.2-2.362-9.935-.793-17.544a.566.566,0,0,1,.561-.45l3.785.037a.568.568,0,0,1,.561.591c-.4,10.248,4.645,14.9,6.805,16.413a3.263,3.263,0,0,0,1.872.587H-3.97" transform="translate(20.656 225.345)" fill="none" stroke="#000" stroke-linecap="round" stroke-linejoin="round" stroke-miterlimit="10" stroke-width="1.5"/>
            </g>
            <g id="g6265" transform="translate(15.855 37.922)">
              <path id="path6267" d="M-367.99,0a9.617,9.617,0,0,1,5.924,8.88v5.845a1.065,1.065,0,0,1-1.065,1.065h-29.811a1.065,1.065,0,0,1-1.065-1.065V11.018a3.219,3.219,0,0,0-1.227-2.526A19.587,19.587,0,0,1-399.924,3" transform="translate(399.924)" fill="none" stroke="#000" stroke-linecap="round" stroke-linejoin="round" stroke-miterlimit="10" stroke-width="1.5"/>
            </g>
            <g id="g6269" transform="translate(34.548 32.25)">
              <path id="path6271" d="M0-28.068V-30.5" transform="translate(0 30.504)" fill="none" stroke="#000" stroke-linecap="round" stroke-linejoin="round" stroke-miterlimit="10" stroke-width="1.5"/>
            </g>
            <g id="g6273" transform="translate(40.936 32.279)">
              <path id="path6275" d="M0,0V2.406" fill="none" stroke="#000" stroke-linecap="round" stroke-linejoin="round" stroke-miterlimit="10" stroke-width="1.5"/>
            </g>
            <g id="g6277" transform="translate(31.859 34.685)">
              <path id="path6279" d="M0-21.02l2.69-1.824A8.345,8.345,0,0,0,5.884-16.57s-1.99,2.222-4,1.516a2.026,2.026,0,0,1-.566-.315" transform="translate(0 22.844)" fill="none" stroke="#000" stroke-linecap="round" stroke-linejoin="round" stroke-miterlimit="10" stroke-width="1.5"/>
            </g>
            <g id="g6281" transform="translate(37.742 34.685)">
              <path id="path6283" d="M-67.671-20.93l-2.678-1.816a8.345,8.345,0,0,1-3.194,6.274s1.99,2.222,4,1.516a2.028,2.028,0,0,0,.566-.315" transform="translate(73.544 22.747)" fill="none" stroke="#000" stroke-linecap="round" stroke-linejoin="round" stroke-miterlimit="10" stroke-width="1.5"/>
            </g>
            <g id="g6285" transform="translate(22.935 15.73)">
              <path id="path6287" d="M-38.376-.736A2.4,2.4,0,0,0-38.929-.8c-1.758,0-2.778,1.608-2.778,3.937s1.02,4.5,2.778,4.5a2.67,2.67,0,0,0,1.815-.754" transform="translate(41.707 0.8)" fill="none" stroke="#000" stroke-linecap="round" stroke-linejoin="round" stroke-miterlimit="10" stroke-width="1.5"/>
            </g>
            <g id="g6289" transform="translate(47.953 15.73)">
              <path id="path6291" d="M-13.016-1.141a2.46,2.46,0,0,1,.69-.1c1.758,0,2.778,1.608,2.778,3.937s-1.02,4.5-2.778,4.5a2.67,2.67,0,0,1-1.819-.758" transform="translate(14.145 1.24)" fill="none" stroke="#000" stroke-linecap="round" stroke-linejoin="round" stroke-miterlimit="10" stroke-width="1.5"/>
            </g>
            <g id="g6293" transform="translate(27.474 20.135)">
              <path id="path6295" d="M-236.662-.074V2.1A10.288,10.288,0,0,1-246.95,12.386a10.213,10.213,0,0,1-7.247-3,10.214,10.214,0,0,1-3-7.247V-.08" transform="translate(257.199 0.08)" fill="none" stroke="#000" stroke-linecap="round" stroke-linejoin="round" stroke-miterlimit="10" stroke-width="1.5"/>
            </g>
            <g id="g6297" transform="translate(25.94 0.798)">
              <path id="path6299" d="M-267.742-103.335a13.768,13.768,0,0,1-.64,7.813,12.433,12.433,0,0,0-.523,2.563s-2.369-1.764-2.3-2.435c.113-1.072.734-7.658-1.975-7.038s-3.823,1.072-6.087,1.072-3.378-.452-6.087-1.072-2.087,5.965-1.975,7.038c.071.671-2.117,2.428-2.117,2.428a17.986,17.986,0,0,0-.7-2.556c-.278-.6-3.288-9.774,4.2-13.118a13.455,13.455,0,0,0,3.284-2.093,7.994,7.994,0,0,1,5.085-1.569c3.386,0,6.129,1.591,6.129,3.554v.005a.967.967,0,0,0,.432.818,7.814,7.814,0,0,1,1.56,1.329" transform="translate(290.976 112.302)" fill="none" stroke="#000" stroke-linecap="round" stroke-linejoin="round" stroke-miterlimit="10" stroke-width="1.5"/>
            </g>
            <g id="g6301" transform="translate(37.104 24.237)">
              <path id="path6303" d="M0,0A2.123,2.123,0,0,0,1.278,0" fill="none" stroke="#000" stroke-linecap="round" stroke-linejoin="round" stroke-miterlimit="10" stroke-width="1.5"/>
            </g>
            <g id="g6305" transform="translate(32.408 15.625)">
              <path id="path6307" d="M-31.668-2.438a4.567,4.567,0,0,0-2.748,0" transform="translate(34.416 2.65)" fill="none" stroke="#000" stroke-linecap="round" stroke-linejoin="round" stroke-miterlimit="10" stroke-width="1.5"/>
            </g>
            <g id="g6309" transform="translate(40.329 15.625)">
              <path id="path6311" d="M0-2.438a4.567,4.567,0,0,1,2.748,0" transform="translate(0 2.65)" fill="none" stroke="#000" stroke-linecap="round" stroke-linejoin="round" stroke-miterlimit="10" stroke-width="1.5"/>
            </g>
            <g id="g6313" transform="translate(35.736 26.892)">
              <path id="path6315" d="M-46.252,0a4.167,4.167,0,0,1-4.014,0" transform="translate(50.265)" fill="none" stroke="#000" stroke-linecap="round" stroke-linejoin="round" stroke-miterlimit="10" stroke-width="1.5"/>
            </g>
            <g id="g6317" transform="translate(33.271 19.555)">
              <path id="path6319" d="M0,0V.639" fill="none" stroke="#000" stroke-linecap="round" stroke-linejoin="round" stroke-miterlimit="10" stroke-width="1.5"/>
            </g>
            <g id="g6321" transform="translate(42.214 19.555)">
              <path id="path6323" d="M0,0V.639" fill="none" stroke="#000" stroke-linecap="round" stroke-linejoin="round" stroke-miterlimit="10" stroke-width="1.5"/>
            </g>
            <g id="g6325" transform="translate(26.78 36.509)">
              <path id="path6327" d="M-58.521,0l3.857,17.2h-2.4l-4.006-5.26a.426.426,0,0,1-.085-.3l.377-3.853a.426.426,0,0,0-.17-.383l-2.484-1.848a.426.426,0,0,1-.159-.447l.962-3.789a.425.425,0,0,1,.3-.306Z" transform="translate(63.599)" fill="none" stroke="#000" stroke-linecap="round" stroke-linejoin="round" stroke-miterlimit="10" stroke-width="1.5"/>
            </g>
            <g id="g6329" transform="translate(39.77 36.502)">
              <path id="path6331" d="M-44.309,0l-3.845,17.211h2.4l4.006-5.26a.427.427,0,0,0,.085-.3L-42.045,7.8a.426.426,0,0,1,.17-.383l2.484-1.848a.426.426,0,0,0,.159-.446l-.962-3.789a.426.426,0,0,0-.3-.306Z" transform="translate(48.155)" fill="none" stroke="#000" stroke-linecap="round" stroke-linejoin="round" stroke-miterlimit="10" stroke-width="1.5"/>
            </g>
            <g id="g6333" transform="translate(0.798 0.799)">
              <path id="path6335" d="M-85.1-10.186l.55,1.116a1.871,1.871,0,0,0,1.408,1.025l1.229.179a1.586,1.586,0,0,1,.877,2.7l-.889.868a1.875,1.875,0,0,0-.538,1.658l.21,1.226a1.584,1.584,0,0,1-2.3,1.672l-1.1-.579a1.869,1.869,0,0,0-1.741,0l-1.1.579a1.584,1.584,0,0,1-2.3-1.672l.21-1.226a1.875,1.875,0,0,0-.538-1.658L-92-5.162a1.587,1.587,0,0,1,.878-2.7l1.229-.179A1.87,1.87,0,0,0-88.487-9.07l.55-1.116A1.583,1.583,0,0,1-85.1-10.186Z" transform="translate(92.482 11.07)" fill="none" stroke="#000" stroke-linecap="round" stroke-linejoin="round" stroke-miterlimit="10" stroke-width="1.5"/>
            </g>
          </g>
        </g>
      </g>
    </g>
  </g>
</svg>
