<svg xmlns="http://www.w3.org/2000/svg" xmlns:xlink="http://www.w3.org/1999/xlink" width="103" height="103" viewBox="0 0 103 103">
  <defs>
    <filter id="Path_978624" x="0" y="0" width="103" height="103" filterUnits="userSpaceOnUse">
      <feOffset dy="3" input="SourceAlpha"/>
      <feGaussianBlur stdDeviation="3" result="blur"/>
      <feFlood flood-opacity="0.161"/>
      <feComposite operator="in" in2="blur"/>
      <feComposite in="SourceGraphic"/>
    </filter>
  </defs>
  <g id="Group_1224994" data-name="Group 1224994" transform="translate(-171 -833)">
    <g id="Group_1222589" data-name="Group 1222589">
      <g id="Group_1203109" data-name="Group 1203109" transform="translate(180 839)">
        <g id="Group_1176881" data-name="Group 1176881">
          <g id="Group_1175148" data-name="Group 1175148">
            <g id="Group_1173798" data-name="Group 1173798">
              <g id="Group_1171925" data-name="Group 1171925">
                <g id="Group_1164524" data-name="Group 1164524">
                  <g id="Group_1144123" data-name="Group 1144123">
                    <g transform="matrix(1, 0, 0, 1, -9, -6)" filter="url(#Path_978624)">
                      <g id="Path_978624-2" data-name="Path 978624" transform="translate(9 6)" fill="#e9f9fd">
                        <path d="M 42.5 83.5 C 36.96437835693359 83.5 31.59512901306152 82.41617584228516 26.54141235351562 80.27863311767578 C 21.65934181213379 78.21369171142578 17.27447128295898 75.25723266601562 13.50862312316895 71.49137878417969 C 9.742764472961426 67.72553253173828 6.786305904388428 63.34066009521484 4.721364498138428 58.45858764648438 C 2.583823442459106 53.40486907958984 1.5 48.03562164306641 1.5 42.5 C 1.5 36.96437835693359 2.583823442459106 31.59512901306152 4.721364498138428 26.54141235351562 C 6.786305904388428 21.65934181213379 9.742764472961426 17.27447128295898 13.50862312316895 13.50862312316895 C 17.27447128295898 9.742764472961426 21.65934181213379 6.786305904388428 26.54141235351562 4.721364498138428 C 31.59512901306152 2.583823442459106 36.96437835693359 1.5 42.5 1.5 C 48.03562164306641 1.5 53.40486907958984 2.583823442459106 58.45858764648438 4.721364498138428 C 63.34066009521484 6.786305904388428 67.72553253173828 9.742764472961426 71.49137878417969 13.50862312316895 C 75.25723266601562 17.27447128295898 78.21369171142578 21.65934181213379 80.27863311767578 26.54141235351562 C 82.41617584228516 31.59512901306152 83.5 36.96437835693359 83.5 42.5 C 83.5 48.03562164306641 82.41617584228516 53.40486907958984 80.27863311767578 58.45858764648438 C 78.21369171142578 63.34066009521484 75.25723266601562 67.72553253173828 71.49137878417969 71.49137878417969 C 67.72553253173828 75.25723266601562 63.34066009521484 78.21369171142578 58.45858764648438 80.27863311767578 C 53.40486907958984 82.41617584228516 48.03562164306641 83.5 42.5 83.5 Z" stroke="none"/>
                        <path d="M 42.5 3 C 37.16621398925781 3 31.99356079101562 4.043960571289062 27.125732421875 6.102882385253906 C 22.42246627807617 8.092185974121094 18.19785308837891 10.94070434570312 14.56928253173828 14.56928253173828 C 10.94070434570312 18.19785308837891 8.092185974121094 22.42246627807617 6.102882385253906 27.125732421875 C 4.043960571289062 31.99356079101562 3 37.16621398925781 3 42.5 C 3 47.83378601074219 4.043960571289062 53.00643920898438 6.102882385253906 57.87425231933594 C 8.092185974121094 62.57753372192383 10.94070434570312 66.80213165283203 14.56928253173828 70.43071746826172 C 18.19786834716797 74.05929565429688 22.42246627807617 76.90781402587891 27.125732421875 78.89711761474609 C 31.99356079101562 80.95603942871094 37.16621398925781 82 42.5 82 C 47.83378601074219 82 53.00642395019531 80.95603942871094 57.87425231933594 78.89711761474609 C 62.57753372192383 76.90781402587891 66.80213165283203 74.05929565429688 70.43071746826172 70.43071746826172 C 74.05929565429688 66.80213165283203 76.90781402587891 62.57753372192383 78.89711761474609 57.87425231933594 C 80.95603942871094 53.00642395019531 82 47.83378601074219 82 42.5 C 82 37.16621398925781 80.95603942871094 31.99356079101562 78.89711761474609 27.125732421875 C 76.90781402587891 22.42246627807617 74.05929565429688 18.19786834716797 70.43071746826172 14.56928253173828 C 66.80213165283203 10.94070434570312 62.57753372192383 8.092185974121094 57.87425231933594 6.102882385253906 C 53.00643920898438 4.043960571289062 47.83378601074219 3 42.5 3 M 42.5 0 C 65.97209167480469 0 85 19.02789306640625 85 42.5 C 85 65.97209167480469 65.97209167480469 85 42.5 85 C 19.02789306640625 85 0 65.97209167480469 0 42.5 C 0 19.02789306640625 19.02789306640625 0 42.5 0 Z" stroke="none" fill="#36ceef"/>
                      </g>
                    </g>
                  </g>
                </g>
              </g>
            </g>
          </g>
        </g>
      </g>
      <g id="ocurrencia_1_" data-name="ocurrencia (1)" transform="translate(149.454 840.886)">
        <g id="Group_1222580" data-name="Group 1222580" transform="translate(51.038 10.627)">
          <path id="Path_1087203" data-name="Path 1087203" d="M90.874,446.133v-1.724a6.991,6.991,0,0,0-6.991-6.991H67.076a6.991,6.991,0,0,0-6.991,6.991v1.93h30Z" transform="translate(-59.746 -389.85)" fill="#2abcc8"/>
          <path id="Path_1087204" data-name="Path 1087204" d="M235.407,437.417h-2.361a6.991,6.991,0,0,1,6.991,6.991v1.93H242.4v-1.93A6.991,6.991,0,0,0,235.407,437.417Z" transform="translate(-209.696 -389.849)" fill="#0cacba"/>
          <path id="Path_1087205" data-name="Path 1087205" d="M152.808,351.02h-7.1v8.2l-1.43,1.611v2.177a4.98,4.98,0,0,0,9.961,0v-2.164l-1.43-1.624v-8.2Z" transform="translate(-132.737 -314.947)" fill="#ffb09e"/>
          <path id="Path_1087206" data-name="Path 1087206" d="M144.277,351.02v9.809a12.181,12.181,0,0,0,9.961.013V351.02Z" transform="translate(-132.737 -314.947)" fill="#ffa78f"/>
          <path id="Path_1087207" data-name="Path 1087207" d="M298.654,422.388h-5.2v10.92h4.418l.787-.3Z" transform="translate(-262.063 -376.82)" fill="#ffcebf"/>
          <path id="Path_1087208" data-name="Path 1087208" d="M327.811,328.945a1.869,1.869,0,0,0-1.083,1.695v12.808h2.953V330.64a1.869,1.869,0,0,0-1.083-1.695Z" transform="translate(-290.915 -295.809)" fill="#ffcebf"/>
          <path id="Path_1087209" data-name="Path 1087209" d="M196.83,200.554l1.08-12.249a4.972,4.972,0,0,0-4.953-5.408h-9.449v17.657Z" transform="translate(-166.75 -169.191)" fill="#444"/>
          <path id="Path_1087210" data-name="Path 1087210" d="M231.4,278.461h5.842a4.067,4.067,0,0,1,4.067,4.067v.025a4.067,4.067,0,0,1-4.067,4.067H231.4Z" transform="translate(-208.271 -252.041)" fill="#ffa78f"/>
          <path id="Path_1087211" data-name="Path 1087211" d="M67.45,286.621H61.607a4.067,4.067,0,0,1-4.067-4.067v-.025a4.067,4.067,0,0,1,4.067-4.067H67.45Z" transform="translate(-57.54 -252.042)" fill="#ffa78f"/>
          <g id="Group_1222574" data-name="Group 1222574" transform="translate(4.518 16.423)">
            <path id="Path_1087212" data-name="Path 1087212" d="M114.751,219.507v-4.246a11.63,11.63,0,1,0-23.25,0v4.246a11.63,11.63,0,1,0,23.25,0Z" transform="translate(-91.501 -203.316)" fill="#ffcebf"/>
          </g>
          <path id="Path_1087213" data-name="Path 1087213" d="M155.024,352.178a3.551,3.551,0,0,0,7.1,0Z" transform="translate(-142.054 -315.951)" fill="#ffa799"/>
          <g id="Group_1222575" data-name="Group 1222575" transform="translate(21.955 35.244)">
            <path id="Path_1087214" data-name="Path 1087214" d="M225.728,346.751h-2.185a.984.984,0,1,1,0-1.968h2.185a.984.984,0,1,1,0,1.968Z" transform="translate(-222.559 -344.783)" fill="#fe8f83"/>
          </g>
          <path id="Path_1087215" data-name="Path 1087215" d="M174.737,203.094a11.979,11.979,0,0,1,11.1,11.946v4.246a11.968,11.968,0,0,1-11.131,11.944,11.987,11.987,0,0,0,12.968-11.944V215.04A11.986,11.986,0,0,0,174.737,203.094Z" transform="translate(-159.118 -186.672)" fill="#ffb09e"/>
          <g id="Group_1222576" data-name="Group 1222576" transform="translate(6.97 35.244)">
            <path id="Path_1087216" data-name="Path 1087216" d="M110.913,346.751H113.1a.984.984,0,1,0,0-1.968h-2.185a.984.984,0,1,0,0,1.968Z" transform="translate(-109.929 -344.783)" fill="#fe8f83"/>
          </g>
          <path id="Path_1087217" data-name="Path 1087217" d="M293.449,422.388h5.992v10.92h-5.992Z" transform="translate(-262.063 -376.82)" fill="#ffcebf"/>
          <path id="Path_1087218" data-name="Path 1087218" d="M326.655,422.388h1.574v10.92h-1.574Z" transform="translate(-290.851 -376.82)" fill="#ffb09e"/>
          <path id="Path_1087219" data-name="Path 1087219" d="M335.656,327.627a1.858,1.858,0,0,0-.787.175,1.869,1.869,0,0,1,1.083,1.695v12.808h1.574V329.5A1.87,1.87,0,0,0,335.656,327.627Z" transform="translate(-297.973 -294.666)" fill="#ffb09e"/>
          <path id="Path_1087220" data-name="Path 1087220" d="M88.648,155.079H79.936a8.105,8.105,0,0,0-8.105,8.105v8.3H86.439a8.2,8.2,0,0,0,8.2-8.2v-2.209A6,6,0,0,0,88.648,155.079Z" transform="translate(-69.93 -145.074)" fill="#5a5a5a"/>
          <path id="Path_1087221" data-name="Path 1087221" d="M177.13,155.079h-3.148a6,6,0,0,1,6,6v2.209a8.2,8.2,0,0,1-8.2,8.2h3.148a8.2,8.2,0,0,0,8.2-8.2v-2.209A6,6,0,0,0,177.13,155.079Z" transform="translate(-156.575 -145.074)" fill="#444"/>
          <path id="Path_1087222" data-name="Path 1087222" d="M287.339,394.45h-8.756a1.58,1.58,0,0,0-.115.59v7.013a1.574,1.574,0,0,0,1.574,1.574h6.227a1.574,1.574,0,0,0,1.573-1.574v-7.1A.5.5,0,0,0,287.339,394.45Z" transform="translate(-249.074 -352.599)" fill="#ffcebf"/>
          <path id="Path_1087223" data-name="Path 1087223" d="M289.381,395.642v-7.013a1.574,1.574,0,0,0-1.574-1.574h-7.013a1.574,1.574,0,0,0-1.459.984h7.969a.5.5,0,0,1,.5.5v7.1a1.574,1.574,0,0,1-1.574,1.574h1.574A1.579,1.579,0,0,0,289.381,395.642Z" transform="translate(-249.828 -346.187)" fill="#ffb09e"/>
          <g id="Group_1222579" data-name="Group 1222579" transform="translate(28.076)">
            <path id="Path_1087224" data-name="Path 1087224" d="M297.812,244.066a4.078,4.078,0,1,0,8.152-.243v-.508h-7.9v.508Z" transform="translate(-293.922 -221.571)" fill="#bfbfbf"/>
            <path id="Path_1087225" data-name="Path 1087225" d="M299.633,206.661h-7.586a1.219,1.219,0,0,0,0,2.438h7.586a1.219,1.219,0,0,0,0-2.438Z" transform="translate(-287.867 -189.793)" fill="#cecece"/>
            <path id="Path_1087226" data-name="Path 1087226" d="M299.633,224.988h-7.586a1.219,1.219,0,0,0,0,2.438h7.586a1.219,1.219,0,0,0,0-2.438Z" transform="translate(-287.867 -205.682)" fill="#cecece"/>
            <path id="Path_1087227" data-name="Path 1087227" d="M275.617,80.307a7.984,7.984,0,0,0-6,11.846,38.463,38.463,0,0,1,2.558,5.371h7.7a41,41,0,0,1,2.581-5.411,7.919,7.919,0,0,0-6.83-11.806Z" transform="translate(-268.569 -80.25)" fill="#fff0ad"/>
            <path id="Path_1087228" data-name="Path 1087228" d="M321.54,79.935a7.974,7.974,0,0,1,6.043,11.806A41.034,41.034,0,0,0,325,97.151h1.836a41.006,41.006,0,0,1,2.581-5.411A7.976,7.976,0,0,0,321.54,79.935Z" transform="translate(-314.493 -79.877)" fill="#ffe177"/>
            <path id="Path_1087229" data-name="Path 1087229" d="M345.041,206.661H343.2a1.219,1.219,0,0,1,1.219,1.219c0,.673.982,1.219.309,1.219h.309a1.219,1.219,0,0,0,0-2.438Z" transform="translate(-333.275 -189.793)" fill="#bfbfbf"/>
            <path id="Path_1087230" data-name="Path 1087230" d="M304.34,230.889c-6.842,0-6.369-.016-6.586.038,0,2.349,0,2.186.007,2.364.211.052-.263.036,6.568.036a4.212,4.212,0,0,1-3.283,3.83,4.211,4.211,0,0,0,5.125-3.955c.005-.15,0,.089,0-2.187Z" transform="translate(-293.871 -210.796)" fill="#acacac"/>
            <path id="Path_1087231" data-name="Path 1087231" d="M345.041,224.986h-.309c.673,0-.309.546-.309,1.219a1.219,1.219,0,0,1-1.219,1.219h1.836a1.219,1.219,0,0,0,0-2.438Z" transform="translate(-333.275 -205.68)" fill="#bfbfbf"/>
            <g id="Group_1222577" data-name="Group 1222577" transform="translate(2.961 16.868)">
              <path id="Path_1087232" data-name="Path 1087232" d="M299.016,207.88a1.219,1.219,0,0,0-1.219-1.219h-5.75a1.219,1.219,0,0,0,0,2.438H297.8A1.219,1.219,0,0,0,299.016,207.88Z" transform="translate(-290.829 -206.661)" fill="#cecece"/>
            </g>
            <g id="Group_1222578" data-name="Group 1222578" transform="translate(2.962 19.306)">
              <path id="Path_1087233" data-name="Path 1087233" d="M299.017,226.207a1.219,1.219,0,0,0-1.219-1.219h-5.749a1.219,1.219,0,0,0,0,2.438h5.75A1.219,1.219,0,0,0,299.017,226.207Z" transform="translate(-290.83 -224.988)" fill="#cecece"/>
            </g>
          </g>
        </g>
        <g id="Group_1222588" data-name="Group 1222588" transform="translate(50.04)">
          <path id="Path_1087234" data-name="Path 1087234" d="M155.762,344.678h-7.1a1,1,0,0,0-1,1,4.548,4.548,0,1,0,9.1,0A1,1,0,0,0,155.762,344.678Zm-3.551,3.551a2.557,2.557,0,0,1-2.35-1.555h4.7A2.557,2.557,0,0,1,152.211,348.229Z" transform="translate(-134.675 -298.821)"/>
          <path id="Path_1087235" data-name="Path 1087235" d="M219.451,299.8a1,1,0,0,0-1,1v2.214a1,1,0,0,0,2,0V300.8A1,1,0,0,0,219.451,299.8Z" transform="translate(-196.047 -259.912)"/>
          <path id="Path_1087236" data-name="Path 1087236" d="M131.248,299.8a1,1,0,0,0-1,1v2.214a1,1,0,0,0,2,0V300.8A1,1,0,0,0,131.248,299.8Z" transform="translate(-119.579 -259.912)"/>
          <g id="Group_1222587" data-name="Group 1222587" transform="translate(0)">
            <path id="Path_1087237" data-name="Path 1087237" d="M86.96,72.406a9.009,9.009,0,0,0-8.839,8.918,9.934,9.934,0,0,0,1.657,5.354,6.176,6.176,0,0,0-2-.539,7,7,0,0,0-6.184-3.732H61.044a9.131,9.131,0,0,0-4.144,1h0a9.072,9.072,0,0,0-4.957,8.106v1.871a1,1,0,0,0,2,0V91.51a7.084,7.084,0,0,1,3.871-6.33h0a7.029,7.029,0,0,1,3.235-.777H71.592a5,5,0,0,1,4.93,4.179,20.607,20.607,0,0,1-.115,4.636,7.223,7.223,0,0,1-7.023,5.6H53.937v-.777a1,1,0,1,0-2,0c0,1.869,0,1.788.007,1.892a5.057,5.057,0,0,0-1.909,3.957v.025a5.07,5.07,0,0,0,4.859,5.06,13.027,13.027,0,0,0,6.681,8.568v2.43H58.368a8,8,0,0,0-7.989,7.989v1.93a1,1,0,0,0,1,1H72.87a1,1,0,1,0,0-2h-20.5v-.932a6,6,0,0,1,5.993-5.993H61.6a5.978,5.978,0,0,0,11.912,0h3.235a5.979,5.979,0,0,1,2.684.634,2.546,2.546,0,0,0,1.993,2.761v3.53h-3.9a1,1,0,0,0,0,2h10.89a1,1,0,0,0,1-1v-4.5a2.573,2.573,0,0,0,2.176-2.538V108.231a2.868,2.868,0,1,0-5.736,0v5.039H82a2.575,2.575,0,0,0-2.572,2.572v4.593a7.982,7.982,0,0,0-2.684-.464H73.536v-2.407a12.987,12.987,0,0,0,6.717-8.592,5.08,5.08,0,0,0,2.329-9.446l.113-1.278a5.208,5.208,0,0,0,9.722-2.727,2.21,2.21,0,0,0,.314-2.813,2.212,2.212,0,0,0-.018-2.464c1.914-4.64,3.339-5.448,3.339-8.871a8.966,8.966,0,0,0-9.091-8.965Zm.457,56.484h-4v-3.464h4Zm.431-20.66a.872.872,0,1,1,1.744,0v5.1a2.722,2.722,0,0,0-.576-.065H87.849v-5.039Zm-6.421,7.61a.577.577,0,0,1,.576-.576h7.013a.577.577,0,0,1,.576.576v7.013a.577.577,0,0,1-.576.576H82a.577.577,0,0,1-.576-.576Zm9.508-24.567a.221.221,0,0,1-.056.435,1,1,0,1,0,0,2,.221.221,0,0,1,.1.418.256.256,0,0,1-.05.019c-.055.013-7.61,0-7.682,0a.221.221,0,0,1,.047-.436,1,1,0,0,0,0-2,.22.22,0,0,1-.092-.021c-.008-.127-.021-.253-.038-.379a.114.114,0,0,1,.034-.02C83.529,91.249,90.9,91.265,90.936,91.274ZM54.591,106.938a3.074,3.074,0,0,1-2.556-3.026v-.025a3.074,3.074,0,0,1,2.554-3.026c-.053.766-.044,5.4,0,6.045C54.59,106.916,54.59,106.927,54.591,106.938Zm16.949,11.443v3.077a3.983,3.983,0,0,1-7.965,0v-3.085A13.121,13.121,0,0,0,71.541,118.381Zm-3.2-1.421a10.986,10.986,0,0,1-11.653-9.214,11.576,11.576,0,0,1-.138-1.733v-4.246c0-.271.011-.588.043-.957H69.384a9.239,9.239,0,0,0,7.835-4.375,11.6,11.6,0,0,1,1.234,3.557c.185,1.137.144,1.479.144,6.021a11.026,11.026,0,0,1-10.25,10.948Zm12.214-10.029c.02-.288.032-.648.032-.919v-4.246c0-.29-.013-.64-.031-.9a3.085,3.085,0,0,1,0,6.066Zm-.3-8.1a12.742,12.742,0,0,0-1.05-2.9A12.315,12.315,0,0,0,78.2,94.254a9.089,9.089,0,0,0,.378-2.2A32.823,32.823,0,0,0,78.5,88.33l0-.013a3.912,3.912,0,0,1,1.677,1.077,3.969,3.969,0,0,1,.928,1.749,3.363,3.363,0,0,1,.108,1.112c-.007.15.039-.394-.578,6.607l-.03,0C80.492,98.844,80.375,98.834,80.257,98.828Zm6.95.037a3.218,3.218,0,0,1-3.176-2.722c.885,0,2.325,0,6.352,0A3.218,3.218,0,0,1,87.208,98.865Zm3.747-9.594c-.055,0-1.041,0-1.1,0l.765-3.929a1,1,0,0,0-1.959-.381l-.838,4.307-1.472,0-.838-4.3a1,1,0,0,0-1.959.381l.764,3.923-1.1.01c-1.916-4.629-3.119-5.095-3.1-7.939A7,7,0,0,1,86.988,74.4a6.97,6.97,0,0,1,7.069,6.969c0,2.8-1.181,3.3-3.1,7.9Z" transform="translate(-50.04 -62.772)"/>
          </g>
        </g>
      </g>
    </g>
  </g>
</svg>
