<svg xmlns="http://www.w3.org/2000/svg" xmlns:xlink="http://www.w3.org/1999/xlink" width="113" height="113" viewBox="0 0 113 113">
  <defs>
    <filter id="Path_982547" x="0" y="0" width="113" height="113" filterUnits="userSpaceOnUse">
      <feOffset dy="3" input="SourceAlpha"/>
      <feGaussianBlur stdDeviation="3" result="blur"/>
      <feFlood flood-opacity="0.161"/>
      <feComposite operator="in" in2="blur"/>
      <feComposite in="SourceGraphic"/>
    </filter>
  </defs>
  <g id="Group_1233110" data-name="Group 1233110" transform="translate(969.49 -3815.436)">
    <g id="Group_1230917" data-name="Group 1230917">
      <g id="Group_1228316" data-name="Group 1228316" transform="translate(-1660.49 -815.064)">
        <g id="Group_1228166" data-name="Group 1228166" transform="translate(-1 2821)">
          <g id="Group_1223803" data-name="Group 1223803" transform="translate(701 1815.5)">
            <g id="Group_1208038" data-name="Group 1208038" transform="translate(0 0)">
              <g id="Group_1202104" data-name="Group 1202104">
                <g id="Group_1201923" data-name="Group 1201923" transform="translate(0 0)">
                  <g id="Group_1176928" data-name="Group 1176928" transform="translate(0 0)">
                    <g id="Group_1172322" data-name="Group 1172322" transform="translate(0 0)">
                      <g id="Group_1164700" data-name="Group 1164700">
                        <g id="Group_1160931" data-name="Group 1160931">
                          <g id="Group_1160749" data-name="Group 1160749">
                            <g id="Group_1158891" data-name="Group 1158891">
                              <g id="Group_1157406" data-name="Group 1157406">
                                <g id="Group_1155793" data-name="Group 1155793">
                                  <g id="Group_1154704" data-name="Group 1154704">
                                    <g id="Group_1150790" data-name="Group 1150790">
                                      <g id="Group_1154214" data-name="Group 1154214" transform="translate(0)">
                                        <g id="Group_1152583" data-name="Group 1152583">
                                          <g id="Group_1146973" data-name="Group 1146973">
                                            <g id="Group_1146954" data-name="Group 1146954">
                                              <g transform="matrix(1, 0, 0, 1, -9, -6)" filter="url(#Path_982547)">
                                                <g id="Path_982547-2" data-name="Path 982547" transform="translate(9 6)" fill="#ffe1b9">
                                                  <path d="M 47.50000762939453 93.49986267089844 C 41.28937911987305 93.49986267089844 35.26534271240234 92.28383636474609 29.59519386291504 89.88558197021484 C 24.11772727966309 87.56880950927734 19.19814109802246 84.25183868408203 14.97310066223145 80.02679443359375 C 10.74804782867432 75.8017578125 7.431074142456055 70.88218688964844 5.114300727844238 65.40471649169922 C 2.716034412384033 59.73458480834961 1.500007629394531 53.71054458618164 1.500007629394531 47.49993133544922 C 1.500007629394531 41.2893180847168 2.716034412384033 35.26527786254883 5.114300727844238 29.59514427185059 C 7.431074142456055 24.11767768859863 10.74804782867432 19.19810485839844 14.97310066223145 14.97306442260742 C 19.19814109802246 10.74802494049072 24.11772727966309 7.431051254272461 29.59519386291504 5.114277839660645 C 35.26534271240234 2.71602463722229 41.28937911987305 1.499997973442078 47.50000762939453 1.499997973442078 C 53.71063613891602 1.499997973442078 59.73467254638672 2.71602463722229 65.40482330322266 5.114277839660645 C 70.88228607177734 7.431051254272461 75.80187225341797 10.74802494049072 80.02691650390625 14.97306442260742 C 84.25196838378906 19.19810485839844 87.56893920898438 24.11767768859863 89.88571166992188 29.59514427185059 C 92.28398132324219 35.26527786254883 93.50000762939453 41.2893180847168 93.50000762939453 47.49993133544922 C 93.50000762939453 53.71054458618164 92.28398132324219 59.73458480834961 89.88571166992188 65.40471649169922 C 87.56893920898438 70.88218688964844 84.25196838378906 75.8017578125 80.02691650390625 80.02679443359375 C 75.80187225341797 84.25183868408203 70.88228607177734 87.56880950927734 65.40482330322266 89.88558197021484 C 59.73467254638672 92.28383636474609 53.71063613891602 93.49986267089844 47.50000762939453 93.49986267089844 Z" stroke="none"/>
                                                  <path d="M 47.50000762939453 2.999992370605469 C 41.4912223815918 2.999992370605469 35.66377639770508 4.1761474609375 30.17951202392578 6.495796203613281 C 24.88085174560547 8.736930847167969 20.12152862548828 11.94596099853516 16.03376007080078 16.03372955322266 C 11.94597625732422 20.12148284912109 8.736961364746094 24.88080596923828 6.495803833007812 30.17946624755859 C 4.176162719726562 35.66371536254883 3.000007629394531 41.49116134643555 3.000007629394531 47.49993133544922 C 3.000007629394531 53.50870132446289 4.176162719726562 59.33614730834961 6.495803833007812 64.82038879394531 C 8.736961364746094 70.11905670166016 11.94597625732422 74.87836456298828 16.03376007080078 78.96613311767578 C 20.12152862548828 83.05390167236328 24.88085174560547 86.26291656494141 30.17951202392578 88.50406646728516 C 35.66377639770508 90.82369995117188 41.4912223815918 91.99985504150391 47.50000762939453 91.99985504150391 C 53.50879287719727 91.99985504150391 59.33623886108398 90.82369995117188 64.82049560546875 88.50406646728516 C 70.11916351318359 86.26291656494141 74.87848663330078 83.05390167236328 78.96625518798828 78.96613311767578 C 83.05403900146484 74.87836456298828 86.26305389404297 70.11905670166016 88.50421142578125 64.82038879394531 C 90.8238525390625 59.33614730834961 92.00000762939453 53.50870132446289 92.00000762939453 47.49993133544922 C 92.00000762939453 41.49116134643555 90.8238525390625 35.66371536254883 88.50421142578125 30.17946624755859 C 86.26305389404297 24.88080596923828 83.05403900146484 20.12148284912109 78.96625518798828 16.03372955322266 C 74.87848663330078 11.94596099853516 70.11916351318359 8.736930847167969 64.82049560546875 6.495796203613281 C 59.33623886108398 4.1761474609375 53.50879287719727 2.999992370605469 47.50000762939453 2.999992370605469 M 47.50000762939453 -7.62939453125e-06 C 73.73352813720703 -7.62939453125e-06 95.00000762939453 21.26644134521484 95.00000762939453 47.49993133544922 C 95.00000762939453 73.73342132568359 73.73352813720703 94.99985504150391 47.50000762939453 94.99985504150391 C 21.26648712158203 94.99985504150391 7.62939453125e-06 73.73342132568359 7.62939453125e-06 47.49993133544922 C 7.62939453125e-06 21.26644134521484 21.26648712158203 -7.62939453125e-06 47.50000762939453 -7.62939453125e-06 Z" stroke="none" fill="#ff9d1c"/>
                                                </g>
                                              </g>
                                            </g>
                                          </g>
                                        </g>
                                      </g>
                                    </g>
                                  </g>
                                </g>
                              </g>
                            </g>
                          </g>
                        </g>
                      </g>
                    </g>
                  </g>
                </g>
              </g>
            </g>
          </g>
        </g>
      </g>
      <g id="resolucion-de-problemas_1_" data-name="resolucion-de-problemas (1)" transform="translate(-971.469 3834.415)">
        <path id="Path_1218802" data-name="Path 1218802" d="M343.451,132h-6.507A11.052,11.052,0,0,1,332,136.3v7.15a.818.818,0,0,0,.818.818h10.635a.818.818,0,0,0,.818-.818V132.817A.818.818,0,0,0,343.451,132Z" transform="translate(-262.771 -114.199)" fill="#cb97e7"/>
        <g id="Group_1230904" data-name="Group 1230904" transform="translate(69.227 18.713)">
          <path id="Path_1218803" data-name="Path 1218803" d="M336.314,149.312v-10.54a11.043,11.043,0,0,1-4.315,3.39v7.15a.818.818,0,0,0,.818.818h4.315A.818.818,0,0,1,336.314,149.312Z" transform="translate(-331.999 -138.772)" fill="#bd80e1"/>
        </g>
        <g id="Group_1230915" data-name="Group 1230915" transform="translate(29.281 1.011)">
          <path id="Path_1218804" data-name="Path 1218804" d="M109.756,274.3l2.311-6.289a15.793,15.793,0,0,1-15.01,0l2.311,6.289Z" transform="translate(-88.792 -232.884)" fill="#fff0ad"/>
          <path id="Path_1218805" data-name="Path 1218805" d="M105.05,274.3l-1.629-4.433a15.672,15.672,0,0,1-6.362-1.856l2.311,6.289Z" transform="translate(-88.793 -232.884)" fill="#ffe177"/>
          <path id="Path_1218806" data-name="Path 1218806" d="M126,393.588v2.1a2.023,2.023,0,0,0,2.023,2.023h3.16a2.023,2.023,0,0,0,2.023-2.023v-2.1Z" transform="translate(-113.833 -341.525)" fill="#02c7dd"/>
          <path id="Path_1218807" data-name="Path 1218807" d="M129.371,395.692v-2.1H126v2.1a2.023,2.023,0,0,0,2.023,2.023h3.16c.036,0,.071,0,.106-.005A2.021,2.021,0,0,1,129.371,395.692Z" transform="translate(-113.833 -341.525)" fill="#07b2cd"/>
          <path id="Path_1218808" data-name="Path 1218808" d="M113.43,362.995v3.586a.674.674,0,0,0,.674.674h9.246a.674.674,0,0,0,.674-.674v-3.586Z" transform="translate(-102.958 -315.057)" fill="#a6e7f0"/>
          <path id="Path_1218809" data-name="Path 1218809" d="M116.8,366.581v-3.586H113.43v3.586a.674.674,0,0,0,.674.674h3.371A.674.674,0,0,1,116.8,366.581Z" transform="translate(-102.958 -315.057)" fill="#6bd9e7"/>
          <path id="Path_1218810" data-name="Path 1218810" d="M60.281,53.715a11.031,11.031,0,0,1,.325-2.657,15.77,15.77,0,1,0,6.7,12.921,11.011,11.011,0,0,1-7.029-10.265Z" transform="translate(-35.77 -42.706)" fill="#ffe177"/>
          <g id="Group_1230905" data-name="Group 1230905" transform="translate(0 5.488)">
            <path id="Path_1218811" data-name="Path 1218811" d="M42.557,63.964a15.775,15.775,0,0,1,12.376-15.4,15.77,15.77,0,1,0,0,30.8A15.775,15.775,0,0,1,42.557,63.964Z" transform="translate(-35.769 -48.194)" fill="#ffd15b"/>
          </g>
          <g id="Group_1230906" data-name="Group 1230906" transform="translate(8.45 41.419)">
            <path id="Path_1218812" data-name="Path 1218812" d="M111.721,321.3H99.777a1.348,1.348,0,0,1-1.348-1.348V316a1.348,1.348,0,0,1,1.348-1.348h11.944A1.348,1.348,0,0,1,113.069,316v3.957A1.348,1.348,0,0,1,111.721,321.3Z" transform="translate(-98.429 -314.651)" fill="#eaf9fa"/>
          </g>
          <path id="Path_1218813" data-name="Path 1218813" d="M102.957,319.956V316a1.348,1.348,0,0,1,1.348-1.348H99.778A1.348,1.348,0,0,0,98.43,316v3.957a1.348,1.348,0,0,0,1.348,1.348h4.527A1.348,1.348,0,0,1,102.957,319.956Z" transform="translate(-89.98 -273.232)" fill="#d4f2f6"/>
          <g id="Group_1230907" data-name="Group 1230907" transform="translate(28.5 36.124)">
            <path id="Path_1218814" data-name="Path 1218814" d="M273.592,291.536a4.735,4.735,0,0,1-3.017-.821.405.405,0,0,0-.64.328v6.484a.674.674,0,0,1-.674.674h-6.484a.405.405,0,0,0-.328.64,4.753,4.753,0,1,1-7.833-.012.4.4,0,0,0-.337-.628h-6.484a.674.674,0,0,1-.674-.674v-5.092a.67.67,0,0,1,.726-.672,4.85,4.85,0,0,0,.757.013,4.753,4.753,0,0,0-.295-9.5q-.224,0-.443.02a.676.676,0,0,1-.745-.67V276.06a.674.674,0,0,1,.674-.674H253.1a.671.671,0,0,1,.673.689c0,.047,0,.095,0,.142a4.753,4.753,0,1,0,9.506,0q0-.071,0-.142a.671.671,0,0,1,.673-.689h5.309a.674.674,0,0,1,.674.674v6.484a.4.4,0,0,0,.628.337,4.753,4.753,0,1,1,3.029,8.654Z" transform="translate(-247.12 -275.386)" fill="#fe9738"/>
          </g>
          <g id="Group_1230908" data-name="Group 1230908" transform="translate(28.5 36.124)">
            <path id="Path_1218815" data-name="Path 1218815" d="M273.592,291.536a4.735,4.735,0,0,1-3.017-.821.405.405,0,0,0-.64.328v6.484a.674.674,0,0,1-.674.674h-6.484a.405.405,0,0,0-.328.64,4.753,4.753,0,1,1-7.833-.012.4.4,0,0,0-.337-.628h-6.484a.674.674,0,0,1-.674-.674v-5.092a.67.67,0,0,1,.726-.672,4.85,4.85,0,0,0,.757.013,4.753,4.753,0,0,0-.295-9.5q-.224,0-.443.02a.676.676,0,0,1-.745-.67V276.06a.674.674,0,0,1,.674-.674H253.1a.671.671,0,0,1,.673.689c0,.047,0,.095,0,.142a4.753,4.753,0,1,0,9.506,0q0-.071,0-.142a.671.671,0,0,1,.673-.689h5.309a.674.674,0,0,1,.674.674v6.484a.4.4,0,0,0,.628.337,4.753,4.753,0,1,1,3.029,8.654Z" transform="translate(-247.12 -275.386)" fill="#fe9738"/>
          </g>
          <g id="Group_1230911" data-name="Group 1230911" transform="translate(28.5 36.124)">
            <g id="Group_1230909" data-name="Group 1230909" transform="translate(0)">
              <path id="Path_1218816" data-name="Path 1218816" d="M247.863,282.3q.219-.02.443-.02a4.742,4.742,0,0,1,3.635,1.691v-7.909a.674.674,0,0,1,.674-.674h-4.823a.674.674,0,0,0-.674.674v5.568A.676.676,0,0,0,247.863,282.3Z" transform="translate(-247.118 -275.388)" fill="#fe860a"/>
            </g>
            <g id="Group_1230910" data-name="Group 1230910" transform="translate(0 14.7)">
              <path id="Path_1218817" data-name="Path 1218817" d="M251.941,391.839V384.4a4.749,4.749,0,0,1-3.341,1.689,4.836,4.836,0,0,1-.757-.013.67.67,0,0,0-.726.672v5.092a.674.674,0,0,0,.674.674h4.824a.674.674,0,0,1-.674-.674Z" transform="translate(-247.118 -384.398)" fill="#fe860a"/>
            </g>
          </g>
          <g id="Group_1230914" data-name="Group 1230914" transform="translate(24.511)">
            <g id="Group_1230912" data-name="Group 1230912">
              <circle id="Ellipse_11567" data-name="Ellipse 11567" cx="11.01" cy="11.01" r="11.01" fill="#05e39c"/>
            </g>
            <g id="Group_1230913" data-name="Group 1230913" transform="translate(0 0)">
              <path id="Path_1218818" data-name="Path 1218818" d="M223.223,18.51a11.013,11.013,0,0,1,8.167-10.637,11.01,11.01,0,1,0,0,21.274A11.013,11.013,0,0,1,223.223,18.51Z" transform="translate(-217.536 -7.5)" fill="#0ed290"/>
            </g>
          </g>
        </g>
        <g id="Group_1230916" data-name="Group 1230916" transform="translate(28.27 0)">
          <path id="Path_1218819" data-name="Path 1218819" d="M270.987,276.373a5.769,5.769,0,0,0-6.53-1.347v-5.453a1.687,1.687,0,0,0-1.686-1.686h-5.309a1.7,1.7,0,0,0-1.211.513,1.664,1.664,0,0,0-.473,1.219c0,.037,0,.074,0,.111a3.742,3.742,0,1,1-7.484,0c0-.037,0-.074,0-.111a1.664,1.664,0,0,0-.473-1.219,1.7,1.7,0,0,0-1.211-.512H241.3a1.687,1.687,0,0,0-1.686,1.686v5.568a1.684,1.684,0,0,0,.548,1.242,1.7,1.7,0,0,0,1.3.435c.115-.011.233-.016.35-.016a3.742,3.742,0,0,1,.234,7.476,3.85,3.85,0,0,1-.6-.011,1.67,1.67,0,0,0-1.28.427,1.7,1.7,0,0,0-.554,1.252v5.092a1.687,1.687,0,0,0,1.686,1.686h5.453a5.766,5.766,0,0,0,5.274,8.08c.136,0,.274,0,.412-.014a5.768,5.768,0,0,0,4.876-8.066h5.452a1.687,1.687,0,0,0,1.686-1.686v-5.452a5.765,5.765,0,0,0,6.53-9.214Zm-.482,4.2a3.745,3.745,0,0,1-3.47,3.466h0a3.71,3.71,0,0,1-2.376-.646,1.417,1.417,0,0,0-2.224,1.162V290.7h-6.147a1.417,1.417,0,0,0-1.162,2.224,3.742,3.742,0,1,1-6.167-.009,1.415,1.415,0,0,0-1.168-2.215h-6.147v-4.4c.177.005.355,0,.532-.008a5.765,5.765,0,0,0-.532-11.515V269.91h4.634a5.765,5.765,0,0,0,11.524,0h4.634v6.147a1.415,1.415,0,0,0,2.215,1.168,3.742,3.742,0,0,1,5.856,3.348Z" transform="translate(-211.119 -231.763)"/>
          <path id="Path_1218820" data-name="Path 1218820" d="M51.661,41.509l1.714-4.663a16.828,16.828,0,0,0,4.777-4.091,1.011,1.011,0,0,0-1.578-1.265,14.7,14.7,0,0,1-8.116,5.142V28.27h1.983a4.006,4.006,0,1,0-4.006-4.006v1.983H43.667V24.265a4.006,4.006,0,1,0-4.006,4.006h1.983v8.359a14.758,14.758,0,1,1,11.338-26.8,12.023,12.023,0,0,0,6.812,13.12,14.657,14.657,0,0,1-1,4.71,1.011,1.011,0,1,0,1.883.739,16.649,16.649,0,0,0,1.1-4.741,12.036,12.036,0,0,0,6.441-.109v5.705a1.831,1.831,0,0,0,1.829,1.829H80.68a1.831,1.831,0,0,0,1.829-1.829V26.025a1.011,1.011,0,1,0-2.023,0V29.06H70.238V22.74a12.107,12.107,0,0,0,4.478-3.929h5.771v2.495a1.011,1.011,0,0,0,2.023,0V18.618a1.831,1.831,0,0,0-1.829-1.829H75.836A12.021,12.021,0,1,0,53.545,7.8a16.777,16.777,0,1,0-16.823,29.03l1.719,4.676a2.362,2.362,0,0,0-1.721,2.27v3.957a2.361,2.361,0,0,0,2.023,2.333v2.467a1.687,1.687,0,0,0,1.686,1.686h.009v.958a3.038,3.038,0,0,0,3.034,3.034h3.159a3.038,3.038,0,0,0,3.034-3.034v-.958h.009a1.687,1.687,0,0,0,1.686-1.686V50.069a2.362,2.362,0,0,0,2.023-2.333V43.779a2.362,2.362,0,0,0-1.722-2.27Zm-3.2-17.244a1.983,1.983,0,1,1,1.983,1.983H48.458ZM64.8,2.023a10,10,0,1,1-10,10A10.01,10.01,0,0,1,64.8,2.023ZM48.458,38.7a16.687,16.687,0,0,0,2.32-.655l-1.239,3.371H48.458ZM43.667,28.27h2.768v8.691c-.457.042-.919.065-1.384.065s-.928-.023-1.384-.065V28.27Zm0,10.722c.457.037.918.057,1.384.057s.926-.019,1.384-.057v2.426H43.667ZM39.661,26.248a1.983,1.983,0,1,1,1.983-1.983v1.983ZM41.644,38.7v2.717H40.563l-1.241-3.376A16.634,16.634,0,0,0,41.644,38.7Zm6,16.477a1.012,1.012,0,0,1-1.011,1.011H43.471a1.012,1.012,0,0,1-1.011-1.011v-.958h5.182Zm3.718-7.443a.337.337,0,0,1-.337.337h-3.1a1.011,1.011,0,1,0,0,2.023h1.416v2.1H40.765V50.1H43.2a1.011,1.011,0,0,0,0-2.023H39.079a.337.337,0,0,1-.337-.337V43.779a.337.337,0,0,1,.337-.337H51.023a.337.337,0,0,1,.337.337Z" transform="translate(-28.27 0)"/>
          <path id="Path_1218821" data-name="Path 1218821" d="M255.1,68.014a1.011,1.011,0,0,0,.761.36h.013a1.011,1.011,0,0,0,.757-.34l6.626-7.474a1.011,1.011,0,0,0-1.514-1.342l-5.849,6.6-3.771-4.478a1.011,1.011,0,0,0-1.547,1.3Z" transform="translate(-220.392 -50.937)"/>
        </g>
      </g>
    </g>
  </g>
</svg>
