<svg xmlns="http://www.w3.org/2000/svg" xmlns:xlink="http://www.w3.org/1999/xlink" width="103" height="103" viewBox="0 0 103 103">
  <defs>
    <filter id="Path_978624" x="0" y="0" width="103" height="103" filterUnits="userSpaceOnUse">
      <feOffset dy="3" input="SourceAlpha"/>
      <feGaussianBlur stdDeviation="3" result="blur"/>
      <feFlood flood-opacity="0.161"/>
      <feComposite operator="in" in2="blur"/>
      <feComposite in="SourceGraphic"/>
    </filter>
  </defs>
  <g id="Group_1233101" data-name="Group 1233101" transform="translate(-171 -1592)">
    <g id="Group_1228632" data-name="Group 1228632">
      <g id="Group_1228308" data-name="Group 1228308" transform="translate(0 579)">
        <g id="Group_1220654" data-name="Group 1220654" transform="translate(180 1019)">
          <g id="Group_1176881" data-name="Group 1176881">
            <g id="Group_1175148" data-name="Group 1175148">
              <g id="Group_1173798" data-name="Group 1173798">
                <g id="Group_1171925" data-name="Group 1171925">
                  <g id="Group_1164524" data-name="Group 1164524">
                    <g id="Group_1144123" data-name="Group 1144123">
                      <g transform="matrix(1, 0, 0, 1, -9, -6)" filter="url(#Path_978624)">
                        <g id="Path_978624-2" data-name="Path 978624" transform="translate(9 6)" fill="#e9f9fd">
                          <path d="M 42.5 83.5 C 36.96437835693359 83.5 31.59512901306152 82.41617584228516 26.54141235351562 80.27863311767578 C 21.65934181213379 78.21369171142578 17.27447128295898 75.25723266601562 13.50862312316895 71.49137878417969 C 9.742764472961426 67.72553253173828 6.786305904388428 63.34066009521484 4.721364498138428 58.45858764648438 C 2.583823442459106 53.40486907958984 1.5 48.03562164306641 1.5 42.5 C 1.5 36.96437835693359 2.583823442459106 31.59512901306152 4.721364498138428 26.54141235351562 C 6.786305904388428 21.65934181213379 9.742764472961426 17.27447128295898 13.50862312316895 13.50862312316895 C 17.27447128295898 9.742764472961426 21.65934181213379 6.786305904388428 26.54141235351562 4.721364498138428 C 31.59512901306152 2.583823442459106 36.96437835693359 1.5 42.5 1.5 C 48.03562164306641 1.5 53.40486907958984 2.583823442459106 58.45858764648438 4.721364498138428 C 63.34066009521484 6.786305904388428 67.72553253173828 9.742764472961426 71.49137878417969 13.50862312316895 C 75.25723266601562 17.27447128295898 78.21369171142578 21.65934181213379 80.27863311767578 26.54141235351562 C 82.41617584228516 31.59512901306152 83.5 36.96437835693359 83.5 42.5 C 83.5 48.03562164306641 82.41617584228516 53.40486907958984 80.27863311767578 58.45858764648438 C 78.21369171142578 63.34066009521484 75.25723266601562 67.72553253173828 71.49137878417969 71.49137878417969 C 67.72553253173828 75.25723266601562 63.34066009521484 78.21369171142578 58.45858764648438 80.27863311767578 C 53.40486907958984 82.41617584228516 48.03562164306641 83.5 42.5 83.5 Z" stroke="none"/>
                          <path d="M 42.5 3 C 37.16621398925781 3 31.99356079101562 4.043960571289062 27.125732421875 6.102882385253906 C 22.42246627807617 8.092185974121094 18.19785308837891 10.94070434570312 14.56928253173828 14.56928253173828 C 10.94070434570312 18.19785308837891 8.092185974121094 22.42246627807617 6.102882385253906 27.125732421875 C 4.043960571289062 31.99356079101562 3 37.16621398925781 3 42.5 C 3 47.83378601074219 4.043960571289062 53.00643920898438 6.102882385253906 57.87425231933594 C 8.092185974121094 62.57753372192383 10.94070434570312 66.80213165283203 14.56928253173828 70.43071746826172 C 18.19786834716797 74.05929565429688 22.42246627807617 76.90781402587891 27.125732421875 78.89711761474609 C 31.99356079101562 80.95603942871094 37.16621398925781 82 42.5 82 C 47.83378601074219 82 53.00642395019531 80.95603942871094 57.87425231933594 78.89711761474609 C 62.57753372192383 76.90781402587891 66.80213165283203 74.05929565429688 70.43071746826172 70.43071746826172 C 74.05929565429688 66.80213165283203 76.90781402587891 62.57753372192383 78.89711761474609 57.87425231933594 C 80.95603942871094 53.00642395019531 82 47.83378601074219 82 42.5 C 82 37.16621398925781 80.95603942871094 31.99356079101562 78.89711761474609 27.125732421875 C 76.90781402587891 22.42246627807617 74.05929565429688 18.19786834716797 70.43071746826172 14.56928253173828 C 66.80213165283203 10.94070434570312 62.57753372192383 8.092185974121094 57.87425231933594 6.102882385253906 C 53.00643920898438 4.043960571289062 47.83378601074219 3 42.5 3 M 42.5 0 C 65.97209167480469 0 85 19.02789306640625 85 42.5 C 85 65.97209167480469 65.97209167480469 85 42.5 85 C 19.02789306640625 85 0 65.97209167480469 0 42.5 C 0 19.02789306640625 19.02789306640625 0 42.5 0 Z" stroke="none" fill="#36ceef"/>
                        </g>
                      </g>
                    </g>
                  </g>
                </g>
              </g>
            </g>
          </g>
        </g>
      </g>
      <g id="liderazgo-intelectual_1_" data-name="liderazgo-intelectual (1)" transform="translate(160.446 1608.997)">
        <g id="Group_1228630" data-name="Group 1228630" transform="translate(35.762 0.923)">
          <path id="Path_1218270" data-name="Path 1218270" d="M175.724,125.911l-3.906-5.48a4.615,4.615,0,0,1-.857-2.681,18.4,18.4,0,0,0-7.326-14.711,4.1,4.1,0,0,1-1.39.791l-.076.025-.008.08a2.9,2.9,0,0,1-1.061,1.985l-.01.008-.008.011a9.719,9.719,0,0,1-17.241-4.471,18.376,18.376,0,0,0-4.127,3,6.563,6.563,0,0,1,.2,1.628c0,.1,0,.2-.008.3l0,.057.042.039a9.718,9.718,0,0,1-5.018,16.76,18.347,18.347,0,0,0,2.147,4.554,9.722,9.722,0,1,1,6.025,17.352,9.91,9.91,0,0,1-1.12-.064v4.925a1.231,1.231,0,0,0,1.231,1.231h17.31a1.231,1.231,0,0,0,1.231-1.231v-7.732a1.846,1.846,0,0,1,1.846-1.846h3.669a3.692,3.692,0,0,0,3.692-3.692v-6.22a1.231,1.231,0,0,1,1.231-1.231h1.786a2.144,2.144,0,0,0,1.746-3.388Z" transform="translate(-123.537 -89.906)" fill="#ffb09e"/>
          <path id="Path_1218271" data-name="Path 1218271" d="M225.728,132.256l-3.91-5.486a4.62,4.62,0,0,1-.858-2.683,18.435,18.435,0,0,0-8.211-15.352,30.687,30.687,0,0,1-20.8,44.012v3.642a1.232,1.232,0,0,0,1.232,1.232h17.328a1.232,1.232,0,0,0,1.232-1.232v-7.74a1.848,1.848,0,0,1,1.848-1.848h3.673a3.7,3.7,0,0,0,3.7-3.7v-6.227a1.232,1.232,0,0,1,1.232-1.232h1.788a2.146,2.146,0,0,0,1.748-3.391Z" transform="translate(-173.541 -96.277)" fill="#f89580"/>
          <path id="Path_1218272" data-name="Path 1218272" d="M58.714,138.33a6.4,6.4,0,0,1-2.027,4.508,4.575,4.575,0,0,0-1.461,3.3v3.184a1.725,1.725,0,0,1-1.723,1.723H51a1.725,1.725,0,0,1-1.723-1.723v-3.184a4.395,4.395,0,0,0-1.4-3.241,6.478,6.478,0,0,1-2.094-4.685,9.844,9.844,0,1,0,12.927.117Z" transform="translate(-42.339 -122.128)" fill="#05e39c"/>
          <path id="Path_1218273" data-name="Path 1218273" d="M147.1,296a9.824,9.824,0,0,0-7.612,3.6h8.227a2.957,2.957,0,0,1,2.953,2.953v6.579a2.957,2.957,0,0,1-2.953,2.953h-4.759a.489.489,0,0,0-.348.144l-1.456,1.456A9.844,9.844,0,1,0,147.1,296Z" transform="translate(-127.53 -260.498)" fill="#ffe177"/>
          <g id="Group_1228625" data-name="Group 1228625" transform="translate(3.323 9.414)">
            <path id="Path_1218274" data-name="Path 1218274" d="M76.141,84a6.653,6.653,0,0,0-6.8,6.53,6.571,6.571,0,0,0,2.136,4.913,4.267,4.267,0,0,1,1.356,3.15v.165h6.2V98.6a4.424,4.424,0,0,1,1.423-3.212A6.59,6.59,0,0,0,76.141,84Z" transform="translate(-69.339 -84)" fill="#ffe177"/>
            <path id="Path_1218275" data-name="Path 1218275" d="M76.141,84a6.653,6.653,0,0,0-6.8,6.53,6.571,6.571,0,0,0,2.136,4.913,4.267,4.267,0,0,1,1.356,3.15v.165h6.2V98.6a4.424,4.424,0,0,1,1.423-3.212A6.59,6.59,0,0,0,76.141,84Z" transform="translate(-69.339 -84)" fill="#ffe177"/>
            <path id="Path_1218276" data-name="Path 1218276" d="M89.839,89.46a6.895,6.895,0,0,1-7.945,10.154,6.652,6.652,0,0,0,.592.621,4.267,4.267,0,0,1,1.356,3.15v.165h6.2v-.165a4.424,4.424,0,0,1,1.423-3.212A6.589,6.589,0,0,0,89.839,89.46Z" transform="translate(-80.349 -88.788)" fill="#ffd15b"/>
            <path id="Path_1218277" data-name="Path 1218277" d="M102.073,208.83h-2.5a1.846,1.846,0,0,1-1.846-1.846v-3.019h6.2v3.019A1.846,1.846,0,0,1,102.073,208.83Z" transform="translate(-94.231 -189.203)" fill="#cbc4cc"/>
            <path id="Path_1218278" data-name="Path 1218278" d="M101.349,204.523a1.846,1.846,0,0,1-1.846,1.846H97.724v.615a1.846,1.846,0,0,0,1.846,1.846h2.5a1.846,1.846,0,0,0,1.846-1.846v-3.019h-2.57v.558Z" transform="translate(-94.231 -189.203)" fill="#b5adb6"/>
          </g>
          <g id="Group_1228628" data-name="Group 1228628" transform="translate(20.058)">
            <path id="Path_1218279" data-name="Path 1218279" d="M221,23.99a2.926,2.926,0,0,1-2.923-2.923V13.622a2.925,2.925,0,0,1,4.848-2.2v-.157a9.845,9.845,0,1,0,0,12.162v-.157A2.914,2.914,0,0,1,221,23.99Z" transform="translate(-205.339 -7.5)" fill="#ffe177"/>
            <g id="Group_1228627" data-name="Group 1228627" transform="translate(3.644 3.076)">
              <path id="Path_1218280" data-name="Path 1218280" d="M240.876,32.5a3.045,3.045,0,0,0-3.031,2.756,4.23,4.23,0,0,0,0,8.025,3.045,3.045,0,0,0,6.077-.29V35.546A3.046,3.046,0,0,0,240.876,32.5Z" transform="translate(-234.954 -32.5)" fill="#fd8087"/>
              <g id="Group_1228626" data-name="Group 1228626" transform="translate(3.419 0.021)">
                <path id="Path_1218281" data-name="Path 1218281" d="M265.6,32.67v9.16a3.045,3.045,0,0,1-2.855,3.039,3.043,3.043,0,0,0,5.548-1.73V35.695A3.045,3.045,0,0,0,265.6,32.67Z" transform="translate(-262.742 -32.67)" fill="#fe646f"/>
              </g>
              <path id="Path_1218282" data-name="Path 1218282" d="M310.875,32.5a3.045,3.045,0,0,1,3.031,2.756,4.23,4.23,0,0,1,0,8.025,3.045,3.045,0,0,1-6.077-.29V35.546A3.046,3.046,0,0,1,310.875,32.5Z" transform="translate(-298.861 -32.5)" fill="#fd8087"/>
              <path id="Path_1218283" data-name="Path 1218283" d="M310.875,32.5a3.045,3.045,0,0,1,3.031,2.756,4.23,4.23,0,0,1,0,8.025,3.045,3.045,0,0,1-6.077-.29V35.546A3.046,3.046,0,0,1,310.875,32.5Z" transform="translate(-298.861 -32.5)" fill="#fd8087"/>
              <path id="Path_1218284" data-name="Path 1218284" d="M318.371,57.864A5.052,5.052,0,0,1,315.5,63.5a1,1,0,0,0-.56.688,3.637,3.637,0,0,1-2.938,2.738,3.045,3.045,0,0,0,5.563-1.4,4.229,4.229,0,0,0,.8-7.659Z" transform="translate(-302.525 -54.743)" fill="#fe646f"/>
            </g>
          </g>
          <g id="Group_1228629" data-name="Group 1228629" transform="translate(6.657 38.981)">
            <path id="Path_1218285" data-name="Path 1218285" d="M109.959,324.27H99.51a3.076,3.076,0,0,0-3.076,3.076v6.579A3.076,3.076,0,0,0,99.51,337h1.422a.369.369,0,0,1,.369.369v2.484a.369.369,0,0,0,.63.261l3.006-3.006A.369.369,0,0,1,105.2,337h4.759a3.076,3.076,0,0,0,3.076-3.076v-6.579A3.076,3.076,0,0,0,109.959,324.27Z" transform="translate(-96.434 -324.27)" fill="#26a6fe"/>
            <path id="Path_1218286" data-name="Path 1218286" d="M109.959,324.27v7.809a1.846,1.846,0,0,1-1.846,1.846H96.434A3.076,3.076,0,0,0,99.51,337h1.422a.369.369,0,0,1,.369.369v2.484a.369.369,0,0,0,.63.261l3.006-3.006A.369.369,0,0,1,105.2,337h4.759a3.076,3.076,0,0,0,3.076-3.076v-6.579A3.076,3.076,0,0,0,109.959,324.27Z" transform="translate(-96.434 -324.27)" fill="#0593fc"/>
          </g>
        </g>
        <g id="Group_1228631" data-name="Group 1228631" transform="translate(34.839 0)">
          <path id="Path_1218287" data-name="Path 1218287" d="M88.7,36.208l-3.906-5.48a3.673,3.673,0,0,1-.686-2.145A19.212,19.212,0,0,0,77.3,13.848,5.156,5.156,0,0,0,75.33,6.089a3.942,3.942,0,0,0-1.4-2.169l.024-.02a10.763,10.763,0,0,0-14.5-1.929.923.923,0,0,0,1.066,1.507,8.913,8.913,0,0,1,9.9-.258A3.978,3.978,0,0,0,68.432,4.5a3.967,3.967,0,0,0-6.9,1.585,5.153,5.153,0,0,0,0,9.357,3.967,3.967,0,0,0,6.9,1.585,3.979,3.979,0,0,0,1.991,1.284,8.921,8.921,0,0,1-12.544-11.9.951.951,0,0,0-.3-1.276.923.923,0,0,0-1.289.33,10.778,10.778,0,0,0-1.341,6.4,19.3,19.3,0,0,0-2.526,1.763,7.518,7.518,0,0,0-6.512-4.213,7.425,7.425,0,0,0-4,1.028.923.923,0,1,0,.935,1.591,5.577,5.577,0,0,1,3-.775,5.667,5.667,0,0,1,3.7,9.788,5.437,5.437,0,0,0-1.655,3.126H46.6V18.9h.472a.923.923,0,0,0,0-1.846H44.28a.923.923,0,1,0,0,1.846h.472v5.272H43.446a5.157,5.157,0,0,0-1.6-3.073,5.678,5.678,0,0,1-1.837-4.225,5.5,5.5,0,0,1,.406-2.026.923.923,0,0,0-1.711-.693,7.336,7.336,0,0,0-.537,2.55,10.764,10.764,0,0,0,7.44,18.547c.323,0,.643-.015.959-.043a19.274,19.274,0,0,0,1.476,3.134q-.329.3-.634.634H45.5a4,4,0,0,0-4,4v.828a.923.923,0,1,0,1.846,0V42.98A2.156,2.156,0,0,1,45.5,40.826H55.943A2.156,2.156,0,0,1,58.1,42.98v6.579a2.156,2.156,0,0,1-2.153,2.153H51.184a1.283,1.283,0,0,0-.914.378l-2.061,2.061V53a1.294,1.294,0,0,0-1.292-1.292H45.5a2.156,2.156,0,0,1-2.153-2.153V48.115a.923.923,0,1,0-1.846,0v1.443a4,4,0,0,0,4,4h.869v1.93a1.292,1.292,0,0,0,2.206.914l1.021-1.021a10.648,10.648,0,0,0,3.695,1.462v4.009a2.156,2.156,0,0,0,2.153,2.153h17.31A2.156,2.156,0,0,0,74.9,60.852V53.12a.924.924,0,0,1,.923-.923h3.669a4.62,4.62,0,0,0,4.615-4.615v-6.22a.308.308,0,0,1,.308-.308H86.2a3.067,3.067,0,0,0,2.5-4.846ZM67.509,14.49a2.123,2.123,0,0,1-4.106.756l1.256-.715a.923.923,0,1,0-.913-1.6l-1.459.831a3.3,3.3,0,0,1,0-5.98l.993.565v.944a.923.923,0,0,0,1.846,0V8.3a1.773,1.773,0,0,0-.894-1.537L63.4,6.289a2.123,2.123,0,0,1,4.106.756Zm1.846,0V7.045a2.123,2.123,0,0,1,4.106-.756l-.829.472A1.772,1.772,0,0,0,71.739,8.3v.989a.923.923,0,1,0,1.846,0V8.343l.993-.565a3.3,3.3,0,0,1,0,5.98l-1.459-.831a.923.923,0,0,0-.913,1.6l1.256.715a2.123,2.123,0,0,1-4.106-.756ZM43.5,26.022H47.85v2.1a.924.924,0,0,1-.923.923h-2.5a.924.924,0,0,1-.923-.923Zm2.106,7.388A8.916,8.916,0,0,1,38.49,19.115,7.523,7.523,0,0,0,40.6,22.464a3.347,3.347,0,0,1,1.057,2.47v3.184a2.772,2.772,0,0,0,2.769,2.769h2.5A2.772,2.772,0,0,0,49.7,28.118V24.934a3.479,3.479,0,0,1,1.133-2.541,7.535,7.535,0,0,0,1.991-3.151A8.917,8.917,0,0,1,45.606,33.41Zm5.807,20.148h4.53a4,4,0,0,0,4-4V42.98a4,4,0,0,0-4-4H50.19a8.918,8.918,0,1,1,.745,15.055ZM86.2,39.208H84.417a2.156,2.156,0,0,0-2.153,2.153v6.22a2.772,2.772,0,0,1-2.769,2.769H75.825a2.772,2.772,0,0,0-2.769,2.769v7.732a.308.308,0,0,1-.308.308H55.439a.308.308,0,0,1-.308-.308V57.033c.066,0,.131,0,.2,0a10.767,10.767,0,1,0-5.813-19.83,17.449,17.449,0,0,1-1.1-2.323,10.765,10.765,0,0,0,4.773-18.04,7.58,7.58,0,0,0-.13-1.322A17.46,17.46,0,0,1,55.332,13.8a10.765,10.765,0,0,0,18.714,3.724,3.941,3.941,0,0,0,1.284-2.077,5.159,5.159,0,0,0,.608-.333,17.384,17.384,0,0,1,6.325,13.469A5.509,5.509,0,0,0,83.292,31.8l3.906,5.48a1.221,1.221,0,0,1-.994,1.929Z" transform="translate(-34.839 0)"/>
          <path id="Path_1218288" data-name="Path 1218288" d="M130.924,356H122.31a.923.923,0,1,0,0,1.846h8.614a.923.923,0,1,0,0-1.846Z" transform="translate(-110.737 -312.192)"/>
          <path id="Path_1218289" data-name="Path 1218289" d="M122.31,382.846h1.434a.923.923,0,1,0,0-1.846H122.31a.923.923,0,1,0,0,1.846Z" transform="translate(-110.737 -334.115)"/>
          <path id="Path_1218290" data-name="Path 1218290" d="M160.436,381h-4.473a.923.923,0,1,0,0,1.846h4.473a.923.923,0,1,0,0-1.846Z" transform="translate(-140.248 -334.115)"/>
        </g>
      </g>
    </g>
  </g>
</svg>
