<svg xmlns="http://www.w3.org/2000/svg" xmlns:xlink="http://www.w3.org/1999/xlink" width="103" height="103" viewBox="0 0 103 103">
  <defs>
    <filter id="Path_978624" x="0" y="0" width="103" height="103" filterUnits="userSpaceOnUse">
      <feOffset dy="3" input="SourceAlpha"/>
      <feGaussianBlur stdDeviation="3" result="blur"/>
      <feFlood flood-opacity="0.161"/>
      <feComposite operator="in" in2="blur"/>
      <feComposite in="SourceGraphic"/>
    </filter>
  </defs>
  <g id="Group_1233142" data-name="Group 1233142" transform="translate(-215 -5263.21)">
    <g id="Group_1233061" data-name="Group 1233061">
      <g id="Group_1228542" data-name="Group 1228542" transform="translate(224 5269.21)">
        <g id="Group_1220654" data-name="Group 1220654">
          <g id="Group_1176881" data-name="Group 1176881">
            <g id="Group_1175148" data-name="Group 1175148">
              <g id="Group_1173798" data-name="Group 1173798">
                <g id="Group_1171925" data-name="Group 1171925">
                  <g id="Group_1164524" data-name="Group 1164524">
                    <g id="Group_1144123" data-name="Group 1144123">
                      <g transform="matrix(1, 0, 0, 1, -9, -6)" filter="url(#Path_978624)">
                        <g id="Path_978624-2" data-name="Path 978624" transform="translate(9 6)" fill="#e9f9fd">
                          <path d="M 42.5 83.5 C 36.96437835693359 83.5 31.59512901306152 82.41617584228516 26.54141235351562 80.27863311767578 C 21.65934181213379 78.21369171142578 17.27447128295898 75.25723266601562 13.50862312316895 71.49137878417969 C 9.742764472961426 67.72553253173828 6.786305904388428 63.34066009521484 4.721364498138428 58.45858764648438 C 2.583823442459106 53.40486907958984 1.5 48.03562164306641 1.5 42.5 C 1.5 36.96437835693359 2.583823442459106 31.59512901306152 4.721364498138428 26.54141235351562 C 6.786305904388428 21.65934181213379 9.742764472961426 17.27447128295898 13.50862312316895 13.50862312316895 C 17.27447128295898 9.742764472961426 21.65934181213379 6.786305904388428 26.54141235351562 4.721364498138428 C 31.59512901306152 2.583823442459106 36.96437835693359 1.5 42.5 1.5 C 48.03562164306641 1.5 53.40486907958984 2.583823442459106 58.45858764648438 4.721364498138428 C 63.34066009521484 6.786305904388428 67.72553253173828 9.742764472961426 71.49137878417969 13.50862312316895 C 75.25723266601562 17.27447128295898 78.21369171142578 21.65934181213379 80.27863311767578 26.54141235351562 C 82.41617584228516 31.59512901306152 83.5 36.96437835693359 83.5 42.5 C 83.5 48.03562164306641 82.41617584228516 53.40486907958984 80.27863311767578 58.45858764648438 C 78.21369171142578 63.34066009521484 75.25723266601562 67.72553253173828 71.49137878417969 71.49137878417969 C 67.72553253173828 75.25723266601562 63.34066009521484 78.21369171142578 58.45858764648438 80.27863311767578 C 53.40486907958984 82.41617584228516 48.03562164306641 83.5 42.5 83.5 Z" stroke="none"/>
                          <path d="M 42.5 3 C 37.16621398925781 3 31.99356079101562 4.043960571289062 27.125732421875 6.102882385253906 C 22.42246627807617 8.092185974121094 18.19785308837891 10.94070434570312 14.56928253173828 14.56928253173828 C 10.94070434570312 18.19785308837891 8.092185974121094 22.42246627807617 6.102882385253906 27.125732421875 C 4.043960571289062 31.99356079101562 3 37.16621398925781 3 42.5 C 3 47.83378601074219 4.043960571289062 53.00643920898438 6.102882385253906 57.87425231933594 C 8.092185974121094 62.57753372192383 10.94070434570312 66.80213165283203 14.56928253173828 70.43071746826172 C 18.19786834716797 74.05929565429688 22.42246627807617 76.90781402587891 27.125732421875 78.89711761474609 C 31.99356079101562 80.95603942871094 37.16621398925781 82 42.5 82 C 47.83378601074219 82 53.00642395019531 80.95603942871094 57.87425231933594 78.89711761474609 C 62.57753372192383 76.90781402587891 66.80213165283203 74.05929565429688 70.43071746826172 70.43071746826172 C 74.05929565429688 66.80213165283203 76.90781402587891 62.57753372192383 78.89711761474609 57.87425231933594 C 80.95603942871094 53.00642395019531 82 47.83378601074219 82 42.5 C 82 37.16621398925781 80.95603942871094 31.99356079101562 78.89711761474609 27.125732421875 C 76.90781402587891 22.42246627807617 74.05929565429688 18.19786834716797 70.43071746826172 14.56928253173828 C 66.80213165283203 10.94070434570312 62.57753372192383 8.092185974121094 57.87425231933594 6.102882385253906 C 53.00643920898438 4.043960571289062 47.83378601074219 3 42.5 3 M 42.5 0 C 65.97209167480469 0 85 19.02789306640625 85 42.5 C 85 65.97209167480469 65.97209167480469 85 42.5 85 C 19.02789306640625 85 0 65.97209167480469 0 42.5 C 0 19.02789306640625 19.02789306640625 0 42.5 0 Z" stroke="none" fill="#36ceef"/>
                        </g>
                      </g>
                    </g>
                  </g>
                </g>
              </g>
            </g>
          </g>
        </g>
      </g>
      <g id="horario-de-trabajo" transform="translate(237.204 5270.305)">
        <g id="Group_1233048" data-name="Group 1233048" transform="translate(5.53 19.595)">
          <g id="Group_1233047" data-name="Group 1233047">
            <g id="Group_1233043" data-name="Group 1233043">
              <path id="Path_1219713" data-name="Path 1219713" d="M69.275,62.392a20.935,20.935,0,0,0-6.317.97A9.751,9.751,0,0,1,49.3,77.024,20.963,20.963,0,0,0,75.656,103.3v-3.025H74.542a.572.572,0,0,1-.572-.572V93.037a.572.572,0,0,1,.572-.572h8.764V90.272a.556.556,0,0,1,.556-.556h5.373A20.961,20.961,0,0,0,69.275,62.392Z" transform="translate(-48.326 -62.392)" fill="#05e39c"/>
              <path id="Path_1219714" data-name="Path 1219714" d="M69.274,83.34,84.513,68.966a20.957,20.957,0,0,0-15.239-6.575,20.676,20.676,0,0,0-6.307.983A9.751,9.751,0,0,1,49.308,77.033a20.676,20.676,0,0,0-.983,6.307,21.049,21.049,0,0,0,20.949,20.949,20.671,20.671,0,0,0,6.381-1.007v-3.008H74.541a.572.572,0,0,1-.572-.572V93.036a.572.572,0,0,1,.572-.572H83.3V90.271a.556.556,0,0,1,.556-.556h5.356a20.673,20.673,0,0,0,1.006-6.376H69.274Z" transform="translate(-48.325 -62.391)" fill="#ffe177"/>
              <g id="Group_1233042" data-name="Group 1233042" transform="translate(20.949 20.949)">
                <path id="Path_1219715" data-name="Path 1219715" d="M231.384,245.45V266.4a20.937,20.937,0,0,0,6.381-.99v-3.025h-1.114a.572.572,0,0,1-.572-.572v-6.665a.572.572,0,0,1,.572-.572h8.764v-2.192a.556.556,0,0,1,.556-.556h5.373a20.932,20.932,0,0,0,.989-6.376H231.384Z" transform="translate(-231.384 -245.45)" fill="#bd80e1"/>
              </g>
              <path id="Path_1219716" data-name="Path 1219716" d="M63.08,63.324A9.872,9.872,0,0,1,49.259,77.145,20.964,20.964,0,0,0,69.276,104.29v-41.9A20.942,20.942,0,0,0,63.08,63.324Z" transform="translate(-48.327 -62.392)" fill="#fe646f"/>
            </g>
            <g id="Group_1233046" data-name="Group 1233046" transform="translate(5.132 5.132)">
              <path id="Path_1219717" data-name="Path 1219717" d="M113.68,132.749a.572.572,0,0,1,.572-.572h7.654a15.823,15.823,0,0,0-17.32-24.32,9.744,9.744,0,0,1-10.8,10.8,15.829,15.829,0,0,0,19.891,19.507v-5.412Z" transform="translate(-93.168 -107.236)" fill="#fff"/>
              <g id="Group_1233044" data-name="Group 1233044" transform="translate(0 11.049)">
                <path id="Path_1219718" data-name="Path 1219718" d="M97.041,208.554a15.807,15.807,0,0,1,.732-4.768,9.7,9.7,0,0,1-3.983.369,15.824,15.824,0,0,0,17.132,20.1A15.819,15.819,0,0,1,97.041,208.554Z" transform="translate(-93.169 -203.786)" fill="#eaf9fa"/>
              </g>
              <path id="Path_1219719" data-name="Path 1219719" d="M177.7,191.772v-6.937a6.937,6.937,0,1,0,6.937,6.937Z" transform="translate(-161.888 -175.955)" fill="#ffe177"/>
              <g id="Group_1233045" data-name="Group 1233045" transform="translate(8.881 8.909)">
                <path id="Path_1219720" data-name="Path 1219720" d="M180.593,198.009a6.936,6.936,0,0,1-3.506-12.922,6.936,6.936,0,1,0,4.125,12.893C181.008,198,180.8,198.009,180.593,198.009Z" transform="translate(-170.769 -185.087)" fill="#ffd15b"/>
              </g>
            </g>
          </g>
        </g>
        <g id="Group_1233051" data-name="Group 1233051" transform="translate(2.516 16.581)">
          <g id="Group_1233049" data-name="Group 1233049" transform="translate(0 0)">
            <circle id="Ellipse_11590" data-name="Ellipse 11590" cx="9.872" cy="9.872" r="9.872" fill="#05e39c"/>
          </g>
          <g id="Group_1233050" data-name="Group 1233050" transform="translate(0 0)">
            <path id="Path_1219721" data-name="Path 1219721" d="M27.765,45.924a9.875,9.875,0,0,1,6.983-9.441,9.872,9.872,0,1,0,0,18.882A9.875,9.875,0,0,1,27.765,45.924Z" transform="translate(-21.987 -36.052)" fill="#0ed290"/>
          </g>
        </g>
        <g id="Group_1233059" data-name="Group 1233059" transform="translate(31.174 44.059)">
          <g id="Group_1233052" data-name="Group 1233052" transform="translate(6.475)">
            <path id="Path_1219722" data-name="Path 1219722" d="M331.852,281.774v-2.192a.556.556,0,0,1,.556-.556h6.777a.556.556,0,0,1,.556.556v2.192H342.6v-2.192a3.417,3.417,0,0,0-3.417-3.417h-6.777a3.417,3.417,0,0,0-3.417,3.417v2.192Z" transform="translate(-328.991 -276.165)" fill="#855151"/>
          </g>
          <g id="Group_1233053" data-name="Group 1233053" transform="translate(6.475 0)">
            <path id="Path_1219723" data-name="Path 1219723" d="M331.852,281.775v-2.192a.556.556,0,0,1,.556-.556h.415a3.417,3.417,0,0,1,3.371-2.861h-3.786a3.417,3.417,0,0,0-3.417,3.417v2.192h2.861Z" transform="translate(-328.991 -276.166)" fill="#704444"/>
          </g>
          <g id="Group_1233054" data-name="Group 1233054" transform="translate(1.686 13.304)">
            <path id="Path_1219724" data-name="Path 1219724" d="M287.146,392.423v10.072a1.144,1.144,0,0,0,1.144,1.144h20.9a1.144,1.144,0,0,0,1.144-1.144V392.423Z" transform="translate(-287.146 -392.423)" fill="#855151"/>
          </g>
          <path id="Path_1219725" data-name="Path 1219725" d="M291.636,403.38v-9.957h-4.49v9.957a1.144,1.144,0,0,0,1.144,1.144h4.49A1.144,1.144,0,0,1,291.636,403.38Z" transform="translate(-285.46 -380.004)" fill="#704444"/>
          <g id="Group_1233055" data-name="Group 1233055" transform="translate(0 5.609)">
            <path id="Path_1219726" data-name="Path 1219726" d="M298.4,332.989H272.982a.572.572,0,0,1-.572-.572v-6.665a.572.572,0,0,1,.572-.572H298.4a.572.572,0,0,1,.572.572v6.665A.572.572,0,0,1,298.4,332.989Z" transform="translate(-272.41 -325.179)" fill="#9b5e5e"/>
          </g>
          <g id="Group_1233056" data-name="Group 1233056" transform="translate(0 5.609)">
            <path id="Path_1219727" data-name="Path 1219727" d="M277.274,332.417v-6.665a.572.572,0,0,1,.572-.572h-4.864a.572.572,0,0,0-.572.572v6.665a.572.572,0,0,0,.572.572h4.864A.572.572,0,0,1,277.274,332.417Z" transform="translate(-272.41 -325.179)" fill="#855151"/>
          </g>
          <g id="Group_1233057" data-name="Group 1233057" transform="translate(10.259 12.22)">
            <path id="Path_1219728" data-name="Path 1219728" d="M367.524,386.974h-4.9a.572.572,0,0,1-.572-.572v-2.879a.572.572,0,0,1,.572-.572h4.9a.572.572,0,0,1,.572.572V386.4A.572.572,0,0,1,367.524,386.974Z" transform="translate(-362.054 -382.951)" fill="#ffe177"/>
          </g>
          <g id="Group_1233058" data-name="Group 1233058" transform="translate(10.259 12.22)">
            <path id="Path_1219729" data-name="Path 1219729" d="M364.931,386.4v-2.879a.572.572,0,0,1,.572-.572h-2.877a.572.572,0,0,0-.572.572V386.4a.572.572,0,0,0,.572.572H365.5A.572.572,0,0,1,364.931,386.4Z" transform="translate(-362.054 -382.951)" fill="#ffd15b"/>
          </g>
        </g>
        <g id="Group_1233060" data-name="Group 1233060" transform="translate(0 14.065)">
          <path id="Path_1219730" data-name="Path 1219730" d="M171.064,151.6a7.805,7.805,0,0,0,7.747-6.937h.907a.858.858,0,1,0,0-1.717h-7.8V131.532a.858.858,0,1,0-1.717,0v4.53a7.795,7.795,0,0,0,.858,15.542Zm-.858-13.812v6.017a.858.858,0,0,0,.858.858h6.017a6.078,6.078,0,1,1-6.875-6.875Z" transform="translate(-144.585 -117.33)"/>
          <path id="Path_1219731" data-name="Path 1219731" d="M118.876,238.809a.858.858,0,0,0-.858-.858h-.552a.858.858,0,1,0,0,1.717h.552A.858.858,0,0,0,118.876,238.809Z" transform="translate(-103.264 -212.33)"/>
          <path id="Path_1219732" data-name="Path 1219732" d="M326.34,238.809a.858.858,0,0,0,.858.858h.552a.858.858,0,1,0,0-1.717H327.2A.858.858,0,0,0,326.34,238.809Z" transform="translate(-288.994 -212.33)"/>
          <path id="Path_1219733" data-name="Path 1219733" d="M224.742,340.406a.858.858,0,0,0-.858.858v.552a.858.858,0,0,0,1.717,0v-.552A.858.858,0,0,0,224.742,340.406Z" transform="translate(-198.263 -303.06)"/>
          <path id="Path_1219734" data-name="Path 1219734" d="M131.886,289.292l-.478.276a.858.858,0,1,0,.858,1.487l.478-.276a.858.858,0,1,0-.858-1.487Z" transform="translate(-115.99 -257.693)"/>
          <path id="Path_1219735" data-name="Path 1219735" d="M313.472,186.3a.854.854,0,0,0,.428-.115l.478-.276a.858.858,0,1,0-.858-1.487l-.478.276a.858.858,0,0,0,.43,1.6Z" transform="translate(-276.838 -164.828)"/>
          <path id="Path_1219736" data-name="Path 1219736" d="M171.808,326.794a.858.858,0,0,0-1.172.314l-.276.478a.858.858,0,1,0,1.487.858l.276-.478A.858.858,0,0,0,171.808,326.794Z" transform="translate(-150.762 -290.903)"/>
          <path id="Path_1219737" data-name="Path 1219737" d="M275.54,147.124a.858.858,0,0,0,1.172-.314l.276-.478a.858.858,0,0,0-1.487-.858l-.276.478A.858.858,0,0,0,275.54,147.124Z" transform="translate(-243.628 -130.055)"/>
          <path id="Path_1219738" data-name="Path 1219738" d="M70.976,93.213,66.187,98l-3.078-3.078a.858.858,0,1,0-1.214,1.214l3.685,3.685a.858.858,0,0,0,1.214,0l5.4-5.4a.858.858,0,0,0-1.214-1.214Z" transform="translate(-54.589 -83.933)"/>
          <path id="Path_1219739" data-name="Path 1219739" d="M57.162,48.81H52.117V47.476c0-.083,0-.166-.008-.248a26.612,26.612,0,0,0,.849-6.684A26.479,26.479,0,0,0,26.479,14.065a.858.858,0,0,0,0,1.717A24.763,24.763,0,0,1,51.242,40.544a25.016,25.016,0,0,1-.318,3.973,4.265,4.265,0,0,0-2.8-1.306,21.808,21.808,0,0,0-27.53-23.665A10.725,10.725,0,1,0,5.481,34.657a21.805,21.805,0,0,0,5.485,21.211.858.858,0,1,0,1.221-1.206,20.091,20.091,0,0,1-5.21-18.947,10.657,10.657,0,0,0,3.218,1.242A16.674,16.674,0,0,0,25.621,57.2v3.419a19.962,19.962,0,0,1-10.473-3.482.858.858,0,1,0-.969,1.417A21.815,21.815,0,0,0,32,61.641V64.69a24.941,24.941,0,0,1-5.523.617A24.762,24.762,0,0,1,1.717,40.544a.858.858,0,0,0-1.717,0A26.479,26.479,0,0,0,26.479,67.023,26.714,26.714,0,0,0,32,66.448v.987a2.005,2.005,0,0,0,2,2H54.9a2.005,2.005,0,0,0,2-2v-9.1h.256a1.432,1.432,0,0,0,1.43-1.43V50.24A1.432,1.432,0,0,0,57.162,48.81ZM50.4,47.476V48.81H49.256V47.476a1.416,1.416,0,0,0-1.414-1.414H41.066a1.415,1.415,0,0,0-1.414,1.414V48.81H38.507V47.476a2.561,2.561,0,0,1,2.558-2.558h6.777A2.561,2.561,0,0,1,50.4,47.476Zm-2.861.3V48.81H41.368V47.779Zm-4.6-4.578a16.6,16.6,0,0,0,.191-1.8H46.55c-.026.607-.081,1.206-.16,1.8Zm3.609-3.515H43.133a16.6,16.6,0,0,0-3.956-9.938L41.662,27.4A20,20,0,0,1,46.55,39.686ZM27.337,20.473a20.026,20.026,0,0,1,13.146,5.682L38,28.5a16.62,16.62,0,0,0-10.661-4.608V20.473Zm-1.717,0v3.419a16.61,16.61,0,0,0-2.729.367,10.659,10.659,0,0,0-1.241-3.216A20.022,20.022,0,0,1,25.621,20.472ZM11.52,40.544a14.924,14.924,0,0,1,.387-3.373c.159.007.32.011.481.011A10.676,10.676,0,0,0,18.4,35.344a.858.858,0,1,0-.962-1.421A9.03,9.03,0,1,1,19.985,31.3a.858.858,0,1,0,1.446.925,10.694,10.694,0,0,0,1.686-5.771c0-.161,0-.321-.011-.481A14.96,14.96,0,0,1,41.2,43.2h-.135a4.28,4.28,0,0,0-3.9,2.523l-.105-.061A.858.858,0,1,0,36.2,47.15l.478.276a.86.86,0,0,0,.109.053V48.81H31.746a1.432,1.432,0,0,0-1.43,1.43V55a14.952,14.952,0,0,1-18.8-14.456ZM27.337,60.615V57.2a16.608,16.608,0,0,0,2.978-.425v.133a1.432,1.432,0,0,0,1.43,1.43H32v1.52a19.935,19.935,0,0,1-4.665.76Zm29.538-4h-3.2a.858.858,0,1,0,0,1.717h1.518v9.1a.286.286,0,0,1-.286.286H34a.286.286,0,0,1-.286-.286v-9.1h6.856v1.394A1.432,1.432,0,0,0,42,61.161h4.9a1.432,1.432,0,0,0,1.43-1.43V58.336h1.332a.858.858,0,1,0,0-1.717H48.313a1.432,1.432,0,0,0-1.41-1.2H42a1.431,1.431,0,0,0-1.41,1.2H32.032V50.527H56.876ZM42.291,59.444V57.138h4.326v2.307Z" transform="translate(0 -14.065)"/>
        </g>
      </g>
    </g>
  </g>
</svg>
