<svg xmlns="http://www.w3.org/2000/svg" xmlns:xlink="http://www.w3.org/1999/xlink" width="108" height="108" viewBox="0 0 108 108">
  <defs>
    <filter id="Path_904820" x="0" y="0" width="108" height="108" filterUnits="userSpaceOnUse">
      <feOffset dy="3" input="SourceAlpha"/>
      <feGaussianBlur stdDeviation="3" result="blur"/>
      <feFlood flood-opacity="0.161"/>
      <feComposite operator="in" in2="blur"/>
      <feComposite in="SourceGraphic"/>
    </filter>
  </defs>
  <g id="Group_1233118" data-name="Group 1233118" transform="translate(-720 -6596)">
    <g id="Group_1230921" data-name="Group 1230921">
      <g id="Group_1228326" data-name="Group 1228326" transform="translate(729 6602)">
        <g id="Group_1203794" data-name="Group 1203794" transform="translate(0 0)">
          <g id="Group_1203639" data-name="Group 1203639">
            <g id="Group_1202437" data-name="Group 1202437">
              <g id="Group_1177315" data-name="Group 1177315">
                <g id="Group_1173585" data-name="Group 1173585" transform="translate(0)">
                  <g id="Group_1173428" data-name="Group 1173428">
                    <g id="Group_1171958" data-name="Group 1171958">
                      <g id="Group_1167341" data-name="Group 1167341">
                        <g id="Group_1166792" data-name="Group 1166792">
                          <g transform="matrix(1, 0, 0, 1, -9, -6)" filter="url(#Path_904820)">
                            <g id="Path_904820-2" data-name="Path 904820" transform="translate(9 6)" fill="#f2f7e5">
                              <path d="M 44.99999618530273 88.49999237060547 C 39.12687301635742 88.49999237060547 33.43022155761719 87.35006713867188 28.06829643249512 85.08216857910156 C 22.88852119445801 82.89130401611328 18.23629570007324 79.75457763671875 14.24084663391113 75.75914001464844 C 10.24540901184082 71.76369476318359 7.108683586120605 67.11146545410156 4.917821407318115 61.93169403076172 C 2.649921178817749 56.56976699829102 1.499996185302734 50.87311553955078 1.499996185302734 44.99999237060547 C 1.499996185302734 39.12686920166016 2.649921178817749 33.43021774291992 4.917821407318115 28.06829261779785 C 7.108683586120605 22.88851737976074 10.24540901184082 18.23630523681641 14.24084663391113 14.24085521697998 C 18.23629570007324 10.24540519714355 22.88852119445801 7.108692169189453 28.06829643249512 4.917829990386963 C 33.43022155761719 2.649929761886597 39.12687301635742 1.500004887580872 44.99999618530273 1.500004887580872 C 50.87311935424805 1.500004887580872 56.56977081298828 2.649929761886597 61.93169784545898 4.917829990386963 C 67.11147308349609 7.108692169189453 71.76369476318359 10.24540519714355 75.75914764404297 14.24085521697998 C 79.75458526611328 18.23630523681641 82.89131164550781 22.88851737976074 85.08216857910156 28.06829261779785 C 87.35007476806641 33.43021774291992 88.5 39.12686920166016 88.5 44.99999237060547 C 88.5 50.87311553955078 87.35007476806641 56.56976699829102 85.08216857910156 61.93169403076172 C 82.89131164550781 67.11146545410156 79.75458526611328 71.76369476318359 75.75914764404297 75.75914001464844 C 71.76369476318359 79.75457763671875 67.11147308349609 82.89130401611328 61.93169784545898 85.08216857910156 C 56.56977081298828 87.35006713867188 50.87311935424805 88.49999237060547 44.99999618530273 88.49999237060547 Z" stroke="none"/>
                              <path d="M 44.99999618530273 2.999992370605469 C 39.32870864868164 2.999992370605469 33.82865142822266 4.11004638671875 28.65262603759766 6.299331665039062 C 23.65165710449219 8.414566040039062 19.15968322753906 11.44333648681641 15.301513671875 15.30150604248047 C 11.44333648681641 19.15967559814453 8.414566040039062 23.65164947509766 6.299339294433594 28.65262222290039 C 4.110054016113281 33.82864761352539 2.999992370605469 39.32870483398438 2.999992370605469 44.99999237060547 C 2.999992370605469 50.67127990722656 4.110054016113281 56.17132186889648 6.299339294433594 61.34736633300781 C 8.414566040039062 66.34833526611328 11.44333648681641 70.84029388427734 15.301513671875 74.69846343994141 C 19.15968322753906 78.55663299560547 23.65165710449219 81.58540344238281 28.65262603759766 83.70063781738281 C 33.82865142822266 85.88992309570312 39.32870864868164 86.99997711181641 44.99999618530273 86.99997711181641 C 50.67128372192383 86.99997711181641 56.17134094238281 85.88992309570312 61.34736633300781 83.70063781738281 C 66.34834289550781 81.58540344238281 70.84030914306641 78.55663299560547 74.69847869873047 74.69846343994141 C 78.55665588378906 70.84029388427734 81.58542633056641 66.34833526611328 83.70065307617188 61.34736633300781 C 85.88993835449219 56.17132186889648 87 50.67127990722656 87 44.99999237060547 C 87 39.32870483398438 85.88993835449219 33.82864761352539 83.70065307617188 28.65262222290039 C 81.58542633056641 23.65164947509766 78.55665588378906 19.15967559814453 74.69847869873047 15.30150604248047 C 70.84030914306641 11.44333648681641 66.34834289550781 8.414566040039062 61.34736633300781 6.299331665039062 C 56.17134094238281 4.11004638671875 50.67128372192383 2.999992370605469 44.99999618530273 2.999992370605469 M 44.99999618530273 -7.62939453125e-06 C 69.85281372070312 -7.62939453125e-06 90 20.14717864990234 90 44.99999237060547 C 90 69.85279083251953 69.85281372070312 89.99997711181641 44.99999618530273 89.99997711181641 C 20.14717864990234 89.99997711181641 -7.62939453125e-06 69.85279083251953 -7.62939453125e-06 44.99999237060547 C -7.62939453125e-06 20.14717864990234 20.14717864990234 -7.62939453125e-06 44.99999618530273 -7.62939453125e-06 Z" stroke="none" fill="#1d7083"/>
                            </g>
                          </g>
                        </g>
                      </g>
                    </g>
                  </g>
                </g>
              </g>
            </g>
          </g>
        </g>
      </g>
      <g id="rsc" transform="translate(742 6610)">
        <path id="Path_1219011" data-name="Path 1219011" d="M26,22H38V42H26Z" fill="#a8a8a8"/>
        <path id="Path_1219012" data-name="Path 1219012" d="M18,27h8V42H18Z" fill="#999"/>
        <path id="Path_1219013" data-name="Path 1219013" d="M38,27h8V42H38Z" fill="#999"/>
        <path id="Path_1219014" data-name="Path 1219014" d="M32,38A30.012,30.012,0,0,0,3.707,58H60.293A30.012,30.012,0,0,0,32,38Z" fill="#a7dbfc"/>
        <path id="Path_1219015" data-name="Path 1219015" d="M51.965,45.635A30.04,30.04,0,0,1,34.693,58h25.6a30.015,30.015,0,0,0-8.328-12.365Z" fill="#90d2fc"/>
        <path id="Path_1219016" data-name="Path 1219016" d="M34,18H30a2,2,0,0,0-2,2v2h8V20A2,2,0,0,0,34,18Z" fill="#dbdbdb"/>
        <path id="Path_1219017" data-name="Path 1219017" d="M30,34h4v4H30Z" fill="#eaeaea"/>
        <path id="Path_1219018" data-name="Path 1219018" d="M40,47l3-2,3,1,4.712-.942a28.928,28.928,0,0,0-10.823-5.891L38,42H36l-2,2,2,3Z" fill="#63bc94"/>
        <path id="Path_1219019" data-name="Path 1219019" d="M12,46h5l2,1h3l3-2-1-3-2-2h-.823a29.012,29.012,0,0,0-9.392,6Z" fill="#63bc94"/>
        <path id="Path_1219020" data-name="Path 1219020" d="M32,63V61a4,4,0,0,0-4-4H26a4,4,0,0,0-4,4v2" fill="#eaeaea"/>
        <path id="Path_1219021" data-name="Path 1219021" d="M22,63V61a4,4,0,0,0-4-4H16a4,4,0,0,0-4,4v2" fill="#a8a8a8"/>
        <path id="Path_1219022" data-name="Path 1219022" d="M12,63V61a4,4,0,0,0-4-4H6a4,4,0,0,0-4,4v2" fill="#eaeaea"/>
        <path id="Path_1219023" data-name="Path 1219023" d="M42,63V61a4,4,0,0,0-4-4H36a4,4,0,0,0-4,4v2" fill="#a8a8a8"/>
        <path id="Path_1219024" data-name="Path 1219024" d="M52,63V61a4,4,0,0,0-4-4H46a4,4,0,0,0-4,4v2" fill="#eaeaea"/>
        <path id="Path_1219025" data-name="Path 1219025" d="M62,63V61a4,4,0,0,0-4-4H56a4,4,0,0,0-4,4v2" fill="#a8a8a8"/>
        <g id="Group_1230920" data-name="Group 1230920">
          <circle id="Ellipse_11568" data-name="Ellipse 11568" cx="3" cy="3" r="3" transform="translate(24 51)" fill="#ffd6a8"/>
          <circle id="Ellipse_11569" data-name="Ellipse 11569" cx="3" cy="3" r="3" transform="translate(14 51)" fill="#ffd6a8"/>
          <circle id="Ellipse_11570" data-name="Ellipse 11570" cx="3" cy="3" r="3" transform="translate(4 51)" fill="#ffd6a8"/>
          <circle id="Ellipse_11571" data-name="Ellipse 11571" cx="3" cy="3" r="3" transform="translate(34 51)" fill="#ffd6a8"/>
          <circle id="Ellipse_11572" data-name="Ellipse 11572" cx="3" cy="3" r="3" transform="translate(44 51)" fill="#ffd6a8"/>
          <circle id="Ellipse_11573" data-name="Ellipse 11573" cx="3" cy="3" r="3" transform="translate(54 51)" fill="#ffd6a8"/>
        </g>
        <path id="Path_1219026" data-name="Path 1219026" d="M52.8,13.8c-2.734,2.734-8.485,1.414-8.485,1.414S43,9.466,45.733,6.733s8.485-1.414,8.485-1.414S55.537,11.07,52.8,13.8Z" fill="#63bc94"/>
        <path id="Path_1219027" data-name="Path 1219027" d="M7.733,18.267C5,15.533,6.319,9.782,6.319,9.782S12.071,8.463,14.8,11.2s1.414,8.485,1.414,8.485S10.466,21,7.733,18.267Z" fill="#63bc94"/>
        <path id="Path_1219028" data-name="Path 1219028" d="M43.344,15.441a1,1,0,0,0,.751.751,16.206,16.206,0,0,0,3.326.343c2,0,4.459-.394,6.09-2.025,3.089-3.09,1.741-9.159,1.682-9.416a1,1,0,0,0-.751-.751c-.255-.059-6.326-1.407-9.416,1.682S43.285,15.185,43.344,15.441ZM52.1,13.1c-1.519,1.518-4.277,1.535-6.009,1.369l7.435-6.692c.08,1.8-.159,4.055-1.426,5.323ZM46.439,7.439C47.953,5.926,50.7,5.9,52.429,6.068l-7.417,6.675c-.077-1.8.164-4.04,1.427-5.3Z"/>
        <path id="Path_1219029" data-name="Path 1219029" d="M60.11,56.484A3.961,3.961,0,0,0,61,54a4,4,0,0,0-4-4,3.95,3.95,0,0,0-.489.049A30,30,0,0,0,47,41.158V27a1,1,0,0,0-1-1H39V22a1,1,0,0,0-1-1H37V20a3,3,0,0,0-3-3H33V15H31v2H30a3,3,0,0,0-3,3v1H26a1,1,0,0,0-1,1v4H18a1,1,0,0,0-1,1V40.894a30.009,30.009,0,0,0-9.941,9.112C7.039,50.006,7.02,50,7,50a4,4,0,0,0-4,4,3.961,3.961,0,0,0,.89,2.484A4.994,4.994,0,0,0,1,61v2H3V61a3,3,0,0,1,3-3H8a3,3,0,0,1,3,3v2h2V61a3,3,0,0,1,3-3h2a3,3,0,0,1,3,3v2h2V61a3,3,0,0,1,3-3h2a3,3,0,0,1,3,3v2h2V61a3,3,0,0,1,3-3h2a3,3,0,0,1,3,3v2h2V61a3,3,0,0,1,3-3h2a3,3,0,0,1,3,3v2h2V61a3,3,0,0,1,3-3h2a3,3,0,0,1,3,3v2h2V61A4.994,4.994,0,0,0,60.11,56.484ZM39,28h6V40.079a29.881,29.881,0,0,0-6-2.2Zm-.168,14.555,1.484-2.225A27.879,27.879,0,0,1,48.423,44.5l-2.358.472-2.748-.916a1,1,0,0,0-.871.117L39.7,46H36.535l-1.249-1.873L36.414,43H38a1,1,0,0,0,.832-.445ZM29,20a1,1,0,0,1,1-1h4a1,1,0,0,1,1,1v1H29Zm-2,3H37V37.465c-.661-.116-1.328-.208-2-.28V34a1,1,0,0,0-1-1H30a1,1,0,0,0-1,1v3.142q-1.008.093-2,.252Zm6,12v2.038c-.409-.016-.818-.038-1.229-.038-.258,0-.513.017-.771.024V35ZM19,28h6v9.782a29.869,29.869,0,0,0-6,2.07Zm2.524,12.938,1.6,1.6.684,2.052L21.7,46H19.236l-1.789-.9A1,1,0,0,0,17,45H14.452a27.923,27.923,0,0,1,7.072-4.062ZM7,56a2,2,0,1,1,2-2A2,2,0,0,1,7,56Zm10,0a2,2,0,1,1,2-2A2,2,0,0,1,17,56Zm10,0a2,2,0,1,1,2-2A2,2,0,0,1,27,56Zm10,0a2,2,0,1,1,2-2A2,2,0,0,1,37,56Zm10,0a2,2,0,1,1,2-2A2,2,0,0,1,47,56Zm6-2a3.961,3.961,0,0,0,.89,2.484A5.019,5.019,0,0,0,52,58.031a5.011,5.011,0,0,0-1.89-1.547A3.961,3.961,0,0,0,51,54a4,4,0,0,0-8,0,3.961,3.961,0,0,0,.89,2.484A5.019,5.019,0,0,0,42,58.031a5.011,5.011,0,0,0-1.89-1.547A3.961,3.961,0,0,0,41,54a4,4,0,0,0-8,0,3.961,3.961,0,0,0,.89,2.484A5.019,5.019,0,0,0,32,58.031a5.011,5.011,0,0,0-1.89-1.547A3.961,3.961,0,0,0,31,54a4,4,0,0,0-8,0,3.961,3.961,0,0,0,.89,2.484A5.019,5.019,0,0,0,22,58.031a5.011,5.011,0,0,0-1.89-1.547A3.961,3.961,0,0,0,21,54a4,4,0,0,0-8,0,3.961,3.961,0,0,0,.89,2.484A5.019,5.019,0,0,0,12,58.031a5.011,5.011,0,0,0-1.89-1.547A3.948,3.948,0,0,0,9.086,50.6a28.077,28.077,0,0,1,3.1-3.6h4.577l1.789.9A1,1,0,0,0,19,48h3a1.006,1.006,0,0,0,.555-.168l3-2a1,1,0,0,0,.394-1.148l-1-3a1,1,0,0,0-.242-.391l-1.079-1.079a27.876,27.876,0,0,1,14.656-.441L37.465,41H36a1,1,0,0,0-.707.293l-2,2a1,1,0,0,0-.125,1.262l2,3A1,1,0,0,0,36,48h4a1.006,1.006,0,0,0,.555-.168L43.148,46.1l2.536.845a1.015,1.015,0,0,0,.513.032l4.241-.848a28.156,28.156,0,0,1,4.169,4.683A3.985,3.985,0,0,0,53,54Zm4,2a2,2,0,1,1,2-2A2,2,0,0,1,57,56Z"/>
        <path id="Path_1219030" data-name="Path 1219030" d="M29,25h6v2H29Z"/>
        <path id="Path_1219031" data-name="Path 1219031" d="M29,29h6v2H29Z"/>
        <path id="Path_1219032" data-name="Path 1219032" d="M21,30h2v2H21Z"/>
        <path id="Path_1219033" data-name="Path 1219033" d="M21,34h2v2H21Z"/>
        <path id="Path_1219034" data-name="Path 1219034" d="M41,30h2v2H41Z"/>
        <path id="Path_1219035" data-name="Path 1219035" d="M41,34h2v2H41Z"/>
        <path id="Path_1219036" data-name="Path 1219036" d="M13.116,21a16.217,16.217,0,0,0,3.326-.343,1,1,0,0,0,.751-.751c.059-.257,1.408-6.326-1.682-9.416S6.351,8.749,6.095,8.808a1,1,0,0,0-.751.751c-.059.257-1.408,6.326,1.682,9.416C8.656,20.6,11.117,21,13.116,21Zm.981-9.1c1.327,1.327,1.506,3.6,1.42,5.315L8.09,10.527c1.877-.173,4.57-.06,6.007,1.376Zm-7.078.352,7.418,6.683c-1.877.171-4.563.057-6-1.377-1.325-1.325-1.506-3.6-1.421-5.306Z"/>
        <path id="Path_1219037" data-name="Path 1219037" d="M8.362,21.827A24.2,24.2,0,0,0,8,26a23.767,23.767,0,0,0,4.958,14.609l1.586-1.219A21.785,21.785,0,0,1,10,26a22.1,22.1,0,0,1,.332-3.827Z"/>
        <path id="Path_1219038" data-name="Path 1219038" d="M50.194,41.652a24.025,24.025,0,0,0,3.9-25.044l-1.84.783a22.027,22.027,0,0,1-3.574,22.957Z"/>
        <path id="Path_1219039" data-name="Path 1219039" d="M32,4A22.028,22.028,0,0,1,42.521,6.674l.958-1.756A24.015,24.015,0,0,0,15.834,8.261l1.348,1.478A21.943,21.943,0,0,1,32,4Z"/>
      </g>
    </g>
  </g>
</svg>
