<svg xmlns="http://www.w3.org/2000/svg" xmlns:xlink="http://www.w3.org/1999/xlink" width="106.16" height="106.16" viewBox="0 0 106.16 106.16">
  <defs>
    <filter id="Path_982547" x="0" y="-0.001" width="106.16" height="106.16" filterUnits="userSpaceOnUse">
      <feOffset dy="3" input="SourceAlpha"/>
      <feGaussianBlur stdDeviation="3" result="blur"/>
      <feFlood flood-opacity="0.161"/>
      <feComposite operator="in" in2="blur"/>
      <feComposite in="SourceGraphic"/>
    </filter>
  </defs>
  <g id="Group_1233125" data-name="Group 1233125" transform="translate(-190.42 -8486.098)">
    <g id="Group_1232981" data-name="Group 1232981">
      <g id="Group_1228506" data-name="Group 1228506" transform="translate(-420.5 6605.028)">
        <g id="Group_1206132" data-name="Group 1206132" transform="translate(0 -58.931)">
          <g id="Group_1203794" data-name="Group 1203794" transform="translate(0 -4639.878)">
            <g id="Group_1203345" data-name="Group 1203345" transform="translate(338.92 5174.875)">
              <g id="Group_1177900" data-name="Group 1177900" transform="translate(281 1411.003)">
                <g id="Group_1172010" data-name="Group 1172010" transform="translate(0)">
                  <g id="Group_1171046" data-name="Group 1171046">
                    <g id="Group_1148525" data-name="Group 1148525">
                      <g transform="matrix(1, 0, 0, 1, -9, -6)" filter="url(#Path_982547)">
                        <g id="Path_982547-2" data-name="Path 982547" transform="translate(9 6)" fill="#e9f9fd">
                          <path d="M 44.0802001953125 86.660400390625 C 38.33124923706055 86.660400390625 32.75506210327148 85.53479766845703 27.50652503967285 83.31484985351562 C 22.43628692626953 81.17032623291016 17.88242530822754 78.09992218017578 13.97144985198975 74.18894958496094 C 10.06047534942627 70.27797698974609 6.99007511138916 65.72411346435547 4.845550060272217 60.65387344360352 C 2.625600099563599 55.40533828735352 1.500000238418579 49.82915115356445 1.500000238418579 44.0802001953125 C 1.500000238418579 38.33124923706055 2.625600099563599 32.75506210327148 4.845550060272217 27.50652503967285 C 6.99007511138916 22.43628692626953 10.06047534942627 17.88242530822754 13.97144985198975 13.97144985198975 C 17.88242530822754 10.06047534942627 22.43628692626953 6.99007511138916 27.50652503967285 4.845550060272217 C 32.75506210327148 2.625600099563599 38.33124923706055 1.500000238418579 44.0802001953125 1.500000238418579 C 49.82915115356445 1.500000238418579 55.40533828735352 2.625600099563599 60.65387344360352 4.845550060272217 C 65.72411346435547 6.99007511138916 70.27797698974609 10.06047534942627 74.18894958496094 13.97144985198975 C 78.09992218017578 17.88242530822754 81.17032623291016 22.43628692626953 83.31484985351562 27.50652503967285 C 85.53479766845703 32.75506210327148 86.660400390625 38.33124923706055 86.660400390625 44.0802001953125 C 86.660400390625 49.82915115356445 85.53479766845703 55.40533828735352 83.31484985351562 60.65387344360352 C 81.17032623291016 65.72411346435547 78.09992218017578 70.27797698974609 74.18894958496094 74.18894958496094 C 70.27797698974609 78.09992218017578 65.72411346435547 81.17032623291016 60.65387344360352 83.31484985351562 C 55.40533828735352 85.53479766845703 49.82915115356445 86.660400390625 44.0802001953125 86.660400390625 Z" stroke="none"/>
                          <path d="M 44.0802001953125 3 C 38.53308486938477 3 33.15349960327148 4.085746765136719 28.09085845947266 6.227058410644531 C 23.19941711425781 8.29595947265625 18.80581665039062 11.25841522216797 15.03211212158203 15.03211212158203 C 11.25841522216797 18.80581665039062 8.29595947265625 23.19941711425781 6.227058410644531 28.09085845947266 C 4.085746765136719 33.15349960327148 3 38.53308486938477 3 44.0802001953125 C 3 49.62731552124023 4.085746765136719 55.00691604614258 6.227058410644531 60.06954193115234 C 8.29595947265625 64.96098327636719 11.25841522216797 69.35458374023438 15.03211212158203 73.12828826904297 C 18.80581665039062 76.90198516845703 23.19941711425781 79.86444091796875 28.09085845947266 81.93334197998047 C 33.15349960327148 84.07466125488281 38.53308486938477 85.160400390625 44.0802001953125 85.160400390625 C 49.62731552124023 85.160400390625 55.00691604614258 84.07466125488281 60.06954193115234 81.93334197998047 C 64.96099853515625 79.86444091796875 69.35458374023438 76.90198516845703 73.12828826904297 73.12828826904297 C 76.90198516845703 69.35458374023438 79.86444091796875 64.96099853515625 81.93334197998047 60.06954193115234 C 84.07466125488281 55.00691604614258 85.160400390625 49.62731552124023 85.160400390625 44.0802001953125 C 85.160400390625 38.53308486938477 84.07466125488281 33.15349960327148 81.93334197998047 28.09085845947266 C 79.86444091796875 23.19941711425781 76.90198516845703 18.80581665039062 73.12828826904297 15.03211212158203 C 69.35458374023438 11.25841522216797 64.96098327636719 8.29595947265625 60.06954193115234 6.227058410644531 C 55.00691604614258 4.085746765136719 49.62731552124023 3 44.0802001953125 3 M 44.0802001953125 0 C 68.42502593994141 0 88.160400390625 19.73538970947266 88.160400390625 44.0802001953125 C 88.160400390625 68.42502593994141 68.42502593994141 88.160400390625 44.0802001953125 88.160400390625 C 19.73538970947266 88.160400390625 0 68.42502593994141 0 44.0802001953125 C 0 19.73538970947266 19.73538970947266 0 44.0802001953125 0 Z" stroke="none" fill="#1d7083"/>
                        </g>
                      </g>
                    </g>
                  </g>
                </g>
              </g>
            </g>
          </g>
        </g>
      </g>
      <g id="empatia_1_" data-name="empatia (1)" transform="translate(211.87 8452.392)">
        <g id="Group_1232980" data-name="Group 1232980" transform="translate(0.926 60.433)">
          <path id="Path_1219442" data-name="Path 1219442" d="M110.79,102.618,122.98,89.59a13.417,13.417,0,0,0-17.871-19.883l-2.225,1.676a1.648,1.648,0,0,1-1.984,0l-2.225-1.676A13.417,13.417,0,0,0,80.8,89.59l6.31,6.744L104.15,109.9Z" transform="translate(-68.576 -67.005)" fill="#fd8087"/>
          <g id="Group_1232975" data-name="Group 1232975" transform="translate(8.607 0.001)">
            <path id="Path_1219443" data-name="Path 1219443" d="M96.4,99.224l-7.028-8.6a13.418,13.418,0,0,1,7.035-22.3A13.419,13.419,0,0,0,80.8,89.594l6.31,6.744L104.149,109.9l2.822-3.094Z" transform="translate(-77.182 -67.01)" fill="#fe646f"/>
          </g>
          <g id="Group_1232979" data-name="Group 1232979" transform="translate(0 9.314)">
            <path id="Path_1219444" data-name="Path 1219444" d="M81.314,306.741a2.787,2.787,0,0,0-3.455-1.46l-18.788,6.607-13.7-2.574L40.8,304.44H21.953v14.6l9.942.074.545.469a9.231,9.231,0,0,0,6.024,2.236h17.28a9.233,9.233,0,0,0,4.246-1.034l20.076-10.4a2.784,2.784,0,0,0,1.248-3.644Z" transform="translate(-20.168 -284.425)" fill="#ffdfcf"/>
            <g id="Group_1232977" data-name="Group 1232977" transform="translate(20.633 20.015)">
              <g id="XMLID_990_">
                <g id="Group_1232976" data-name="Group 1232976">
                  <path id="Path_1219445" data-name="Path 1219445" d="M229.711,347.312l-13.069-2.456a5.269,5.269,0,0,0,5.269,5.269h5.465a5.146,5.146,0,0,0,3.645-1.5l.012-.012a5.132,5.132,0,0,0,1.318-2.226Z" transform="translate(-211.441 -339.864)" fill="#ffcebf"/>
                  <path id="Path_1219446" data-name="Path 1219446" d="M190.4,306.2a3.365,3.365,0,0,1,3.387,3.25,3.31,3.31,0,0,1-.973,2.421l-.014.014a3.307,3.307,0,0,1-2.335.96H179.282a4.748,4.748,0,0,1-4.748-4.748V304.44h.242a6.022,6.022,0,0,1,4.258,1.764Z" transform="translate(-174.534 -304.44)" fill="#ffdfcf"/>
                </g>
              </g>
            </g>
            <path id="Path_1219447" data-name="Path 1219447" d="M81.314,306.74a2.772,2.772,0,0,0-.194-.352,2.824,2.824,0,0,1-.464.3l-20.076,10.4a9.233,9.233,0,0,1-4.246,1.034H39.054a9.231,9.231,0,0,1-6.024-2.236.632.632,0,0,0-.089-.063,3.372,3.372,0,0,1-1.592-2.914c0-3.212-.008-8.387-.014-8.467H21.953v14.6l9.942.074.545.469a9.231,9.231,0,0,0,6.024,2.236h17.28a9.233,9.233,0,0,0,4.246-1.034l20.076-10.4a2.784,2.784,0,0,0,1.248-3.644Z" transform="translate(-20.168 -284.424)" fill="#ffcebf"/>
            <path id="Path_1219448" data-name="Path 1219448" d="M8.222,311.254h6.328a1.662,1.662,0,0,0,1.662-1.662V295.509a1.662,1.662,0,0,0-1.662-1.662H8.222a.722.722,0,0,0-.722.722v15.964A.722.722,0,0,0,8.222,311.254Z" transform="translate(-7.5 -275.141)" fill="#86e8d0"/>
            <path id="Path_1219449" data-name="Path 1219449" d="M195.844,158.2h9.677l3.266,1.718a10.852,10.852,0,1,0-17.145,0Z" transform="translate(-166.898 -142.41)" fill="#c8effe"/>
            <g id="XMLID_993_" transform="translate(24.744 9.871)">
              <g id="Group_1232978" data-name="Group 1232978">
                <path id="Path_1219450" data-name="Path 1219450" d="M224.958,229.955a10.851,10.851,0,0,1-17.145,0,8.656,8.656,0,0,1,3.425-5.76l2.546-1.875h5.545l2.2,1.875A8.657,8.657,0,0,1,224.958,229.955Z" transform="translate(-207.813 -222.32)" fill="#f9f7f8"/>
              </g>
            </g>
          </g>
          <circle id="Ellipse_11574" data-name="Ellipse 11574" cx="7.001" cy="7.001" r="7.001" transform="translate(26.314 9.314)" fill="#f9f7f8"/>
        </g>
        <path id="Path_1219451" data-name="Path 1219451" d="M62.914,91.674a3.7,3.7,0,0,0-4.6-1.945L46.4,93.918l9.606-10.267A14.344,14.344,0,0,0,36.9,62.395l-2.225,1.676a.725.725,0,0,1-.869,0l-2.225-1.676a14.342,14.342,0,0,0-17.993.592.926.926,0,1,0,1.21,1.4,12.49,12.49,0,0,1,15.667-.515l2.225,1.676a2.586,2.586,0,0,0,3.1,0l2.225-1.676A12.491,12.491,0,0,1,54.654,82.385L42.619,95.248l-.94.331a4.239,4.239,0,0,0-2.147-4.457A11.781,11.781,0,1,0,28.026,90.6h-1.6A6.9,6.9,0,0,0,21.8,88.836H19.866L13.83,82.385A12.486,12.486,0,0,1,12.394,67.17a.926.926,0,1,0-1.565-.992,14.338,14.338,0,0,0,1.648,17.473l4.851,5.185H10.223a2.589,2.589,0,0,0-2.247-1.308H.926a.926.926,0,1,0,0,1.853H7.976a.737.737,0,0,1,.736.736V104.2a.737.737,0,0,1-.736.736H.926a.926.926,0,0,0,0,1.853H7.976a2.589,2.589,0,0,0,2.311-1.428H12.31l.285.245a10.163,10.163,0,0,0,6.629,2.461H36.5a10.2,10.2,0,0,0,4.672-1.138l8.952-4.636a.926.926,0,0,0-.852-1.645l-8.952,4.636a8.341,8.341,0,0,1-3.82.93H19.223A8.31,8.31,0,0,1,13.8,104.2l-.545-.469a.926.926,0,0,0-.6-.224H10.565V90.689H21.8a5.062,5.062,0,0,1,3.6,1.492.926.926,0,0,0,.655.271H37.495a2.4,2.4,0,1,1,0,4.791H28.221a1.594,1.594,0,0,0-1.135.47l-1.595,1.595a.927.927,0,0,0,1.31,1.31L28.324,99.1h9.171a4.23,4.23,0,0,0,2.819-1.074l18.611-6.546A1.861,1.861,0,0,1,60.4,94.885l-7.584,3.927a.926.926,0,1,0,.852,1.645l7.584-3.927a3.707,3.707,0,0,0,1.663-4.856ZM44.168,80.6a9.863,9.863,0,0,1-1.011,4.359,9.671,9.671,0,0,0-2.476-3.6,7.9,7.9,0,0,0,1.018-7.3A9.881,9.881,0,0,1,44.168,80.6ZM26.785,74.06a7.889,7.889,0,0,0,1.021,7.3,9.676,9.676,0,0,0-2.479,3.6,9.9,9.9,0,0,1,1.458-10.9Zm-.132,12.927a7.785,7.785,0,0,1,2.4-4.259A7.866,7.866,0,0,0,33.14,84.6a.914.914,0,0,0,.129.009.926.926,0,0,0,.127-1.844,6.072,6.072,0,1,1,3.448-.524.926.926,0,1,0,.795,1.674,7.869,7.869,0,0,0,1.8-1.182,7.786,7.786,0,0,1,2.394,4.255,9.908,9.908,0,0,1-15.178,0Z" transform="translate(0 0)"/>
      </g>
    </g>
  </g>
</svg>
