<svg xmlns="http://www.w3.org/2000/svg" xmlns:xlink="http://www.w3.org/1999/xlink" width="108" height="108" viewBox="0 0 108 108">
  <defs>
    <filter id="Path_904820" x="0" y="0" width="108" height="108" filterUnits="userSpaceOnUse">
      <feOffset dy="3" input="SourceAlpha"/>
      <feGaussianBlur stdDeviation="3" result="blur"/>
      <feFlood flood-opacity="0.161"/>
      <feComposite operator="in" in2="blur"/>
      <feComposite in="SourceGraphic"/>
    </filter>
  </defs>
  <g id="Group_1233102" data-name="Group 1233102" transform="translate(-200.087 -2449.611)">
    <g id="Group_1228664" data-name="Group 1228664">
      <g id="Group_1228310" data-name="Group 1228310" transform="translate(209.087 2455.611)">
        <g id="Group_1203794" data-name="Group 1203794" transform="translate(0 0)">
          <g id="Group_1203639" data-name="Group 1203639">
            <g id="Group_1202437" data-name="Group 1202437">
              <g id="Group_1177315" data-name="Group 1177315">
                <g id="Group_1173585" data-name="Group 1173585" transform="translate(0)">
                  <g id="Group_1173428" data-name="Group 1173428">
                    <g id="Group_1171958" data-name="Group 1171958">
                      <g id="Group_1167341" data-name="Group 1167341">
                        <g id="Group_1166792" data-name="Group 1166792">
                          <g transform="matrix(1, 0, 0, 1, -9, -6)" filter="url(#Path_904820)">
                            <g id="Path_904820-2" data-name="Path 904820" transform="translate(9 6)" fill="#fff4e6">
                              <path d="M 44.99999618530273 88.49999237060547 C 39.12687301635742 88.49999237060547 33.43022155761719 87.35006713867188 28.06829643249512 85.08216857910156 C 22.88852119445801 82.89130401611328 18.23629570007324 79.75457763671875 14.24084663391113 75.75914001464844 C 10.24540901184082 71.76369476318359 7.108683586120605 67.11146545410156 4.917821407318115 61.93169403076172 C 2.649921178817749 56.56976699829102 1.499996185302734 50.87311553955078 1.499996185302734 44.99999237060547 C 1.499996185302734 39.12686920166016 2.649921178817749 33.43021774291992 4.917821407318115 28.06829261779785 C 7.108683586120605 22.88851737976074 10.24540901184082 18.23630523681641 14.24084663391113 14.24085521697998 C 18.23629570007324 10.24540519714355 22.88852119445801 7.108692169189453 28.06829643249512 4.917829990386963 C 33.43022155761719 2.649929761886597 39.12687301635742 1.500004887580872 44.99999618530273 1.500004887580872 C 50.87311935424805 1.500004887580872 56.56977081298828 2.649929761886597 61.93169784545898 4.917829990386963 C 67.11147308349609 7.108692169189453 71.76369476318359 10.24540519714355 75.75914764404297 14.24085521697998 C 79.75458526611328 18.23630523681641 82.89131164550781 22.88851737976074 85.08216857910156 28.06829261779785 C 87.35007476806641 33.43021774291992 88.5 39.12686920166016 88.5 44.99999237060547 C 88.5 50.87311553955078 87.35007476806641 56.56976699829102 85.08216857910156 61.93169403076172 C 82.89131164550781 67.11146545410156 79.75458526611328 71.76369476318359 75.75914764404297 75.75914001464844 C 71.76369476318359 79.75457763671875 67.11147308349609 82.89130401611328 61.93169784545898 85.08216857910156 C 56.56977081298828 87.35006713867188 50.87311935424805 88.49999237060547 44.99999618530273 88.49999237060547 Z" stroke="none"/>
                              <path d="M 44.99999618530273 2.999992370605469 C 39.32870864868164 2.999992370605469 33.82865142822266 4.11004638671875 28.65262603759766 6.299331665039062 C 23.65165710449219 8.414566040039062 19.15968322753906 11.44333648681641 15.301513671875 15.30150604248047 C 11.44333648681641 19.15967559814453 8.414566040039062 23.65164947509766 6.299339294433594 28.65262222290039 C 4.110054016113281 33.82864761352539 2.999992370605469 39.32870483398438 2.999992370605469 44.99999237060547 C 2.999992370605469 50.67127990722656 4.110054016113281 56.17132186889648 6.299339294433594 61.34736633300781 C 8.414566040039062 66.34833526611328 11.44333648681641 70.84029388427734 15.301513671875 74.69846343994141 C 19.15968322753906 78.55663299560547 23.65165710449219 81.58540344238281 28.65262603759766 83.70063781738281 C 33.82865142822266 85.88992309570312 39.32870864868164 86.99997711181641 44.99999618530273 86.99997711181641 C 50.67128372192383 86.99997711181641 56.17134094238281 85.88992309570312 61.34736633300781 83.70063781738281 C 66.34834289550781 81.58540344238281 70.84030914306641 78.55663299560547 74.69847869873047 74.69846343994141 C 78.55665588378906 70.84029388427734 81.58542633056641 66.34833526611328 83.70065307617188 61.34736633300781 C 85.88993835449219 56.17132186889648 87 50.67127990722656 87 44.99999237060547 C 87 39.32870483398438 85.88993835449219 33.82864761352539 83.70065307617188 28.65262222290039 C 81.58542633056641 23.65164947509766 78.55665588378906 19.15967559814453 74.69847869873047 15.30150604248047 C 70.84030914306641 11.44333648681641 66.34834289550781 8.414566040039062 61.34736633300781 6.299331665039062 C 56.17134094238281 4.11004638671875 50.67128372192383 2.999992370605469 44.99999618530273 2.999992370605469 M 44.99999618530273 -7.62939453125e-06 C 69.85281372070312 -7.62939453125e-06 90 20.14717864990234 90 44.99999237060547 C 90 69.85279083251953 69.85281372070312 89.99997711181641 44.99999618530273 89.99997711181641 C 20.14717864990234 89.99997711181641 -7.62939453125e-06 69.85279083251953 -7.62939453125e-06 44.99999237060547 C -7.62939453125e-06 20.14717864990234 20.14717864990234 -7.62939453125e-06 44.99999618530273 -7.62939453125e-06 Z" stroke="none" fill="#ff9d1c"/>
                            </g>
                          </g>
                        </g>
                      </g>
                    </g>
                  </g>
                </g>
              </g>
            </g>
          </g>
        </g>
      </g>
      <g id="objetivo_4_" data-name="objetivo (4)" transform="translate(212.248 2471.007)">
        <g id="Group_1228658" data-name="Group 1228658" transform="translate(14.702 0.867)">
          <g id="Group_1228647" data-name="Group 1228647" transform="translate(22.865)">
            <path id="Path_1218291" data-name="Path 1218291" d="M250.353,54.926H219.176l-.116.115V79.707a14.118,14.118,0,0,1,7.375,19.4h23.474a.56.56,0,0,0,.56-.56V55.041Z" transform="translate(-219.06 -49.442)" fill="#c8effe"/>
            <path id="Path_1218292" data-name="Path 1218292" d="M222.522,81.708V55.041l.116-.115h-3.462l-.116.115V79.707A14.1,14.1,0,0,1,222.522,81.708Z" transform="translate(-219.06 -49.442)" fill="#99e6fc"/>
            <g id="Group_1228633" data-name="Group 1228633" transform="translate(0)">
              <path id="Path_1218293" data-name="Path 1218293" d="M250.469,13.1H219.06V8.656A1.156,1.156,0,0,1,220.216,7.5h29.1a1.156,1.156,0,0,1,1.156,1.156Z" transform="translate(-219.06 -7.5)" fill="#7ca1b1"/>
            </g>
            <g id="Group_1228634" data-name="Group 1228634" transform="translate(0)">
              <path id="Path_1218294" data-name="Path 1218294" d="M220.216,7.5a1.156,1.156,0,0,0-1.156,1.156V13.1H226V7.5Z" transform="translate(-219.06 -7.5)" fill="#678d98"/>
            </g>
            <g id="Group_1228635" data-name="Group 1228635" transform="translate(0)">
              <path id="Path_1218295" data-name="Path 1218295" d="M223.679,7.5h-3.462a1.156,1.156,0,0,0-1.156,1.156V13.1h3.462V8.656A1.156,1.156,0,0,1,223.679,7.5Z" transform="translate(-219.06 -7.5)" fill="#537983"/>
            </g>
            <g id="Group_1228638" data-name="Group 1228638" transform="translate(5.235 9.404)">
              <g id="Group_1228636" data-name="Group 1228636">
                <path id="Path_1218296" data-name="Path 1218296" d="M268.364,93.207h-3.689a.347.347,0,0,1-.347-.347V89.171a.347.347,0,0,1,.347-.347h3.689a.347.347,0,0,1,.347.347V92.86A.347.347,0,0,1,268.364,93.207Z" transform="translate(-264.328 -88.824)" fill="#01d0fb"/>
              </g>
              <g id="Group_1228637" data-name="Group 1228637">
                <path id="Path_1218297" data-name="Path 1218297" d="M266.268,92.86V89.171a.347.347,0,0,1,.347-.347h-1.94a.347.347,0,0,0-.347.347V92.86a.347.347,0,0,0,.347.347h1.94A.347.347,0,0,1,266.268,92.86Z" transform="translate(-264.328 -88.824)" fill="#01c0fa"/>
              </g>
            </g>
            <g id="Group_1228641" data-name="Group 1228641" transform="translate(5.235 17.165)">
              <g id="Group_1228639" data-name="Group 1228639">
                <path id="Path_1218298" data-name="Path 1218298" d="M268.364,160.319h-3.689a.347.347,0,0,1-.347-.347v-3.689a.347.347,0,0,1,.347-.347h3.689a.347.347,0,0,1,.347.347v3.689A.347.347,0,0,1,268.364,160.319Z" transform="translate(-264.328 -155.936)" fill="#01d0fb"/>
              </g>
              <g id="Group_1228640" data-name="Group 1228640">
                <path id="Path_1218299" data-name="Path 1218299" d="M266.268,159.972v-3.689a.347.347,0,0,1,.347-.347h-1.94a.347.347,0,0,0-.347.347v3.689a.347.347,0,0,0,.347.347h1.94A.347.347,0,0,1,266.268,159.972Z" transform="translate(-264.328 -155.936)" fill="#01c0fa"/>
              </g>
            </g>
            <g id="Group_1228644" data-name="Group 1228644" transform="translate(5.235 24.926)">
              <g id="Group_1228642" data-name="Group 1228642">
                <path id="Path_1218300" data-name="Path 1218300" d="M268.364,227.431h-3.689a.347.347,0,0,1-.347-.347v-3.689a.347.347,0,0,1,.347-.347h3.689a.347.347,0,0,1,.347.347v3.689A.347.347,0,0,1,268.364,227.431Z" transform="translate(-264.328 -223.048)" fill="#01d0fb"/>
              </g>
              <g id="Group_1228643" data-name="Group 1228643">
                <path id="Path_1218301" data-name="Path 1218301" d="M266.268,227.084v-3.689a.347.347,0,0,1,.347-.347h-1.94a.347.347,0,0,0-.347.347v3.689a.347.347,0,0,0,.347.347h1.94A.347.347,0,0,1,266.268,227.084Z" transform="translate(-264.328 -223.048)" fill="#01c0fa"/>
              </g>
            </g>
            <g id="Group_1228646" data-name="Group 1228646" transform="translate(5.235 32.687)">
              <path id="Path_1218302" data-name="Path 1218302" d="M268.364,290.159h-3.689a.347.347,0,0,0-.347.347v.89a14.135,14.135,0,0,1,2.145,3.146h1.891a.347.347,0,0,0,.347-.347v-3.689A.347.347,0,0,0,268.364,290.159Z" transform="translate(-264.328 -290.159)" fill="#01d0fb"/>
              <g id="Group_1228645" data-name="Group 1228645">
                <path id="Path_1218303" data-name="Path 1218303" d="M266.268,294.146v-3.64a.347.347,0,0,1,.347-.347h-1.94a.347.347,0,0,0-.347.347v.89A14.158,14.158,0,0,1,266.268,294.146Z" transform="translate(-264.328 -290.159)" fill="#01c0fa"/>
              </g>
            </g>
          </g>
          <g id="Group_1228654" data-name="Group 1228654" transform="translate(3.507 29.256)">
            <path id="Path_1218304" data-name="Path 1218304" d="M65.771,260.489a14.162,14.162,0,0,0-2.972.315,7.467,7.467,0,0,1-10.253,8.87,14.111,14.111,0,1,0,13.225-9.185Z" transform="translate(-51.662 -260.489)" fill="#fd5426"/>
            <g id="Group_1228648" data-name="Group 1228648" transform="translate(0 9.185)">
              <path id="Path_1218305" data-name="Path 1218305" d="M54.59,344.839a14.1,14.1,0,0,1,.658-4.27,7.424,7.424,0,0,1-2.7-.654A14.116,14.116,0,0,0,65.77,358.948a14.246,14.246,0,0,0,1.464-.075A14.11,14.11,0,0,1,54.59,344.839Z" transform="translate(-51.661 -339.915)" fill="#ef4424"/>
            </g>
            <path id="Path_1218306" data-name="Path 1218306" d="M100.8,300.1a9.481,9.481,0,0,0-3.208.557,7.48,7.48,0,0,1-5.205,4.506A9.526,9.526,0,1,0,100.8,300.1Z" transform="translate(-86.693 -295.52)" fill="#fff"/>
            <path id="Path_1218307" data-name="Path 1218307" d="M94.249,309.629a9.543,9.543,0,0,1,8.041-9.411,9.516,9.516,0,0,0-4.7.44,7.48,7.48,0,0,1-5.205,4.506,9.526,9.526,0,0,0,9.9,13.876A9.542,9.542,0,0,1,94.249,309.629Z" transform="translate(-86.693 -295.52)" fill="#eef5f6"/>
            <g id="Group_1228649" data-name="Group 1228649" transform="translate(31.78 10.808)">
              <path id="Path_1218308" data-name="Path 1218308" d="M335.744,353.952H328.91a.347.347,0,0,0-.287.151l-2.149,3.149,2.149,3.149a.347.347,0,0,0,.287.151h6.835a.347.347,0,0,0,.282-.548l-1.964-2.752,1.964-2.752A.347.347,0,0,0,335.744,353.952Z" transform="translate(-326.474 -353.952)" fill="#fff"/>
            </g>
            <g id="Group_1228650" data-name="Group 1228650" transform="translate(31.78 10.808)">
              <path id="Path_1218309" data-name="Path 1218309" d="M335.744,353.952H328.91a.347.347,0,0,0-.287.151l-2.149,3.149,2.149,3.149a.347.347,0,0,0,.287.151h6.835a.347.347,0,0,0,.282-.548l-1.964-2.752,1.964-2.752A.347.347,0,0,0,335.744,353.952Z" transform="translate(-326.474 -353.952)" fill="#fff"/>
            </g>
            <g id="Group_1228651" data-name="Group 1228651" transform="translate(31.78 10.808)">
              <path id="Path_1218310" data-name="Path 1218310" d="M331.556,360.4l-2.149-3.149,2.149-3.149a.347.347,0,0,1,.287-.151h-2.932a.347.347,0,0,0-.287.151l-2.149,3.149,2.149,3.149a.347.347,0,0,0,.287.151h2.932A.347.347,0,0,1,331.556,360.4Z" transform="translate(-326.475 -353.951)" fill="#eef5f6"/>
            </g>
            <g id="Group_1228652" data-name="Group 1228652" transform="translate(9.162 9.162)">
              <circle id="Ellipse_11554" data-name="Ellipse 11554" cx="4.947" cy="4.947" r="4.947" fill="#fd5426"/>
            </g>
            <g id="Group_1228653" data-name="Group 1228653" transform="translate(9.162 9.162)">
              <path id="Path_1218311" data-name="Path 1218311" d="M133.79,344.661a4.956,4.956,0,0,1,3.5-4.729,4.947,4.947,0,1,0,0,9.459A4.956,4.956,0,0,1,133.79,344.661Z" transform="translate(-130.886 -339.714)" fill="#ef4424"/>
            </g>
          </g>
          <g id="Group_1228657" data-name="Group 1228657" transform="translate(0 24.169)">
            <g id="Group_1228655" data-name="Group 1228655">
              <circle id="Ellipse_11555" data-name="Ellipse 11555" cx="7.468" cy="7.468" r="7.468" fill="#fed402"/>
            </g>
            <g id="Group_1228656" data-name="Group 1228656" transform="translate(0)">
              <path id="Path_1218312" data-name="Path 1218312" d="M25.228,223.97a7.47,7.47,0,0,1,5.521-7.21,7.468,7.468,0,1,0,0,14.42A7.47,7.47,0,0,1,25.228,223.97Z" transform="translate(-21.335 -216.502)" fill="#fac600"/>
            </g>
          </g>
        </g>
        <g id="Group_1228662" data-name="Group 1228662" transform="translate(21.14 5.666)">
          <g id="Group_1228660" data-name="Group 1228660" transform="translate(0 0)">
            <g id="Group_1228659" data-name="Group 1228659">
              <path id="Path_1218313" data-name="Path 1218313" d="M79.533,49.119l-2.414,2.414A.405.405,0,0,0,77,51.82V64.958a.406.406,0,0,0,.406.406H89.659a.406.406,0,0,0,.406-.406V49.406A.406.406,0,0,0,89.659,49H79.82a.405.405,0,0,0-.287.119Z" transform="translate(-77 -49)" fill="#fdf6ec"/>
            </g>
          </g>
          <g id="Group_1228661" data-name="Group 1228661">
            <path id="Path_1218314" data-name="Path 1218314" d="M80.932,64.958V51.82a.406.406,0,0,1,.119-.287l2.414-2.414A.406.406,0,0,1,83.751,49H79.82a.406.406,0,0,0-.287.119l-2.414,2.414A.406.406,0,0,0,77,51.82V64.958a.406.406,0,0,0,.406.406h3.932A.405.405,0,0,1,80.932,64.958Z" transform="translate(-77 -49)" fill="#fef1da"/>
          </g>
        </g>
        <g id="Group_1228663" data-name="Group 1228663" transform="translate(13.835)">
          <path id="Path_1218315" data-name="Path 1218315" d="M68.976,26.655a.867.867,0,0,0,.867-.867V2.024A2.026,2.026,0,0,0,67.82,0h-29.1A2.026,2.026,0,0,0,36.7,2.024V29.911a14.982,14.982,0,0,0-6.778-.461A8.333,8.333,0,1,0,18.033,39.736,14.974,14.974,0,0,0,45.462,51.4H68.417a1.429,1.429,0,0,0,1.427-1.427V29.836a.867.867,0,0,0-1.735,0V49.67H46.272a14.871,14.871,0,0,0,1-4.57h2.262l1.891,2.771a1.213,1.213,0,0,0,1,.53h6.835a1.214,1.214,0,0,0,.988-1.92L59.262,45.1H59.3a.867.867,0,0,0,0-1.735h-.042l.986-1.381a1.214,1.214,0,0,0-.988-1.92H52.425a1.213,1.213,0,0,0-1,.53l-1.891,2.771H47.269a14.873,14.873,0,0,0-.993-4.561h.562a1.216,1.216,0,0,0,1.214-1.214V33.9a1.216,1.216,0,0,0-1.214-1.214H43.149a1.21,1.21,0,0,0-.872.371,15.021,15.021,0,0,0-3.843-2.495V7.335H68.109V25.788a.867.867,0,0,0,.867.867ZM52.7,46.666,51.631,45.1h5.5l1.118,1.566Zm0-4.867h5.549l-1.118,1.566h-5.5ZM15.57,32.5a6.6,6.6,0,1,1,6.6,6.6A6.608,6.608,0,0,1,15.57,32.5Zm16.749,24.97A13.244,13.244,0,0,1,19.63,40.442a8.3,8.3,0,0,0,2.54.4c.109,0,.217,0,.325-.008A10.39,10.39,0,0,0,38,52.931a.867.867,0,1,0-.951-1.451A8.655,8.655,0,0,1,24.5,40.5a8.371,8.371,0,0,0,5.247-4.543,8.657,8.657,0,0,1,11.184,7.4H38.068a5.815,5.815,0,1,0,0,1.735h2.867a8.619,8.619,0,0,1-1.3,3.758.867.867,0,0,0,1.465.93A10.349,10.349,0,0,0,42.676,45.1h2.855A13.258,13.258,0,0,1,32.318,57.474Zm0-12.374H36.3a4.08,4.08,0,1,1,0-1.735H32.318a.867.867,0,0,0,0,1.735ZM43.67,34.422h2.648V37.07h-.85a15.045,15.045,0,0,0-1.8-2.6v-.053Zm1.861,8.943H42.677a10.391,10.391,0,0,0-12.313-9.342,8.244,8.244,0,0,0,.026-2.89,13.236,13.236,0,0,1,15.14,12.232ZM43.639,5.6h-5.2V2.024a.289.289,0,0,1,.289-.289h4.915V5.6Zm1.735,0V1.735H67.82a.289.289,0,0,1,.289.289V5.6Z" transform="translate(-13.835)"/>
          <path id="Path_1218316" data-name="Path 1218316" d="M335.424,87.114H321.911a.867.867,0,0,0,0,1.735h13.513a.867.867,0,1,0,0-1.735Z" transform="translate(-285.518 -77.04)"/>
          <path id="Path_1218317" data-name="Path 1218317" d="M321.911,115.167h8a.867.867,0,1,0,0-1.735h-8a.867.867,0,0,0,0,1.735Z" transform="translate(-285.518 -100.315)"/>
          <path id="Path_1218318" data-name="Path 1218318" d="M335.424,154.226H321.911a.867.867,0,0,0,0,1.735h13.513a.867.867,0,1,0,0-1.735Z" transform="translate(-285.518 -136.391)"/>
          <path id="Path_1218319" data-name="Path 1218319" d="M321.911,182.279h8a.867.867,0,1,0,0-1.735h-8a.867.867,0,1,0,0,1.735Z" transform="translate(-285.518 -159.666)"/>
          <path id="Path_1218320" data-name="Path 1218320" d="M335.424,221.337H321.911a.867.867,0,0,0,0,1.735h13.513a.867.867,0,1,0,0-1.735Z" transform="translate(-285.518 -195.741)"/>
          <path id="Path_1218321" data-name="Path 1218321" d="M321.911,249.391h8a.867.867,0,1,0,0-1.735h-8a.867.867,0,0,0,0,1.735Z" transform="translate(-285.518 -219.017)"/>
          <path id="Path_1218322" data-name="Path 1218322" d="M262.945,82.538a1.216,1.216,0,0,0-1.214-1.214h-3.689a1.216,1.216,0,0,0-1.214,1.214v3.689a1.216,1.216,0,0,0,1.214,1.214h3.689a1.216,1.216,0,0,0,1.214-1.214Zm-1.735,3.168h-2.648V83.059h2.648Z" transform="translate(-228.728 -71.92)"/>
          <path id="Path_1218323" data-name="Path 1218323" d="M262.945,149.65a1.216,1.216,0,0,0-1.214-1.214h-3.689a1.216,1.216,0,0,0-1.214,1.214v3.689a1.216,1.216,0,0,0,1.214,1.214h3.689a1.216,1.216,0,0,0,1.214-1.214Zm-1.735,3.168h-2.648v-2.648h2.648Z" transform="translate(-228.728 -131.271)"/>
          <path id="Path_1218324" data-name="Path 1218324" d="M261.731,215.547h-3.689a1.216,1.216,0,0,0-1.214,1.214v3.689a1.216,1.216,0,0,0,1.214,1.214h3.689a1.216,1.216,0,0,0,1.214-1.214v-3.689A1.216,1.216,0,0,0,261.731,215.547Zm-.52,4.383h-2.648v-2.648h2.648Z" transform="translate(-228.728 -190.621)"/>
          <path id="Path_1218325" data-name="Path 1218325" d="M336.292,289.316a.867.867,0,0,0-.867-.867H321.911a.867.867,0,0,0,0,1.735h13.513A.867.867,0,0,0,336.292,289.316Z" transform="translate(-285.518 -255.092)"/>
          <path id="Path_1218326" data-name="Path 1218326" d="M321.911,314.768a.867.867,0,1,0,0,1.735h8a.867.867,0,1,0,0-1.735Z" transform="translate(-285.518 -278.368)"/>
          <path id="Path_1218327" data-name="Path 1218327" d="M62.9,245.23V244.6a2.318,2.318,0,0,0-.065-4.636h-1.6a.585.585,0,0,1,0-1.17h2.828a.867.867,0,0,0,0-1.735H62.9v-.623a.867.867,0,0,0-1.735,0v.626a2.318,2.318,0,0,0,.065,4.636h1.6a.585.585,0,1,1,0,1.17H60.011a.867.867,0,1,0,0,1.735h1.158v.623a.867.867,0,0,0,1.735,0Z" transform="translate(-53.701 -208.331)"/>
          <path id="Path_1218328" data-name="Path 1218328" d="M70.773,59.6H83.026A1.274,1.274,0,0,0,84.3,58.325v-5.9a.867.867,0,0,0-1.735,0v5.435H71.235V45.378l2.144-2.144h9.186v5.146a.867.867,0,0,0,1.735,0V42.773A1.274,1.274,0,0,0,83.026,41.5H73.187a1.265,1.265,0,0,0-.9.373l-2.414,2.414a1.264,1.264,0,0,0-.373.9V58.325A1.274,1.274,0,0,0,70.773,59.6Z" transform="translate(-63.063 -36.701)"/>
          <path id="Path_1218329" data-name="Path 1218329" d="M108.673,74.185H103.2a.867.867,0,0,0,0,1.735h5.471a.867.867,0,1,0,0-1.735Z" transform="translate(-92.101 -65.606)"/>
          <path id="Path_1218330" data-name="Path 1218330" d="M108.673,99.448H103.2a.867.867,0,0,0,0,1.735h5.471a.867.867,0,1,0,0-1.735Z" transform="translate(-92.101 -87.948)"/>
          <path id="Path_1218331" data-name="Path 1218331" d="M109.54,125.805a.867.867,0,0,0-.867-.867H103.2a.867.867,0,0,0,0,1.735h5.471A.867.867,0,0,0,109.54,125.805Z" transform="translate(-92.101 -110.49)"/>
          <path id="Path_1218332" data-name="Path 1218332" d="M103.2,150.315a.867.867,0,0,0,0,1.735h2.452a.867.867,0,0,0,0-1.735Z" transform="translate(-92.101 -132.932)"/>
        </g>
      </g>
    </g>
  </g>
</svg>
