<svg xmlns="http://www.w3.org/2000/svg" xmlns:xlink="http://www.w3.org/1999/xlink" width="106.16" height="106.16" viewBox="0 0 106.16 106.16">
  <defs>
    <filter id="Path_982547" x="0" y="-0.001" width="106.16" height="106.16" filterUnits="userSpaceOnUse">
      <feOffset dy="3" input="SourceAlpha"/>
      <feGaussianBlur stdDeviation="3" result="blur"/>
      <feFlood flood-opacity="0.161"/>
      <feComposite operator="in" in2="blur"/>
      <feComposite in="SourceGraphic"/>
    </filter>
  </defs>
  <g id="Group_1233126" data-name="Group 1233126" transform="translate(-820.42 -8486.098)">
    <g id="Group_1232983" data-name="Group 1232983">
      <g id="Group_1228507" data-name="Group 1228507" transform="translate(209.5 6605.028)">
        <g id="Group_1206132" data-name="Group 1206132" transform="translate(0 -58.931)">
          <g id="Group_1203794" data-name="Group 1203794" transform="translate(0 -4639.878)">
            <g id="Group_1203345" data-name="Group 1203345" transform="translate(338.92 5174.875)">
              <g id="Group_1177900" data-name="Group 1177900" transform="translate(281 1411.003)">
                <g id="Group_1172010" data-name="Group 1172010" transform="translate(0)">
                  <g id="Group_1171046" data-name="Group 1171046">
                    <g id="Group_1148525" data-name="Group 1148525">
                      <g transform="matrix(1, 0, 0, 1, -9, -6)" filter="url(#Path_982547)">
                        <g id="Path_982547-2" data-name="Path 982547" transform="translate(9 6)" fill="#e9f9fd">
                          <path d="M 44.0802001953125 86.660400390625 C 38.33124923706055 86.660400390625 32.75506210327148 85.53479766845703 27.50652503967285 83.31484985351562 C 22.43628692626953 81.17032623291016 17.88242530822754 78.09992218017578 13.97144985198975 74.18894958496094 C 10.06047534942627 70.27797698974609 6.99007511138916 65.72411346435547 4.845550060272217 60.65387344360352 C 2.625600099563599 55.40533828735352 1.500000238418579 49.82915115356445 1.500000238418579 44.0802001953125 C 1.500000238418579 38.33124923706055 2.625600099563599 32.75506210327148 4.845550060272217 27.50652503967285 C 6.99007511138916 22.43628692626953 10.06047534942627 17.88242530822754 13.97144985198975 13.97144985198975 C 17.88242530822754 10.06047534942627 22.43628692626953 6.99007511138916 27.50652503967285 4.845550060272217 C 32.75506210327148 2.625600099563599 38.33124923706055 1.500000238418579 44.0802001953125 1.500000238418579 C 49.82915115356445 1.500000238418579 55.40533828735352 2.625600099563599 60.65387344360352 4.845550060272217 C 65.72411346435547 6.99007511138916 70.27797698974609 10.06047534942627 74.18894958496094 13.97144985198975 C 78.09992218017578 17.88242530822754 81.17032623291016 22.43628692626953 83.31484985351562 27.50652503967285 C 85.53479766845703 32.75506210327148 86.660400390625 38.33124923706055 86.660400390625 44.0802001953125 C 86.660400390625 49.82915115356445 85.53479766845703 55.40533828735352 83.31484985351562 60.65387344360352 C 81.17032623291016 65.72411346435547 78.09992218017578 70.27797698974609 74.18894958496094 74.18894958496094 C 70.27797698974609 78.09992218017578 65.72411346435547 81.17032623291016 60.65387344360352 83.31484985351562 C 55.40533828735352 85.53479766845703 49.82915115356445 86.660400390625 44.0802001953125 86.660400390625 Z" stroke="none"/>
                          <path d="M 44.0802001953125 3 C 38.53308486938477 3 33.15349960327148 4.085746765136719 28.09085845947266 6.227058410644531 C 23.19941711425781 8.29595947265625 18.80581665039062 11.25841522216797 15.03211212158203 15.03211212158203 C 11.25841522216797 18.80581665039062 8.29595947265625 23.19941711425781 6.227058410644531 28.09085845947266 C 4.085746765136719 33.15349960327148 3 38.53308486938477 3 44.0802001953125 C 3 49.62731552124023 4.085746765136719 55.00691604614258 6.227058410644531 60.06954193115234 C 8.29595947265625 64.96098327636719 11.25841522216797 69.35458374023438 15.03211212158203 73.12828826904297 C 18.80581665039062 76.90198516845703 23.19941711425781 79.86444091796875 28.09085845947266 81.93334197998047 C 33.15349960327148 84.07466125488281 38.53308486938477 85.160400390625 44.0802001953125 85.160400390625 C 49.62731552124023 85.160400390625 55.00691604614258 84.07466125488281 60.06954193115234 81.93334197998047 C 64.96099853515625 79.86444091796875 69.35458374023438 76.90198516845703 73.12828826904297 73.12828826904297 C 76.90198516845703 69.35458374023438 79.86444091796875 64.96099853515625 81.93334197998047 60.06954193115234 C 84.07466125488281 55.00691604614258 85.160400390625 49.62731552124023 85.160400390625 44.0802001953125 C 85.160400390625 38.53308486938477 84.07466125488281 33.15349960327148 81.93334197998047 28.09085845947266 C 79.86444091796875 23.19941711425781 76.90198516845703 18.80581665039062 73.12828826904297 15.03211212158203 C 69.35458374023438 11.25841522216797 64.96098327636719 8.29595947265625 60.06954193115234 6.227058410644531 C 55.00691604614258 4.085746765136719 49.62731552124023 3 44.0802001953125 3 M 44.0802001953125 0 C 68.42502593994141 0 88.160400390625 19.73538970947266 88.160400390625 44.0802001953125 C 88.160400390625 68.42502593994141 68.42502593994141 88.160400390625 44.0802001953125 88.160400390625 C 19.73538970947266 88.160400390625 0 68.42502593994141 0 44.0802001953125 C 0 19.73538970947266 19.73538970947266 0 44.0802001953125 0 Z" stroke="none" fill="#1d7083"/>
                        </g>
                      </g>
                    </g>
                  </g>
                </g>
              </g>
            </g>
          </g>
        </g>
      </g>
      <g id="comunicacion" transform="translate(841.5 8504.172)">
        <path id="Path_1219452" data-name="Path 1219452" d="M17,31H5a2,2,0,0,0-2,2v6a2,2,0,0,0,2,2H9l3,5,1-5h3.94a2,2,0,0,0,2-2.059L18.732,32A2,2,0,0,0,17,31Z" fill="#eaeaea"/>
        <path id="Path_1219453" data-name="Path 1219453" d="M46.06,30h-12a2,2,0,0,0-2,2v6a2,2,0,0,0,2,2h4l3,5,1-5H46a2,2,0,0,0,2-2.059L47.793,31a2,2,0,0,0-1.733-1Z" fill="#eaeaea"/>
        <path id="Path_1219454" data-name="Path 1219454" d="M18,34v6a2,2,0,0,0,2,2h3v4l4-4h3a2,2,0,0,0,2-2V34a2,2,0,0,0-2-2H20A2,2,0,0,0,18,34Z" fill="#90d2fc"/>
        <path id="Path_1219455" data-name="Path 1219455" d="M47,34v6a2,2,0,0,0,2,2h3v4l4-4h3a2,2,0,0,0,2-2V34a2,2,0,0,0-2-2H49A2,2,0,0,0,47,34Z" fill="#90d2fc"/>
        <path id="Path_1219456" data-name="Path 1219456" d="M32,8A20,20,0,0,0,12,28H52A20,20,0,0,0,32,8Z" fill="#a7dbfc"/>
        <path id="Path_1219457" data-name="Path 1219457" d="M42.188,10.812,42,11l-2,3-3,2H34l-1,3,1,3,4,2,3-1h4l3,3,3.949.987a19.961,19.961,0,0,0-9.761-16.175Z" fill="#63bc94"/>
        <path id="Path_1219458" data-name="Path 1219458" d="M18,23l3-1,4,1,3-2-1-3-2-1V14l-3.775-2.831A20,20,0,0,0,12.387,24.1L16,25Z" fill="#63bc94"/>
        <path id="Path_1219459" data-name="Path 1219459" d="M33,56H31a4,4,0,0,0-4,4v2H37V60A4,4,0,0,0,33,56Z" fill="#eaeaea"/>
        <path id="Path_1219460" data-name="Path 1219460" d="M43,56H41a4,4,0,0,0-4,4v2H47V60A4,4,0,0,0,43,56Z" fill="#a8a8a8"/>
        <path id="Path_1219461" data-name="Path 1219461" d="M53,56H51a4,4,0,0,0-4,4v2H57V60A4,4,0,0,0,53,56Z" fill="#eaeaea"/>
        <path id="Path_1219462" data-name="Path 1219462" d="M13,56H11a4,4,0,0,0-4,4v2H17V60A4,4,0,0,0,13,56Z" fill="#eaeaea"/>
        <path id="Path_1219463" data-name="Path 1219463" d="M23,56H21a4,4,0,0,0-4,4v2H27V60A4,4,0,0,0,23,56Z" fill="#a8a8a8"/>
        <g id="Group_1232982" data-name="Group 1232982">
          <circle id="Ellipse_11575" data-name="Ellipse 11575" cx="3" cy="3" r="3" transform="translate(29 50)" fill="#ffd6a8"/>
          <circle id="Ellipse_11576" data-name="Ellipse 11576" cx="3" cy="3" r="3" transform="translate(39 50)" fill="#ffd6a8"/>
          <circle id="Ellipse_11577" data-name="Ellipse 11577" cx="3" cy="3" r="3" transform="translate(49 50)" fill="#ffd6a8"/>
          <circle id="Ellipse_11578" data-name="Ellipse 11578" cx="3" cy="3" r="3" transform="translate(9 50)" fill="#ffd6a8"/>
          <circle id="Ellipse_11579" data-name="Ellipse 11579" cx="3" cy="3" r="3" transform="translate(19 50)" fill="#ffd6a8"/>
        </g>
        <path id="Path_1219464" data-name="Path 1219464" d="M62,34a3,3,0,0,0-3-3H49c-.061,0-.118.014-.179.018A2.993,2.993,0,0,0,46,29H34a3,3,0,0,0-2.884,2.22A2.984,2.984,0,0,0,30,31H20a3.005,3.005,0,0,0-.714.095A2.99,2.99,0,0,0,17,30H5a3,3,0,0,0-3,3v6a3,3,0,0,0,3,3H8.434l2.709,4.515a1,1,0,0,0,1.838-.319l.838-4.2H17.78A2.983,2.983,0,0,0,20,43h2v3a1,1,0,0,0,.617.924A.987.987,0,0,0,23,47a1,1,0,0,0,.707-.293L27.414,43H30a3,3,0,0,0,2.884-2.22A2.984,2.984,0,0,0,34,41h3.434l2.709,4.515a1,1,0,0,0,1.838-.319l.838-4.2h3.365A3,3,0,0,0,49,43h2v3a1,1,0,0,0,.617.924A.987.987,0,0,0,52,47a1,1,0,0,0,.707-.293L56.414,43H59a3,3,0,0,0,3-3ZM17,34v6H13a1,1,0,0,0-.98.8l-.493,2.464L9.858,40.486A1,1,0,0,0,9,40H5a1,1,0,0,1-1-1V33a1,1,0,0,1,1-1H17a.994.994,0,0,1,.6.214A2.97,2.97,0,0,0,17,34Zm14,4v2a1,1,0,0,1-1,1H27a1,1,0,0,0-.707.293L24,43.586V42a1,1,0,0,0-1-1H20a1,1,0,0,1-1-1V34a1,1,0,0,1,1-1H30a1,1,0,0,1,1,1Zm15-4v5H42a1,1,0,0,0-.98.8l-.493,2.464-1.669-2.782A1,1,0,0,0,38,39H34a1,1,0,0,1-1-1V32a1,1,0,0,1,1-1H46a.987.987,0,0,1,.962.812A2.984,2.984,0,0,0,46,34Zm14,6a1,1,0,0,1-1,1H56a1,1,0,0,0-.707.293L53,43.586V42a1,1,0,0,0-1-1H49a1,1,0,0,1-1-1V34a1,1,0,0,1,1-1H59a1,1,0,0,1,1,1Z"/>
        <path id="Path_1219465" data-name="Path 1219465" d="M11,28h2a18.914,18.914,0,0,1,.21-2.667l2.548.637a1,1,0,0,0,.949-.263l1.833-1.833,2.5-.833,3.718.929a1,1,0,0,0,.8-.138l3-2a1,1,0,0,0,.394-1.148l-1-3a1,1,0,0,0-.5-.578L26,16.382V14a1,1,0,0,0-.4-.8l-2.581-1.936a18.9,18.9,0,0,1,17.691-.131l-1.43,2.146L36.7,15H34a1,1,0,0,0-.948.684l-1,3a.994.994,0,0,0,0,.633l1,3a1,1,0,0,0,.5.578l4,2a.985.985,0,0,0,.764.054L41.162,24h3.424l2.707,2.707a1,1,0,0,0,.465.263l3.231.808c0,.074.011.147.011.222h2a21,21,0,0,0-42,0ZM24,14.5V17a1,1,0,0,0,.553.9l1.63.814.627,1.883-2,1.331-3.571-.893a.994.994,0,0,0-.559.021l-3,1a1.011,1.011,0,0,0-.391.241l-1.6,1.6-2.1-.524a19.038,19.038,0,0,1,7.6-10.975Zm18.44-2.357a19.007,19.007,0,0,1,8.4,13.538L48.511,25.1l-2.805-2.8A.992.992,0,0,0,45,22H41a1,1,0,0,0-.316.052l-2.606.868-3.26-1.629L34.054,19l.667-2H37a1.006,1.006,0,0,0,.555-.168l3-2a1.014,1.014,0,0,0,.277-.277Z"/>
        <path id="Path_1219466" data-name="Path 1219466" d="M25.106,5.005c.616-.186,1.241-.345,1.856-.475l-.414-1.957c-.669.142-1.348.315-2.017.516Z"/>
        <path id="Path_1219467" data-name="Path 1219467" d="M40.195,5.436c.6.218,1.2.462,1.778.729l.83-1.82c-.63-.287-1.277-.553-1.925-.787Z"/>
        <path id="Path_1219468" data-name="Path 1219468" d="M44.661,5.285l-.977,1.746c.559.312,1.109.649,1.639,1l1.111-1.662c-.572-.383-1.168-.749-1.773-1.087Z"/>
        <path id="Path_1219469" data-name="Path 1219469" d="M52.045,14.8c.353.533.686,1.085.992,1.642l1.752-.963c-.332-.6-.693-1.2-1.074-1.78Z"/>
        <path id="Path_1219470" data-name="Path 1219470" d="M6,28H8c0-.643.025-1.288.076-1.917l-1.994-.16C6.027,26.6,6,27.305,6,28Z"/>
        <path id="Path_1219471" data-name="Path 1219471" d="M11.143,12.475l1.6,1.195c.381-.511.786-1.013,1.207-1.491l-1.5-1.32C11.995,11.378,11.555,11.922,11.143,12.475Z"/>
        <path id="Path_1219472" data-name="Path 1219472" d="M38.368,4.854,38.9,2.926c-.661-.183-1.343-.34-2.025-.47L36.5,4.421c.63.12,1.259.266,1.869.433Z"/>
        <path id="Path_1219473" data-name="Path 1219473" d="M16.706,9.5,15.431,7.963c-.53.438-1.051.906-1.547,1.388l1.393,1.436C15.735,10.34,16.216,9.909,16.706,9.5Z"/>
        <path id="Path_1219474" data-name="Path 1219474" d="M57.994,27.406c-.016-.688-.059-1.386-.129-2.074l-1.99.2c.065.636.1,1.28.119,1.914Z"/>
        <path id="Path_1219475" data-name="Path 1219475" d="M53.9,18.154c.261.58.5,1.178.717,1.778l1.883-.672c-.232-.651-.493-1.3-.775-1.927Z"/>
        <path id="Path_1219476" data-name="Path 1219476" d="M11.66,15.255,9.969,14.189c-.366.581-.715,1.188-1.036,1.806l1.773.924c.3-.569.617-1.129.954-1.664Z"/>
        <path id="Path_1219477" data-name="Path 1219477" d="M55.183,21.765c.166.617.308,1.246.423,1.87l1.967-.361c-.124-.677-.278-1.359-.458-2.028Z"/>
        <path id="Path_1219478" data-name="Path 1219478" d="M9.888,18.655l-1.842-.779c-.27.638-.517,1.293-.733,1.947l1.9.629C9.411,19.849,9.639,19.243,9.888,18.655Z"/>
        <path id="Path_1219479" data-name="Path 1219479" d="M46.875,9.164c.495.393.986.812,1.457,1.251l1.361-1.467c-.511-.473-1.041-.928-1.578-1.353Z"/>
        <path id="Path_1219480" data-name="Path 1219480" d="M19.846,7.3,18.83,5.577c-.591.348-1.179.727-1.747,1.124L18.231,8.34C18.756,7.972,19.3,7.622,19.846,7.3Z"/>
        <path id="Path_1219481" data-name="Path 1219481" d="M34.6,4.139l.215-1.988c-.681-.074-1.378-.121-2.074-.141l-.055,2c.642.017,1.286.06,1.914.129Z"/>
        <path id="Path_1219482" data-name="Path 1219482" d="M49.686,11.776c.425.462.843.955,1.242,1.465L52.5,12.007c-.432-.55-.884-1.083-1.344-1.584Z"/>
        <path id="Path_1219483" data-name="Path 1219483" d="M22.565,3.765c-.646.252-1.286.531-1.9.832l.873,1.8c.571-.277,1.163-.535,1.758-.768Z"/>
        <path id="Path_1219484" data-name="Path 1219484" d="M28.854,4.2c.631-.082,1.274-.141,1.912-.173l-.1-2c-.69.035-1.387.1-2.07.188Z"/>
        <path id="Path_1219485" data-name="Path 1219485" d="M8.683,22.3,6.74,21.821c-.162.666-.3,1.352-.411,2.037l1.975.318c.1-.633.228-1.266.379-1.88Z"/>
        <path id="Path_1219486" data-name="Path 1219486" d="M58,60a5,5,0,0,0-2.889-4.516A3.961,3.961,0,0,0,56,53a4,4,0,0,0-8,0,3.961,3.961,0,0,0,.889,2.484A5.008,5.008,0,0,0,47,57.031a5.016,5.016,0,0,0-1.889-1.547A3.961,3.961,0,0,0,46,53a4,4,0,0,0-8,0,3.961,3.961,0,0,0,.889,2.484A5.008,5.008,0,0,0,37,57.031a5.016,5.016,0,0,0-1.889-1.547A3.961,3.961,0,0,0,36,53a4,4,0,0,0-8,0,3.961,3.961,0,0,0,.889,2.484A5.008,5.008,0,0,0,27,57.031a5.016,5.016,0,0,0-1.889-1.547A3.961,3.961,0,0,0,26,53a4,4,0,0,0-8,0,3.961,3.961,0,0,0,.889,2.484A5.008,5.008,0,0,0,17,57.031a5.016,5.016,0,0,0-1.889-1.547A3.961,3.961,0,0,0,16,53a4,4,0,0,0-8,0,3.961,3.961,0,0,0,.889,2.484A5,5,0,0,0,6,60v2H8V60a3,3,0,0,1,3-3h2a3,3,0,0,1,3,3v2h2V60a3,3,0,0,1,3-3h2a3,3,0,0,1,3,3v2h2V60a3,3,0,0,1,3-3h2a3,3,0,0,1,3,3v2h2V60a3,3,0,0,1,3-3h2a3,3,0,0,1,3,3v2h2V60a3,3,0,0,1,3-3h2a3,3,0,0,1,3,3v2h2ZM12,55a2,2,0,1,1,2-2A2,2,0,0,1,12,55Zm10,0a2,2,0,1,1,2-2A2,2,0,0,1,22,55Zm10,0a2,2,0,1,1,2-2A2,2,0,0,1,32,55Zm10,0a2,2,0,1,1,2-2A2,2,0,0,1,42,55Zm10,0a2,2,0,1,1,2-2A2,2,0,0,1,52,55Z"/>
      </g>
    </g>
  </g>
</svg>
