<svg xmlns="http://www.w3.org/2000/svg" xmlns:xlink="http://www.w3.org/1999/xlink" width="113" height="113" viewBox="0 0 113 113">
  <defs>
    <filter id="Path_982547" x="0" y="0" width="113" height="113" filterUnits="userSpaceOnUse">
      <feOffset dy="3" input="SourceAlpha"/>
      <feGaussianBlur stdDeviation="3" result="blur"/>
      <feFlood flood-opacity="0.161"/>
      <feComposite operator="in" in2="blur"/>
      <feComposite in="SourceGraphic"/>
    </filter>
  </defs>
  <g id="Group_1233108" data-name="Group 1233108" transform="translate(969.49 -3402.436)">
    <g id="Group_1230901" data-name="Group 1230901">
      <g id="Group_1228314" data-name="Group 1228314" transform="translate(-1660.49 -1228.064)">
        <g id="Group_1228166" data-name="Group 1228166" transform="translate(-1 2821)">
          <g id="Group_1223803" data-name="Group 1223803" transform="translate(701 1815.5)">
            <g id="Group_1208038" data-name="Group 1208038" transform="translate(0 0)">
              <g id="Group_1202104" data-name="Group 1202104">
                <g id="Group_1201923" data-name="Group 1201923" transform="translate(0 0)">
                  <g id="Group_1176928" data-name="Group 1176928" transform="translate(0 0)">
                    <g id="Group_1172322" data-name="Group 1172322" transform="translate(0 0)">
                      <g id="Group_1164700" data-name="Group 1164700">
                        <g id="Group_1160931" data-name="Group 1160931">
                          <g id="Group_1160749" data-name="Group 1160749">
                            <g id="Group_1158891" data-name="Group 1158891">
                              <g id="Group_1157406" data-name="Group 1157406">
                                <g id="Group_1155793" data-name="Group 1155793">
                                  <g id="Group_1154704" data-name="Group 1154704">
                                    <g id="Group_1150790" data-name="Group 1150790">
                                      <g id="Group_1154214" data-name="Group 1154214" transform="translate(0)">
                                        <g id="Group_1152583" data-name="Group 1152583">
                                          <g id="Group_1146973" data-name="Group 1146973">
                                            <g id="Group_1146954" data-name="Group 1146954">
                                              <g transform="matrix(1, 0, 0, 1, -9, -6)" filter="url(#Path_982547)">
                                                <g id="Path_982547-2" data-name="Path 982547" transform="translate(9 6)" fill="#ffe1b9">
                                                  <path d="M 47.50000762939453 93.49986267089844 C 41.28937911987305 93.49986267089844 35.26534271240234 92.28383636474609 29.59519386291504 89.88558197021484 C 24.11772727966309 87.56880950927734 19.19814109802246 84.25183868408203 14.97310066223145 80.02679443359375 C 10.74804782867432 75.8017578125 7.431074142456055 70.88218688964844 5.114300727844238 65.40471649169922 C 2.716034412384033 59.73458480834961 1.500007629394531 53.71054458618164 1.500007629394531 47.49993133544922 C 1.500007629394531 41.2893180847168 2.716034412384033 35.26527786254883 5.114300727844238 29.59514427185059 C 7.431074142456055 24.11767768859863 10.74804782867432 19.19810485839844 14.97310066223145 14.97306442260742 C 19.19814109802246 10.74802494049072 24.11772727966309 7.431051254272461 29.59519386291504 5.114277839660645 C 35.26534271240234 2.71602463722229 41.28937911987305 1.499997973442078 47.50000762939453 1.499997973442078 C 53.71063613891602 1.499997973442078 59.73467254638672 2.71602463722229 65.40482330322266 5.114277839660645 C 70.88228607177734 7.431051254272461 75.80187225341797 10.74802494049072 80.02691650390625 14.97306442260742 C 84.25196838378906 19.19810485839844 87.56893920898438 24.11767768859863 89.88571166992188 29.59514427185059 C 92.28398132324219 35.26527786254883 93.50000762939453 41.2893180847168 93.50000762939453 47.49993133544922 C 93.50000762939453 53.71054458618164 92.28398132324219 59.73458480834961 89.88571166992188 65.40471649169922 C 87.56893920898438 70.88218688964844 84.25196838378906 75.8017578125 80.02691650390625 80.02679443359375 C 75.80187225341797 84.25183868408203 70.88228607177734 87.56880950927734 65.40482330322266 89.88558197021484 C 59.73467254638672 92.28383636474609 53.71063613891602 93.49986267089844 47.50000762939453 93.49986267089844 Z" stroke="none"/>
                                                  <path d="M 47.50000762939453 2.999992370605469 C 41.4912223815918 2.999992370605469 35.66377639770508 4.1761474609375 30.17951202392578 6.495796203613281 C 24.88085174560547 8.736930847167969 20.12152862548828 11.94596099853516 16.03376007080078 16.03372955322266 C 11.94597625732422 20.12148284912109 8.736961364746094 24.88080596923828 6.495803833007812 30.17946624755859 C 4.176162719726562 35.66371536254883 3.000007629394531 41.49116134643555 3.000007629394531 47.49993133544922 C 3.000007629394531 53.50870132446289 4.176162719726562 59.33614730834961 6.495803833007812 64.82038879394531 C 8.736961364746094 70.11905670166016 11.94597625732422 74.87836456298828 16.03376007080078 78.96613311767578 C 20.12152862548828 83.05390167236328 24.88085174560547 86.26291656494141 30.17951202392578 88.50406646728516 C 35.66377639770508 90.82369995117188 41.4912223815918 91.99985504150391 47.50000762939453 91.99985504150391 C 53.50879287719727 91.99985504150391 59.33623886108398 90.82369995117188 64.82049560546875 88.50406646728516 C 70.11916351318359 86.26291656494141 74.87848663330078 83.05390167236328 78.96625518798828 78.96613311767578 C 83.05403900146484 74.87836456298828 86.26305389404297 70.11905670166016 88.50421142578125 64.82038879394531 C 90.8238525390625 59.33614730834961 92.00000762939453 53.50870132446289 92.00000762939453 47.49993133544922 C 92.00000762939453 41.49116134643555 90.8238525390625 35.66371536254883 88.50421142578125 30.17946624755859 C 86.26305389404297 24.88080596923828 83.05403900146484 20.12148284912109 78.96625518798828 16.03372955322266 C 74.87848663330078 11.94596099853516 70.11916351318359 8.736930847167969 64.82049560546875 6.495796203613281 C 59.33623886108398 4.1761474609375 53.50879287719727 2.999992370605469 47.50000762939453 2.999992370605469 M 47.50000762939453 -7.62939453125e-06 C 73.73352813720703 -7.62939453125e-06 95.00000762939453 21.26644134521484 95.00000762939453 47.49993133544922 C 95.00000762939453 73.73342132568359 73.73352813720703 94.99985504150391 47.50000762939453 94.99985504150391 C 21.26648712158203 94.99985504150391 7.62939453125e-06 73.73342132568359 7.62939453125e-06 47.49993133544922 C 7.62939453125e-06 21.26644134521484 21.26648712158203 -7.62939453125e-06 47.50000762939453 -7.62939453125e-06 Z" stroke="none" fill="#ff9d1c"/>
                                                </g>
                                              </g>
                                            </g>
                                          </g>
                                        </g>
                                      </g>
                                    </g>
                                  </g>
                                </g>
                              </g>
                            </g>
                          </g>
                        </g>
                      </g>
                    </g>
                  </g>
                </g>
              </g>
            </g>
          </g>
        </g>
      </g>
      <g id="inteligencia-emocional_4_" data-name="inteligencia-emocional (4)" transform="translate(-948.137 3411.764)">
        <g id="Group_1230899" data-name="Group 1230899" transform="translate(1.044 10.948)">
          <g id="Group_1230898" data-name="Group 1230898" transform="translate(0 0)">
            <g id="Group_1230891" data-name="Group 1230891" transform="translate(8.905)">
              <path id="Path_1218756" data-name="Path 1218756" d="M73.451,67.986a10.76,10.76,0,0,1,9.6,15.632,25.629,25.629,0,0,0,3.942,2.124,10.765,10.765,0,0,1,20.307,0,25.635,25.635,0,0,0,3.942-2.124,10.752,10.752,0,0,1,10.912-15.55,25.7,25.7,0,1,0-50.014,0A10.835,10.835,0,0,1,73.451,67.986Z" transform="translate(-71.449 -33.782)" fill="#ffeee6"/>
              <g id="Group_1230888" data-name="Group 1230888" transform="translate(26.994 2.682)">
                <path id="Path_1218757" data-name="Path 1218757" d="M283.857,61.355a25.673,25.673,0,0,1-1.259,7.961,10.856,10.856,0,0,1,5.105-1.268,10.981,10.981,0,0,1,1.344.086A25.722,25.722,0,0,0,265.3,36.664,25.709,25.709,0,0,1,283.857,61.355Z" transform="translate(-265.303 -36.664)" fill="#ffdfcf"/>
              </g>
              <g id="Group_1230890" data-name="Group 1230890" transform="translate(10.883)">
                <path id="Path_1218758" data-name="Path 1218758" d="M209.06,24.295h2.663a11.127,11.127,0,0,1,6.047,1.784v-1.4A7.279,7.279,0,0,0,210.49,17.4h-.2a7.279,7.279,0,0,0-7.279,7.279v1.4a11.128,11.128,0,0,1,6.047-1.784Z" transform="translate(-195.576 -17.404)" fill="#554e56"/>
                <g id="Group_1230889" data-name="Group 1230889" transform="translate(14.764)">
                  <path id="Path_1218759" data-name="Path 1218759" d="M255.782,17.4h-.15a7.258,7.258,0,0,1,2.323,5.33v1.6a11.14,11.14,0,0,1,5.106,1.743v-1.4a7.279,7.279,0,0,0-7.279-7.279Z" transform="translate(-255.632 -17.404)" fill="#433f43"/>
                </g>
                <path id="Path_1218760" data-name="Path 1218760" d="M165.194,81.554h1.513l.013-.125a8.886,8.886,0,0,1,.194-1.151,1.491,1.491,0,0,1,1.721-1.139,10.3,10.3,0,0,0,1.835.165,10.182,10.182,0,0,0,8.588-4.685,1.5,1.5,0,0,1,1.793-.581,8.841,8.841,0,0,1,5.644,7.391l.013.125h1.513a3.243,3.243,0,0,1,1.431.331V77.909a11.661,11.661,0,0,0-11.512-11.8h-2.663a11.66,11.66,0,0,0-11.512,11.8v3.976A3.241,3.241,0,0,1,165.194,81.554Z" transform="translate(-161.793 -59.324)" fill="#685e68"/>
                <path id="Path_1218761" data-name="Path 1218761" d="M275.247,74.736a8.832,8.832,0,0,1,4.687,6.955l.013.125h1.513a3.243,3.243,0,0,1,1.431.331V78.172a11.688,11.688,0,0,0-10.571-11.761,11.926,11.926,0,0,1,2.928,7.862Z" transform="translate(-255.232 -59.587)" fill="#554e56"/>
                <path id="Path_1218762" data-name="Path 1218762" d="M153.5,300.405a10.7,10.7,0,0,1-1.166,4.864,25.643,25.643,0,0,0,3.941,2.124,10.765,10.765,0,0,1,20.306,0,25.627,25.627,0,0,0,3.941-2.124,10.74,10.74,0,0,1,.4-10.444,8.7,8.7,0,0,0-3.833-.885H155.772a8.7,8.7,0,0,0-3.833.885,10.7,10.7,0,0,1,1.562,5.58Z" transform="translate(-151.614 -255.433)" fill="#af66da"/>
                <path id="Path_1218763" data-name="Path 1218763" d="M317.9,346.979a25.631,25.631,0,0,0,3.941-2.124,10.7,10.7,0,0,1-1.166-4.864c0-.021,0-.041,0-.061a25.824,25.824,0,0,1-4.558,3.869A10.757,10.757,0,0,1,317.9,346.979Z" transform="translate(-292.933 -295.018)" fill="#9857bd"/>
                <path id="Path_1218764" data-name="Path 1218764" d="M203.342,282.857a10.729,10.729,0,0,1,9.732,0,7.716,7.716,0,0,0,2.866-6.007v-1.426H212.58a.546.546,0,0,1-.547-.547v-2.449a9.924,9.924,0,0,1-7.652,0v2.449a.547.547,0,0,1-.547.547h-3.359v1.426A7.715,7.715,0,0,0,203.342,282.857Z" transform="translate(-193.393 -236.917)" fill="#a44f3e"/>
                <path id="Path_1218765" data-name="Path 1218765" d="M326.763,176.045h-1.529a8.721,8.721,0,0,1,.05.919V180.3a9.909,9.909,0,0,1-.333,2.55h1.812a3.4,3.4,0,0,0,0-6.8Z" transform="translate(-300.535 -153.955)" fill="#a44f3e"/>
                <path id="Path_1218766" data-name="Path 1218766" d="M154.486,180.3v-3.334a8.915,8.915,0,0,1,.05-.919h-1.529a3.4,3.4,0,0,0,0,6.8h1.812A9.912,9.912,0,0,1,154.486,180.3Z" transform="translate(-149.606 -153.956)" fill="#bb5d4c"/>
                <path id="Path_1218767" data-name="Path 1218767" d="M198.022,121.455a1.634,1.634,0,0,0-1.961.635,10.087,10.087,0,0,1-10.281,4.458,1.639,1.639,0,0,0-1.881,1.244,9.017,9.017,0,0,0-.244,2.089v3.334a10.074,10.074,0,1,0,20.148,0v-3.334A9.032,9.032,0,0,0,198.022,121.455Z" transform="translate(-178.914 -106.872)" fill="#c96e59"/>
                <path id="Path_1218768" data-name="Path 1218768" d="M258,125.074V137.4a10.075,10.075,0,0,1-5.719,9.086q.258.013.518.013a10.074,10.074,0,0,0,10.074-10.074v-3.334A9.027,9.027,0,0,0,258,125.074Z" transform="translate(-237.98 -110.081)" fill="#bb5d4c"/>
              </g>
            </g>
            <g id="Group_1230896" data-name="Group 1230896" transform="translate(0 34.065)">
              <g id="Group_1230892" data-name="Group 1230892" transform="translate(47.392)">
                <circle id="Ellipse_11563" data-name="Ellipse 11563" cx="10.907" cy="10.907" r="10.907" fill="#ffe177"/>
                <path id="Path_1218769" data-name="Path 1218769" d="M387.449,264.7a10.906,10.906,0,0,1-9.543,19.123,10.906,10.906,0,1,0,9.543-19.123Z" transform="translate(-373.72 -264.333)" fill="#ffd15b"/>
              </g>
              <g id="Group_1230895" data-name="Group 1230895">
                <circle id="Ellipse_11564" data-name="Ellipse 11564" cx="10.907" cy="10.907" r="10.907" fill="#fe4fb7"/>
                <path id="Path_1218770" data-name="Path 1218770" d="M47.1,264.7a10.906,10.906,0,0,1-9.543,19.123A10.906,10.906,0,1,0,47.1,264.7Z" transform="translate(-33.376 -264.333)" fill="#fe2aa8"/>
                <g id="Group_1230893" data-name="Group 1230893" transform="translate(4.891 7.066)">
                  <path id="Path_1218771" data-name="Path 1218771" d="M47.22,313.579,48.64,315l1.42-1.42a2.692,2.692,0,1,1,3.807,3.807l-4.66,4.66a.8.8,0,0,1-1.134,0l-4.66-4.66a2.692,2.692,0,1,1,3.807-3.807Z" transform="translate(-42.624 -312.791)" fill="#fff"/>
                </g>
                <g id="Group_1230894" data-name="Group 1230894" transform="translate(8.957 7.066)">
                  <path id="Path_1218772" data-name="Path 1218772" d="M79,313.579a2.691,2.691,0,0,0-2.671-.677,2.69,2.69,0,0,1-.253,3.51l-4.253,4.253,1.382,1.382a.8.8,0,0,0,1.134,0l4.66-4.66A2.692,2.692,0,0,0,79,313.579Z" transform="translate(-71.827 -312.79)" fill="#f3f0f3"/>
                </g>
              </g>
            </g>
            <g id="Group_1230897" data-name="Group 1230897" transform="translate(23.696 44.634)">
              <circle id="Ellipse_11565" data-name="Ellipse 11565" cx="10.907" cy="10.907" r="10.907" fill="#dff6fd"/>
              <path id="Path_1218773" data-name="Path 1218773" d="M217.277,340.6a10.906,10.906,0,0,1-9.543,19.123,10.906,10.906,0,1,0,9.543-19.123Z" transform="translate(-203.548 -340.232)" fill="#c8effe"/>
              <path id="Path_1218774" data-name="Path 1218774" d="M216.911,438.237h-3.476a4.867,4.867,0,0,0-4.867,4.867v.752a10.9,10.9,0,0,0,13.21,0V443.1A4.867,4.867,0,0,0,216.911,438.237Z" transform="translate(-204.266 -424.271)" fill="#05e39c"/>
              <path id="Path_1218775" data-name="Path 1218775" d="M220.189,447.36a10.916,10.916,0,0,1-11.621,4.289v.059a10.9,10.9,0,0,0,13.21,0v-.752A4.854,4.854,0,0,0,220.189,447.36Z" transform="translate(-204.266 -432.124)" fill="#0ed290"/>
              <circle id="Ellipse_11566" data-name="Ellipse 11566" cx="4.311" cy="4.311" r="4.311" transform="translate(6.596 6.596)" fill="#ffdfcf"/>
              <path id="Path_1218776" data-name="Path 1218776" d="M239.09,385.313c-.063,0-.126,0-.188,0a4.31,4.31,0,0,1-2.547,7.637,4.311,4.311,0,1,0,2.736-7.642Z" transform="translate(-228.183 -378.717)" fill="#ffcebf"/>
            </g>
          </g>
        </g>
        <g id="Group_1230900" data-name="Group 1230900" transform="translate(0 9.904)">
          <path id="Path_1218777" data-name="Path 1218777" d="M221.115,177.838v-.746a1.044,1.044,0,1,0-2.089,0v.746a1.044,1.044,0,1,0,2.089,0Z" transform="translate(-188.527 -152.913)"/>
          <path id="Path_1218778" data-name="Path 1218778" d="M279.018,178.883a1.044,1.044,0,0,0,1.044-1.044v-.746a1.044,1.044,0,0,0-2.089,0v.746A1.044,1.044,0,0,0,279.018,178.883Z" transform="translate(-239.267 -152.913)"/>
          <path id="Path_1218779" data-name="Path 1218779" d="M238.771,184.421l.805.383a1.044,1.044,0,0,0,.9-1.886l-.8-.383a.245.245,0,0,1-.008-.438,2.621,2.621,0,0,0,1.409-2.328v-.534a1.044,1.044,0,1,0-2.089,0v.534a.539.539,0,0,1-.289.478,2.334,2.334,0,0,0,.08,4.174Z" transform="translate(-204.378 -154.758)"/>
          <path id="Path_1218780" data-name="Path 1218780" d="M236.509,234.336a1.044,1.044,0,0,0-1-1.836,4.415,4.415,0,0,1-4.227,0,1.044,1.044,0,1,0-1,1.836,6.495,6.495,0,0,0,6.22,0Z" transform="translate(-197.752 -201.395)"/>
          <path id="Path_1218781" data-name="Path 1218781" d="M395.651,308.876a1.044,1.044,0,0,0,1.044-1.044V306.8a1.044,1.044,0,1,0-2.089,0v1.031A1.044,1.044,0,0,0,395.651,308.876Z" transform="translate(-339.659 -264.56)"/>
          <path id="Path_1218782" data-name="Path 1218782" d="M443.782,305.756a1.044,1.044,0,0,0-1.044,1.044v1.031a1.044,1.044,0,0,0,2.089,0V306.8A1.044,1.044,0,0,0,443.782,305.756Z" transform="translate(-381.088 -264.56)"/>
          <path id="Path_1218783" data-name="Path 1218783" d="M403.678,345.285a1.045,1.045,0,0,0-1.141.938,2.086,2.086,0,0,1-4.151,0,1.044,1.044,0,1,0-2.079.2,4.175,4.175,0,0,0,8.309,0A1.045,1.045,0,0,0,403.678,345.285Z" transform="translate(-341.119 -298.579)"/>
          <path id="Path_1218784" data-name="Path 1218784" d="M48.15,306.385a3.737,3.737,0,0,0-5.284,0l-.682.682-.682-.682a3.736,3.736,0,0,0-5.284,5.284l4.66,4.66a1.846,1.846,0,0,0,2.611,0l4.66-4.66a3.737,3.737,0,0,0,0-5.284Zm-1.477,3.807-4.489,4.489L37.7,310.192a1.648,1.648,0,0,1,2.33-2.33l1.42,1.42a1.044,1.044,0,0,0,1.477,0l1.42-1.42a1.648,1.648,0,1,1,2.33,2.33Z" transform="translate(-30.233 -264.159)"/>
          <path id="Path_1218785" data-name="Path 1218785" d="M61.928,44.254A26.949,26.949,0,0,0,62.39,39.3a26.464,26.464,0,0,0-5.753-16.572,26.894,26.894,0,0,0-14.074-9.265A8.318,8.318,0,0,0,35.746,9.9h-.2a8.318,8.318,0,0,0-6.817,3.557A26.888,26.888,0,0,0,12.4,26.067,1.044,1.044,0,1,0,14.217,27.1,24.819,24.819,0,0,1,27.525,16.016a8.3,8.3,0,0,0-.3,2.212v.709a12.928,12.928,0,0,0-5.465,10.6v3.216a4.445,4.445,0,0,0,2.475,8.138h.895a11.176,11.176,0,0,0,5.648,6.4v1.127H24.99a9.709,9.709,0,0,0-3.312.578,11.941,11.941,0,0,0-9.727-5.02c-.171,0-.341.006-.511.013a24.773,24.773,0,0,1,.855-12.608,1.044,1.044,0,0,0-1.978-.671,26.848,26.848,0,0,0-.95,13.551A11.95,11.95,0,1,0,22.037,62.319c.67.4,1.36.764,2.062,1.1a11.86,11.86,0,0,0-.371,2.229,1.044,1.044,0,1,0,2.084.145,9.861,9.861,0,1,1,17.3,7.133,5.887,5.887,0,0,0-2.868-3.69,5.355,5.355,0,1,0-9.188,0,5.888,5.888,0,0,0-2.871,3.705,9.929,9.929,0,0,1-1.693-2.793,1.044,1.044,0,0,0-1.939.776A11.951,11.951,0,0,0,47.2,63.419c.7-.337,1.391-.7,2.06-1.1A11.948,11.948,0,1,0,61.928,44.254ZM35.647,63.223a3.266,3.266,0,1,1-3.266,3.266,3.27,3.27,0,0,1,3.266-3.266Zm-5.56,11.422v-.23a3.807,3.807,0,0,1,2.456-3.567,5.337,5.337,0,0,0,6.209,0,3.807,3.807,0,0,1,2.456,3.567v.214a9.874,9.874,0,0,1-11.121.016Zm5.461-62.652h.2a6.242,6.242,0,0,1,6.214,5.748,12.245,12.245,0,0,0-4.982-1.055H34.316a12.245,12.245,0,0,0-4.982,1.055,6.242,6.242,0,0,1,6.214-5.748Zm-11.7,17.54A10.629,10.629,0,0,1,34.316,18.774h2.663A10.629,10.629,0,0,1,47.447,29.533v2.479c-.127-.011-.256-.018-.386-.018h-.493a10.149,10.149,0,0,0-6.251-7.437A2.688,2.688,0,0,0,37.1,25.6a9,9,0,0,1-7.594,4.143,9.108,9.108,0,0,1-1.623-.146A2.683,2.683,0,0,0,24.8,31.627c-.029.122-.055.244-.079.367h-.489c-.13,0-.259.007-.386.018V29.533Zm22.918,7.759V34.083h.3a2.358,2.358,0,1,1,0,4.715h-.4A11.174,11.174,0,0,0,46.765,37.292ZM24.234,38.8a2.358,2.358,0,0,1,0-4.715h.3v3.209a11.169,11.169,0,0,0,.1,1.506h-.4Zm2.384-1.506V33.958a7.985,7.985,0,0,1,.216-1.847.6.6,0,0,1,.576-.467.581.581,0,0,1,.1.009,11.208,11.208,0,0,0,2,.179,11.084,11.084,0,0,0,9.349-5.1.591.591,0,0,1,.707-.227h0a8.036,8.036,0,0,1,5.112,7.452v3.334a9.029,9.029,0,0,1-18.059,0ZM11.951,65.783a9.863,9.863,0,1,1,9.862-9.862A9.874,9.874,0,0,1,11.951,65.783ZM24.82,61.448q-.928-.455-1.816-.986a11.924,11.924,0,0,0-.242-9.633,7.659,7.659,0,0,1,2.229-.33h1.882v.382a8.755,8.755,0,0,0,2.11,5.705A12.048,12.048,0,0,0,24.82,61.448Zm6.042-5.9a6.672,6.672,0,0,1-1.9-4.666V50.5h2.315a1.593,1.593,0,0,0,1.591-1.591v-.851a11.152,11.152,0,0,0,5.563,0v.851A1.593,1.593,0,0,0,40.02,50.5h2.315v.382a6.673,6.673,0,0,1-1.9,4.662,11.882,11.882,0,0,0-9.576,0Zm15.617,5.9a12.029,12.029,0,0,0-4.158-4.868,8.756,8.756,0,0,0,2.1-5.7V50.5H46.3a7.66,7.66,0,0,1,2.229.33,11.924,11.924,0,0,0-.242,9.633Q47.407,60.991,46.479,61.447Zm12.864,4.336A9.859,9.859,0,0,1,51.869,49.49a1.044,1.044,0,0,0-1.583-1.363q-.358.416-.674.86a9.711,9.711,0,0,0-3.307-.577H40.517V47.284a11.175,11.175,0,0,0,5.648-6.4h.895a4.445,4.445,0,0,0,2.475-8.138V29.533a12.928,12.928,0,0,0-5.465-10.6v-.709a8.3,8.3,0,0,0-.3-2.212A24.835,24.835,0,0,1,55,24.02,24.4,24.4,0,0,1,60.3,39.3a24.857,24.857,0,0,1-.447,4.686c-.17-.007-.34-.013-.511-.013a11.871,11.871,0,0,0-4.745.981,1.044,1.044,0,1,0,.83,1.917,9.863,9.863,0,1,1,3.915,18.916Z" transform="translate(0 -9.904)"/>
        </g>
      </g>
    </g>
  </g>
</svg>
