<svg xmlns="http://www.w3.org/2000/svg" xmlns:xlink="http://www.w3.org/1999/xlink" width="108" height="108" viewBox="0 0 108 108">
  <defs>
    <filter id="Path_904820" x="0" y="0" width="108" height="108" filterUnits="userSpaceOnUse">
      <feOffset dy="3" input="SourceAlpha"/>
      <feGaussianBlur stdDeviation="3" result="blur"/>
      <feFlood flood-opacity="0.161"/>
      <feComposite operator="in" in2="blur"/>
      <feComposite in="SourceGraphic"/>
    </filter>
  </defs>
  <g id="Group_1233152" data-name="Group 1233152" transform="translate(-617 -806)">
    <g id="Group_1233096" data-name="Group 1233096">
      <g id="Group_1228624" data-name="Group 1228624">
        <g id="Group_1228307" data-name="Group 1228307" transform="translate(0 -3017.921)">
          <g id="Group_1228100" data-name="Group 1228100" transform="translate(626 3829.921)">
            <g id="Group_1221597" data-name="Group 1221597" transform="translate(0 0)">
              <g id="Group_1219744" data-name="Group 1219744">
                <g id="Group_1202418" data-name="Group 1202418">
                  <g id="Group_1177315" data-name="Group 1177315">
                    <g id="Group_1173585" data-name="Group 1173585">
                      <g id="Group_1173428" data-name="Group 1173428">
                        <g id="Group_1171958" data-name="Group 1171958">
                          <g id="Group_1167341" data-name="Group 1167341">
                            <g id="Group_1166792" data-name="Group 1166792">
                              <g transform="matrix(1, 0, 0, 1, -9, -6)" filter="url(#Path_904820)">
                                <g id="Path_904820-2" data-name="Path 904820" transform="translate(9 6)" fill="#e9f9fd">
                                  <path d="M 44.99999618530273 88.49995422363281 C 39.12687301635742 88.49995422363281 33.43022155761719 87.35002899169922 28.06829643249512 85.08213043212891 C 22.88852119445801 82.89126586914062 18.23629570007324 79.75455474853516 14.24084663391113 75.75910186767578 C 10.24540901184082 71.76364898681641 7.108683586120605 67.11144256591797 4.917821407318115 61.93166351318359 C 2.649921178817749 56.56974029541016 1.499996185302734 50.87310028076172 1.499996185302734 44.99997711181641 C 1.499996185302734 39.12685394287109 2.649921178817749 33.43021392822266 4.917821407318115 28.06828880310059 C 7.108683586120605 22.88851547241211 10.24540901184082 18.23630142211914 14.24084663391113 14.24085235595703 C 18.23629570007324 10.24540233612061 22.88852119445801 7.108689785003662 28.06829643249512 4.917827129364014 C 33.43022155761719 2.649927139282227 39.12687301635742 1.500002145767212 44.99999618530273 1.500002145767212 C 50.87311935424805 1.500002145767212 56.56977081298828 2.649927139282227 61.93169784545898 4.917827129364014 C 67.11147308349609 7.108689785003662 71.76369476318359 10.24540233612061 75.75914764404297 14.24085235595703 C 79.75458526611328 18.23630142211914 82.89131164550781 22.88851547241211 85.08216857910156 28.06828880310059 C 87.35007476806641 33.43021392822266 88.5 39.12685394287109 88.5 44.99997711181641 C 88.5 50.87310028076172 87.35007476806641 56.56974029541016 85.08216857910156 61.93166351318359 C 82.89131164550781 67.11144256591797 79.75458526611328 71.76364898681641 75.75914764404297 75.75910186767578 C 71.76369476318359 79.75455474853516 67.11147308349609 82.89126586914062 61.93169784545898 85.08213043212891 C 56.56977081298828 87.35002899169922 50.87311935424805 88.49995422363281 44.99999618530273 88.49995422363281 Z" stroke="none"/>
                                  <path d="M 44.99999618530273 2.999992370605469 C 39.32870864868164 2.999992370605469 33.82865142822266 4.11004638671875 28.65262603759766 6.299331665039062 C 23.65165710449219 8.414566040039062 19.15968322753906 11.44333648681641 15.301513671875 15.30150604248047 C 11.44333648681641 19.15967559814453 8.414566040039062 23.65163421630859 6.299339294433594 28.65260696411133 C 4.110054016113281 33.82864761352539 2.999992370605469 39.32868957519531 2.999992370605469 44.99997711181641 C 2.999992370605469 50.6712646484375 4.110054016113281 56.17130661010742 6.299339294433594 61.34733581542969 C 8.414566040039062 66.34830474853516 11.44333648681641 70.84026336669922 15.301513671875 74.69844818115234 C 19.15968322753906 78.55661773681641 23.65165710449219 81.58537292480469 28.65262603759766 83.70062255859375 C 33.82865142822266 85.889892578125 39.32870864868164 86.99994659423828 44.99999618530273 86.99994659423828 C 50.67128372192383 86.99994659423828 56.17134094238281 85.889892578125 61.34736633300781 83.70062255859375 C 66.34834289550781 81.58537292480469 70.84030914306641 78.55661773681641 74.69847869873047 74.69844818115234 C 78.55665588378906 70.84026336669922 81.58542633056641 66.34830474853516 83.70065307617188 61.34733581542969 C 85.88993835449219 56.17130661010742 87 50.6712646484375 87 44.99997711181641 C 87 39.32868957519531 85.88993835449219 33.82864761352539 83.70065307617188 28.65260696411133 C 81.58542633056641 23.65163421630859 78.55665588378906 19.15967559814453 74.69847869873047 15.30150604248047 C 70.84030914306641 11.44333648681641 66.34834289550781 8.414566040039062 61.34736633300781 6.299331665039062 C 56.17134094238281 4.11004638671875 50.67128372192383 2.999992370605469 44.99999618530273 2.999992370605469 M 44.99999618530273 -7.62939453125e-06 C 69.85281372070312 -7.62939453125e-06 90 20.14717864990234 90 44.99997711181641 C 90 69.85277557373047 69.85281372070312 89.99994659423828 44.99999618530273 89.99994659423828 C 20.14717864990234 89.99994659423828 -7.62939453125e-06 69.85277557373047 -7.62939453125e-06 44.99997711181641 C -7.62939453125e-06 20.14717864990234 20.14717864990234 -7.62939453125e-06 44.99999618530273 -7.62939453125e-06 Z" stroke="none" fill="#1d7083"/>
                                </g>
                              </g>
                            </g>
                          </g>
                        </g>
                      </g>
                    </g>
                  </g>
                </g>
              </g>
            </g>
          </g>
        </g>
        <g id="motivacion_2_" data-name="motivacion (2)" transform="translate(638.881 824.746)">
          <path id="Path_1218263" data-name="Path 1218263" d="M151.111,107.528a3.764,3.764,0,0,0-3.764,3.764v-3.764a3.764,3.764,0,0,0-7.528,0v-3.764a3.764,3.764,0,1,0-7.528,0v3.764a3.764,3.764,0,0,0-7.528,0v6.4A3.764,3.764,0,0,0,121,117.69v9.41c0,7.528,7.528,11.292,7.528,11.292v12.044h18.819V138.392s7.528-3.764,7.528-11.292V111.292A3.764,3.764,0,0,0,151.111,107.528Z" transform="translate(-105.819 -87.454)" fill="#ffcebf"/>
          <path id="Path_1218264" data-name="Path 1218264" d="M247.255,6.273a1.255,1.255,0,0,0,1.255-1.255V1.255a1.255,1.255,0,1,0-2.509,0V5.019A1.255,1.255,0,0,0,247.255,6.273Z" transform="translate(-215.136)"/>
          <path id="Path_1218265" data-name="Path 1218265" d="M457.255,248.509h4.517a1.255,1.255,0,1,0,0-2.509h-4.517a1.255,1.255,0,1,0,0,2.509Z" transform="translate(-398.789 -215.136)"/>
          <path id="Path_1218266" data-name="Path 1218266" d="M1.255,248.509H5.771a1.255,1.255,0,1,0,0-2.509H1.255a1.255,1.255,0,1,0,0,2.509Z" transform="translate(0 -215.136)"/>
          <path id="Path_1218267" data-name="Path 1218267" d="M396.632,75.093l2.662-2.662a1.255,1.255,0,0,0-1.774-1.774l-2.662,2.662a1.255,1.255,0,0,0,1.774,1.774Z" transform="translate(-344.996 -61.471)"/>
          <path id="Path_1218268" data-name="Path 1218268" d="M79.319,75.093a1.255,1.255,0,1,0,1.774-1.774l-2.662-2.662a1.255,1.255,0,0,0-1.774,1.774Z" transform="translate(-66.718 -61.471)"/>
          <circle id="Ellipse_11553" data-name="Ellipse 11553" cx="1.308" cy="1.308" r="1.308" transform="translate(30.51 61.893)"/>
          <path id="Path_1218269" data-name="Path 1218269" d="M111,108.945v9.41c0,6.877,5.535,10.826,7.528,12.025v11.311a1.255,1.255,0,0,0,1.255,1.255h3.764a1.255,1.255,0,1,0,0-2.509h-2.509v-10.79a1.258,1.258,0,0,0-.691-1.121c-.068-.035-6.836-3.53-6.836-10.171v-9.41a2.514,2.514,0,0,1,2.509-2.511h13.675a6.284,6.284,0,0,1-6.147,5.02h-3.764a1.255,1.255,0,0,0,0,2.509A10.048,10.048,0,0,1,129.819,124a1.255,1.255,0,1,0,2.509,0,6.28,6.28,0,0,1,6.273-6.273,1.255,1.255,0,0,0,0-2.509,8.781,8.781,0,0,0-7.277,3.87,12.626,12.626,0,0,0-4.781-5.652,8.832,8.832,0,0,0,4.948-4.519,4.993,4.993,0,0,0,3.346,1.277c.322,0,.65.005.953.005a8.754,8.754,0,0,0,1.688-.119,5.013,5.013,0,0,0,7.4,3.208v5.066c0,6.64-6.768,10.136-6.834,10.17a1.255,1.255,0,0,0-.694,1.122v10.79h-2.509a1.255,1.255,0,1,0,0,2.509H138.6a1.255,1.255,0,0,0,1.255-1.255V130.38c1.993-1.2,7.528-5.148,7.528-12.025V102.546a5.015,5.015,0,0,0-7.56-4.325,5.014,5.014,0,0,0-7.528-3.764,5.018,5.018,0,0,0-9.973,0,5.015,5.015,0,0,0-7.56,4.325v5.3a5.028,5.028,0,0,0-3.764,4.86Zm31.366-8.908a2.512,2.512,0,0,1,2.509,2.509v6.4a2.509,2.509,0,0,1-5.019,0v-6.4A2.512,2.512,0,0,1,142.366,100.037Zm-7.528-3.764a2.512,2.512,0,0,1,2.509,2.509v8.281a.874.874,0,0,1-.072.456,5.263,5.263,0,0,1-1.929.174l-.508,0a2.512,2.512,0,0,1-2.509-2.509v-6.4A2.512,2.512,0,0,1,134.838,96.273ZM124.8,95.019a2.509,2.509,0,1,1,5.019,0v8.908H124.8Zm-5.019,1.255a2.512,2.512,0,0,1,2.509,2.509v5.144h-5.019V98.782A2.512,2.512,0,0,1,119.782,96.273Z" transform="translate(-97.074 -78.708)"/>
        </g>
      </g>
    </g>
  </g>
</svg>
