<svg xmlns="http://www.w3.org/2000/svg" xmlns:xlink="http://www.w3.org/1999/xlink" width="113" height="113" viewBox="0 0 113 113">
  <defs>
    <filter id="Path_982547" x="0" y="0" width="113" height="113" filterUnits="userSpaceOnUse">
      <feOffset dy="3" input="SourceAlpha"/>
      <feGaussianBlur stdDeviation="3" result="blur"/>
      <feFlood flood-opacity="0.161"/>
      <feComposite operator="in" in2="blur"/>
      <feComposite in="SourceGraphic"/>
    </filter>
  </defs>
  <g id="Group_1233107" data-name="Group 1233107" transform="translate(1284.49 -3402.437)">
    <g id="Group_1230887" data-name="Group 1230887">
      <g id="Group_1228315" data-name="Group 1228315" transform="translate(-1660.49 -1228.064)">
        <g id="Group_1228165" data-name="Group 1228165" transform="translate(0 2821)">
          <g id="Group_1223802" data-name="Group 1223802" transform="translate(385 1815.5)">
            <g id="Group_1208028" data-name="Group 1208028" transform="translate(0 0)">
              <g id="Group_1177675" data-name="Group 1177675" transform="translate(0 0)">
                <g id="Group_1176928" data-name="Group 1176928" transform="translate(0 0)">
                  <g id="Group_1172322" data-name="Group 1172322" transform="translate(0 0)">
                    <g id="Group_1164700" data-name="Group 1164700">
                      <g id="Group_1160931" data-name="Group 1160931">
                        <g id="Group_1160749" data-name="Group 1160749">
                          <g id="Group_1158891" data-name="Group 1158891">
                            <g id="Group_1157406" data-name="Group 1157406">
                              <g id="Group_1155793" data-name="Group 1155793">
                                <g id="Group_1154704" data-name="Group 1154704">
                                  <g id="Group_1150790" data-name="Group 1150790">
                                    <g id="Group_1154214" data-name="Group 1154214" transform="translate(0)">
                                      <g id="Group_1152583" data-name="Group 1152583">
                                        <g id="Group_1146973" data-name="Group 1146973">
                                          <g id="Group_1146954" data-name="Group 1146954">
                                            <g transform="matrix(1, 0, 0, 1, -9, -6)" filter="url(#Path_982547)">
                                              <g id="Path_982547-2" data-name="Path 982547" transform="translate(9 6)" fill="#ffe1b9">
                                                <path d="M 47.50000762939453 93.49986267089844 C 41.28937911987305 93.49986267089844 35.26534271240234 92.28383636474609 29.59519386291504 89.88558197021484 C 24.11772727966309 87.56880950927734 19.19814109802246 84.25183868408203 14.97310066223145 80.02679443359375 C 10.74804782867432 75.8017578125 7.431074142456055 70.88218688964844 5.114300727844238 65.40471649169922 C 2.716034412384033 59.73458480834961 1.500007629394531 53.71054458618164 1.500007629394531 47.49993133544922 C 1.500007629394531 41.2893180847168 2.716034412384033 35.26527786254883 5.114300727844238 29.59514427185059 C 7.431074142456055 24.11767768859863 10.74804782867432 19.19810485839844 14.97310066223145 14.97306442260742 C 19.19814109802246 10.74802494049072 24.11772727966309 7.431051254272461 29.59519386291504 5.114277839660645 C 35.26534271240234 2.71602463722229 41.28937911987305 1.499997973442078 47.50000762939453 1.499997973442078 C 53.71063613891602 1.499997973442078 59.73467254638672 2.71602463722229 65.40482330322266 5.114277839660645 C 70.88228607177734 7.431051254272461 75.80187225341797 10.74802494049072 80.02691650390625 14.97306442260742 C 84.25196838378906 19.19810485839844 87.56893920898438 24.11767768859863 89.88571166992188 29.59514427185059 C 92.28398132324219 35.26527786254883 93.50000762939453 41.2893180847168 93.50000762939453 47.49993133544922 C 93.50000762939453 53.71054458618164 92.28398132324219 59.73458480834961 89.88571166992188 65.40471649169922 C 87.56893920898438 70.88218688964844 84.25196838378906 75.8017578125 80.02691650390625 80.02679443359375 C 75.80187225341797 84.25183868408203 70.88228607177734 87.56880950927734 65.40482330322266 89.88558197021484 C 59.73467254638672 92.28383636474609 53.71063613891602 93.49986267089844 47.50000762939453 93.49986267089844 Z" stroke="none"/>
                                                <path d="M 47.50000762939453 2.999992370605469 C 41.4912223815918 2.999992370605469 35.66377639770508 4.1761474609375 30.17951202392578 6.495796203613281 C 24.88085174560547 8.736930847167969 20.12152862548828 11.94596099853516 16.03376007080078 16.03372955322266 C 11.94597625732422 20.12148284912109 8.736961364746094 24.88080596923828 6.495803833007812 30.17946624755859 C 4.176162719726562 35.66371536254883 3.000007629394531 41.49116134643555 3.000007629394531 47.49993133544922 C 3.000007629394531 53.50870132446289 4.176162719726562 59.33614730834961 6.495803833007812 64.82038879394531 C 8.736961364746094 70.11905670166016 11.94597625732422 74.87836456298828 16.03376007080078 78.96613311767578 C 20.12152862548828 83.05390167236328 24.88085174560547 86.26291656494141 30.17951202392578 88.50406646728516 C 35.66377639770508 90.82369995117188 41.4912223815918 91.99985504150391 47.50000762939453 91.99985504150391 C 53.50879287719727 91.99985504150391 59.33623886108398 90.82369995117188 64.82049560546875 88.50406646728516 C 70.11916351318359 86.26291656494141 74.87848663330078 83.05390167236328 78.96625518798828 78.96613311767578 C 83.05403900146484 74.87836456298828 86.26305389404297 70.11905670166016 88.50421142578125 64.82038879394531 C 90.8238525390625 59.33614730834961 92.00000762939453 53.50870132446289 92.00000762939453 47.49993133544922 C 92.00000762939453 41.49116134643555 90.8238525390625 35.66371536254883 88.50421142578125 30.17946624755859 C 86.26305389404297 24.88080596923828 83.05403900146484 20.12148284912109 78.96625518798828 16.03372955322266 C 74.87848663330078 11.94596099853516 70.11916351318359 8.736930847167969 64.82049560546875 6.495796203613281 C 59.33623886108398 4.1761474609375 53.50879287719727 2.999992370605469 47.50000762939453 2.999992370605469 M 47.50000762939453 -7.62939453125e-06 C 73.73352813720703 -7.62939453125e-06 95.00000762939453 21.26644134521484 95.00000762939453 47.49993133544922 C 95.00000762939453 73.73342132568359 73.73352813720703 94.99985504150391 47.50000762939453 94.99985504150391 C 21.26648712158203 94.99985504150391 7.62939453125e-06 73.73342132568359 7.62939453125e-06 47.49993133544922 C 7.62939453125e-06 21.26644134521484 21.26648712158203 -7.62939453125e-06 47.50000762939453 -7.62939453125e-06 Z" stroke="none" fill="#ff9d1c"/>
                                              </g>
                                            </g>
                                          </g>
                                        </g>
                                      </g>
                                    </g>
                                  </g>
                                </g>
                              </g>
                            </g>
                          </g>
                        </g>
                      </g>
                    </g>
                  </g>
                </g>
              </g>
            </g>
          </g>
        </g>
      </g>
      <g id="solucion_1_" data-name="solucion (1)" transform="translate(-1259 3425)">
        <g id="Group_1230885" data-name="Group 1230885">
          <g id="Group_1230875" data-name="Group 1230875">
            <circle id="Ellipse_11561" data-name="Ellipse 11561" cx="4" cy="4" r="4" transform="translate(27 1)" fill="#e6e9ed"/>
          </g>
          <g id="Group_1230876" data-name="Group 1230876">
            <circle id="Ellipse_11562" data-name="Ellipse 11562" cx="8" cy="8" r="8" transform="translate(45 4)" fill="#e6e9ed"/>
          </g>
          <g id="Group_1230877" data-name="Group 1230877">
            <path id="Path_1218736" data-name="Path 1218736" d="M15.95,46.05A7.872,7.872,0,0,1,17,50a8.016,8.016,0,1,1-1.05-3.95Z" fill="#e6e9ed"/>
          </g>
          <g id="Group_1230878" data-name="Group 1230878">
            <path id="Path_1218737" data-name="Path 1218737" d="M55,53v3a3,3,0,0,1-6,0V53Z" fill="#ccd1d9"/>
          </g>
          <g id="Group_1230879" data-name="Group 1230879">
            <path id="Path_1218738" data-name="Path 1218738" d="M13,23v3a3,3,0,0,1-6,0V23Z" fill="#ccd1d9"/>
          </g>
          <g id="Group_1230880" data-name="Group 1230880">
            <path id="Path_1218739" data-name="Path 1218739" d="M21.34,21a2,2,0,0,0,1.42-3.41l-.25-.25,2.83-2.83.25.25A2,2,0,0,0,29,13.34V13h4v.34a2,2,0,0,0,3.41,1.42l.25-.25,2.83,2.83-.25.25A2,2,0,0,0,40.66,21H41v4h-.34a2,2,0,0,0-1.42,3.41l.25.25-2.83,2.83-.25-.25A2,2,0,0,0,33,32.66V33a2.006,2.006,0,0,0-2,2V27a4,4,0,1,0-3.2-1.6A2.027,2.027,0,0,0,27,27v3.65a1.961,1.961,0,0,0-1.41.59l-.25.25-2.83-2.83.25-.25A2,2,0,0,0,21.34,25H21V21Z" fill="#fcd770"/>
          </g>
          <g id="Group_1230881" data-name="Group 1230881">
            <path id="Path_1218740" data-name="Path 1218740" d="M55,53H49l-4.2-5.6a9,9,0,1,1,14.4,0Z" fill="#ffeaa7"/>
          </g>
          <g id="Group_1230882" data-name="Group 1230882">
            <path id="Path_1218741" data-name="Path 1218741" d="M13,23H7L2.8,17.4a9,9,0,1,1,14.48-.12.834.834,0,0,1-.08.12Z" fill="#ffeaa7"/>
          </g>
          <g id="Group_1230883" data-name="Group 1230883">
            <path id="Path_1218742" data-name="Path 1218742" d="M36,51l1,10H25l1-10Z" fill="#ff826e"/>
          </g>
          <g id="Group_1230884" data-name="Group 1230884">
            <path id="Path_1218743" data-name="Path 1218743" d="M35,37a2.006,2.006,0,0,1,2-2,2.015,2.015,0,0,1,2,2v6.76A10.25,10.25,0,0,1,36,51H26a10.25,10.25,0,0,1-3-7.24V36a1,1,0,0,1,1-1,3,3,0,0,1,3,3V27a2,2,0,0,1,2-2,2.015,2.015,0,0,1,2,2v8a2.006,2.006,0,0,1,2-2,2.015,2.015,0,0,1,2,2Z" fill="#f0d0b4"/>
          </g>
        </g>
        <g id="Group_1230886" data-name="Group 1230886">
          <path id="Path_1218744" data-name="Path 1218744" d="M10.333,6H9.667A3.671,3.671,0,0,0,6,9.667V10H8V9.667A1.669,1.669,0,0,1,9.667,8h.666a1.667,1.667,0,0,1,1,3L9.2,12.6A3.015,3.015,0,0,0,8,15v1h2V15a1.006,1.006,0,0,1,.4-.8l2.135-1.6a3.667,3.667,0,0,0-2.2-6.6Z"/>
          <path id="Path_1218745" data-name="Path 1218745" d="M8,18h2v2H8Z"/>
          <path id="Path_1218746" data-name="Path 1218746" d="M30,4h2V6H30Z"/>
          <path id="Path_1218747" data-name="Path 1218747" d="M52,32a10.008,10.008,0,0,0-9.9,8.683l-2.1-2.1V37a2.99,2.99,0,0,0-4.116-2.78,3,3,0,0,0-1.78-2,1.048,1.048,0,0,1,.513-.484.983.983,0,0,1,1.091.218l.95.948L40.9,28.655l-.951-.949A1,1,0,0,1,40.657,26H42V21.414l3.9-3.9a9.026,9.026,0,1,0-1.07-1.758L40.6,19.989a.994.994,0,0,1-.865-.606.978.978,0,0,1,.216-1.088l.952-.95L36.658,13.1l-.951.949A1,1,0,0,1,34,13.343V12H32V9.9a5,5,0,1,0-2,0V12H28v1.343a1,1,0,0,1-1.708.706l-.95-.948L21.1,17.344l.951.949a.982.982,0,0,1,.217,1.089.993.993,0,0,1-.865.606l-2.839-2.839A10,10,0,1,0,0,12a10.063,10.063,0,0,0,2,6l4,5.333V26a4,4,0,0,0,8,0V23.333l3.394-4.526L20,21.414V26h1.343a1,1,0,0,1,.709,1.706l-.952.95L25.342,32.9,26,32.242v2.314A3.959,3.959,0,0,0,24,34a2,2,0,0,0-2,2v2.586l-5.9,5.9a9.026,9.026,0,1,0,1.07,1.758L22,41.414v2.343a11.15,11.15,0,0,0,2.961,7.583L23.895,62H38.106L37.04,51.341A11.158,11.158,0,0,0,40,43.757V41.414l2.123,2.123A10.057,10.057,0,0,0,44,48l4,5.333V56a4,4,0,0,0,8,0V53.333L60,48a10,10,0,0,0-8-16ZM53,5a7,7,0,1,1-7,7A7.008,7.008,0,0,1,53,5ZM28,5a3,3,0,1,1,3,3A3,3,0,0,1,28,5ZM9,57a7,7,0,1,1,7-7A7.008,7.008,0,0,1,9,57ZM28.223,24.115A2.969,2.969,0,0,1,28,23a3,3,0,1,1,3.78,2.884,2.938,2.938,0,0,0-3.557-1.769ZM10,28a2,2,0,0,1-2-2V24h4v2A2,2,0,0,1,10,28Zm2.5-6h-5L3.6,16.8A8,8,0,1,1,18,12a8.051,8.051,0,0,1-1.6,4.8Zm12.893,8.121L23.88,28.609A3.008,3.008,0,0,0,22,24.07V21.931a3.008,3.008,0,0,0,1.88-4.539l1.512-1.512A3.008,3.008,0,0,0,29.931,14H32.07a3.008,3.008,0,0,0,4.539,1.88l1.512,1.512A3.008,3.008,0,0,0,40,21.931V24.07a3.008,3.008,0,0,0-1.88,4.539l-1.512,1.512a3,3,0,0,0-4.569,2.052L32,32.185V27.9a5,5,0,1,0-5.449-2.621A2.967,2.967,0,0,0,26,27v2.839a2.748,2.748,0,0,0-.607.282ZM26.1,60l.8-8h8.189l.8,8ZM38,43.757A9.172,9.172,0,0,1,35.559,50H26.441A9.172,9.172,0,0,1,24,43.757V36a2,2,0,0,1,2,2v2h2V27a1,1,0,0,1,2,0V40h2V35a1,1,0,0,1,2,0v5h2V37a1,1,0,0,1,2,0ZM52,58a2,2,0,0,1-2-2V54h4v2A2,2,0,0,1,52,58Zm6.4-11.2L54.5,52h-5l-3.9-5.2a8,8,0,1,1,12.8,0Z"/>
          <path id="Path_1218748" data-name="Path 1218748" d="M52.333,36h-.666A3.671,3.671,0,0,0,48,39.667V40h2v-.333A1.669,1.669,0,0,1,51.667,38h.666a1.667,1.667,0,0,1,1,3L51.2,42.6A3.015,3.015,0,0,0,50,45v1h2V45a1.006,1.006,0,0,1,.4-.8l2.135-1.6a3.667,3.667,0,0,0-2.2-6.6Z"/>
          <path id="Path_1218749" data-name="Path 1218749" d="M50,48h2v2H50Z"/>
          <path id="Path_1218750" data-name="Path 1218750" d="M4,49H6v2H4Z"/>
          <path id="Path_1218751" data-name="Path 1218751" d="M8,49h2v2H8Z"/>
          <path id="Path_1218752" data-name="Path 1218752" d="M12,49h2v2H12Z"/>
          <path id="Path_1218753" data-name="Path 1218753" d="M48,11h2v2H48Z"/>
          <path id="Path_1218754" data-name="Path 1218754" d="M52,11h2v2H52Z"/>
          <path id="Path_1218755" data-name="Path 1218755" d="M56,11h2v2H56Z"/>
        </g>
      </g>
    </g>
  </g>
</svg>
