<svg xmlns="http://www.w3.org/2000/svg" xmlns:xlink="http://www.w3.org/1999/xlink" width="106.16" height="106.16" viewBox="0 0 106.16 106.16">
  <defs>
    <filter id="Path_982547" x="0" y="-0.001" width="106.16" height="106.16" filterUnits="userSpaceOnUse">
      <feOffset dy="3" input="SourceAlpha"/>
      <feGaussianBlur stdDeviation="3" result="blur"/>
      <feFlood flood-opacity="0.161"/>
      <feComposite operator="in" in2="blur"/>
      <feComposite in="SourceGraphic"/>
    </filter>
  </defs>
  <g id="Group_1233128" data-name="Group 1233128" transform="translate(-820.42 -8655.027)">
    <g id="Group_1232992" data-name="Group 1232992">
      <g id="Group_1228509" data-name="Group 1228509" transform="translate(209.5 6773.958)">
        <g id="Group_1206132" data-name="Group 1206132" transform="translate(0 -58.931)">
          <g id="Group_1203794" data-name="Group 1203794" transform="translate(0 -4639.878)">
            <g id="Group_1203345" data-name="Group 1203345" transform="translate(338.92 5174.875)">
              <g id="Group_1177900" data-name="Group 1177900" transform="translate(281 1411.003)">
                <g id="Group_1172010" data-name="Group 1172010" transform="translate(0)">
                  <g id="Group_1171046" data-name="Group 1171046">
                    <g id="Group_1148525" data-name="Group 1148525">
                      <g transform="matrix(1, 0, 0, 1, -9, -6)" filter="url(#Path_982547)">
                        <g id="Path_982547-2" data-name="Path 982547" transform="translate(9 6)" fill="#e9f9fd">
                          <path d="M 44.0802001953125 86.660400390625 C 38.33124923706055 86.660400390625 32.75506210327148 85.53479766845703 27.50652503967285 83.31484985351562 C 22.43628692626953 81.17032623291016 17.88242530822754 78.09992218017578 13.97144985198975 74.18894958496094 C 10.06047534942627 70.27797698974609 6.99007511138916 65.72411346435547 4.845550060272217 60.65387344360352 C 2.625600099563599 55.40533828735352 1.500000238418579 49.82915115356445 1.500000238418579 44.0802001953125 C 1.500000238418579 38.33124923706055 2.625600099563599 32.75506210327148 4.845550060272217 27.50652503967285 C 6.99007511138916 22.43628692626953 10.06047534942627 17.88242530822754 13.97144985198975 13.97144985198975 C 17.88242530822754 10.06047534942627 22.43628692626953 6.99007511138916 27.50652503967285 4.845550060272217 C 32.75506210327148 2.625600099563599 38.33124923706055 1.500000238418579 44.0802001953125 1.500000238418579 C 49.82915115356445 1.500000238418579 55.40533828735352 2.625600099563599 60.65387344360352 4.845550060272217 C 65.72411346435547 6.99007511138916 70.27797698974609 10.06047534942627 74.18894958496094 13.97144985198975 C 78.09992218017578 17.88242530822754 81.17032623291016 22.43628692626953 83.31484985351562 27.50652503967285 C 85.53479766845703 32.75506210327148 86.660400390625 38.33124923706055 86.660400390625 44.0802001953125 C 86.660400390625 49.82915115356445 85.53479766845703 55.40533828735352 83.31484985351562 60.65387344360352 C 81.17032623291016 65.72411346435547 78.09992218017578 70.27797698974609 74.18894958496094 74.18894958496094 C 70.27797698974609 78.09992218017578 65.72411346435547 81.17032623291016 60.65387344360352 83.31484985351562 C 55.40533828735352 85.53479766845703 49.82915115356445 86.660400390625 44.0802001953125 86.660400390625 Z" stroke="none"/>
                          <path d="M 44.0802001953125 3 C 38.53308486938477 3 33.15349960327148 4.085746765136719 28.09085845947266 6.227058410644531 C 23.19941711425781 8.29595947265625 18.80581665039062 11.25841522216797 15.03211212158203 15.03211212158203 C 11.25841522216797 18.80581665039062 8.29595947265625 23.19941711425781 6.227058410644531 28.09085845947266 C 4.085746765136719 33.15349960327148 3 38.53308486938477 3 44.0802001953125 C 3 49.62731552124023 4.085746765136719 55.00691604614258 6.227058410644531 60.06954193115234 C 8.29595947265625 64.96098327636719 11.25841522216797 69.35458374023438 15.03211212158203 73.12828826904297 C 18.80581665039062 76.90198516845703 23.19941711425781 79.86444091796875 28.09085845947266 81.93334197998047 C 33.15349960327148 84.07466125488281 38.53308486938477 85.160400390625 44.0802001953125 85.160400390625 C 49.62731552124023 85.160400390625 55.00691604614258 84.07466125488281 60.06954193115234 81.93334197998047 C 64.96099853515625 79.86444091796875 69.35458374023438 76.90198516845703 73.12828826904297 73.12828826904297 C 76.90198516845703 69.35458374023438 79.86444091796875 64.96099853515625 81.93334197998047 60.06954193115234 C 84.07466125488281 55.00691604614258 85.160400390625 49.62731552124023 85.160400390625 44.0802001953125 C 85.160400390625 38.53308486938477 84.07466125488281 33.15349960327148 81.93334197998047 28.09085845947266 C 79.86444091796875 23.19941711425781 76.90198516845703 18.80581665039062 73.12828826904297 15.03211212158203 C 69.35458374023438 11.25841522216797 64.96098327636719 8.29595947265625 60.06954193115234 6.227058410644531 C 55.00691604614258 4.085746765136719 49.62731552124023 3 44.0802001953125 3 M 44.0802001953125 0 C 68.42502593994141 0 88.160400390625 19.73538970947266 88.160400390625 44.0802001953125 C 88.160400390625 68.42502593994141 68.42502593994141 88.160400390625 44.0802001953125 88.160400390625 C 19.73538970947266 88.160400390625 0 68.42502593994141 0 44.0802001953125 C 0 19.73538970947266 19.73538970947266 0 44.0802001953125 0 Z" stroke="none" fill="#1d7083"/>
                        </g>
                      </g>
                    </g>
                  </g>
                </g>
              </g>
            </g>
          </g>
        </g>
      </g>
      <g id="trato" transform="translate(842.866 8674.453)">
        <g id="Group_1232987" data-name="Group 1232987" transform="translate(0.938 0.898)">
          <path id="Path_1219493" data-name="Path 1219493" d="M7.829,242.239h7.6v23.955h-7.6Z" transform="translate(-7.829 -214.123)" fill="#fff"/>
          <path id="Path_1219494" data-name="Path 1219494" d="M51.266,242.239h2.4v23.955h-2.4Z" transform="translate(-46.063 -214.123)" fill="#bedaee"/>
          <path id="Path_1219495" data-name="Path 1219495" d="M440.579,242.239h7.6v23.955h-7.6Z" transform="translate(-388.746 -214.123)" fill="#fff"/>
          <path id="Path_1219496" data-name="Path 1219496" d="M484.016,242.239h2.4v23.955h-2.4Z" transform="translate(-426.98 -214.123)" fill="#bedaee"/>
          <path id="Path_1219497" data-name="Path 1219497" d="M109.16,250.615,89.418,230.908l3.276-3.266-4.986.063a3.593,3.593,0,0,0-2.507,1.063l-2.992,3.018H71.266v17.966H82.645L93.1,260.128a2.246,2.246,0,1,0,3.176-3.176l1.319,1.3a2.244,2.244,0,0,0,3.232-3.114l.79.79a2.245,2.245,0,0,0,3.214-3.134l1.214,1.214a2.416,2.416,0,0,0,3.118-.219A2.246,2.246,0,0,0,109.16,250.615Z" transform="translate(-63.668 -201.274)" fill="#ffcfc5"/>
          <path id="Path_1219498" data-name="Path 1219498" d="M261.961,306.371l-15.413-15.386-1.689,1.664,15.066,15.04a2.244,2.244,0,0,1,.442,2.544,2.389,2.389,0,0,0,1.594-.685,2.246,2.246,0,0,0,0-3.176Z" transform="translate(-216.469 -257.03)" fill="#ff9f87"/>
          <g id="Group_1232986" data-name="Group 1232986" transform="translate(11.346 26.368)">
            <path id="Path_1219499" data-name="Path 1219499" d="M151.232,359.519l-4.6,4.6a2.246,2.246,0,0,0,0,3.176,2.416,2.416,0,0,0,3.118.219l4.734-4.734a2.3,2.3,0,1,0-3.256-3.256Z" transform="translate(-140.778 -343.13)" fill="#ffcfc5"/>
            <path id="Path_1219500" data-name="Path 1219500" d="M106.963,355.647l-3.749,3.749a2.246,2.246,0,0,0,0,3.176,2.416,2.416,0,0,0,3.118.219l3.888-3.888a2.3,2.3,0,1,0-3.256-3.256Z" transform="translate(-102.557 -339.722)" fill="#ffcfc5"/>
            <path id="Path_1219501" data-name="Path 1219501" d="M178.419,386.707l-4.6,4.6a2.246,2.246,0,0,0,0,3.176,2.416,2.416,0,0,0,3.118.219l4.734-4.734a2.3,2.3,0,1,0-3.256-3.256Z" transform="translate(-164.708 -367.061)" fill="#ffcfc5"/>
            <path id="Path_1219502" data-name="Path 1219502" d="M204.76,420.965l-3.749,3.749a2.246,2.246,0,0,0,0,3.176,2.416,2.416,0,0,0,3.118.219l3.888-3.888a2.3,2.3,0,1,0-3.256-3.256Z" transform="translate(-188.64 -397.216)" fill="#ffcfc5"/>
            <path id="Path_1219503" data-name="Path 1219503" d="M199.266,231.794l-4.513-3.422a3.593,3.593,0,0,0-2.171-.73h-6.693l-8.748,8.583,1.646,1.8a3.593,3.593,0,0,0,5.161.151l2.992-2.949L201.7,249.97l6.993-.217V231.794Z" transform="translate(-168.208 -227.643)" fill="#ffcfc5"/>
          </g>
          <path id="Path_1219504" data-name="Path 1219504" d="M386.264,262.3v17.959l-4.669.145.072.072,6.993-.217V262.3Z" transform="translate(-336.827 -231.783)" fill="#ff9f87"/>
          <path id="Path_1219505" data-name="Path 1219505" d="M315.923,54h8.01V71.016h-8.01Z" transform="translate(-279.021 -48.43)" fill="#bedaee"/>
          <path id="Path_1219506" data-name="Path 1219506" d="M362.8,54h2.4V71.016h-2.4Z" transform="translate(-320.281 -48.43)" fill="#83a5b9"/>
          <path id="Path_1219507" data-name="Path 1219507" d="M114.048,54h8.01V71.016h-8.01Z" transform="translate(-101.326 -48.43)" fill="#bedaee"/>
          <path id="Path_1219508" data-name="Path 1219508" d="M160.923,54h2.4V71.016h-2.4Z" transform="translate(-142.586 -48.43)" fill="#83a5b9"/>
          <path id="Path_1219509" data-name="Path 1219509" d="M180.923,7.5h16.17V30.085h-16.17Z" transform="translate(-160.191 -7.5)" fill="#bedaee"/>
          <path id="Path_1219510" data-name="Path 1219510" d="M295.923,7.5h2.4V30.085h-2.4Z" transform="translate(-261.416 -7.5)" fill="#83a5b9"/>
          <path id="Path_1219511" data-name="Path 1219511" d="M218.423,128h7.187v8.152h-7.187Z" transform="translate(-193.199 -113.567)" fill="#fff6bb"/>
          <path id="Path_1219512" data-name="Path 1219512" d="M258.423,128h2.4v8.152h-2.4Z" transform="translate(-228.408 -113.567)" fill="#ffc472"/>
        </g>
        <g id="Group_1232991" data-name="Group 1232991">
          <g id="Group_1232988" data-name="Group 1232988">
            <path id="Path_1219513" data-name="Path 1219513" fill="none" stroke="#000" stroke-miterlimit="10" stroke-width="15"/>
          </g>
          <g id="Group_1232989" data-name="Group 1232989">
            <path id="Path_1219514" data-name="Path 1219514" fill="none" stroke="#000" stroke-miterlimit="10" stroke-width="15"/>
          </g>
          <g id="Group_1232990" data-name="Group 1232990" transform="translate(0.039)">
            <path id="Path_1219515" data-name="Path 1219515" d="M52.162,221.89v2.4H43.933l-4.272-3.239a4.517,4.517,0,0,0-2.714-.912h-7.06l0,0-4.625.058a4.466,4.466,0,0,0-3.133,1.329L19.4,224.286H16.585v1.8h3.56L23.4,222.8a2.679,2.679,0,0,1,1.88-.8l2.748-.035-7.769,7.622,2.23,2.442a4.492,4.492,0,0,0,6.456.185l2.358-2.324,3.985,3.979,10.8,10.777a1.349,1.349,0,0,1,0,1.906,1.524,1.524,0,0,1-1.887.179L39.016,241.6l-1.263,1.278,3.988,3.942a1.346,1.346,0,0,1-1.932,1.875l-4.126-4.088-1.263,1.278,3.312,3.274a1.346,1.346,0,0,1-1.948,1.857l-2.824-2.784a3.2,3.2,0,0,0-2-4.948,3.2,3.2,0,0,0-3.106-4.167c0-.02,0-.039,0-.058a3.2,3.2,0,0,0-5.464-2.263l-.757.757a3.2,3.2,0,0,0-5.291-1.221L12.6,240.079a3.133,3.133,0,0,0-.918,2.173H9.724v-16.17h5.049v-1.8H9.724v-2.4H.329v25.752H9.724v-3.593H12.2a3.154,3.154,0,0,0,.391.477,3.333,3.333,0,0,0,2.351.951,3.129,3.129,0,0,0,1.965-.667l.038-.031.11-.11a3.127,3.127,0,0,0,.737,1.167,3.332,3.332,0,0,0,2.339.951,3.135,3.135,0,0,0,.917,2.306,3.332,3.332,0,0,0,2.338.951c0,.027,0,.055,0,.082a3.124,3.124,0,0,0,.921,2.223,3.333,3.333,0,0,0,2.351.951,3.142,3.142,0,0,0,1.882-.607l1.479,1.468a3.143,3.143,0,0,0,5.235-1.324,3.15,3.15,0,0,0,4.557-2.1,3.159,3.159,0,0,0,3.991-2.188,3.363,3.363,0,0,0,3.55-.727,3.146,3.146,0,0,0,.6-3.617l4.211-.131v3.565h9.395V221.89ZM7.927,245.845h-5.8V223.687h5.8v22.158Zm5.939-2.59a1.349,1.349,0,0,1,0-1.906l3.749-3.749a1.4,1.4,0,0,1,2,1.972l-3.86,3.861A1.524,1.524,0,0,1,13.866,243.255Zm4.806.358a1.338,1.338,0,0,1,.382-.938l4.609-4.61a1.4,1.4,0,0,1,1.986,1.986h0l-4.694,4.694a1.523,1.523,0,0,1-1.887-.179,1.339,1.339,0,0,1-.395-.953Zm3.256,3.256a1.339,1.339,0,0,1,.394-.952l4.6-4.6a1.4,1.4,0,0,1,1.986,1.986l-.845.845,0,0-2.366,2.366L24.211,248a1.523,1.523,0,0,1-1.887-.179A1.338,1.338,0,0,1,21.929,246.87Zm3.651,4.209a1.349,1.349,0,0,1,0-1.905l3.749-3.749a1.4,1.4,0,0,1,1.986,1.986l-3.848,3.847a1.524,1.524,0,0,1-1.887-.179Zm7.618,1.812a1.35,1.35,0,0,1-1.908,0l-1.462-1.451,1.9-1.9,1.471,1.447A1.349,1.349,0,0,1,33.2,252.891Zm26.562-7.046h-5.8V233.36h-1.8v8.919l-5.73.178-7.34-7.325a4.457,4.457,0,0,0,2.488-1.207l.792-.765-1.248-1.293-.792.765a2.708,2.708,0,0,1-3.776-.032l-5.247-5.239-3.624,3.571a2.695,2.695,0,0,1-3.871-.113l-1.061-1.163,7.867-7.719h6.326a2.711,2.711,0,0,1,1.628.547l4.754,3.6h8.832v5.474h1.8v-7.877h5.8v22.158Z" transform="translate(-0.329 -193.774)"/>
            <path id="Path_1219516" data-name="Path 1219516" d="M466.141,368.739h1.8v1.8h-1.8Z" transform="translate(-410.348 -324.573)"/>
            <path id="Path_1219517" data-name="Path 1219517" d="M31.141,368.739h1.8v1.8h-1.8Z" transform="translate(-27.45 -324.573)"/>
            <path id="Path_1219518" data-name="Path 1219518" d="M341.8,83.5h1.812v1.8H341.8Z" transform="translate(-300.898 -73.499)"/>
            <path id="Path_1219519" data-name="Path 1219519" d="M341.8,113.5h1.812v1.8H341.8Z" transform="translate(-300.898 -99.906)"/>
            <path id="Path_1219520" data-name="Path 1219520" d="M341.8,143.5h1.812v1.8H341.8Z" transform="translate(-300.898 -126.312)"/>
            <path id="Path_1219521" data-name="Path 1219521" d="M139.923,83.5h1.812v1.8h-1.812Z" transform="translate(-123.203 -73.499)"/>
            <path id="Path_1219522" data-name="Path 1219522" d="M139.923,113.5h1.812v1.8h-1.812Z" transform="translate(-123.203 -99.906)"/>
            <path id="Path_1219523" data-name="Path 1219523" d="M139.923,143.5h1.812v1.8h-1.812Z" transform="translate(-123.203 -126.312)"/>
            <path id="Path_1219524" data-name="Path 1219524" d="M210.923,30.562h1.812v1.8h-1.812Z" transform="translate(-185.699 -26.901)"/>
            <path id="Path_1219525" data-name="Path 1219525" d="M240.36,30.562h1.812v1.8H240.36Z" transform="translate(-211.61 -26.901)"/>
            <path id="Path_1219526" data-name="Path 1219526" d="M270.36,30.562h1.812v1.8H270.36Z" transform="translate(-238.017 -26.901)"/>
            <path id="Path_1219527" data-name="Path 1219527" d="M210.923,60.562h1.812v1.8h-1.812Z" transform="translate(-185.699 -53.308)"/>
            <path id="Path_1219528" data-name="Path 1219528" d="M240.36,60.562h1.812v1.8H240.36Z" transform="translate(-211.61 -53.308)"/>
            <path id="Path_1219529" data-name="Path 1219529" d="M270.36,60.562h1.812v1.8H270.36Z" transform="translate(-238.017 -53.308)"/>
            <path id="Path_1219530" data-name="Path 1219530" d="M210.923,90.562h1.812v1.8h-1.812Z" transform="translate(-185.699 -79.715)"/>
            <path id="Path_1219531" data-name="Path 1219531" d="M240.36,90.562h1.812v1.8H240.36Z" transform="translate(-211.61 -79.715)"/>
            <path id="Path_1219532" data-name="Path 1219532" d="M270.36,90.562h1.812v1.8H270.36Z" transform="translate(-238.017 -79.715)"/>
            <path id="Path_1219533" data-name="Path 1219533" d="M117.356,24.382v-1.8h-3.668V5.57h-8.01V0H87.711V5.57H79.7V22.585H76.048v1.8ZM94,22.585V16.23h5.39v6.356ZM89.508,1.8h14.373V12.7h1.8V7.366h6.213V22.585h-6.213V14.533h-1.8v8.052h-2.695V14.433H92.2v8.152H89.508ZM81.5,22.585V7.366h6.213V22.585Z" transform="translate(-66.979)"/>
          </g>
        </g>
      </g>
    </g>
  </g>
</svg>
