<svg xmlns="http://www.w3.org/2000/svg" xmlns:xlink="http://www.w3.org/1999/xlink" width="113" height="113" viewBox="0 0 113 113">
  <defs>
    <filter id="Path_982547" x="0" y="0" width="113" height="113" filterUnits="userSpaceOnUse">
      <feOffset dy="3" input="SourceAlpha"/>
      <feGaussianBlur stdDeviation="3" result="blur"/>
      <feFlood flood-opacity="0.161"/>
      <feComposite operator="in" in2="blur"/>
      <feComposite in="SourceGraphic"/>
    </filter>
  </defs>
  <g id="Group_1233105" data-name="Group 1233105" transform="translate(-376 -3402.437)">
    <g id="Group_1230863" data-name="Group 1230863">
      <g id="Group_1228312" data-name="Group 1228312" transform="translate(0 -1228.064)">
        <g id="Group_1228165" data-name="Group 1228165" transform="translate(0 2821)">
          <g id="Group_1223802" data-name="Group 1223802" transform="translate(385 1815.5)">
            <g id="Group_1208028" data-name="Group 1208028" transform="translate(0 0)">
              <g id="Group_1177675" data-name="Group 1177675" transform="translate(0 0)">
                <g id="Group_1176928" data-name="Group 1176928" transform="translate(0 0)">
                  <g id="Group_1172322" data-name="Group 1172322" transform="translate(0 0)">
                    <g id="Group_1164700" data-name="Group 1164700">
                      <g id="Group_1160931" data-name="Group 1160931">
                        <g id="Group_1160749" data-name="Group 1160749">
                          <g id="Group_1158891" data-name="Group 1158891">
                            <g id="Group_1157406" data-name="Group 1157406">
                              <g id="Group_1155793" data-name="Group 1155793">
                                <g id="Group_1154704" data-name="Group 1154704">
                                  <g id="Group_1150790" data-name="Group 1150790">
                                    <g id="Group_1154214" data-name="Group 1154214" transform="translate(0)">
                                      <g id="Group_1152583" data-name="Group 1152583">
                                        <g id="Group_1146973" data-name="Group 1146973">
                                          <g id="Group_1146954" data-name="Group 1146954">
                                            <g transform="matrix(1, 0, 0, 1, -9, -6)" filter="url(#Path_982547)">
                                              <g id="Path_982547-2" data-name="Path 982547" transform="translate(9 6)" fill="#ffe1b9">
                                                <path d="M 47.50000762939453 93.49986267089844 C 41.28937911987305 93.49986267089844 35.26534271240234 92.28383636474609 29.59519386291504 89.88558197021484 C 24.11772727966309 87.56880950927734 19.19814109802246 84.25183868408203 14.97310066223145 80.02679443359375 C 10.74804782867432 75.8017578125 7.431074142456055 70.88218688964844 5.114300727844238 65.40471649169922 C 2.716034412384033 59.73458480834961 1.500007629394531 53.71054458618164 1.500007629394531 47.49993133544922 C 1.500007629394531 41.2893180847168 2.716034412384033 35.26527786254883 5.114300727844238 29.59514427185059 C 7.431074142456055 24.11767768859863 10.74804782867432 19.19810485839844 14.97310066223145 14.97306442260742 C 19.19814109802246 10.74802494049072 24.11772727966309 7.431051254272461 29.59519386291504 5.114277839660645 C 35.26534271240234 2.71602463722229 41.28937911987305 1.499997973442078 47.50000762939453 1.499997973442078 C 53.71063613891602 1.499997973442078 59.73467254638672 2.71602463722229 65.40482330322266 5.114277839660645 C 70.88228607177734 7.431051254272461 75.80187225341797 10.74802494049072 80.02691650390625 14.97306442260742 C 84.25196838378906 19.19810485839844 87.56893920898438 24.11767768859863 89.88571166992188 29.59514427185059 C 92.28398132324219 35.26527786254883 93.50000762939453 41.2893180847168 93.50000762939453 47.49993133544922 C 93.50000762939453 53.71054458618164 92.28398132324219 59.73458480834961 89.88571166992188 65.40471649169922 C 87.56893920898438 70.88218688964844 84.25196838378906 75.8017578125 80.02691650390625 80.02679443359375 C 75.80187225341797 84.25183868408203 70.88228607177734 87.56880950927734 65.40482330322266 89.88558197021484 C 59.73467254638672 92.28383636474609 53.71063613891602 93.49986267089844 47.50000762939453 93.49986267089844 Z" stroke="none"/>
                                                <path d="M 47.50000762939453 2.999992370605469 C 41.4912223815918 2.999992370605469 35.66377639770508 4.1761474609375 30.17951202392578 6.495796203613281 C 24.88085174560547 8.736930847167969 20.12152862548828 11.94596099853516 16.03376007080078 16.03372955322266 C 11.94597625732422 20.12148284912109 8.736961364746094 24.88080596923828 6.495803833007812 30.17946624755859 C 4.176162719726562 35.66371536254883 3.000007629394531 41.49116134643555 3.000007629394531 47.49993133544922 C 3.000007629394531 53.50870132446289 4.176162719726562 59.33614730834961 6.495803833007812 64.82038879394531 C 8.736961364746094 70.11905670166016 11.94597625732422 74.87836456298828 16.03376007080078 78.96613311767578 C 20.12152862548828 83.05390167236328 24.88085174560547 86.26291656494141 30.17951202392578 88.50406646728516 C 35.66377639770508 90.82369995117188 41.4912223815918 91.99985504150391 47.50000762939453 91.99985504150391 C 53.50879287719727 91.99985504150391 59.33623886108398 90.82369995117188 64.82049560546875 88.50406646728516 C 70.11916351318359 86.26291656494141 74.87848663330078 83.05390167236328 78.96625518798828 78.96613311767578 C 83.05403900146484 74.87836456298828 86.26305389404297 70.11905670166016 88.50421142578125 64.82038879394531 C 90.8238525390625 59.33614730834961 92.00000762939453 53.50870132446289 92.00000762939453 47.49993133544922 C 92.00000762939453 41.49116134643555 90.8238525390625 35.66371536254883 88.50421142578125 30.17946624755859 C 86.26305389404297 24.88080596923828 83.05403900146484 20.12148284912109 78.96625518798828 16.03372955322266 C 74.87848663330078 11.94596099853516 70.11916351318359 8.736930847167969 64.82049560546875 6.495796203613281 C 59.33623886108398 4.1761474609375 53.50879287719727 2.999992370605469 47.50000762939453 2.999992370605469 M 47.50000762939453 -7.62939453125e-06 C 73.73352813720703 -7.62939453125e-06 95.00000762939453 21.26644134521484 95.00000762939453 47.49993133544922 C 95.00000762939453 73.73342132568359 73.73352813720703 94.99985504150391 47.50000762939453 94.99985504150391 C 21.26648712158203 94.99985504150391 7.62939453125e-06 73.73342132568359 7.62939453125e-06 47.49993133544922 C 7.62939453125e-06 21.26644134521484 21.26648712158203 -7.62939453125e-06 47.50000762939453 -7.62939453125e-06 Z" stroke="none" fill="#ff9d1c"/>
                                              </g>
                                            </g>
                                          </g>
                                        </g>
                                      </g>
                                    </g>
                                  </g>
                                </g>
                              </g>
                            </g>
                          </g>
                        </g>
                      </g>
                    </g>
                  </g>
                </g>
              </g>
            </g>
          </g>
        </g>
      </g>
      <g id="grupo_1_" data-name="grupo (1)" transform="translate(401.619 3424.358)">
        <path id="Path_1218690" data-name="Path 1218690" d="M35.051,22.667A9.615,9.615,0,1,0,18.67,22.64a3.106,3.106,0,0,0,2.646,1.484H32.422a3.09,3.09,0,0,0,2.629-1.457Zm0,0" transform="translate(-15.139 -6.583)" fill="#c47a4a"/>
        <path id="Path_1218691" data-name="Path 1218691" d="M95.555,22.663a3.089,3.089,0,0,1-2.63,1.458H90.6a3.089,3.089,0,0,0,2.63-1.458A9.617,9.617,0,0,0,86.211,8.068,9.617,9.617,0,0,1,96.986,17.4a9.578,9.578,0,0,1-1.43,5.264Zm0,0" transform="translate(-75.643 -6.58)" fill="#b26944"/>
        <path id="Path_1218692" data-name="Path 1218692" d="M55.652,86.36a5.594,5.594,0,0,1-5.594-5.594v-5.1a2.424,2.424,0,0,1,2.424-2.424h6.339a2.424,2.424,0,0,1,2.424,2.424v5.1a5.593,5.593,0,0,1-5.593,5.594Zm0,0" transform="translate(-43.923 -63.83)" fill="#fdd1a7"/>
        <path id="Path_1218693" data-name="Path 1218693" d="M50.9,62.457c-.87,6.588-8.95,5.329-8.95,5.329V62.457Zm0,0" transform="translate(-36.804 -54.363)" fill="#c47a4a"/>
        <path id="Path_1218694" data-name="Path 1218694" d="M27.739,339.343a9.615,9.615,0,1,0-18.868-.052,3.06,3.06,0,0,1-.618,2.533,3.314,3.314,0,0,0,2.562,5.418H25.806a3.314,3.314,0,0,0,2.562-5.418,2.994,2.994,0,0,1-.629-2.481Zm0,0" transform="translate(-6.581 -287.214)" fill="#ff5a96"/>
        <path id="Path_1218695" data-name="Path 1218695" d="M99.226,343.928a3.316,3.316,0,0,1-3.315,3.316H93.888a3.314,3.314,0,0,0,2.562-5.42,2.99,2.99,0,0,1-.629-2.48A9.619,9.619,0,0,0,87.4,327.893a9.779,9.779,0,0,1,1.521-.039,9.618,9.618,0,0,1,8.924,11.49,2.99,2.99,0,0,0,.629,2.48,3.3,3.3,0,0,1,.753,2.1Zm0,0" transform="translate(-76.685 -287.215)" fill="#ff3b82"/>
        <path id="Path_1218696" data-name="Path 1218696" d="M55.652,406.2a5.594,5.594,0,0,1-5.594-5.594v-5.1a2.425,2.425,0,0,1,2.424-2.424h6.339a2.424,2.424,0,0,1,2.424,2.424v5.1a5.593,5.593,0,0,1-5.593,5.594Zm0,0" transform="translate(-43.923 -344.459)" fill="#fdd1a7"/>
        <path id="Path_1218697" data-name="Path 1218697" d="M50.9,382.293c-.87,6.588-8.95,5.33-8.95,5.33v-5.33Zm0,0" transform="translate(-36.804 -334.992)" fill="#ff5a96"/>
        <path id="Path_1218698" data-name="Path 1218698" d="M355.673,22.667a9.615,9.615,0,1,0-16.381-.027,3.108,3.108,0,0,0,2.646,1.484h11.106a3.091,3.091,0,0,0,2.629-1.458Zm0,0" transform="translate(-296.458 -6.583)" fill="#756f6f"/>
        <path id="Path_1218699" data-name="Path 1218699" d="M416.173,22.663a3.089,3.089,0,0,1-2.629,1.458h-2.329a3.086,3.086,0,0,0,2.628-1.458,9.616,9.616,0,0,0-7.015-14.595A9.617,9.617,0,0,1,417.6,17.4a9.574,9.574,0,0,1-1.431,5.264Zm0,0" transform="translate(-356.958 -6.58)" fill="#5b5555"/>
        <path id="Path_1218700" data-name="Path 1218700" d="M376.27,86.36a5.594,5.594,0,0,1-5.594-5.594v-5.1a2.424,2.424,0,0,1,2.424-2.424h6.339a2.424,2.424,0,0,1,2.424,2.424v5.1A5.594,5.594,0,0,1,376.27,86.36Zm0,0" transform="translate(-325.238 -63.83)" fill="#fdd1a7"/>
        <path id="Path_1218701" data-name="Path 1218701" d="M371.516,62.457c-.87,6.588-8.95,5.329-8.95,5.329V62.457Zm0,0" transform="translate(-318.122 -54.363)" fill="#756f6f"/>
        <path id="Path_1218702" data-name="Path 1218702" d="M348.357,339.343a9.615,9.615,0,1,0-18.868-.052,3.061,3.061,0,0,1-.618,2.533,3.314,3.314,0,0,0,2.561,5.418h14.992a3.314,3.314,0,0,0,2.562-5.418,2.994,2.994,0,0,1-.628-2.481Zm0,0" transform="translate(-287.895 -287.214)" fill="#ffa730"/>
        <path id="Path_1218703" data-name="Path 1218703" d="M419.847,343.928a3.316,3.316,0,0,1-3.315,3.316h-2.023a3.314,3.314,0,0,0,2.562-5.42,2.989,2.989,0,0,1-.629-2.48,9.625,9.625,0,0,0-8.423-11.451,9.778,9.778,0,0,1,1.521-.039,9.625,9.625,0,0,1,8.924,11.49,2.989,2.989,0,0,0,.629,2.48,3.3,3.3,0,0,1,.753,2.1Zm0,0" transform="translate(-358.003 -287.215)" fill="#fa8916"/>
        <path id="Path_1218704" data-name="Path 1218704" d="M376.27,406.2a5.594,5.594,0,0,1-5.594-5.594v-5.1a2.425,2.425,0,0,1,2.424-2.424h6.339a2.425,2.425,0,0,1,2.424,2.424v5.1A5.594,5.594,0,0,1,376.27,406.2Zm0,0" transform="translate(-325.238 -344.459)" fill="#fdd1a7"/>
        <path id="Path_1218705" data-name="Path 1218705" d="M371.516,382.293c-.87,6.588-8.95,5.33-8.95,5.33v-5.33Zm0,0" transform="translate(-318.122 -334.992)" fill="#ffa730"/>
        <path id="Path_1218706" data-name="Path 1218706" d="M220.606,233H205.278a1.285,1.285,0,0,0-1.285,1.285v8.3a1.285,1.285,0,0,0,1.285,1.285h8.384v1.08a1.285,1.285,0,0,0,2.151.95l2.226-2.03h2.567a1.285,1.285,0,0,0,1.285-1.285v-8.305A1.285,1.285,0,0,0,220.606,233Zm0,0" transform="translate(-178.987 -203.996)" fill="#00c2f8"/>
        <path id="Path_1218707" data-name="Path 1218707" d="M322.632,234.281v8.3a1.285,1.285,0,0,1-1.284,1.285h-2.539a1.285,1.285,0,0,0,1.284-1.285v-8.3A1.285,1.285,0,0,0,318.809,233h2.539A1.285,1.285,0,0,1,322.632,234.281Zm0,0" transform="translate(-279.728 -203.996)" fill="#00abef"/>
        <path id="Path_1218708" data-name="Path 1218708" d="M163.285,167.027H176.3a1.285,1.285,0,0,1,1.285,1.285v7.148a1.285,1.285,0,0,1-1.285,1.285h-3.021v1.45a1.285,1.285,0,0,1-2.155.946l-2.608-2.4h-5.231A1.285,1.285,0,0,1,162,175.46v-7.148a1.285,1.285,0,0,1,1.285-1.285Zm0,0" transform="translate(-142.142 -146.114)" fill="#ffb54e"/>
        <path id="Path_1218709" data-name="Path 1218709" d="M260.313,168.317v7.148a1.285,1.285,0,0,1-1.285,1.285h-2.742a1.285,1.285,0,0,0,1.285-1.285v-7.148a1.285,1.285,0,0,0-1.285-1.285h2.742A1.285,1.285,0,0,1,260.313,168.317Zm0,0" transform="translate(-224.869 -146.118)" fill="#ff9a1b"/>
        <path id="Path_1218710" data-name="Path 1218710" d="M61.8,54.026a2.059,2.059,0,0,1-.437-1.717,10.536,10.536,0,0,0-6.18-11.744A25.526,25.526,0,0,0,54.992,22.1a6.524,6.524,0,0,0,2.39-3.722A3.983,3.983,0,0,0,60,16.567,10.5,10.5,0,0,0,59.508,4.8a.92.92,0,0,0-1.479,1.093,8.659,8.659,0,0,1,.405,9.709,2.148,2.148,0,0,1-.888.8v-4.56A3.346,3.346,0,0,0,54.263,8.5q.024-.141.043-.284a.919.919,0,0,0-1.823-.241,4.714,4.714,0,0,1-3.39,4.155,10.586,10.586,0,0,1-4.211.421.92.92,0,0,0-.362,1.793V16.4a2.186,2.186,0,0,1-.9-.822A8.7,8.7,0,0,1,51.242,2.341a8.531,8.531,0,0,1,3.886,1.032A.919.919,0,1,0,56,1.755,10.533,10.533,0,0,0,40.94,8,25.5,25.5,0,0,0,21.816,8,10.533,10.533,0,1,0,2.747,16.538,4.01,4.01,0,0,0,5.38,18.379,6.527,6.527,0,0,0,7.77,22.1a25.527,25.527,0,0,0-.192,18.46,10.46,10.46,0,0,0-2.3,1.352A.919.919,0,1,0,6.4,43.366a8.7,8.7,0,0,1,13.852,8.582,3.894,3.894,0,0,0,.82,3.245,2.364,2.364,0,0,1,.544,1.519,2.4,2.4,0,0,1-2.4,2.4h-1.7a6.467,6.467,0,0,0,.717-2.965v-5.1a3.347,3.347,0,0,0-3.283-3.342c.016-.094.031-.189.044-.284a.919.919,0,0,0-1.823-.241,4.712,4.712,0,0,1-1.824,3.345c-2.323,1.744-6.037,1.2-6.073,1.2A.919.919,0,0,0,5,53.539c.021,0,.1.015.217.029v2.576a6.467,6.467,0,0,0,.717,2.965h-1.7a2.4,2.4,0,0,1-2.4-2.4,2.364,2.364,0,0,1,.544-1.519A3.968,3.968,0,0,0,3.193,51.9a8.743,8.743,0,0,1-.159-1.66,8.6,8.6,0,0,1,.925-3.905.919.919,0,1,0-1.642-.827A10.428,10.428,0,0,0,1.2,50.241a10.577,10.577,0,0,0,.192,2.011,2.138,2.138,0,0,1-.426,1.774,4.234,4.234,0,0,0,3.272,6.921h3.1a6.5,6.5,0,0,0,8.786,0h3.1a4.229,4.229,0,0,0,4.114-5.232,25.548,25.548,0,0,0,16.084,0,4.229,4.229,0,0,0,4.114,5.232h3.1a6.5,6.5,0,0,0,8.786,0h3.1A4.234,4.234,0,0,0,61.8,54.026ZM7.055,56.144v-2.5A9.545,9.545,0,0,0,12.451,52a6.18,6.18,0,0,0,1.966-2.459H14.9A1.507,1.507,0,0,1,16.4,51.048v5.1a4.675,4.675,0,0,1-9.349,0ZM49.692,13.867a6.543,6.543,0,0,0,4.027-3.531H54.2a1.506,1.506,0,0,1,1.505,1.5v5.1a4.675,4.675,0,0,1-9.349,0v-2.5a11.382,11.382,0,0,0,3.334-.566ZM4.314,15.576A8.7,8.7,0,1,1,19.13,15.6a2.149,2.149,0,0,1-.887.8V11.841A3.347,3.347,0,0,0,14.96,8.5q.023-.141.043-.284a.919.919,0,0,0-1.823-.241,4.713,4.713,0,0,1-3.39,4.155,10.586,10.586,0,0,1-4.211.421.92.92,0,0,0-.362,1.793V16.4a2.191,2.191,0,0,1-.9-.823Zm2.741,1.36v-2.5a11.385,11.385,0,0,0,3.334-.566,6.543,6.543,0,0,0,4.027-3.531H14.9a1.506,1.506,0,0,1,1.5,1.5v5.1a4.674,4.674,0,1,1-9.349,0ZM22.106,53.282a2.039,2.039,0,0,1-.045-.973A10.525,10.525,0,0,0,9.326,39.988a23.686,23.686,0,0,1,.061-16.976,6.507,6.507,0,0,0,8.693-4.632,3.978,3.978,0,0,0,2.614-1.812A10.5,10.5,0,0,0,22.261,10.8c-.007-.324-.03-.645-.066-.964a23.66,23.66,0,0,1,18.372,0,10.67,10.67,0,0,0-.069,1.2,10.506,10.506,0,0,0,1.552,5.5,4.012,4.012,0,0,0,2.632,1.842,6.508,6.508,0,0,0,8.692,4.632,23.683,23.683,0,0,1,.062,16.974A10.533,10.533,0,0,0,40.5,50.241a10.582,10.582,0,0,0,.192,2.011,2.224,2.224,0,0,1-.043,1.033,23.662,23.662,0,0,1-18.542,0Zm28.927,7.536a4.68,4.68,0,0,1-4.675-4.675v-2.5A9.545,9.545,0,0,0,51.754,52a6.182,6.182,0,0,0,1.967-2.459H54.2a1.507,1.507,0,0,1,1.505,1.505v5.1a4.68,4.68,0,0,1-4.675,4.675Zm7.5-1.709h-1.7a6.467,6.467,0,0,0,.717-2.965v-5.1a3.347,3.347,0,0,0-3.283-3.342c.016-.094.031-.189.044-.284a.919.919,0,1,0-1.823-.241,4.712,4.712,0,0,1-1.824,3.345c-2.323,1.744-6.037,1.2-6.073,1.2a.919.919,0,0,0-.283,1.817c.021,0,.1.015.217.029v2.576a6.467,6.467,0,0,0,.717,2.965h-1.7a2.4,2.4,0,0,1-2.4-2.4,2.364,2.364,0,0,1,.544-1.52A3.97,3.97,0,0,0,42.5,51.9a8.748,8.748,0,0,1-.159-1.661,8.7,8.7,0,0,1,9.153-8.684,8.7,8.7,0,0,1,8.07,10.392,3.893,3.893,0,0,0,.82,3.245,2.366,2.366,0,0,1,.544,1.519,2.4,2.4,0,0,1-2.4,2.4Zm0,0"/>
        <path id="Path_1218711" data-name="Path 1218711" d="M179.385,178.127v-8.3a2.207,2.207,0,0,0-2.2-2.2h-5.256v-5.882a2.207,2.207,0,0,0-2.2-2.2H156.7a2.207,2.207,0,0,0-2.2,2.2v7.148a2.207,2.207,0,0,0,2.2,2.2h2.943v7.039a2.207,2.207,0,0,0,2.2,2.2H163.6a.919.919,0,1,0,0-1.839h-1.748a.366.366,0,0,1-.366-.366v-7.039h.091l2.344,2.154a2.182,2.182,0,0,0,1.482.586,2.223,2.223,0,0,0,.9-.191,2.176,2.176,0,0,0,1.318-2.018v-.531h2.1a2.206,2.206,0,0,0,2.127-1.632h5.334a.366.366,0,0,1,.366.366v8.3a.366.366,0,0,1-.366.366h-2.567a.921.921,0,0,0-.62.24l-2.226,2.03a.366.366,0,0,1-.612-.271v-1.08a.919.919,0,0,0-.919-.919h-2.4a.919.919,0,0,0,0,1.839h1.484v.161a2.178,2.178,0,0,0,1.314,2.017,2.22,2.22,0,0,0,.9.192,2.182,2.182,0,0,0,1.476-.58l1.963-1.79h2.211A2.207,2.207,0,0,0,179.385,178.127Zm-9.3-9.243a.366.366,0,0,1-.366.366H166.7a.92.92,0,0,0-.919.919v1.45a.365.365,0,0,1-.613.27l-2.608-2.4a.92.92,0,0,0-.622-.243H156.7a.366.366,0,0,1-.366-.366v-7.148a.366.366,0,0,1,.366-.365H169.72a.366.366,0,0,1,.366.365v7.148Zm0,0" transform="translate(-135.561 -139.538)"/>
        <path id="Path_1218712" data-name="Path 1218712" d="M197.677,199.172H193.1a.919.919,0,1,0,0,1.839h4.574a.919.919,0,1,0,0-1.839Zm0,0" transform="translate(-168.625 -174.319)"/>
        <path id="Path_1218713" data-name="Path 1218713" d="M278.27,271.691a.919.919,0,1,0,0-1.839h-4.32a.919.919,0,0,0,0,1.839Zm0,0" transform="translate(-239.562 -236.334)"/>
      </g>
    </g>
  </g>
</svg>
