<svg xmlns="http://www.w3.org/2000/svg" xmlns:xlink="http://www.w3.org/1999/xlink" width="108" height="108" viewBox="0 0 108 108">
  <defs>
    <filter id="Path_904820" x="0" y="0" width="108" height="108" filterUnits="userSpaceOnUse">
      <feOffset dy="3" input="SourceAlpha"/>
      <feGaussianBlur stdDeviation="3" result="blur"/>
      <feFlood flood-opacity="0.161"/>
      <feComposite operator="in" in2="blur"/>
      <feComposite in="SourceGraphic"/>
    </filter>
  </defs>
  <g id="Group_1233130" data-name="Group 1233130" transform="translate(-619.97 -479.615)">
    <g id="Group_1233008" data-name="Group 1233008">
      <g id="Group_1228395" data-name="Group 1228395">
        <g id="Group_1228133" data-name="Group 1228133" transform="translate(628.97 485.615)">
          <g id="Group_1203794" data-name="Group 1203794">
            <g id="Group_1203639" data-name="Group 1203639">
              <g id="Group_1202437" data-name="Group 1202437">
                <g id="Group_1177315" data-name="Group 1177315">
                  <g id="Group_1173585" data-name="Group 1173585">
                    <g id="Group_1173428" data-name="Group 1173428" transform="translate(0 0)">
                      <g id="Group_1171958" data-name="Group 1171958">
                        <g id="Group_1167341" data-name="Group 1167341">
                          <g id="Group_1166792" data-name="Group 1166792">
                            <g transform="matrix(1, 0, 0, 1, -9, -6)" filter="url(#Path_904820)">
                              <g id="Path_904820-2" data-name="Path 904820" transform="translate(9 6)" fill="#f6f3ef">
                                <path d="M 44.99999618530273 88.49999237060547 C 39.12687301635742 88.49999237060547 33.43022155761719 87.35006713867188 28.06829643249512 85.08216857910156 C 22.88852119445801 82.89130401611328 18.23629570007324 79.75457763671875 14.24084663391113 75.75914001464844 C 10.24540901184082 71.76369476318359 7.108683586120605 67.11146545410156 4.917821407318115 61.93169403076172 C 2.649921178817749 56.56976699829102 1.499996185302734 50.87311553955078 1.499996185302734 44.99999237060547 C 1.499996185302734 39.12686920166016 2.649921178817749 33.43021774291992 4.917821407318115 28.06829261779785 C 7.108683586120605 22.88851737976074 10.24540901184082 18.23630523681641 14.24084663391113 14.24085521697998 C 18.23629570007324 10.24540519714355 22.88852119445801 7.108692169189453 28.06829643249512 4.917829990386963 C 33.43022155761719 2.649929761886597 39.12687301635742 1.500004887580872 44.99999618530273 1.500004887580872 C 50.87311935424805 1.500004887580872 56.56977081298828 2.649929761886597 61.93169784545898 4.917829990386963 C 67.11147308349609 7.108692169189453 71.76369476318359 10.24540519714355 75.75914764404297 14.24085521697998 C 79.75458526611328 18.23630523681641 82.89131164550781 22.88851737976074 85.08216857910156 28.06829261779785 C 87.35007476806641 33.43021774291992 88.5 39.12686920166016 88.5 44.99999237060547 C 88.5 50.87311553955078 87.35007476806641 56.56976699829102 85.08216857910156 61.93169403076172 C 82.89131164550781 67.11146545410156 79.75458526611328 71.76369476318359 75.75914764404297 75.75914001464844 C 71.76369476318359 79.75457763671875 67.11147308349609 82.89130401611328 61.93169784545898 85.08216857910156 C 56.56977081298828 87.35006713867188 50.87311935424805 88.49999237060547 44.99999618530273 88.49999237060547 Z" stroke="none"/>
                                <path d="M 44.99999618530273 2.999992370605469 C 39.32870864868164 2.999992370605469 33.82865142822266 4.11004638671875 28.65262603759766 6.299331665039062 C 23.65165710449219 8.414566040039062 19.15968322753906 11.44333648681641 15.301513671875 15.30150604248047 C 11.44333648681641 19.15967559814453 8.414566040039062 23.65164947509766 6.299339294433594 28.65262222290039 C 4.110054016113281 33.82864761352539 2.999992370605469 39.32870483398438 2.999992370605469 44.99999237060547 C 2.999992370605469 50.67127990722656 4.110054016113281 56.17132186889648 6.299339294433594 61.34736633300781 C 8.414566040039062 66.34833526611328 11.44333648681641 70.84029388427734 15.301513671875 74.69846343994141 C 19.15968322753906 78.55663299560547 23.65165710449219 81.58540344238281 28.65262603759766 83.70063781738281 C 33.82865142822266 85.88992309570312 39.32870864868164 86.99997711181641 44.99999618530273 86.99997711181641 C 50.67128372192383 86.99997711181641 56.17134094238281 85.88992309570312 61.34736633300781 83.70063781738281 C 66.34834289550781 81.58540344238281 70.84030914306641 78.55663299560547 74.69847869873047 74.69846343994141 C 78.55665588378906 70.84029388427734 81.58542633056641 66.34833526611328 83.70065307617188 61.34736633300781 C 85.88993835449219 56.17132186889648 87 50.67127990722656 87 44.99999237060547 C 87 39.32870483398438 85.88993835449219 33.82864761352539 83.70065307617188 28.65262222290039 C 81.58542633056641 23.65164947509766 78.55665588378906 19.15967559814453 74.69847869873047 15.30150604248047 C 70.84030914306641 11.44333648681641 66.34834289550781 8.414566040039062 61.34736633300781 6.299331665039062 C 56.17134094238281 4.11004638671875 50.67128372192383 2.999992370605469 44.99999618530273 2.999992370605469 M 44.99999618530273 -7.62939453125e-06 C 69.85281372070312 -7.62939453125e-06 90 20.14717864990234 90 44.99999237060547 C 90 69.85279083251953 69.85281372070312 89.99997711181641 44.99999618530273 89.99997711181641 C 20.14717864990234 89.99997711181641 -7.62939453125e-06 69.85279083251953 -7.62939453125e-06 44.99999237060547 C -7.62939453125e-06 20.14717864990234 20.14717864990234 -7.62939453125e-06 44.99999618530273 -7.62939453125e-06 Z" stroke="none" fill="#7b776f"/>
                              </g>
                            </g>
                          </g>
                        </g>
                      </g>
                    </g>
                  </g>
                </g>
              </g>
            </g>
          </g>
        </g>
      </g>
      <g id="motivacion_3_" data-name="motivacion (3)" transform="translate(641.614 503.005)">
        <g id="Group_1233006" data-name="Group 1233006" transform="translate(6.241 0.809)">
          <g id="Group_1233005" data-name="Group 1233005" transform="translate(0)">
            <path id="Path_1219534" data-name="Path 1219534" d="M115.063,224.521l.205,4.224a11.27,11.27,0,0,0,2.906,6.322l2.066,1.708-6.6,4.63-15.888.1-8.73-3.9a.663.663,0,0,1-.2-1.073,11.27,11.27,0,0,0,3.189-6.618l.585-4.4Z" transform="translate(-80.565 -201.115)" fill="#bc7c63"/>
            <g id="Group_1233004" data-name="Group 1233004">
              <g id="Group_1233000" data-name="Group 1233000">
                <g id="Group_1232999" data-name="Group 1232999">
                  <path id="Path_1219535" data-name="Path 1219535" d="M136.553,62.326H111.3V57.92a12.625,12.625,0,1,1,25.249,0Z" transform="translate(-100.795 -41.219)" fill="#bc7c63"/>
                  <g id="Group_1232996" data-name="Group 1232996" transform="translate(0 3.781)">
                    <g id="Group_1232995" data-name="Group 1232995">
                      <path id="Path_1219536" data-name="Path 1219536" d="M41.191,162.241h6.222a2.516,2.516,0,0,0,2.041-1.043l6.161-8.518V138.053h8.67v17.255a3.525,3.525,0,0,1-.631,2.013L51.9,174a3.142,3.142,0,0,0-.564,1.8v.911a.647.647,0,0,1-.647.647l-2.8.216H39.945L36.987,176.4l-2.946,1.175h-10.8l-.809-.748-.091.748H14.4a.54.54,0,0,1-.481-.785l4.572-8.944a7.475,7.475,0,0,1,5.3-3.95l9-1.655h8.395Z" transform="translate(-13.859 -127.754)" fill="#fe7ab6"/>
                      <g id="Group_1232993" data-name="Group 1232993" transform="translate(33.808 10.299)">
                        <path id="Path_1219537" data-name="Path 1219537" d="M340.929,138.054v16.608a3.525,3.525,0,0,1-.631,2.013l-11.754,16.9a3.142,3.142,0,0,0-.564,1.8v1.559a.647.647,0,0,1-.647.647h3.236a.647.647,0,0,0,.647-.647v-.911a3.142,3.142,0,0,1,.564-1.8l11.754-16.9a3.526,3.526,0,0,0,.631-2.013V138.054Z" transform="translate(-327.333 -138.054)" fill="#fe5ca7"/>
                      </g>
                      <path id="Path_1219538" data-name="Path 1219538" d="M195.568,248.862l2.271,9.344v5.326h-8.395v-5.319l2.12-9.351Z" transform="translate(-170.508 -226.612)" fill="#ffcebf"/>
                      <path id="Path_1219539" data-name="Path 1219539" d="M197.839,246v9.652a7.147,7.147,0,0,1-8.395.008V246Z" transform="translate(-170.507 -224.058)" fill="#ffb09e"/>
                      <path id="Path_1219540" data-name="Path 1219540" d="M100.163,207.2h22.028a3.145,3.145,0,0,0,3.145-3.145v-1.029a1.682,1.682,0,0,0-1.682-1.682H98.7a1.682,1.682,0,0,0-1.682,1.682v1.029A3.145,3.145,0,0,0,100.163,207.2Z" transform="translate(-88.049 -184.217)" fill="#ffb09e"/>
                      <path id="Path_1219541" data-name="Path 1219541" d="M149.751,103a13.183,13.183,0,0,0-7.672-9.372A13.183,13.183,0,0,0,134.407,103a2.9,2.9,0,0,1-2.752,2.245v3.445a7.371,7.371,0,0,0,2.332,5.381l3.514,3.292a6.694,6.694,0,0,0,9.154,0l3.514-3.292a7.371,7.371,0,0,0,2.332-5.381v-3.445A2.9,2.9,0,0,1,149.751,103Z" transform="translate(-118.951 -88.12)" fill="#ffcebf"/>
                      <path id="Path_1219542" data-name="Path 1219542" d="M131.744,60.1l.2,6.53a1.356,1.356,0,0,1-1.293,1.356,23.107,23.107,0,0,0-3.222.717,28.789,28.789,0,0,0-7.66,2.342,1.594,1.594,0,0,1-1.383,0,29.591,29.591,0,0,0-11.221-2.71,1.356,1.356,0,0,1-1.293-1.356V60.1Z" transform="translate(-95.946 -58.21)" fill="#7a6d79"/>
                      <g id="Group_1232994" data-name="Group 1232994" transform="translate(31.48 1.892)">
                        <path id="Path_1219543" data-name="Path 1219543" d="M306.283,60.1v7.521a1.358,1.358,0,0,1-.538,1.083,30.2,30.2,0,0,1,3.56-.369,1.356,1.356,0,0,0,1.293-1.356V60.1Z" transform="translate(-305.744 -60.102)" fill="#685e68"/>
                      </g>
                      <path id="Path_1219544" data-name="Path 1219544" d="M62.545,46.343a.737.737,0,0,1-.8-.659V43.218a.737.737,0,0,1,.8-.659H95.9a.737.737,0,0,1,.8.659v2.467a.737.737,0,0,1-.8.659H62.545Z" transform="translate(-56.584 -42.559)" fill="#918291"/>
                      <path id="Path_1219545" data-name="Path 1219545" d="M342.972,42.562l-4.566,0a.737.737,0,0,1,.8.659v2.467a.737.737,0,0,1-.8.659h4.315a.737.737,0,0,0,.8-.659V43.217C343.517,42.853,343.412,42.562,342.972,42.562Z" transform="translate(-303.404 -42.558)" fill="#7a6d79"/>
                    </g>
                  </g>
                  <g id="Group_1232998" data-name="Group 1232998" transform="translate(37.602)">
                    <g id="Group_1232997" data-name="Group 1232997">
                      <path id="Path_1219546" data-name="Path 1219546" d="M366.907,44.088l-1.135-.962a1.932,1.932,0,1,0-2.664,2.8l3.314,2.994a3.217,3.217,0,0,1,1.06,2.387h7.848a10.07,10.07,0,0,0,1.476-5.567V43.411l-7.149-.818Z" transform="translate(-362.508 -38.808)" fill="#ffcebf"/>
                      <path id="Path_1219547" data-name="Path 1219547" d="M403.3,9.15a1.649,1.649,0,0,1,1.65-1.65c.041,0,.082,0,.123,0,.693,0,1.238.75,1.238,1.62l-.026,2.742c0,.911-.34,1.388-1.251,1.388a1.139,1.139,0,0,1-.68-.03c-.429-.248-.964-.374-1.037-.885a1.658,1.658,0,0,1-.017-.237V9.15" transform="translate(-398.897 -7.5)" fill="#ffcebf"/>
                      <path id="Path_1219548" data-name="Path 1219548" d="M430.977,9.15a1.649,1.649,0,0,1,1.65-1.65c.041,0,.082,0,.123,0,.693,0,1.238.75,1.238,1.62l-.026,2.742c0,.911-.34,1.388-1.251,1.388a1.139,1.139,0,0,1-.68-.03c-.429-.248-.964-.374-1.037-.885a1.663,1.663,0,0,1-.017-.237l-.352-1.356Z" transform="translate(-423.278 -7.5)" fill="#ffcebf"/>
                      <path id="Path_1219549" data-name="Path 1219549" d="M460.6,9.15a1.649,1.649,0,0,1,1.65-1.65c.041,0,.082,0,.123,0,.693,0,1.238.75,1.238,1.62l-.026,2.742c0,.911-.34,1.388-1.251,1.388a1.139,1.139,0,0,1-.68-.03c-.429-.248-.964-.374-1.037-.885a1.663,1.663,0,0,1-.017-.237l-.47-1.476Z" transform="translate(-449.602 -7.5)" fill="#ffcebf"/>
                    </g>
                    <path id="Path_1219550" data-name="Path 1219550" d="M466.4,7.557v3.187a1.65,1.65,0,0,1-1.65,1.65c-.035,0-.071,0-.106,0a1.65,1.65,0,0,0,3.283-.237V9.2A1.649,1.649,0,0,0,466.4,7.557Z" transform="translate(-453.63 -7.551)" fill="#ffb09e"/>
                    <path id="Path_1219551" data-name="Path 1219551" d="M435.8,7.557v3.187a1.65,1.65,0,0,1-1.65,1.65c-.035,0-.071,0-.106,0a1.65,1.65,0,0,0,3.283-.237V9.2A1.649,1.649,0,0,0,435.8,7.557Z" transform="translate(-426.333 -7.551)" fill="#ffb09e"/>
                    <path id="Path_1219552" data-name="Path 1219552" d="M405.209,7.557v3.187a1.65,1.65,0,0,1-1.65,1.65c-.035,0-.071,0-.106,0a1.65,1.65,0,0,0,3.283-.237V9.2A1.649,1.649,0,0,0,405.209,7.557Z" transform="translate(-399.037 -7.551)" fill="#ffb09e"/>
                  </g>
                  <path id="Path_1219553" data-name="Path 1219553" d="M400.791,120.863l-2.8-.216h-7.01a.572.572,0,0,0-.572.572v3.227a.572.572,0,0,0,.572.572h7.01l2.8-.216a.572.572,0,0,0,.572-.572v-2.8A.572.572,0,0,0,400.791,120.863Z" transform="translate(-349.794 -108.444)" fill="#f2fbff"/>
                  <path id="Path_1219554" data-name="Path 1219554" d="M461.947,120.647h-3.236a.572.572,0,0,1,.572.572v3.227a.572.572,0,0,1-.572.572h3.236a.572.572,0,0,0,.572-.572v-3.227A.572.572,0,0,0,461.947,120.647Z" transform="translate(-410.734 -108.444)" fill="#dff6fd"/>
                </g>
              </g>
              <g id="Group_1233003" data-name="Group 1233003" transform="translate(15.219 36.741)">
                <path id="Path_1219555" data-name="Path 1219555" d="M197.061,368.989l-4.155,4.086-4.286-4.214,4.286-2.543Z" transform="translate(-184.991 -364.36)" fill="#dff6fd"/>
                <g id="Group_1233001" data-name="Group 1233001" transform="translate(7.915 0)">
                  <path id="Path_1219556" data-name="Path 1219556" d="M235.9,351.324l-3.271,3.559a.431.431,0,0,1-.661-.03l-3.6-4.73a5.157,5.157,0,0,0,4.253-1.958l2.653.822A1.432,1.432,0,0,1,235.9,351.324Z" transform="translate(-228.359 -348.164)" fill="#f2fbff"/>
                </g>
                <g id="Group_1233002" data-name="Group 1233002">
                  <path id="Path_1219557" data-name="Path 1219557" d="M155.348,351.323l3.271,3.559a.432.432,0,0,0,.661-.03l3.6-4.73a5.157,5.157,0,0,1-4.253-1.958l-2.653.822A1.432,1.432,0,0,0,155.348,351.323Z" transform="translate(-154.97 -348.163)" fill="#f2fbff"/>
                </g>
                <path id="Path_1219558" data-name="Path 1219558" d="M206.9,437.119l-.593-4.658a4.666,4.666,0,0,0-2.359-3.488,4.665,4.665,0,0,0-2.359,3.488l-.593,4.658Z" transform="translate(-196.029 -420.258)" fill="#c8effe"/>
              </g>
            </g>
          </g>
        </g>
        <g id="Group_1233007" data-name="Group 1233007" transform="translate(5.32)">
          <path id="Path_1219559" data-name="Path 1219559" d="M100.337,0a2.449,2.449,0,0,0-1.65.637,2.454,2.454,0,0,0-3.3,0,2.457,2.457,0,0,0-4.108,1.821V4.342a2.753,2.753,0,0,0-1.657-.558H65.879a.809.809,0,1,0,0,1.618H87.12a2.752,2.752,0,0,0-.034,2.167H55.848V5.4H62.1a.809.809,0,0,0,0-1.618H55.836A1.543,1.543,0,0,0,54.23,5.252V7.719a1.543,1.543,0,0,0,1.606,1.468h3.152v4.177a2.161,2.161,0,0,0,.811,1.691,13.545,13.545,0,0,0-.225,2.457V21.1a2.494,2.494,0,0,0-1.541,2.3v1.029a3.961,3.961,0,0,0,2.627,3.724l-.143,1.369a10.426,10.426,0,0,1-3.626,6.759.809.809,0,0,0,.2,1.36l4.5,1.943-1.929.355a8.288,8.288,0,0,0-5.575,3.836.809.809,0,1,0,1.382.842,6.668,6.668,0,0,1,4.486-3.086l4.54-.835a2.249,2.249,0,0,0,.379.564L68.495,45.2a.809.809,0,0,0,.6.262h.037a.809.809,0,0,0,.606-.318l.417-.547,1.6,1.57a5.5,5.5,0,0,0-1.9,3.49l-.593,4.658a.809.809,0,1,0,1.6.2l.593-4.658a3.873,3.873,0,0,1,1.556-2.631,3.873,3.873,0,0,1,1.556,2.631l.593,4.658a.809.809,0,0,0,.8.707.836.836,0,0,0,.1-.007.809.809,0,0,0,.7-.9l-.593-4.658a5.5,5.5,0,0,0-1.9-3.49l1.6-1.57.417.547a.809.809,0,0,0,.606.318h.037a.809.809,0,0,0,.6-.262l3.619-3.938a2.23,2.23,0,0,0,.587-1.37h1.7a3.336,3.336,0,0,0,2.7-1.377l6.16-8.517a.809.809,0,0,0,.153-.474V18.194H99.7v4.2a.809.809,0,1,0,1.618,0V18.172a1.382,1.382,0,0,0,1.145-1.359V13.587a1.379,1.379,0,0,0-.592-1.132,12.335,12.335,0,0,0,.923-4.716V2.458A2.462,2.462,0,0,0,100.337,0ZM91.291,16.577V13.824h9.557v2.753Zm2.027-4.371a4.045,4.045,0,0,0-1.172-1.887l-3.3-2.986a1.123,1.123,0,0,1-.033-1.582,1.13,1.13,0,0,1,1.623-.009l1.71,1.45a.809.809,0,0,0,.523.192,2.518,2.518,0,0,1,2.5,2.139l.04.254a.809.809,0,0,0,1.6-.25l-.04-.254a4.169,4.169,0,0,0-.575-1.555,2.455,2.455,0,0,0,2.5-.485,2.456,2.456,0,0,0,2.491.489v.011a10.37,10.37,0,0,1-.968,4.473H93.318Zm7.019-10.588a.842.842,0,0,1,.841.841V5.411a.841.841,0,1,1-1.682,0V2.459A.842.842,0,0,1,100.337,1.618Zm-3.3,0a.842.842,0,0,1,.841.841V5.411a.841.841,0,1,1-1.682,0V2.459A.842.842,0,0,1,97.038,1.618Zm-3.3,0a.842.842,0,0,1,.841.841V5.411a.835.835,0,0,1-.33.667,4.157,4.157,0,0,0-1.276-.3l-.027-.023a2.548,2.548,0,0,1-.049-.344V2.459a.842.842,0,0,1,.841-.841Zm-9.08,13.926a11.935,11.935,0,0,1,.164,1.969v3.4H83.415a2.077,2.077,0,0,1-1.956-1.623A15.886,15.886,0,0,0,80.337,16.1a29.552,29.552,0,0,1,4.321-.553Zm-.584,11.219a8.189,8.189,0,0,0,.16-1.6V22.526h1.245a.874.874,0,0,1,.873.873v1.029a2.339,2.339,0,0,1-2.277,2.335ZM85.4,9.187v4.177a.545.545,0,0,1-.519.548A30.488,30.488,0,0,0,73.342,16.7a.783.783,0,0,1-.682,0,30.485,30.485,0,0,0-11.535-2.788.545.545,0,0,1-.519-.548V9.187ZM62.587,20.909H61.192v-3.4a11.94,11.94,0,0,1,.164-1.968,29.573,29.573,0,0,1,4.309.553,15.822,15.822,0,0,0-1.123,3.188A2.077,2.077,0,0,1,62.587,20.909Zm-2.936,3.519V23.4a.874.874,0,0,1,.873-.873H61.77v2.636a8.19,8.19,0,0,0,.16,1.6,2.339,2.339,0,0,1-2.278-2.335ZM64.4,39.044c-.1-.08-5.415-2.339-5.533-2.4A12.044,12.044,0,0,0,62.125,29.7l.138-1.318h.167c.749,2.144,3.964,4.544,5.515,6.109v2.464l-2.084.646A2.228,2.228,0,0,0,64.4,39.044ZM76.451,37.22a4.746,4.746,0,0,1-6.888,0v-1.6a7.507,7.507,0,0,0,6.888-.006Zm-7.419,6.17-2.966-3.227a.623.623,0,0,1,.274-1.017l2.185-.678a5.936,5.936,0,0,0,2.953,1.71Zm3.975,1.741-1.868-1.837,1.868-2.451,1.868,2.451Zm6.941-4.968L76.982,43.39l-2.448-3.212a5.938,5.938,0,0,0,2.953-1.71l2.185.677a.623.623,0,0,1,.274,1.017Zm4.864-2.6a1.714,1.714,0,0,1-1.385.708H81.18a2.235,2.235,0,0,0-1.028-.669l-2.084-.646V34.48c.122-.106,1.724-1.615,1.828-1.71a.809.809,0,1,0-1.106-1.181l-1.767,1.654a5.884,5.884,0,0,1-8.046,0l-3.515-3.291a6.561,6.561,0,0,1-2.076-4.792V22.43a3.753,3.753,0,0,0,2.729-2.771,14.121,14.121,0,0,1,1.166-3.185,26.572,26.572,0,0,1,4.677,1.685,2.393,2.393,0,0,0,2.083,0,26.559,26.559,0,0,1,4.676-1.685,14.166,14.166,0,0,1,1.166,3.186,3.752,3.752,0,0,0,2.729,2.77v2.732a6.584,6.584,0,0,1-.751,3.051,6.666,6.666,0,0,1-.506.812.809.809,0,1,0,1.308.952,8.3,8.3,0,0,0,.629-1.01q.151-.286.277-.585h.182a12.017,12.017,0,0,0,2.887,6.651Zm2.807-3.881a10.428,10.428,0,0,1-2.263-5.534,3.961,3.961,0,0,0,2.613-3.72V23.4a2.494,2.494,0,0,0-1.529-2.3V17.512a13.545,13.545,0,0,0-.227-2.465,2.161,2.161,0,0,0,.8-1.683V9.187h1.465l2.582,2.332a2.411,2.411,0,0,1,.525.687h-.531a1.383,1.383,0,0,0-1.381,1.381v3.227a1.382,1.382,0,0,0,1.144,1.359V29.257Z" transform="translate(-48.724)"/>
          <path id="Path_1219560" data-name="Path 1219560" d="M371.7,235.11a.809.809,0,0,0-.809.809v5.98a2.7,2.7,0,0,1-.486,1.551l-11.753,16.9a3.931,3.931,0,0,0-.709,2.258v1.558a.809.809,0,0,0,1.618,0v-1.558a2.322,2.322,0,0,1,.419-1.334l11.754-16.9a4.314,4.314,0,0,0,.776-2.474v-5.98a.809.809,0,0,0-.809-.809Z" transform="translate(-319.912 -209.753)"/>
          <path id="Path_1219561" data-name="Path 1219561" d="M10,433.516a.809.809,0,0,0-1.088.352l-3.505,6.856a.809.809,0,1,0,1.44.736l3.505-6.856A.809.809,0,0,0,10,433.516Z" transform="translate(-5.32 -386.682)"/>
          <path id="Path_1219562" data-name="Path 1219562" d="M212.6,235.182a.809.809,0,0,0,.353,1.088,3.291,3.291,0,0,0,2.98,0,.809.809,0,0,0-.735-1.441,1.669,1.669,0,0,1-1.511,0A.809.809,0,0,0,212.6,235.182Z" transform="translate(-190.164 -209.424)"/>
          <path id="Path_1219563" data-name="Path 1219563" d="M208.475,269.926a3.71,3.71,0,0,1-3.36,0,.809.809,0,1,0-.734,1.441,5.334,5.334,0,0,0,4.829,0,.809.809,0,1,0-.734-1.441Z" transform="translate(-182.518 -240.736)"/>
          <path id="Path_1219564" data-name="Path 1219564" d="M175.536,197.646a.809.809,0,0,0,.444-1.486,3.626,3.626,0,0,0-4.074,0,.809.809,0,0,0,.886,1.354,2.025,2.025,0,0,1,2.3,0A.8.8,0,0,0,175.536,197.646Z" transform="translate(-153.613 -174.446)"/>
          <path id="Path_1219565" data-name="Path 1219565" d="M249.184,196.161a3.626,3.626,0,0,0-4.074,0,.809.809,0,0,0,.886,1.354,2.025,2.025,0,0,1,2.3,0,.809.809,0,1,0,.886-1.354Z" transform="translate(-218.922 -174.447)"/>
          <path id="Path_1219566" data-name="Path 1219566" d="M88.811,457.29A.809.809,0,0,0,88,458.1v4.283a.809.809,0,1,0,1.618,0V458.1A.809.809,0,0,0,88.811,457.29Z" transform="translate(-79.085 -407.971)"/>
        </g>
      </g>
    </g>
  </g>
</svg>
