<svg xmlns="http://www.w3.org/2000/svg" xmlns:xlink="http://www.w3.org/1999/xlink" width="113" height="113" viewBox="0 0 113 113">
  <defs>
    <filter id="Path_982547" x="0" y="0" width="113" height="113" filterUnits="userSpaceOnUse">
      <feOffset dy="3" input="SourceAlpha"/>
      <feGaussianBlur stdDeviation="3" result="blur"/>
      <feFlood flood-opacity="0.161"/>
      <feComposite operator="in" in2="blur"/>
      <feComposite in="SourceGraphic"/>
    </filter>
  </defs>
  <g id="Group_1233109" data-name="Group 1233109" transform="translate(1284.49 -3815.437)">
    <g id="Group_1230903" data-name="Group 1230903">
      <g id="Group_1228317" data-name="Group 1228317" transform="translate(-1660.49 -815.064)">
        <g id="Group_1228165" data-name="Group 1228165" transform="translate(0 2821)">
          <g id="Group_1223802" data-name="Group 1223802" transform="translate(385 1815.5)">
            <g id="Group_1208028" data-name="Group 1208028" transform="translate(0 0)">
              <g id="Group_1177675" data-name="Group 1177675" transform="translate(0 0)">
                <g id="Group_1176928" data-name="Group 1176928" transform="translate(0 0)">
                  <g id="Group_1172322" data-name="Group 1172322" transform="translate(0 0)">
                    <g id="Group_1164700" data-name="Group 1164700">
                      <g id="Group_1160931" data-name="Group 1160931">
                        <g id="Group_1160749" data-name="Group 1160749">
                          <g id="Group_1158891" data-name="Group 1158891">
                            <g id="Group_1157406" data-name="Group 1157406">
                              <g id="Group_1155793" data-name="Group 1155793">
                                <g id="Group_1154704" data-name="Group 1154704">
                                  <g id="Group_1150790" data-name="Group 1150790">
                                    <g id="Group_1154214" data-name="Group 1154214" transform="translate(0)">
                                      <g id="Group_1152583" data-name="Group 1152583">
                                        <g id="Group_1146973" data-name="Group 1146973">
                                          <g id="Group_1146954" data-name="Group 1146954">
                                            <g transform="matrix(1, 0, 0, 1, -9, -6)" filter="url(#Path_982547)">
                                              <g id="Path_982547-2" data-name="Path 982547" transform="translate(9 6)" fill="#ffe1b9">
                                                <path d="M 47.50000762939453 93.49986267089844 C 41.28937911987305 93.49986267089844 35.26534271240234 92.28383636474609 29.59519386291504 89.88558197021484 C 24.11772727966309 87.56880950927734 19.19814109802246 84.25183868408203 14.97310066223145 80.02679443359375 C 10.74804782867432 75.8017578125 7.431074142456055 70.88218688964844 5.114300727844238 65.40471649169922 C 2.716034412384033 59.73458480834961 1.500007629394531 53.71054458618164 1.500007629394531 47.49993133544922 C 1.500007629394531 41.2893180847168 2.716034412384033 35.26527786254883 5.114300727844238 29.59514427185059 C 7.431074142456055 24.11767768859863 10.74804782867432 19.19810485839844 14.97310066223145 14.97306442260742 C 19.19814109802246 10.74802494049072 24.11772727966309 7.431051254272461 29.59519386291504 5.114277839660645 C 35.26534271240234 2.71602463722229 41.28937911987305 1.499997973442078 47.50000762939453 1.499997973442078 C 53.71063613891602 1.499997973442078 59.73467254638672 2.71602463722229 65.40482330322266 5.114277839660645 C 70.88228607177734 7.431051254272461 75.80187225341797 10.74802494049072 80.02691650390625 14.97306442260742 C 84.25196838378906 19.19810485839844 87.56893920898438 24.11767768859863 89.88571166992188 29.59514427185059 C 92.28398132324219 35.26527786254883 93.50000762939453 41.2893180847168 93.50000762939453 47.49993133544922 C 93.50000762939453 53.71054458618164 92.28398132324219 59.73458480834961 89.88571166992188 65.40471649169922 C 87.56893920898438 70.88218688964844 84.25196838378906 75.8017578125 80.02691650390625 80.02679443359375 C 75.80187225341797 84.25183868408203 70.88228607177734 87.56880950927734 65.40482330322266 89.88558197021484 C 59.73467254638672 92.28383636474609 53.71063613891602 93.49986267089844 47.50000762939453 93.49986267089844 Z" stroke="none"/>
                                                <path d="M 47.50000762939453 2.999992370605469 C 41.4912223815918 2.999992370605469 35.66377639770508 4.1761474609375 30.17951202392578 6.495796203613281 C 24.88085174560547 8.736930847167969 20.12152862548828 11.94596099853516 16.03376007080078 16.03372955322266 C 11.94597625732422 20.12148284912109 8.736961364746094 24.88080596923828 6.495803833007812 30.17946624755859 C 4.176162719726562 35.66371536254883 3.000007629394531 41.49116134643555 3.000007629394531 47.49993133544922 C 3.000007629394531 53.50870132446289 4.176162719726562 59.33614730834961 6.495803833007812 64.82038879394531 C 8.736961364746094 70.11905670166016 11.94597625732422 74.87836456298828 16.03376007080078 78.96613311767578 C 20.12152862548828 83.05390167236328 24.88085174560547 86.26291656494141 30.17951202392578 88.50406646728516 C 35.66377639770508 90.82369995117188 41.4912223815918 91.99985504150391 47.50000762939453 91.99985504150391 C 53.50879287719727 91.99985504150391 59.33623886108398 90.82369995117188 64.82049560546875 88.50406646728516 C 70.11916351318359 86.26291656494141 74.87848663330078 83.05390167236328 78.96625518798828 78.96613311767578 C 83.05403900146484 74.87836456298828 86.26305389404297 70.11905670166016 88.50421142578125 64.82038879394531 C 90.8238525390625 59.33614730834961 92.00000762939453 53.50870132446289 92.00000762939453 47.49993133544922 C 92.00000762939453 41.49116134643555 90.8238525390625 35.66371536254883 88.50421142578125 30.17946624755859 C 86.26305389404297 24.88080596923828 83.05403900146484 20.12148284912109 78.96625518798828 16.03372955322266 C 74.87848663330078 11.94596099853516 70.11916351318359 8.736930847167969 64.82049560546875 6.495796203613281 C 59.33623886108398 4.1761474609375 53.50879287719727 2.999992370605469 47.50000762939453 2.999992370605469 M 47.50000762939453 -7.62939453125e-06 C 73.73352813720703 -7.62939453125e-06 95.00000762939453 21.26644134521484 95.00000762939453 47.49993133544922 C 95.00000762939453 73.73342132568359 73.73352813720703 94.99985504150391 47.50000762939453 94.99985504150391 C 21.26648712158203 94.99985504150391 7.62939453125e-06 73.73342132568359 7.62939453125e-06 47.49993133544922 C 7.62939453125e-06 21.26644134521484 21.26648712158203 -7.62939453125e-06 47.50000762939453 -7.62939453125e-06 Z" stroke="none" fill="#ff9d1c"/>
                                              </g>
                                            </g>
                                          </g>
                                        </g>
                                      </g>
                                    </g>
                                  </g>
                                </g>
                              </g>
                            </g>
                          </g>
                        </g>
                      </g>
                    </g>
                  </g>
                </g>
              </g>
            </g>
          </g>
        </g>
      </g>
      <g id="adaptar" transform="translate(-1264.539 3835.582)">
        <g id="Group_1230902" data-name="Group 1230902" transform="translate(7.344 5.078)">
          <path id="Path_1218786" data-name="Path 1218786" d="M285.074,60.808a.157.157,0,0,1-.165-.116,29.3,29.3,0,0,0-28.3-21.717v3.581a25.832,25.832,0,0,1,24.653,18.409.158.158,0,0,1-.138.2l-2.995.273a.158.158,0,0,0-.114.248L283.881,70a.157.157,0,0,0,.272-.025l4.264-9.231a.158.158,0,0,0-.157-.223Z" transform="translate(-227.328 -38.975)" fill="#fdb441"/>
          <path id="Path_1218787" data-name="Path 1218787" d="M44.745,83.554l4.263-9.231a.158.158,0,0,0-.157-.223l-10.126.922a.157.157,0,0,0-.114.248l1.845,2.614a.157.157,0,0,1-.017.2,29.3,29.3,0,0,0-4.66,35.364l3.1-1.791A25.832,25.832,0,0,1,42.5,81.1a.158.158,0,0,1,.244.018l1.734,2.457A.158.158,0,0,0,44.745,83.554Z" transform="translate(-31.855 -69.522)" fill="#fdb441"/>
          <path id="Path_1218788" data-name="Path 1218788" d="M148.491,374.293l1.261-2.73a.158.158,0,0,0-.157-.223l-10.126.924a.157.157,0,0,0-.114.248l5.862,8.308a.158.158,0,0,0,.272-.025l1.341-2.9a.156.156,0,0,1,.183-.086,29.3,29.3,0,0,0,32.955-13.647l-3.1-1.791A25.832,25.832,0,0,1,148.6,374.514.159.159,0,0,1,148.491,374.293Z" transform="translate(-125.323 -320.232)" fill="#fdb441"/>
        </g>
        <path id="Path_1218789" data-name="Path 1218789" d="M217.436,21.247H204.028a.169.169,0,0,1-.169-.169V7.669a.169.169,0,0,1,.169-.169h13.408a.169.169,0,0,1,.169.169V21.077A.17.17,0,0,1,217.436,21.247Z" transform="translate(-174.104 -6.523)" fill="#fe646f"/>
        <path id="Path_1218790" data-name="Path 1218790" d="M28.617,317.042H11.342a.169.169,0,0,1-.142-.262l8.638-13.267a.169.169,0,0,1,.284,0l8.638,13.267A.169.169,0,0,1,28.617,317.042Z" transform="translate(-6.523 -263.901)" fill="#8ac9fe"/>
        <path id="Path_1218791" data-name="Path 1218791" d="M388.421,337.157a7.364,7.364,0,1,1,7.364-7.364A7.364,7.364,0,0,1,388.421,337.157Z" transform="translate(-328.214 -280.418)" fill="#6fd7a3"/>
        <path id="Path_1218792" data-name="Path 1218792" d="M217.436,7.5h-5.043v7.135a4.006,4.006,0,0,1-4.006,4.006h-4.529v2.437a.169.169,0,0,0,.169.169h13.408a.169.169,0,0,0,.169-.169V7.669a.17.17,0,0,0-.169-.169Z" transform="translate(-174.104 -6.523)" fill="#fd4755"/>
        <path id="Path_1218793" data-name="Path 1218793" d="M28.758,316.781l-8.637-13.267a.169.169,0,0,0-.284,0L18.221,306l3.03,4.653a2.451,2.451,0,0,1-2.054,3.788H12.725L11.2,316.781a.169.169,0,0,0,.142.262H28.616A.169.169,0,0,0,28.758,316.781Z" transform="translate(-6.522 -263.901)" fill="#60b7ff"/>
        <path id="Path_1218794" data-name="Path 1218794" d="M400.412,322.519a7.365,7.365,0,0,1-5.631,12.111q-.211,0-.419-.012a7.364,7.364,0,1,0,6.049-12.1Z" transform="translate(-339.787 -280.497)" fill="#3ec3a4"/>
        <path id="Path_1218795" data-name="Path 1218795" d="M175.069,171.116l-2.989-.747a.094.094,0,0,1-.067-.064,11.708,11.708,0,0,0-.862-2.08.094.094,0,0,1,0-.093l1.586-2.643a.1.1,0,0,0-.014-.116l-3.595-3.595a.1.1,0,0,0-.116-.014l-2.643,1.586a.1.1,0,0,1-.093,0,11.705,11.705,0,0,0-2.08-.862.094.094,0,0,1-.064-.067l-.747-2.989a.1.1,0,0,0-.092-.072h-5.084a.1.1,0,0,0-.092.072l-.747,2.989a.094.094,0,0,1-.064.067,11.705,11.705,0,0,0-2.08.862.094.094,0,0,1-.093,0l-2.643-1.586a.1.1,0,0,0-.116.014l-3.595,3.595a.1.1,0,0,0-.014.116l1.586,2.643a.1.1,0,0,1,0,.093,11.708,11.708,0,0,0-.862,2.08.094.094,0,0,1-.067.064l-2.989.747a.1.1,0,0,0-.072.092v5.084a.1.1,0,0,0,.072.093l2.989.747a.094.094,0,0,1,.067.064,11.707,11.707,0,0,0,.862,2.08.094.094,0,0,1,0,.093l-1.586,2.643a.1.1,0,0,0,.014.116l3.595,3.595a.1.1,0,0,0,.116.014l2.643-1.586a.1.1,0,0,1,.093,0,11.706,11.706,0,0,0,2.08.862.094.094,0,0,1,.064.067l.747,2.989a.1.1,0,0,0,.092.072h5.084a.1.1,0,0,0,.092-.072l.747-2.989a.094.094,0,0,1,.064-.067,11.706,11.706,0,0,0,2.08-.862.094.094,0,0,1,.093,0l2.643,1.586a.1.1,0,0,0,.116-.014l3.595-3.595a.1.1,0,0,0,.014-.116l-1.586-2.643a.094.094,0,0,1,0-.093,11.707,11.707,0,0,0,.862-2.08.1.1,0,0,1,.067-.064l2.989-.747a.1.1,0,0,0,.072-.093v-5.084A.1.1,0,0,0,175.069,171.116Zm-14.318,7.854a5.4,5.4,0,1,1,5.4-5.4A5.4,5.4,0,0,1,160.751,178.969Z" transform="translate(-124.097 -138.597)" fill="#685e68"/>
        <path id="Path_1218796" data-name="Path 1218796" d="M191.019,171.116l-2.989-.747a.094.094,0,0,1-.067-.064,11.706,11.706,0,0,0-.862-2.08.094.094,0,0,1,0-.093l1.586-2.643a.1.1,0,0,0-.014-.116l-3.595-3.595a.1.1,0,0,0-.116-.014l-2.643,1.586a.1.1,0,0,1-.093,0,11.7,11.7,0,0,0-2.08-.862.094.094,0,0,1-.064-.067l-.747-2.989a.1.1,0,0,0-.092-.072h-5.084a.1.1,0,0,0-.092.072l-.049.2a11.617,11.617,0,1,1-8.614,21.234l-.69,1.149a.1.1,0,0,0,.014.116l3.595,3.595a.1.1,0,0,0,.116.014l2.643-1.586a.094.094,0,0,1,.093,0,11.7,11.7,0,0,0,2.08.862.094.094,0,0,1,.064.067l.747,2.989a.1.1,0,0,0,.092.072h5.084a.1.1,0,0,0,.092-.072l.747-2.989a.094.094,0,0,1,.064-.067,11.7,11.7,0,0,0,2.08-.862.094.094,0,0,1,.093,0l2.643,1.586a.1.1,0,0,0,.116-.014l3.595-3.595a.1.1,0,0,0,.014-.116l-1.586-2.643a.094.094,0,0,1,0-.093,11.7,11.7,0,0,0,.862-2.08.094.094,0,0,1,.067-.064l2.989-.747a.1.1,0,0,0,.072-.092v-5.084A.1.1,0,0,0,191.019,171.116Z" transform="translate(-140.047 -138.597)" fill="#554e56"/>
        <path id="Path_1218797" data-name="Path 1218797" d="M23.1,111.441a1.145,1.145,0,0,0-.047-1.172L14.418,97A1.146,1.146,0,0,0,12.5,97l-.1.149A24.866,24.866,0,0,1,18.018,76l1.146,1.624a1.135,1.135,0,0,0,1.957-.178l4.263-9.231a1.135,1.135,0,0,0-1.133-1.606l-10.125.922a1.135,1.135,0,0,0-.825,1.784l1.451,2.056A30.554,30.554,0,0,0,6.765,87.392a30.238,30.238,0,0,0,1.662,15.861l-4.568,7.016a1.146,1.146,0,0,0,.961,1.772H22.094a1.146,1.146,0,0,0,1.008-.6ZM8.693,87.708a28.563,28.563,0,0,1,7.924-15.453,1.132,1.132,0,0,0,.126-1.456l-1.026-1.454,7.3-.665-3.072,6.653-.915-1.3a1.136,1.136,0,0,0-1.751-.127,26.814,26.814,0,0,0-6.35,25.5L9.764,101.2a28.262,28.262,0,0,1-1.071-13.49ZM6.309,110.087l7.148-10.979L20.6,110.087Z" transform="translate(0 -57.923)"/>
        <path id="Path_1218798" data-name="Path 1218798" d="M171.667,314.929a8.343,8.343,0,0,0-2.511.385.977.977,0,0,0,.588,1.864,6.39,6.39,0,1,1-3.192,2.268.977.977,0,0,0-1.564-1.171,8.34,8.34,0,0,0-.783,8.719,24.761,24.761,0,0,1-20.917,5.526l.834-1.805a1.135,1.135,0,0,0-1.133-1.606l-2.842.259a.977.977,0,0,0,.178,1.946l1.428-.13-.666,1.441a1.136,1.136,0,0,0,.765,1.58,26.831,26.831,0,0,0,23.436-5.568,8.418,8.418,0,0,0,1.179,1.149,28.083,28.083,0,0,1-8.372,4.953,28.421,28.421,0,0,1-17.345.864,1.132,1.132,0,0,0-1.324.619l-.746,1.615-4.225-5.988,1.3-.118a.977.977,0,1,0-.177-1.946l-2.712.247a1.135,1.135,0,0,0-.824,1.784l5.862,8.308a1.135,1.135,0,0,0,1.957-.178l1.055-2.284a30.384,30.384,0,0,0,17.871-1.094,30.045,30.045,0,0,0,9.424-5.708,8.341,8.341,0,1,0,3.46-15.931Z" transform="translate(-111.46 -273.896)"/>
        <path id="Path_1218799" data-name="Path 1218799" d="M236.8,26.122a1.139,1.139,0,0,0-1.03-.475l-2.506.228A30.261,30.261,0,0,0,212.06,5.14V1.147A1.148,1.148,0,0,0,210.914,0H197.506a1.148,1.148,0,0,0-1.147,1.147V4.19a.977.977,0,0,0,1.954,0V1.954h11.792V13.747H198.313v-5a.977.977,0,0,0-1.954,0v5.8a1.148,1.148,0,0,0,1.147,1.147h13.408a1.148,1.148,0,0,0,1.146-1.147V10.93a25.014,25.014,0,0,1,15.561,15.46l-1.979.18a1.135,1.135,0,0,0-.825,1.784l5.864,8.308a1.135,1.135,0,0,0,1.957-.179l4.264-9.231a1.138,1.138,0,0,0-.1-1.13Zm-5.34,8.253-4.226-5.987,1.581-.144a1.136,1.136,0,0,0,.986-1.452,26.639,26.639,0,0,0-6.94-11.473,26.986,26.986,0,0,0-10.8-6.443V7.169a28.3,28.3,0,0,1,19.5,19.878,1.131,1.131,0,0,0,1.2.837l1.772-.162Z" transform="translate(-167.581)"/>
        <path id="Path_1218800" data-name="Path 1218800" d="M214.264,232.276a6.374,6.374,0,1,0-6.373-6.374A6.381,6.381,0,0,0,214.264,232.276Zm0-10.793a4.419,4.419,0,1,1-4.419,4.419A4.424,4.424,0,0,1,214.264,221.483Z" transform="translate(-177.61 -190.926)"/>
        <path id="Path_1218801" data-name="Path 1218801" d="M141.405,159.469l1.335,2.225a12.722,12.722,0,0,0-.548,1.322l-2.518.63a1.071,1.071,0,0,0-.811,1.04v5.084a1.07,1.07,0,0,0,.812,1.04l2.516.629a12.743,12.743,0,0,0,.548,1.322l-1.334,2.223a1.07,1.07,0,0,0,.161,1.311l3.595,3.595a1.071,1.071,0,0,0,1.31.161l2.225-1.335a12.744,12.744,0,0,0,1.323.548l.629,2.517a1.071,1.071,0,0,0,1.04.812h5.084a1.072,1.072,0,0,0,1.041-.812l.629-2.516a12.728,12.728,0,0,0,1.322-.548l2.225,1.335a1.072,1.072,0,0,0,1.31-.161l3.595-3.595a1.071,1.071,0,0,0,.161-1.31l-1.335-2.225a12.757,12.757,0,0,0,.548-1.322l2.516-.629a1.071,1.071,0,0,0,.813-1.04v-5.084a1.071,1.071,0,0,0-.81-1.04h0l-2.516-.629a12.738,12.738,0,0,0-.548-1.322l1.336-2.227a1.072,1.072,0,0,0-.162-1.308l-3.595-3.595a1.072,1.072,0,0,0-1.31-.161l-2.225,1.335a12.731,12.731,0,0,0-1.322-.548l-.63-2.518a1.072,1.072,0,0,0-1.04-.81h-5.084a1.071,1.071,0,0,0-1.041.812l-.629,2.516a12.73,12.73,0,0,0-1.323.548L146.47,154.4a1.071,1.071,0,0,0-1.308.162l-3.595,3.595a1.071,1.071,0,0,0-.161,1.31Zm3.261,1.637-1.231-2.052,2.621-2.621,2.054,1.232a1.078,1.078,0,0,0,1.054.026,10.749,10.749,0,0,1,1.905-.79,1.078,1.078,0,0,0,.727-.765l.58-2.321h3.707l.58,2.32a1.077,1.077,0,0,0,.727.766,10.753,10.753,0,0,1,1.909.792,1.078,1.078,0,0,0,1.052-.029l2.052-1.231,2.621,2.621-1.232,2.054a1.08,1.08,0,0,0-.026,1.054,10.755,10.755,0,0,1,.79,1.906,1.076,1.076,0,0,0,.765.727l2.321.58v3.707l-2.319.58a1.076,1.076,0,0,0-.767.727,10.752,10.752,0,0,1-.791,1.907,1.078,1.078,0,0,0,.028,1.054l1.231,2.052-2.621,2.621-2.054-1.232a1.079,1.079,0,0,0-1.054-.026,10.755,10.755,0,0,1-1.906.79,1.077,1.077,0,0,0-.727.765l-.58,2.321h-3.707l-.58-2.322a1.077,1.077,0,0,0-.726-.764,10.758,10.758,0,0,1-1.906-.79,1.079,1.079,0,0,0-1.055.027l-2.052,1.232-2.621-2.621,1.231-2.052a1.076,1.076,0,0,0,.027-1.055,10.752,10.752,0,0,1-.79-1.9,1.076,1.076,0,0,0-.765-.728l-2.321-.58v-3.707l2.32-.58a1.076,1.076,0,0,0,.766-.727,10.761,10.761,0,0,1,.79-1.906,1.076,1.076,0,0,0-.027-1.055Z" transform="translate(-117.576 -132.074)"/>
      </g>
    </g>
  </g>
</svg>
