<svg xmlns="http://www.w3.org/2000/svg" xmlns:xlink="http://www.w3.org/1999/xlink" width="106.16" height="106.16" viewBox="0 0 106.16 106.16">
  <defs>
    <filter id="Path_982547" x="0" y="-0.001" width="106.16" height="106.16" filterUnits="userSpaceOnUse">
      <feOffset dy="3" input="SourceAlpha"/>
      <feGaussianBlur stdDeviation="3" result="blur"/>
      <feFlood flood-opacity="0.161"/>
      <feComposite operator="in" in2="blur"/>
      <feComposite in="SourceGraphic"/>
    </filter>
  </defs>
  <g id="Group_1233127" data-name="Group 1233127" transform="translate(-190.42 -8655.027)">
    <g id="Group_1232985" data-name="Group 1232985">
      <g id="Group_1228508" data-name="Group 1228508" transform="translate(-420.5 6773.958)">
        <g id="Group_1206132" data-name="Group 1206132" transform="translate(0 -58.931)">
          <g id="Group_1203794" data-name="Group 1203794" transform="translate(0 -4639.878)">
            <g id="Group_1203345" data-name="Group 1203345" transform="translate(338.92 5174.875)">
              <g id="Group_1177900" data-name="Group 1177900" transform="translate(281 1411.003)">
                <g id="Group_1172010" data-name="Group 1172010" transform="translate(0)">
                  <g id="Group_1171046" data-name="Group 1171046">
                    <g id="Group_1148525" data-name="Group 1148525">
                      <g transform="matrix(1, 0, 0, 1, -9, -6)" filter="url(#Path_982547)">
                        <g id="Path_982547-2" data-name="Path 982547" transform="translate(9 6)" fill="#e9f9fd">
                          <path d="M 44.0802001953125 86.660400390625 C 38.33124923706055 86.660400390625 32.75506210327148 85.53479766845703 27.50652503967285 83.31484985351562 C 22.43628692626953 81.17032623291016 17.88242530822754 78.09992218017578 13.97144985198975 74.18894958496094 C 10.06047534942627 70.27797698974609 6.99007511138916 65.72411346435547 4.845550060272217 60.65387344360352 C 2.625600099563599 55.40533828735352 1.500000238418579 49.82915115356445 1.500000238418579 44.0802001953125 C 1.500000238418579 38.33124923706055 2.625600099563599 32.75506210327148 4.845550060272217 27.50652503967285 C 6.99007511138916 22.43628692626953 10.06047534942627 17.88242530822754 13.97144985198975 13.97144985198975 C 17.88242530822754 10.06047534942627 22.43628692626953 6.99007511138916 27.50652503967285 4.845550060272217 C 32.75506210327148 2.625600099563599 38.33124923706055 1.500000238418579 44.0802001953125 1.500000238418579 C 49.82915115356445 1.500000238418579 55.40533828735352 2.625600099563599 60.65387344360352 4.845550060272217 C 65.72411346435547 6.99007511138916 70.27797698974609 10.06047534942627 74.18894958496094 13.97144985198975 C 78.09992218017578 17.88242530822754 81.17032623291016 22.43628692626953 83.31484985351562 27.50652503967285 C 85.53479766845703 32.75506210327148 86.660400390625 38.33124923706055 86.660400390625 44.0802001953125 C 86.660400390625 49.82915115356445 85.53479766845703 55.40533828735352 83.31484985351562 60.65387344360352 C 81.17032623291016 65.72411346435547 78.09992218017578 70.27797698974609 74.18894958496094 74.18894958496094 C 70.27797698974609 78.09992218017578 65.72411346435547 81.17032623291016 60.65387344360352 83.31484985351562 C 55.40533828735352 85.53479766845703 49.82915115356445 86.660400390625 44.0802001953125 86.660400390625 Z" stroke="none"/>
                          <path d="M 44.0802001953125 3 C 38.53308486938477 3 33.15349960327148 4.085746765136719 28.09085845947266 6.227058410644531 C 23.19941711425781 8.29595947265625 18.80581665039062 11.25841522216797 15.03211212158203 15.03211212158203 C 11.25841522216797 18.80581665039062 8.29595947265625 23.19941711425781 6.227058410644531 28.09085845947266 C 4.085746765136719 33.15349960327148 3 38.53308486938477 3 44.0802001953125 C 3 49.62731552124023 4.085746765136719 55.00691604614258 6.227058410644531 60.06954193115234 C 8.29595947265625 64.96098327636719 11.25841522216797 69.35458374023438 15.03211212158203 73.12828826904297 C 18.80581665039062 76.90198516845703 23.19941711425781 79.86444091796875 28.09085845947266 81.93334197998047 C 33.15349960327148 84.07466125488281 38.53308486938477 85.160400390625 44.0802001953125 85.160400390625 C 49.62731552124023 85.160400390625 55.00691604614258 84.07466125488281 60.06954193115234 81.93334197998047 C 64.96099853515625 79.86444091796875 69.35458374023438 76.90198516845703 73.12828826904297 73.12828826904297 C 76.90198516845703 69.35458374023438 79.86444091796875 64.96099853515625 81.93334197998047 60.06954193115234 C 84.07466125488281 55.00691604614258 85.160400390625 49.62731552124023 85.160400390625 44.0802001953125 C 85.160400390625 38.53308486938477 84.07466125488281 33.15349960327148 81.93334197998047 28.09085845947266 C 79.86444091796875 23.19941711425781 76.90198516845703 18.80581665039062 73.12828826904297 15.03211212158203 C 69.35458374023438 11.25841522216797 64.96098327636719 8.29595947265625 60.06954193115234 6.227058410644531 C 55.00691604614258 4.085746765136719 49.62731552124023 3 44.0802001953125 3 M 44.0802001953125 0 C 68.42502593994141 0 88.160400390625 19.73538970947266 88.160400390625 44.0802001953125 C 88.160400390625 68.42502593994141 68.42502593994141 88.160400390625 44.0802001953125 88.160400390625 C 19.73538970947266 88.160400390625 0 68.42502593994141 0 44.0802001953125 C 0 19.73538970947266 19.73538970947266 0 44.0802001953125 0 Z" stroke="none" fill="#1d7083"/>
                        </g>
                      </g>
                    </g>
                  </g>
                </g>
              </g>
            </g>
          </g>
        </g>
      </g>
      <g id="sistematico" transform="translate(207.758 8673.807)">
        <g id="Group_1232984" data-name="Group 1232984" transform="translate(19.816 8.419)">
          <path id="Path_1219487" data-name="Path 1219487" d="M137.433,258.351a4.388,4.388,0,0,1-7.073-1.467c-3.558-.661-5.469-3.247-5.186-6.171A4.041,4.041,0,0,1,122.591,245c-2.094-3.072-1.117-8.017,2.556-9.427-.064-2.745,1.829-5.114,5.212-5.742a4.388,4.388,0,0,1,7.073-1.467,4.387,4.387,0,0,1,7.073,1.467c3.383.628,5.276,3,5.212,5.742,3.673,1.411,4.65,6.356,2.556,9.427a4.041,4.041,0,0,1-2.582,5.709c.282,2.924-1.628,5.51-5.186,6.171a4.387,4.387,0,0,1-7.073,1.467Z" transform="translate(-121.505 -205.127)" fill="#ff6b84" fill-rule="evenodd"/>
          <path id="Path_1219488" data-name="Path 1219488" d="M344.41,43.914l1.49-1,2.356,2.356-1,1.49.992,2.395,1.76.347v3.332l-1.76.347-.992,2.395,1,1.49L345.9,59.422l-1.49-1-2.394.992-.347,1.76h-3.332l-.347-1.76-2.395-.992-1.49,1-2.356-2.356,1-1.49-.992-2.395L330,52.834V49.5l1.76-.347.992-2.395-1-1.49,2.356-2.356,1.49,1,2.395-.992.347-1.76h3.332l.347,1.76Z" transform="translate(-305.307 -41.162)" fill="#f9ac00" fill-rule="evenodd"/>
          <path id="Path_1219489" data-name="Path 1219489" d="M344.41,43.914l.846-.567,1.925,1.925-1,1.49.992,2.394,1.76.347v3.332l-1.76.347-.992,2.395,1,1.49-1.925,1.925-.846-.568-.871-.584-2.491,1.032-.454,2.3h-2.257l-.347-1.76-2.395-.992-.891-.369-1.177.79-1.777-1.777,1-1.49-.992-2.395L330,52.834V49.5l1.76-.347.992-2.394-1-1.49,1.777-1.777,1.177.79.891-.369,2.395-.992.347-1.76h2.257l.454,2.3,2.491,1.032Z" transform="translate(-305.307 -41.162)" fill="#fcdb35" fill-rule="evenodd"/>
        </g>
        <circle id="Ellipse_11580" data-name="Ellipse 11580" cx="5.132" cy="5.132" r="5.132" transform="translate(46.894 15.636) rotate(-22.514)" fill="#f9ac00"/>
        <circle id="Ellipse_11581" data-name="Ellipse 11581" cx="5.132" cy="5.132" r="5.132" transform="translate(49.38 13.294)" fill="#fff"/>
        <path id="Path_1219490" data-name="Path 1219490" d="M27.427,43.914l1.49-1,2.356,2.356-1,1.49.992,2.395,1.76.347v3.332l-1.76.347-.992,2.395,1,1.49-2.356,2.356-1.49-1-2.394.992-.347,1.76H21.353l-.347-1.76-2.395-.992-1.49,1-2.356-2.356,1-1.49-.992-2.395-1.76-.347V49.5l1.76-.347.992-2.395-1-1.49,2.356-2.356,1.49,1,2.395-.992.347-1.76h3.332l.347,1.76Z" transform="translate(-6.045 -32.743)" fill="#1176e8" fill-rule="evenodd"/>
        <path id="Path_1219491" data-name="Path 1219491" d="M27.427,43.914l.846-.567L30.2,45.271l-1,1.49.992,2.394,1.76.347v3.332l-1.76.347L29.2,55.576l1,1.49-1.925,1.925-.846-.568-.871-.584-2.491,1.032-.454,2.3H21.353l-.347-1.76-2.395-.992-.891-.369-1.177.79-1.777-1.777,1-1.49-.992-2.395-1.76-.347V49.5l1.76-.347.992-2.394-1-1.49,1.777-1.777,1.177.79.891-.369,2.395-.992.347-1.76H23.61l.454,2.3L26.556,44.5Z" transform="translate(-6.045 -32.743)" fill="#4eb1fc" fill-rule="evenodd"/>
        <circle id="Ellipse_11582" data-name="Ellipse 11582" cx="5.132" cy="5.132" r="5.132" transform="translate(9.352 15.648) rotate(-22.514)" fill="#1176e8"/>
        <circle id="Ellipse_11583" data-name="Ellipse 11583" cx="5.132" cy="5.132" r="5.132" transform="translate(11.843 13.294)" fill="#fff"/>
        <path id="Path_1219492" data-name="Path 1219492" d="M13.645,39.574a.828.828,0,1,0-1.486.733l.9,1.836a.829.829,0,1,0,1.487-.733ZM36.781,4.021H34.713a.829.829,0,0,0,.011,1.658H36.77a.829.829,0,0,0,.011-1.658ZM16.357,44.229a.829.829,0,0,0-1.288,1.044l1.289,1.589a.829.829,0,1,0,1.287-1.044l-1.288-1.59Zm-3.847-7.806-.476-1.99a.829.829,0,0,0-1.613.385l.476,1.99a.829.829,0,0,0,1.613-.385ZM10.8,31.947a.83.83,0,0,0,.82-.838L11.6,29.063a.828.828,0,0,0-.829-.82h-.008a.83.83,0,0,0-.821.838l.023,2.046a.829.829,0,0,0,.829.82H10.8ZM60.45,33.828a.831.831,0,0,0-1,.613l-.476,1.99a.827.827,0,0,0,.612,1,.843.843,0,0,0,.195.023.83.83,0,0,0,.805-.636l.477-1.99a.829.829,0,0,0-.613-1Zm.277-5.575h-.01a.829.829,0,0,0-.829.819l-.023,2.046a.828.828,0,0,0,.819.839h.01a.83.83,0,0,0,.829-.82l.023-2.046a.828.828,0,0,0-.819-.838ZM58.945,39.2a.828.828,0,0,0-1.11.376l-.907,1.835a.829.829,0,1,0,1.486.734l.907-1.835A.828.828,0,0,0,58.945,39.2Zm-2.66,4.909a.828.828,0,0,0-1.165.12l-1.291,1.588a.829.829,0,0,0,1.287,1.046l1.29-1.588a.829.829,0,0,0-.121-1.166ZM45.256,7.608l1.845.885A.829.829,0,1,0,47.817,7l-1.845-.885a.829.829,0,1,0-.716,1.495Zm-21.285,1a.827.827,0,0,0,.36-.083l1.842-.89a.829.829,0,1,0-.721-1.493l-1.842.89a.829.829,0,0,0,.361,1.575ZM40.1,6.052l2,.454a.864.864,0,0,0,.185.021.829.829,0,0,0,.183-1.637l-1.995-.454A.829.829,0,0,0,40.1,6.052Zm-10.95.493a.838.838,0,0,0,.186-.021l1.994-.459a.829.829,0,1,0-.372-1.615l-1.994.459a.829.829,0,0,0,.186,1.637Zm-7.88,11.88a4.294,4.294,0,1,0-4.294,4.293A4.3,4.3,0,0,0,21.268,18.426Zm-4.294,5.952a5.952,5.952,0,1,1,5.952-5.952A5.959,5.959,0,0,1,16.974,24.377Zm1.692,1.514a.83.83,0,0,0-.5.606l-.215,1.089H15.992L15.778,26.5a.828.828,0,0,0-.5-.606l-2.39-.99a.825.825,0,0,0-.778.077l-.921.618L9.8,24.208l.618-.921a.828.828,0,0,0,.077-.779l-.99-2.39a.828.828,0,0,0-.605-.5l-1.088-.215V17.444L8.9,17.23a.83.83,0,0,0,.605-.5l.99-2.39a.829.829,0,0,0-.077-.779L9.8,12.643l1.389-1.388.921.618a.826.826,0,0,0,.778.078l2.39-.99a.828.828,0,0,0,.5-.606l.214-1.088h1.964l.215,1.088a.829.829,0,0,0,.5.606l2.391.99a.827.827,0,0,0,.778-.078l.921-.618,1.389,1.388-.618.921a.829.829,0,0,0-.077.779l.99,2.39a.831.831,0,0,0,.605.5l1.089.215v1.964l-1.089.215a.831.831,0,0,0-.605.5l-.99,2.39a.828.828,0,0,0,.077.779l.618.921L22.756,25.6l-.921-.618a.827.827,0,0,0-.778-.077Zm-.03,3.352H15.311a.829.829,0,0,1-.813-.668l-.26-1.321-1.57-.65-1.119.75a.828.828,0,0,1-1.047-.1L8.148,24.9a.83.83,0,0,1-.1-1.048l.75-1.119-.65-1.57L6.824,20.9a.828.828,0,0,1-.668-.813V16.762a.828.828,0,0,1,.668-.813l1.322-.26.65-1.57L8.046,13a.829.829,0,0,1,.1-1.047L10.5,9.6a.828.828,0,0,1,1.047-.1l1.119.75,1.57-.651.26-1.321a.829.829,0,0,1,.813-.669h3.325a.829.829,0,0,1,.814.669l.26,1.321,1.57.651L22.4,9.5a.828.828,0,0,1,1.047.1L25.8,11.952A.829.829,0,0,1,25.9,13l-.749,1.119.65,1.57,1.321.26a.828.828,0,0,1,.668.813v3.327a.828.828,0,0,1-.668.813l-1.321.261-.65,1.57.749,1.119a.83.83,0,0,1-.1,1.048l-2.353,2.352a.828.828,0,0,1-1.047.1l-1.119-.75-1.57.65-.26,1.321a.829.829,0,0,1-.814.668ZM58.8,18.426a4.294,4.294,0,1,0-4.294,4.293A4.3,4.3,0,0,0,58.8,18.426Zm1.658,0a5.952,5.952,0,1,1-5.952-5.952A5.958,5.958,0,0,1,60.462,18.426Zm3.209-.982v1.964l-1.089.215a.831.831,0,0,0-.606.5l-.99,2.39a.83.83,0,0,0,.076.779l.619.921L60.294,25.6l-.921-.618a.829.829,0,0,0-.779-.077l-2.391.99a.827.827,0,0,0-.495.606l-.216,1.089H53.528L53.314,26.5a.826.826,0,0,0-.5-.606l-2.39-.99a.826.826,0,0,0-.779.077l-.921.618L47.34,24.208l.617-.921a.83.83,0,0,0,.078-.779l-.991-2.39a.825.825,0,0,0-.605-.5l-1.088-.215V17.444l1.088-.215a.825.825,0,0,0,.605-.5l.991-2.39a.83.83,0,0,0-.078-.779l-.617-.921,1.388-1.388.921.618a.828.828,0,0,0,.779.078l2.39-.99a.826.826,0,0,0,.5-.606l.214-1.088h1.964l.216,1.088a.827.827,0,0,0,.495.606l2.391.99a.829.829,0,0,0,.779-.078l.921-.618,1.388,1.388-.619.921a.83.83,0,0,0-.076.779l.99,2.39a.831.831,0,0,0,.606.5Zm1.658-.682v3.327a.829.829,0,0,1-.669.813l-1.321.261-.65,1.57.749,1.119a.828.828,0,0,1-.1,1.048l-2.352,2.352a.83.83,0,0,1-1.048.1l-1.119-.75-1.569.65-.261,1.321a.829.829,0,0,1-.813.668H52.848a.83.83,0,0,1-.813-.668l-.26-1.321L50.2,26.6l-1.118.75a.83.83,0,0,1-1.048-.1L45.686,24.9a.829.829,0,0,1-.1-1.048l.751-1.119-.652-1.57-1.32-.261a.829.829,0,0,1-.67-.813V16.763a.829.829,0,0,1,.67-.813l1.32-.26.652-1.57L45.583,13a.828.828,0,0,1,.1-1.047L48.037,9.6a.829.829,0,0,1,1.048-.1l1.118.75L51.774,9.6l.26-1.321a.83.83,0,0,1,.813-.669h3.327a.83.83,0,0,1,.813.669L57.249,9.6l1.569.651,1.119-.75a.829.829,0,0,1,1.048.1l2.352,2.352a.827.827,0,0,1,.1,1.047l-.749,1.119.65,1.57,1.321.26a.829.829,0,0,1,.669.813ZM30.3,43.353a.829.829,0,1,0-1.048,1.284,2.6,2.6,0,0,1,0,4.028A.829.829,0,0,0,30.3,49.949a4.258,4.258,0,0,0,0-6.6Zm19,4.519a3.211,3.211,0,0,0-.918-.667.829.829,0,1,1,.721-1.493,4.867,4.867,0,0,1,1.387,1,6.1,6.1,0,0,0,.112-3.861,5.017,5.017,0,0,0-1.879-2.7,8.031,8.031,0,0,1-.765,2.078.829.829,0,0,1-1.466-.774A5.172,5.172,0,0,0,46.8,36.81a4.988,4.988,0,0,0-2.833-2.52,5.067,5.067,0,0,1,.009.99,5.248,5.248,0,0,1-3.8,4.568.829.829,0,1,1-.445-1.6,3.563,3.563,0,1,0-3.16-6.232v2.951a4.2,4.2,0,0,1,2.1-1.013.829.829,0,0,1,.278,1.634,3.1,3.1,0,0,0-2.382,3.12v22.57a3.563,3.563,0,1,0,3.16-6.232.829.829,0,1,1,.445-1.6,5.248,5.248,0,0,1,3.8,4.569,5.055,5.055,0,0,1-.009.989,4.991,4.991,0,0,0,2.821-2.494,5.158,5.158,0,0,0-.3-4.672.829.829,0,0,1,1.466-.775,7.967,7.967,0,0,1,.688,1.784,3.214,3.214,0,0,0,.655-4.98ZM34.913,61.28a3.562,3.562,0,1,1-3.16-6.23.829.829,0,0,0-.445-1.6,5.218,5.218,0,0,0-3.793,5.558,4.987,4.987,0,0,1-2.832-2.522A5.171,5.171,0,0,1,25,51.844a.829.829,0,0,0-1.466-.775,8.135,8.135,0,0,0-.694,1.781,3.218,3.218,0,0,1,.27-5.645.829.829,0,1,0-.721-1.493,4.877,4.877,0,0,0-1.387,1,6.087,6.087,0,0,1-.105-3.883,5.017,5.017,0,0,1,1.872-2.68,8.063,8.063,0,0,0,.765,2.078.83.83,0,0,0,.734.442.817.817,0,0,0,.386-.1A.828.828,0,0,0,25,41.458a5.174,5.174,0,0,1-.311-4.65,4.991,4.991,0,0,1,2.831-2.518,5.218,5.218,0,0,0,3.793,5.558.819.819,0,0,0,.223.031.829.829,0,0,0,.223-1.628,3.562,3.562,0,1,1,3.16-6.229V54.59A3.1,3.1,0,0,1,32.53,57.71a.829.829,0,0,0,.139,1.646.855.855,0,0,0,.141-.012,4.2,4.2,0,0,0,2.1-1.013V61.28ZM51.535,48.364a4.873,4.873,0,0,1-2.67,6.231,6.19,6.19,0,0,1-.574,2.626,6.912,6.912,0,0,1-4.9,3.7,5.221,5.221,0,0,1-7.646,1.815A5.256,5.256,0,0,1,32.7,63.7a5.183,5.183,0,0,1-4.6-2.782,6.906,6.906,0,0,1-4.921-3.734,6.192,6.192,0,0,1-.568-2.591,4.877,4.877,0,0,1-2.658-6.228,7.658,7.658,0,0,1-.644-6.013,6.515,6.515,0,0,1,3.315-4.033,6.188,6.188,0,0,1,.558-2.206A6.907,6.907,0,0,1,28.1,32.384a5.21,5.21,0,0,1,7.647-1.813,5.209,5.209,0,0,1,7.646,1.813,6.908,6.908,0,0,1,4.918,3.731,6.171,6.171,0,0,1,.556,2.2,6.524,6.524,0,0,1,3.324,4.061,7.665,7.665,0,0,1-.652,5.984ZM41.279,46.651a2.594,2.594,0,0,0,.956,2.014.829.829,0,0,1-1.049,1.284,4.258,4.258,0,0,1,0-6.6.829.829,0,1,1,1.049,1.284A2.6,2.6,0,0,0,41.279,46.651Z" transform="translate(0 0)" fill-rule="evenodd"/>
      </g>
    </g>
  </g>
</svg>
