<svg xmlns="http://www.w3.org/2000/svg" xmlns:xlink="http://www.w3.org/1999/xlink" width="113" height="113" viewBox="0 0 113 113">
  <defs>
    <filter id="Path_982547" x="0" y="0" width="113" height="113" filterUnits="userSpaceOnUse">
      <feOffset dy="3" input="SourceAlpha"/>
      <feGaussianBlur stdDeviation="3" result="blur"/>
      <feFlood flood-opacity="0.161"/>
      <feComposite operator="in" in2="blur"/>
      <feComposite in="SourceGraphic"/>
    </filter>
  </defs>
  <g id="Group_1233106" data-name="Group 1233106" transform="translate(-691 -3402.436)">
    <g id="Group_1230874" data-name="Group 1230874">
      <g id="Group_1228313" data-name="Group 1228313" transform="translate(0 -1228.064)">
        <g id="Group_1228166" data-name="Group 1228166" transform="translate(-1 2821)">
          <g id="Group_1223803" data-name="Group 1223803" transform="translate(701 1815.5)">
            <g id="Group_1208038" data-name="Group 1208038" transform="translate(0 0)">
              <g id="Group_1202104" data-name="Group 1202104">
                <g id="Group_1201923" data-name="Group 1201923" transform="translate(0 0)">
                  <g id="Group_1176928" data-name="Group 1176928" transform="translate(0 0)">
                    <g id="Group_1172322" data-name="Group 1172322" transform="translate(0 0)">
                      <g id="Group_1164700" data-name="Group 1164700">
                        <g id="Group_1160931" data-name="Group 1160931">
                          <g id="Group_1160749" data-name="Group 1160749">
                            <g id="Group_1158891" data-name="Group 1158891">
                              <g id="Group_1157406" data-name="Group 1157406">
                                <g id="Group_1155793" data-name="Group 1155793">
                                  <g id="Group_1154704" data-name="Group 1154704">
                                    <g id="Group_1150790" data-name="Group 1150790">
                                      <g id="Group_1154214" data-name="Group 1154214" transform="translate(0)">
                                        <g id="Group_1152583" data-name="Group 1152583">
                                          <g id="Group_1146973" data-name="Group 1146973">
                                            <g id="Group_1146954" data-name="Group 1146954">
                                              <g transform="matrix(1, 0, 0, 1, -9, -6)" filter="url(#Path_982547)">
                                                <g id="Path_982547-2" data-name="Path 982547" transform="translate(9 6)" fill="#ffe1b9">
                                                  <path d="M 47.50000762939453 93.49986267089844 C 41.28937911987305 93.49986267089844 35.26534271240234 92.28383636474609 29.59519386291504 89.88558197021484 C 24.11772727966309 87.56880950927734 19.19814109802246 84.25183868408203 14.97310066223145 80.02679443359375 C 10.74804782867432 75.8017578125 7.431074142456055 70.88218688964844 5.114300727844238 65.40471649169922 C 2.716034412384033 59.73458480834961 1.500007629394531 53.71054458618164 1.500007629394531 47.49993133544922 C 1.500007629394531 41.2893180847168 2.716034412384033 35.26527786254883 5.114300727844238 29.59514427185059 C 7.431074142456055 24.11767768859863 10.74804782867432 19.19810485839844 14.97310066223145 14.97306442260742 C 19.19814109802246 10.74802494049072 24.11772727966309 7.431051254272461 29.59519386291504 5.114277839660645 C 35.26534271240234 2.71602463722229 41.28937911987305 1.499997973442078 47.50000762939453 1.499997973442078 C 53.71063613891602 1.499997973442078 59.73467254638672 2.71602463722229 65.40482330322266 5.114277839660645 C 70.88228607177734 7.431051254272461 75.80187225341797 10.74802494049072 80.02691650390625 14.97306442260742 C 84.25196838378906 19.19810485839844 87.56893920898438 24.11767768859863 89.88571166992188 29.59514427185059 C 92.28398132324219 35.26527786254883 93.50000762939453 41.2893180847168 93.50000762939453 47.49993133544922 C 93.50000762939453 53.71054458618164 92.28398132324219 59.73458480834961 89.88571166992188 65.40471649169922 C 87.56893920898438 70.88218688964844 84.25196838378906 75.8017578125 80.02691650390625 80.02679443359375 C 75.80187225341797 84.25183868408203 70.88228607177734 87.56880950927734 65.40482330322266 89.88558197021484 C 59.73467254638672 92.28383636474609 53.71063613891602 93.49986267089844 47.50000762939453 93.49986267089844 Z" stroke="none"/>
                                                  <path d="M 47.50000762939453 2.999992370605469 C 41.4912223815918 2.999992370605469 35.66377639770508 4.1761474609375 30.17951202392578 6.495796203613281 C 24.88085174560547 8.736930847167969 20.12152862548828 11.94596099853516 16.03376007080078 16.03372955322266 C 11.94597625732422 20.12148284912109 8.736961364746094 24.88080596923828 6.495803833007812 30.17946624755859 C 4.176162719726562 35.66371536254883 3.000007629394531 41.49116134643555 3.000007629394531 47.49993133544922 C 3.000007629394531 53.50870132446289 4.176162719726562 59.33614730834961 6.495803833007812 64.82038879394531 C 8.736961364746094 70.11905670166016 11.94597625732422 74.87836456298828 16.03376007080078 78.96613311767578 C 20.12152862548828 83.05390167236328 24.88085174560547 86.26291656494141 30.17951202392578 88.50406646728516 C 35.66377639770508 90.82369995117188 41.4912223815918 91.99985504150391 47.50000762939453 91.99985504150391 C 53.50879287719727 91.99985504150391 59.33623886108398 90.82369995117188 64.82049560546875 88.50406646728516 C 70.11916351318359 86.26291656494141 74.87848663330078 83.05390167236328 78.96625518798828 78.96613311767578 C 83.05403900146484 74.87836456298828 86.26305389404297 70.11905670166016 88.50421142578125 64.82038879394531 C 90.8238525390625 59.33614730834961 92.00000762939453 53.50870132446289 92.00000762939453 47.49993133544922 C 92.00000762939453 41.49116134643555 90.8238525390625 35.66371536254883 88.50421142578125 30.17946624755859 C 86.26305389404297 24.88080596923828 83.05403900146484 20.12148284912109 78.96625518798828 16.03372955322266 C 74.87848663330078 11.94596099853516 70.11916351318359 8.736930847167969 64.82049560546875 6.495796203613281 C 59.33623886108398 4.1761474609375 53.50879287719727 2.999992370605469 47.50000762939453 2.999992370605469 M 47.50000762939453 -7.62939453125e-06 C 73.73352813720703 -7.62939453125e-06 95.00000762939453 21.26644134521484 95.00000762939453 47.49993133544922 C 95.00000762939453 73.73342132568359 73.73352813720703 94.99985504150391 47.50000762939453 94.99985504150391 C 21.26648712158203 94.99985504150391 7.62939453125e-06 73.73342132568359 7.62939453125e-06 47.49993133544922 C 7.62939453125e-06 21.26644134521484 21.26648712158203 -7.62939453125e-06 47.50000762939453 -7.62939453125e-06 Z" stroke="none" fill="#ff9d1c"/>
                                                </g>
                                              </g>
                                            </g>
                                          </g>
                                        </g>
                                      </g>
                                    </g>
                                  </g>
                                </g>
                              </g>
                            </g>
                          </g>
                        </g>
                      </g>
                    </g>
                  </g>
                </g>
              </g>
            </g>
          </g>
        </g>
      </g>
      <g id="toma-de-decisiones" transform="translate(710.921 3425.621)">
        <g id="Group_1230872" data-name="Group 1230872" transform="translate(7.989 0.887)">
          <g id="Group_1230864" data-name="Group 1230864" transform="translate(31.095 24.905)">
            <path id="Path_1218714" data-name="Path 1218714" d="M291.111,226.795l9.562-8.263a1.774,1.774,0,0,1,2.644,2.314l-7.925,12.11a7.562,7.562,0,0,1-3.687,2.943l-2.6.969v10.568H277.522V236.487a6.938,6.938,0,0,1,2.528-5.357l7.376-6.074a2.253,2.253,0,0,1,3.685,1.738Z" transform="translate(-277.522 -218.1)" fill="#ffe6c6"/>
          </g>
          <g id="Group_1230865" data-name="Group 1230865" transform="translate(0 24.905)">
            <path id="Path_1218715" data-name="Path 1218715" d="M27.078,226.795a2.253,2.253,0,0,1,3.685-1.738l7.376,6.074a6.938,6.938,0,0,1,2.528,5.357v10.947s-11.459-.125-11.585,0,0-10.566,0-10.566l-2.6-.969a7.562,7.562,0,0,1-3.687-2.943l-7.925-12.11a1.774,1.774,0,0,1,2.644-2.314Z" transform="translate(-14.582 -218.1)" fill="#ffe6c6"/>
          </g>
          <path id="Path_1218716" data-name="Path 1218716" d="M40.081,240.3H33.109a1.832,1.832,0,0,1-1.832-1.849c0-.331.006-.643.009-.93a2.477,2.477,0,0,0-1.613-2.346l-.968-.361a7.562,7.562,0,0,1-3.687-2.943l-7.925-12.11a1.766,1.766,0,0,1-.29-.97,1.79,1.79,0,0,1,.107-.6,1.774,1.774,0,0,0-2.038,2.657l7.925,12.11a7.562,7.562,0,0,0,3.687,2.943l2.6.969s-.125,10.692,0,10.566a16.539,16.539,0,0,1,1.824-.053h.173c1.733-.008,4.275.007,6.306.023h0c1.046.008,1.957.017,2.551.023l.18,0h.123l.3,0h.124v-7.08A3.158,3.158,0,0,0,40.081,240.3Z" transform="translate(-14.582 -193.195)" fill="#f8d3aa"/>
          <path id="Path_1218717" data-name="Path 1218717" d="M140.632,429.823v-7.647a1.365,1.365,0,0,0-1.365-1.365H128.436a1.365,1.365,0,0,0-1.365,1.365v7.647a.966.966,0,0,0,.966.966h11.629A.966.966,0,0,0,140.632,429.823Z" transform="translate(-113.768 -371.933)" fill="#f9f7f7"/>
          <path id="Path_1218718" data-name="Path 1218718" d="M132.377,428.871a2.25,2.25,0,0,1-2.25-2.25V420.81h-1.692a1.365,1.365,0,0,0-1.365,1.365v7.647a.966.966,0,0,0,.966.966h11.629a.966.966,0,0,0,.966-.966v-.951h-8.254Z" transform="translate(-113.767 -371.932)" fill="#f2eae7"/>
          <g id="Group_1230871" data-name="Group 1230871" transform="translate(0.477)">
            <g id="XMLID_179_" transform="translate(31.239 31.347)">
              <g id="Group_1230867" data-name="Group 1230867">
                <g id="XMLID_180_">
                  <g id="Group_1230866" data-name="Group 1230866">
                    <path id="Path_1218719" data-name="Path 1218719" d="M333.8,280.313l-1.547,1.337s0,0,0,0l-8.071,6.994a3.612,3.612,0,0,0,4.895-.263l3.771-3.879a4.037,4.037,0,0,0,.953-4.185Z" transform="translate(-319.285 -279.397)" fill="#f8d3aa"/>
                    <path id="Path_1218720" data-name="Path 1218720" d="M295.08,273.228a2.254,2.254,0,0,1,0,3.187l-8,8.275-4.312-3.044a6.932,6.932,0,0,1,1.908-2.489l7.376-6.074a2.252,2.252,0,0,1,3.025.145Z" transform="translate(-282.772 -272.568)" fill="#ffe6c6"/>
                  </g>
                </g>
              </g>
            </g>
            <g id="XMLID_177_" transform="translate(10.246 31.347)">
              <g id="Group_1230869" data-name="Group 1230869">
                <g id="XMLID_178_">
                  <g id="Group_1230868" data-name="Group 1230868">
                    <path id="Path_1218721" data-name="Path 1218721" d="M113.935,288.574l-7.01-7.009-1.448-1.251a4.037,4.037,0,0,0,.953,4.186l3.919,3.966A2.6,2.6,0,0,0,113.935,288.574Z" transform="translate(-105.251 -279.398)" fill="#f8d3aa"/>
                    <path id="Path_1218722" data-name="Path 1218722" d="M132.874,280.979l-4.195,3.711-4.857-5.365-2.91-2.909a2.253,2.253,0,0,1,3.025-3.333l7.376,6.074A6.97,6.97,0,0,1,132.874,280.979Z" transform="translate(-118.478 -272.568)" fill="#ffe6c6"/>
                  </g>
                </g>
              </g>
            </g>
            <circle id="Ellipse_11559" data-name="Ellipse 11559" cx="13.162" cy="13.162" r="13.162" fill="#9de5d1"/>
            <g id="Group_1230870" data-name="Group 1230870" transform="translate(7.541 8.233)">
              <path id="Path_1218723" data-name="Path 1218723" d="M86.7,87.461a1.768,1.768,0,0,1-1.22-.486L82.541,84.19a.5.5,0,0,1-.019-.713l1.747-1.843a.5.5,0,0,1,.713-.019l1.311,1.242A.5.5,0,0,0,87,82.843L92.45,77.27a.5.5,0,0,1,.713-.008l1.816,1.776a.5.5,0,0,1,.008.713l-7.019,7.177A1.769,1.769,0,0,1,86.7,87.461Z" transform="translate(-82.383 -77.118)" fill="#f9f7f7"/>
            </g>
            <circle id="Ellipse_11560" data-name="Ellipse 11560" cx="13.162" cy="13.162" r="13.162" transform="translate(29.903)" fill="#ee878a"/>
            <path id="Path_1218724" data-name="Path 1218724" d="M23.367,20.905A13.165,13.165,0,0,1,34.814,7.854a13.162,13.162,0,1,0-1.326,25.861A13.167,13.167,0,0,1,23.367,20.905Z" transform="translate(-18.613 -7.501)" fill="#82dec5"/>
            <path id="Path_1218725" data-name="Path 1218725" d="M276.227,20.9A13.166,13.166,0,0,1,287.676,7.853a13.162,13.162,0,1,0-1.329,25.861,13.166,13.166,0,0,1-10.12-12.81Z" transform="translate(-241.57 -7.5)" fill="#ec6e73"/>
            <path id="Path_1218726" data-name="Path 1218726" d="M335.45,69.4l3.773-3.684a.5.5,0,0,0,.008-.706L337.2,62.929a.5.5,0,0,0-.706-.008l-3.839,3.749-3.841-3.75a.5.5,0,0,0-.706.008l-2.034,2.083a.5.5,0,0,0,.008.706l3.774,3.685-3.774,3.685a.5.5,0,0,0-.008.706l2.034,2.083a.5.5,0,0,0,.706.008l3.841-3.75,3.839,3.749a.5.5,0,0,0,.706-.008l2.034-2.083a.5.5,0,0,0-.008-.706Z" transform="translate(-289.585 -56.24)" fill="#f9f7f7"/>
          </g>
          <path id="Path_1218727" data-name="Path 1218727" d="M282.749,280.086l7.376-6.074a2.264,2.264,0,0,1,.651-.376,2.252,2.252,0,0,0-3.349-.554l-7.376,6.074a6.938,6.938,0,0,0-2.528,5.357v10.948h11.585V288.33c-.055,0-7.369,0-7.369,0a1.518,1.518,0,0,1-1.518-1.518v-1.364A6.94,6.94,0,0,1,282.749,280.086Z" transform="translate(-246.427 -241.221)" fill="#f8d3aa"/>
          <path id="Path_1218728" data-name="Path 1218728" d="M284.5,429.823v-7.647a1.365,1.365,0,0,0-1.365-1.365H272.307a1.365,1.365,0,0,0-1.365,1.365v7.647a.966.966,0,0,0,.966.966h11.629A.966.966,0,0,0,284.5,429.823Z" transform="translate(-240.625 -371.933)" fill="#f9f7f7"/>
          <path id="Path_1218729" data-name="Path 1218729" d="M275.931,428.872A1.932,1.932,0,0,1,274,426.94v-6.129h-1.692a1.365,1.365,0,0,0-1.365,1.365v7.647a.966.966,0,0,0,.966.966h11.629a.966.966,0,0,0,.966-.966v-.951Z" transform="translate(-240.625 -371.933)" fill="#f2eae7"/>
        </g>
        <g id="Group_1230873" data-name="Group 1230873" transform="translate(7.105 0)">
          <path id="Path_1218730" data-name="Path 1218730" d="M291.165,211.288a2.674,2.674,0,0,0-3.487-.007l-8.518,7.36a3.142,3.142,0,0,0-4.714-.85l-7.376,6.074a7.8,7.8,0,0,0-2.851,6.042v5.252a2.246,2.246,0,0,0-.778,1.7v8.613a.887.887,0,0,0,1.774,0v-8.613a.479.479,0,0,1,.478-.478h10.831a.479.479,0,0,1,.478.478v8.613a.887.887,0,0,0,1.774,0v-8.613a2.253,2.253,0,0,0-1.2-1.989V230.9l2.021-.753a8.389,8.389,0,0,0,4.12-3.29l7.925-12.109A2.671,2.671,0,0,0,291.165,211.288Zm-1.005,2.492-7.925,12.109a6.628,6.628,0,0,1-3.255,2.6l-3.527,1.313a.887.887,0,0,0,.31,1.718l.041,0v3.088h-9.812v-4.7a6.033,6.033,0,0,1,2.205-4.672l7.376-6.074a1.366,1.366,0,0,1,1.834,2.021l-2.91,2.91a.887.887,0,1,0,1.254,1.254l2.91-2.91a3.117,3.117,0,0,0,.89-1.789l9.286-8.023a.887.887,0,0,1,1.322,1.157Z" transform="translate(-233.126 -185.728)"/>
          <path id="Path_1218731" data-name="Path 1218731" d="M34.962,235.158v-5.252a7.809,7.809,0,0,0-2.793-5.991.887.887,0,0,0-1.141,1.358,6.039,6.039,0,0,1,2.16,4.633v4.7H23.377v-3.087l.041,0a.887.887,0,0,0,.31-1.718L20.2,228.487a6.627,6.627,0,0,1-3.255-2.6L9.021,213.779a.887.887,0,0,1,1.322-1.157l9.287,8.025a3.123,3.123,0,0,0,.888,1.787l2.91,2.91a.887.887,0,1,0,1.254-1.254l-2.91-2.91a1.366,1.366,0,0,1,1.834-2.021l4.446,3.662a.887.887,0,0,0,1.128-1.369l-4.446-3.662a3.139,3.139,0,0,0-4.713.851L11.5,211.28a2.661,2.661,0,0,0-3.966,3.471l7.925,12.109a8.389,8.389,0,0,0,4.12,3.29l2.021.753v3.966a2.253,2.253,0,0,0-1.2,1.989v8.613a.887.887,0,1,0,1.774,0v-8.613a.479.479,0,0,1,.478-.478H33.488a.479.479,0,0,1,.478.478v8.613a.887.887,0,1,0,1.774,0v-8.613A2.246,2.246,0,0,0,34.962,235.158Z" transform="translate(-7.105 -185.726)"/>
          <path id="Path_1218732" data-name="Path 1218732" d="M25.162,28.1A14.049,14.049,0,1,0,11.113,14.049,14.065,14.065,0,0,0,25.162,28.1Zm0-26.324A12.275,12.275,0,1,1,12.887,14.049,12.289,12.289,0,0,1,25.162,1.774Z" transform="translate(-10.639 0)"/>
          <path id="Path_1218733" data-name="Path 1218733" d="M78.263,81.007A2.661,2.661,0,0,0,82,80.936L83.88,79.01a.887.887,0,1,0-1.268-1.24L80.727,79.7a.887.887,0,0,1-1.244.024L76.822,77.2l1.22-1.288,1.033.979a1.4,1.4,0,0,0,1.951-.037l5.184-5.3,1.268,1.24-2.224,2.275a.887.887,0,1,0,1.268,1.24l2.492-2.548a1.391,1.391,0,0,0-.022-1.967l-1.816-1.775a1.391,1.391,0,0,0-1.967.022l-5.188,5.3-1.037-.983a1.391,1.391,0,0,0-1.967.053l-1.747,1.843a1.393,1.393,0,0,0,.053,1.967Z" transform="translate(-66.875 -61.387)"/>
          <path id="Path_1218734" data-name="Path 1218734" d="M278.022,28.1a14.062,14.062,0,0,0,9.024-3.282.887.887,0,1,0-1.14-1.359,12.265,12.265,0,1,1,2.353-2.634.887.887,0,1,0,1.478.98A14.05,14.05,0,1,0,278.022,28.1Z" transform="translate(-233.596 0)"/>
          <path id="Path_1218735" data-name="Path 1218735" d="M333.251,57.779,331.216,55.7a1.386,1.386,0,0,0-1.96-.023l-3.219,3.144-3.221-3.145a1.386,1.386,0,0,0-1.96.024l-2.034,2.083a1.386,1.386,0,0,0,.023,1.96l3.124,3.051-3.124,3.051a1.386,1.386,0,0,0-.023,1.96l2.034,2.083a1.377,1.377,0,0,0,.975.418h.017a1.377,1.377,0,0,0,.968-.394l3.221-3.145,3.22,3.144a1.386,1.386,0,0,0,1.96-.024l2.034-2.083a1.388,1.388,0,0,0-.023-1.96L330.1,62.789l3.123-3.049a1.388,1.388,0,0,0,.023-1.96Zm-5.035,4.375a.887.887,0,0,0,0,1.269l3.5,3.413-1.493,1.529-3.562-3.478a.887.887,0,0,0-1.239,0l-3.563,3.48-1.493-1.529,3.5-3.415a.887.887,0,0,0,0-1.269l-3.5-3.415,1.493-1.529,3.563,3.48a.887.887,0,0,0,1.239,0l3.562-3.478,1.493,1.529Z" transform="translate(-281.61 -48.74)"/>
        </g>
      </g>
    </g>
  </g>
</svg>
